<svg xmlns="http://www.w3.org/2000/svg" xmlns:xlink="http://www.w3.org/1999/xlink" version="1.2" width="215.90mm" height="279.40mm" viewBox="0 0 122.8590 158.9940">
<style text="style/css">
<![CDATA[
tspan { white-space: pre; }
]]>
</style>
<!-- Page: 15/19 -->
<text transform="translate(7.2270, 8.8659)" font-family="serif" font-size="2.2001" text-anchor="start" fill="currentColor">
<tspan/>
</text>
<text transform="translate(112.8322, 8.8659)" font-family="serif" font-size="2.2001" text-anchor="start" fill="currentColor">
<tspan>15</tspan>
</text>
<rect transform="translate(7.2270, 18.0660)" x="68.1883" y="-0.1000" width="2.9430" height="0.2000" ry="0.1000" fill="currentColor"/>
<line transform="translate(72.3718, 146.9189)" stroke-linejoin="round" stroke-linecap="round" stroke-width="0.1000" stroke="currentColor" x1="0.0500" y1="-0.0000" x2="37.0102" y2="-0.0000"/>
<line transform="translate(72.3718, 145.9189)" stroke-linejoin="round" stroke-linecap="round" stroke-width="0.1000" stroke="currentColor" x1="0.0500" y1="-0.0000" x2="37.0102" y2="-0.0000"/>
<line transform="translate(72.3718, 144.9189)" stroke-linejoin="round" stroke-linecap="round" stroke-width="0.1000" stroke="currentColor" x1="0.0500" y1="-0.0000" x2="37.0102" y2="-0.0000"/>
<line transform="translate(72.3718, 143.9189)" stroke-linejoin="round" stroke-linecap="round" stroke-width="0.1000" stroke="currentColor" x1="0.0500" y1="-0.0000" x2="37.0102" y2="-0.0000"/>
<line transform="translate(72.3718, 142.9189)" stroke-linejoin="round" stroke-linecap="round" stroke-width="0.1000" stroke="currentColor" x1="0.0500" y1="-0.0000" x2="37.0102" y2="-0.0000"/>
<line transform="translate(72.3718, 23.0660)" stroke-linejoin="round" stroke-linecap="round" stroke-width="0.1000" stroke="currentColor" x1="0.0500" y1="-0.0000" x2="37.0102" y2="-0.0000"/>
<line transform="translate(72.3718, 22.0660)" stroke-linejoin="round" stroke-linecap="round" stroke-width="0.1000" stroke="currentColor" x1="0.0500" y1="-0.0000" x2="37.0102" y2="-0.0000"/>
<line transform="translate(72.3718, 21.0660)" stroke-linejoin="round" stroke-linecap="round" stroke-width="0.1000" stroke="currentColor" x1="0.0500" y1="-0.0000" x2="37.0102" y2="-0.0000"/>
<line transform="translate(72.3718, 20.0660)" stroke-linejoin="round" stroke-linecap="round" stroke-width="0.1000" stroke="currentColor" x1="0.0500" y1="-0.0000" x2="37.0102" y2="-0.0000"/>
<line transform="translate(72.3718, 19.0660)" stroke-linejoin="round" stroke-linecap="round" stroke-width="0.1000" stroke="currentColor" x1="0.0500" y1="-0.0000" x2="37.0102" y2="-0.0000"/>
<rect transform="translate(7.2270, 123.2257)" x="63.8960" y="-0.1000" width="2.9430" height="0.2000" ry="0.1000" fill="currentColor"/>
<rect transform="translate(7.2270, 124.2257)" x="63.8960" y="-0.1000" width="2.9430" height="0.2000" ry="0.1000" fill="currentColor"/>
<rect transform="translate(7.2270, 124.2257)" x="50.3967" y="-0.1000" width="1.8967" height="0.2000" ry="0.1000" fill="currentColor"/>
<rect transform="translate(7.2270, 124.2257)" x="37.1731" y="-0.1000" width="2.0660" height="0.2000" ry="0.1000" fill="currentColor"/>
<rect transform="translate(7.2270, 41.7593)" x="50.3967" y="-0.1000" width="1.8967" height="0.2000" ry="0.1000" fill="currentColor"/>
<line transform="translate(39.9561, 129.2257)" stroke-linejoin="round" stroke-linecap="round" stroke-width="0.1000" stroke="currentColor" x1="0.0500" y1="-0.0000" x2="45.2463" y2="-0.0000"/>
<line transform="translate(39.9561, 128.2257)" stroke-linejoin="round" stroke-linecap="round" stroke-width="0.1000" stroke="currentColor" x1="0.0500" y1="-0.0000" x2="45.2463" y2="-0.0000"/>
<line transform="translate(39.9561, 127.2257)" stroke-linejoin="round" stroke-linecap="round" stroke-width="0.1000" stroke="currentColor" x1="0.0500" y1="-0.0000" x2="45.2463" y2="-0.0000"/>
<line transform="translate(39.9561, 126.2257)" stroke-linejoin="round" stroke-linecap="round" stroke-width="0.1000" stroke="currentColor" x1="0.0500" y1="-0.0000" x2="45.2463" y2="-0.0000"/>
<line transform="translate(39.9561, 125.2257)" stroke-linejoin="round" stroke-linecap="round" stroke-width="0.1000" stroke="currentColor" x1="0.0500" y1="-0.0000" x2="45.2463" y2="-0.0000"/>
<line transform="translate(39.9561, 40.7593)" stroke-linejoin="round" stroke-linecap="round" stroke-width="0.1000" stroke="currentColor" x1="0.0500" y1="-0.0000" x2="45.2463" y2="-0.0000"/>
<line transform="translate(39.9561, 39.7593)" stroke-linejoin="round" stroke-linecap="round" stroke-width="0.1000" stroke="currentColor" x1="0.0500" y1="-0.0000" x2="45.2463" y2="-0.0000"/>
<line transform="translate(39.9561, 38.7593)" stroke-linejoin="round" stroke-linecap="round" stroke-width="0.1000" stroke="currentColor" x1="0.0500" y1="-0.0000" x2="45.2463" y2="-0.0000"/>
<line transform="translate(39.9561, 37.7593)" stroke-linejoin="round" stroke-linecap="round" stroke-width="0.1000" stroke="currentColor" x1="0.0500" y1="-0.0000" x2="45.2463" y2="-0.0000"/>
<line transform="translate(39.9561, 36.7593)" stroke-linejoin="round" stroke-linecap="round" stroke-width="0.1000" stroke="currentColor" x1="0.0500" y1="-0.0000" x2="45.2463" y2="-0.0000"/>
<line transform="translate(81.9874, 93.8391)" stroke-linejoin="round" stroke-linecap="round" stroke-width="0.1000" stroke="currentColor" x1="0.0500" y1="-0.0000" x2="13.4604" y2="-0.0000"/>
<line transform="translate(81.9874, 92.8391)" stroke-linejoin="round" stroke-linecap="round" stroke-width="0.1000" stroke="currentColor" x1="0.0500" y1="-0.0000" x2="13.4604" y2="-0.0000"/>
<line transform="translate(81.9874, 91.8391)" stroke-linejoin="round" stroke-linecap="round" stroke-width="0.1000" stroke="currentColor" x1="0.0500" y1="-0.0000" x2="13.4604" y2="-0.0000"/>
<line transform="translate(81.9874, 90.8391)" stroke-linejoin="round" stroke-linecap="round" stroke-width="0.1000" stroke="currentColor" x1="0.0500" y1="-0.0000" x2="13.4604" y2="-0.0000"/>
<line transform="translate(81.9874, 89.8391)" stroke-linejoin="round" stroke-linecap="round" stroke-width="0.1000" stroke="currentColor" x1="0.0500" y1="-0.0000" x2="13.4604" y2="-0.0000"/>
<line transform="translate(29.7690, 91.6391)" stroke-linejoin="round" stroke-linecap="round" stroke-width="0.1000" stroke="currentColor" x1="0.0500" y1="-0.0000" x2="55.4334" y2="-0.0000"/>
<line transform="translate(29.7690, 91.7391)" stroke-linejoin="round" stroke-linecap="round" stroke-width="0.1000" stroke="currentColor" x1="0.0500" y1="-0.0000" x2="55.4334" y2="-0.0000"/>
<line transform="translate(29.7690, 91.8391)" stroke-linejoin="round" stroke-linecap="round" stroke-width="0.1000" stroke="currentColor" x1="0.0500" y1="-0.0000" x2="55.4334" y2="-0.0000"/>
<line transform="translate(29.7690, 91.9391)" stroke-linejoin="round" stroke-linecap="round" stroke-width="0.1000" stroke="currentColor" x1="0.0500" y1="-0.0000" x2="55.4334" y2="-0.0000"/>
<line transform="translate(29.7690, 92.0391)" stroke-linejoin="round" stroke-linecap="round" stroke-width="0.1000" stroke="currentColor" x1="0.0500" y1="-0.0000" x2="55.4334" y2="-0.0000"/>
<line transform="translate(17.6636, 109.3324)" stroke-linejoin="round" stroke-linecap="round" stroke-width="0.1000" stroke="currentColor" x1="0.0500" y1="-0.0000" x2="67.5388" y2="-0.0000"/>
<line transform="translate(17.6636, 109.4324)" stroke-linejoin="round" stroke-linecap="round" stroke-width="0.1000" stroke="currentColor" x1="0.0500" y1="-0.0000" x2="67.5388" y2="-0.0000"/>
<line transform="translate(17.6636, 109.5324)" stroke-linejoin="round" stroke-linecap="round" stroke-width="0.1000" stroke="currentColor" x1="0.0500" y1="-0.0000" x2="67.5388" y2="-0.0000"/>
<line transform="translate(17.6636, 109.6324)" stroke-linejoin="round" stroke-linecap="round" stroke-width="0.1000" stroke="currentColor" x1="0.0500" y1="-0.0000" x2="67.5388" y2="-0.0000"/>
<line transform="translate(17.6636, 109.7324)" stroke-linejoin="round" stroke-linecap="round" stroke-width="0.1000" stroke="currentColor" x1="0.0500" y1="-0.0000" x2="67.5388" y2="-0.0000"/>
<line transform="translate(17.6636, 93.8391)" stroke-linejoin="round" stroke-linecap="round" stroke-width="0.1000" stroke="currentColor" x1="0.0500" y1="-0.0000" x2="12.0554" y2="-0.0000"/>
<line transform="translate(17.6636, 92.8391)" stroke-linejoin="round" stroke-linecap="round" stroke-width="0.1000" stroke="currentColor" x1="0.0500" y1="-0.0000" x2="12.0554" y2="-0.0000"/>
<line transform="translate(17.6636, 91.8391)" stroke-linejoin="round" stroke-linecap="round" stroke-width="0.1000" stroke="currentColor" x1="0.0500" y1="-0.0000" x2="12.0554" y2="-0.0000"/>
<line transform="translate(17.6636, 90.8391)" stroke-linejoin="round" stroke-linecap="round" stroke-width="0.1000" stroke="currentColor" x1="0.0500" y1="-0.0000" x2="12.0554" y2="-0.0000"/>
<line transform="translate(17.6636, 89.8391)" stroke-linejoin="round" stroke-linecap="round" stroke-width="0.1000" stroke="currentColor" x1="0.0500" y1="-0.0000" x2="12.0554" y2="-0.0000"/>
<line transform="translate(8.8232, 111.5324)" stroke-linejoin="round" stroke-linecap="round" stroke-width="0.1000" stroke="currentColor" x1="0.0500" y1="-0.0000" x2="11.3554" y2="-0.0000"/>
<line transform="translate(8.8232, 110.5324)" stroke-linejoin="round" stroke-linecap="round" stroke-width="0.1000" stroke="currentColor" x1="0.0500" y1="-0.0000" x2="11.3554" y2="-0.0000"/>
<line transform="translate(8.8232, 109.5324)" stroke-linejoin="round" stroke-linecap="round" stroke-width="0.1000" stroke="currentColor" x1="0.0500" y1="-0.0000" x2="11.3554" y2="-0.0000"/>
<line transform="translate(8.8232, 108.5324)" stroke-linejoin="round" stroke-linecap="round" stroke-width="0.1000" stroke="currentColor" x1="0.0500" y1="-0.0000" x2="11.3554" y2="-0.0000"/>
<line transform="translate(8.8232, 107.5324)" stroke-linejoin="round" stroke-linecap="round" stroke-width="0.1000" stroke="currentColor" x1="0.0500" y1="-0.0000" x2="11.3554" y2="-0.0000"/>
<line transform="translate(81.9874, 111.5324)" stroke-linejoin="round" stroke-linecap="round" stroke-width="0.1000" stroke="currentColor" x1="0.0500" y1="-0.0000" x2="13.4604" y2="-0.0000"/>
<line transform="translate(81.9874, 110.5324)" stroke-linejoin="round" stroke-linecap="round" stroke-width="0.1000" stroke="currentColor" x1="0.0500" y1="-0.0000" x2="13.4604" y2="-0.0000"/>
<line transform="translate(81.9874, 109.5324)" stroke-linejoin="round" stroke-linecap="round" stroke-width="0.1000" stroke="currentColor" x1="0.0500" y1="-0.0000" x2="13.4604" y2="-0.0000"/>
<line transform="translate(81.9874, 108.5324)" stroke-linejoin="round" stroke-linecap="round" stroke-width="0.1000" stroke="currentColor" x1="0.0500" y1="-0.0000" x2="13.4604" y2="-0.0000"/>
<line transform="translate(81.9874, 107.5324)" stroke-linejoin="round" stroke-linecap="round" stroke-width="0.1000" stroke="currentColor" x1="0.0500" y1="-0.0000" x2="13.4604" y2="-0.0000"/>
<line transform="translate(95.4978, 91.6391)" stroke-linejoin="round" stroke-linecap="round" stroke-width="0.1000" stroke="currentColor" x1="0.0500" y1="-0.0000" x2="20.0842" y2="-0.0000"/>
<line transform="translate(95.4978, 91.7391)" stroke-linejoin="round" stroke-linecap="round" stroke-width="0.1000" stroke="currentColor" x1="0.0500" y1="-0.0000" x2="20.0842" y2="-0.0000"/>
<line transform="translate(95.4978, 91.8391)" stroke-linejoin="round" stroke-linecap="round" stroke-width="0.1000" stroke="currentColor" x1="0.0500" y1="-0.0000" x2="20.0842" y2="-0.0000"/>
<line transform="translate(95.4978, 91.9391)" stroke-linejoin="round" stroke-linecap="round" stroke-width="0.1000" stroke="currentColor" x1="0.0500" y1="-0.0000" x2="20.0842" y2="-0.0000"/>
<line transform="translate(95.4978, 92.0391)" stroke-linejoin="round" stroke-linecap="round" stroke-width="0.1000" stroke="currentColor" x1="0.0500" y1="-0.0000" x2="20.0842" y2="-0.0000"/>
<line transform="translate(7.2270, 109.3324)" stroke-linejoin="round" stroke-linecap="round" stroke-width="0.1000" stroke="currentColor" x1="0.0500" y1="-0.0000" x2="4.1113" y2="-0.0000"/>
<line transform="translate(7.2270, 109.4324)" stroke-linejoin="round" stroke-linecap="round" stroke-width="0.1000" stroke="currentColor" x1="0.0500" y1="-0.0000" x2="4.1113" y2="-0.0000"/>
<line transform="translate(7.2270, 109.5324)" stroke-linejoin="round" stroke-linecap="round" stroke-width="0.1000" stroke="currentColor" x1="0.0500" y1="-0.0000" x2="4.1113" y2="-0.0000"/>
<line transform="translate(7.2270, 109.6324)" stroke-linejoin="round" stroke-linecap="round" stroke-width="0.1000" stroke="currentColor" x1="0.0500" y1="-0.0000" x2="4.1113" y2="-0.0000"/>
<line transform="translate(7.2270, 109.7324)" stroke-linejoin="round" stroke-linecap="round" stroke-width="0.1000" stroke="currentColor" x1="0.0500" y1="-0.0000" x2="4.1113" y2="-0.0000"/>
<line transform="translate(7.2270, 91.6391)" stroke-linejoin="round" stroke-linecap="round" stroke-width="0.1000" stroke="currentColor" x1="0.0500" y1="-0.0000" x2="12.9516" y2="-0.0000"/>
<line transform="translate(7.2270, 91.7391)" stroke-linejoin="round" stroke-linecap="round" stroke-width="0.1000" stroke="currentColor" x1="0.0500" y1="-0.0000" x2="12.9516" y2="-0.0000"/>
<line transform="translate(7.2270, 91.8391)" stroke-linejoin="round" stroke-linecap="round" stroke-width="0.1000" stroke="currentColor" x1="0.0500" y1="-0.0000" x2="12.9516" y2="-0.0000"/>
<line transform="translate(7.2270, 91.9391)" stroke-linejoin="round" stroke-linecap="round" stroke-width="0.1000" stroke="currentColor" x1="0.0500" y1="-0.0000" x2="12.9516" y2="-0.0000"/>
<line transform="translate(7.2270, 92.0391)" stroke-linejoin="round" stroke-linecap="round" stroke-width="0.1000" stroke="currentColor" x1="0.0500" y1="-0.0000" x2="12.9516" y2="-0.0000"/>
<line transform="translate(7.2270, 73.9458)" stroke-linejoin="round" stroke-linecap="round" stroke-width="0.1000" stroke="currentColor" x1="0.0500" y1="-0.0000" x2="108.3550" y2="-0.0000"/>
<line transform="translate(7.2270, 74.0458)" stroke-linejoin="round" stroke-linecap="round" stroke-width="0.1000" stroke="currentColor" x1="0.0500" y1="-0.0000" x2="108.3550" y2="-0.0000"/>
<line transform="translate(7.2270, 74.1458)" stroke-linejoin="round" stroke-linecap="round" stroke-width="0.1000" stroke="currentColor" x1="0.0500" y1="-0.0000" x2="108.3550" y2="-0.0000"/>
<line transform="translate(7.2270, 74.2458)" stroke-linejoin="round" stroke-linecap="round" stroke-width="0.1000" stroke="currentColor" x1="0.0500" y1="-0.0000" x2="108.3550" y2="-0.0000"/>
<line transform="translate(7.2270, 74.3458)" stroke-linejoin="round" stroke-linecap="round" stroke-width="0.1000" stroke="currentColor" x1="0.0500" y1="-0.0000" x2="108.3550" y2="-0.0000"/>
<line transform="translate(7.2270, 56.2525)" stroke-linejoin="round" stroke-linecap="round" stroke-width="0.1000" stroke="currentColor" x1="0.0500" y1="-0.0000" x2="108.3550" y2="-0.0000"/>
<line transform="translate(7.2270, 56.3525)" stroke-linejoin="round" stroke-linecap="round" stroke-width="0.1000" stroke="currentColor" x1="0.0500" y1="-0.0000" x2="108.3550" y2="-0.0000"/>
<line transform="translate(7.2270, 56.4525)" stroke-linejoin="round" stroke-linecap="round" stroke-width="0.1000" stroke="currentColor" x1="0.0500" y1="-0.0000" x2="108.3550" y2="-0.0000"/>
<line transform="translate(7.2270, 56.5525)" stroke-linejoin="round" stroke-linecap="round" stroke-width="0.1000" stroke="currentColor" x1="0.0500" y1="-0.0000" x2="108.3550" y2="-0.0000"/>
<line transform="translate(7.2270, 56.6525)" stroke-linejoin="round" stroke-linecap="round" stroke-width="0.1000" stroke="currentColor" x1="0.0500" y1="-0.0000" x2="108.3550" y2="-0.0000"/>
<line transform="translate(95.4978, 109.3324)" stroke-linejoin="round" stroke-linecap="round" stroke-width="0.1000" stroke="currentColor" x1="0.0500" y1="-0.0000" x2="20.0842" y2="-0.0000"/>
<line transform="translate(95.4978, 109.4324)" stroke-linejoin="round" stroke-linecap="round" stroke-width="0.1000" stroke="currentColor" x1="0.0500" y1="-0.0000" x2="20.0842" y2="-0.0000"/>
<line transform="translate(95.4978, 109.5324)" stroke-linejoin="round" stroke-linecap="round" stroke-width="0.1000" stroke="currentColor" x1="0.0500" y1="-0.0000" x2="20.0842" y2="-0.0000"/>
<line transform="translate(95.4978, 109.6324)" stroke-linejoin="round" stroke-linecap="round" stroke-width="0.1000" stroke="currentColor" x1="0.0500" y1="-0.0000" x2="20.0842" y2="-0.0000"/>
<line transform="translate(95.4978, 109.7324)" stroke-linejoin="round" stroke-linecap="round" stroke-width="0.1000" stroke="currentColor" x1="0.0500" y1="-0.0000" x2="20.0842" y2="-0.0000"/>
<text transform="translate(82.5695, 114.1308)" font-family="serif" font-style="italic" font-size="1.3860" text-anchor="start" fill="currentColor">
<tspan>8</tspan>
</text>
<path transform="translate(81.9874, 110.5324) scale(0.0040, -0.0040)" d="M376 262c4 0 9 1 13 1c155 0 256 -128 256 -261c0 -76 -33 -154 -107 -210c-22 -17 -47 -28 -73 -36c3 -35 5 -70 5 -105c0 -19 -1 -39 -2 -58c-7 -120 -90 -228 -208 -228c-108 0 -195 88 -195 197c0 58 53 103 112 103c54 0 95 -47 95 -103c0 -52 -43 -95 -95 -95
c-11 0 -21 2 -31 6c26 -39 68 -65 117 -65c96 0 157 92 163 191c1 18 2 37 2 55c0 31 -1 61 -4 92c-29 -5 -58 -8 -89 -8c-188 0 -333 172 -333 374c0 177 131 306 248 441c-19 62 -37 125 -45 190c-6 52 -7 104 -7 156c0 115 55 224 149 292c3 2 7 3 10 3c4 0 7 0 10 -3
c71 -84 133 -245 133 -358c0 -143 -86 -255 -180 -364c21 -68 39 -138 56 -207zM461 -203c68 24 113 95 113 164c0 90 -66 179 -173 190c24 -116 46 -231 60 -354zM74 28c0 -135 129 -247 264 -247c28 0 55 2 82 6c-14 127 -37 245 -63 364c-79 -8 -124 -61 -124 -119
c0 -44 25 -91 81 -123c5 -5 7 -10 7 -15c0 -11 -10 -22 -22 -22c-3 0 -6 1 -9 2c-80 43 -117 115 -117 185c0 88 58 174 160 197c-14 58 -29 117 -46 175c-107 -121 -213 -243 -213 -403zM408 1045c-99 -48 -162 -149 -162 -259c0 -74 18 -133 36 -194
c80 97 146 198 146 324c0 55 -4 79 -20 129z" fill="currentColor"/>
<path transform="translate(86.6574, 110.5324) scale(0.0040, -0.0040)" d="M218 136c55 0 108 -28 108 -89c0 -71 -55 -121 -102 -149c-35 -21 -75 -34 -116 -34c-55 0 -108 28 -108 89c0 71 55 121 102 149c35 21 75 34 116 34z" fill="currentColor"/>
<text transform="translate(82.5695, 96.4376)" font-family="serif" font-style="italic" font-size="1.3860" text-anchor="start" fill="currentColor">
<tspan>8</tspan>
</text>
<path transform="translate(81.9874, 92.8391) scale(0.0040, -0.0040)" d="M376 262c4 0 9 1 13 1c155 0 256 -128 256 -261c0 -76 -33 -154 -107 -210c-22 -17 -47 -28 -73 -36c3 -35 5 -70 5 -105c0 -19 -1 -39 -2 -58c-7 -120 -90 -228 -208 -228c-108 0 -195 88 -195 197c0 58 53 103 112 103c54 0 95 -47 95 -103c0 -52 -43 -95 -95 -95
c-11 0 -21 2 -31 6c26 -39 68 -65 117 -65c96 0 157 92 163 191c1 18 2 37 2 55c0 31 -1 61 -4 92c-29 -5 -58 -8 -89 -8c-188 0 -333 172 -333 374c0 177 131 306 248 441c-19 62 -37 125 -45 190c-6 52 -7 104 -7 156c0 115 55 224 149 292c3 2 7 3 10 3c4 0 7 0 10 -3
c71 -84 133 -245 133 -358c0 -143 -86 -255 -180 -364c21 -68 39 -138 56 -207zM461 -203c68 24 113 95 113 164c0 90 -66 179 -173 190c24 -116 46 -231 60 -354zM74 28c0 -135 129 -247 264 -247c28 0 55 2 82 6c-14 127 -37 245 -63 364c-79 -8 -124 -61 -124 -119
c0 -44 25 -91 81 -123c5 -5 7 -10 7 -15c0 -11 -10 -22 -22 -22c-3 0 -6 1 -9 2c-80 43 -117 115 -117 185c0 88 58 174 160 197c-14 58 -29 117 -46 175c-107 -121 -213 -243 -213 -403zM408 1045c-99 -48 -162 -149 -162 -259c0 -74 18 -133 36 -194
c80 97 146 198 146 324c0 55 -4 79 -20 129z" fill="currentColor"/>
<path transform="translate(86.6574, 92.8391) scale(0.0040, -0.0040)" d="M218 136c55 0 108 -28 108 -89c0 -71 -55 -121 -102 -149c-35 -21 -75 -34 -116 -34c-55 0 -108 28 -108 89c0 71 55 121 102 149c35 21 75 34 116 34z" fill="currentColor"/>
<text transform="translate(5.2647, 39.5616)" font-family="serif" font-size="2.2001" text-anchor="start" fill="currentColor">
<tspan>S</tspan>
</text>
<path transform="translate(72.5945, 122.4047) scale(0.0040, -0.0040)" d="M-67 48c0 37 30 67 67 67s67 -30 67 -67s-30 -67 -67 -67s-67 30 -67 67zM0 363c157 0 332 -176 332 -366c0 -9 -10 -15 -19 -15s-17 5 -19 18c-26 148 -146 262 -294 262s-268 -114 -294 -262c-2 -13 -10 -18 -19 -18s-19 6 -19 15c0 190 175 366 332 366z" fill="currentColor"/>
<path transform="translate(71.6135, 123.2257) scale(0.0040, -0.0040)" d="M213 112c-50 0 -69 -43 -69 -88c0 -77 57 -136 134 -136c50 0 69 43 69 88c0 77 -57 136 -134 136zM491 0c0 -43 -34 -75 -72 -96c-53 -29 -114 -40 -174 -40s-120 11 -173 40c-38 21 -72 53 -72 96s34 75 72 96c53 29 113 40 173 40s121 -11 174 -40
c38 -21 72 -53 72 -96z" fill="currentColor"/>
<path transform="translate(72.5945, 36.4333) scale(0.0040, -0.0040)" d="M-67 48c0 37 30 67 67 67s67 -30 67 -67s-30 -67 -67 -67s-67 30 -67 67zM0 363c157 0 332 -176 332 -366c0 -9 -10 -15 -19 -15s-17 5 -19 18c-26 148 -146 262 -294 262s-268 -114 -294 -262c-2 -13 -10 -18 -19 -18s-19 6 -19 15c0 190 175 366 332 366z" fill="currentColor"/>
<circle transform="translate(21.4536, 141.0885)" stroke-linejoin="round" stroke-linecap="round" fill="none" stroke="currentColor" stroke-width="0.1000" r="0.3500"/>
<line transform="translate(21.1536, 141.0885)" stroke-linejoin="round" stroke-linecap="round" stroke-width="0.1000" stroke="currentColor" x1="0.6999" y1="0.0000" x2="21.8114" y2="0.6666"/>
<line transform="translate(21.1536, 141.0885)" stroke-linejoin="round" stroke-linecap="round" stroke-width="0.1000" stroke="currentColor" x1="0.6999" y1="-0.0000" x2="21.8114" y2="-0.6666"/>
<path transform="translate(71.6135, 40.7593) scale(0.0040, -0.0040)" d="M213 112c-50 0 -69 -43 -69 -88c0 -77 57 -136 134 -136c50 0 69 43 69 88c0 77 -57 136 -134 136zM491 0c0 -43 -34 -75 -72 -96c-53 -29 -114 -40 -174 -40s-120 11 -173 40c-38 21 -72 53 -72 96s34 75 72 96c53 29 113 40 173 40s121 -11 174 -40
c38 -21 72 -53 72 -96z" fill="currentColor"/>
<text transform="translate(5.2647, 21.8684)" font-family="serif" font-size="2.2001" text-anchor="start" fill="currentColor">
<tspan>S</tspan>
</text>
<circle transform="translate(21.4536, 17.2356)" stroke-linejoin="round" stroke-linecap="round" fill="none" stroke="currentColor" stroke-width="0.1000" r="0.3500"/>
<line transform="translate(21.1536, 17.2356)" stroke-linejoin="round" stroke-linecap="round" stroke-width="0.1000" stroke="currentColor" x1="0.6999" y1="0.0000" x2="21.8114" y2="0.6666"/>
<line transform="translate(21.1536, 17.2356)" stroke-linejoin="round" stroke-linecap="round" stroke-width="0.1000" stroke="currentColor" x1="0.6999" y1="-0.0000" x2="21.8114" y2="-0.6666"/>
<path transform="translate(75.9058, 146.9189) scale(0.0040, -0.0040)" d="M213 112c-50 0 -69 -43 -69 -88c0 -77 57 -136 134 -136c50 0 69 43 69 88c0 77 -57 136 -134 136zM491 0c0 -43 -34 -75 -72 -96c-53 -29 -114 -40 -174 -40s-120 11 -173 40c-38 21 -72 53 -72 96s34 75 72 96c53 29 113 40 173 40s121 -11 174 -40
c38 -21 72 -53 72 -96z" fill="currentColor"/>
<rect transform="translate(74.9577, 150.7670)" x="-0.3245" y="-0.1000" width="4.5072" height="0.1000" ry="0.0000" fill="currentColor"/>
<rect transform="translate(74.9577, 148.8181)" x="-0.3245" y="-0.1000" width="4.5072" height="0.1000" ry="0.0000" fill="currentColor"/>
<rect transform="translate(74.6332, 150.4084)" x="0" y="-1.5902" width="0.1000" height="1.8489" ry="0.0000" fill="currentColor"/>
<rect transform="translate(79.0404, 150.4084)" x="0" y="-1.5902" width="0.1000" height="1.8489" ry="0.0000" fill="currentColor"/>
<text transform="translate(74.9577, 150.4084)" font-family="serif" font-size="2.4696" text-anchor="start" fill="currentColor">
<tspan>om</tspan>
</text>
<path transform="translate(72.3718, 143.9189) scale(0.0040, -0.0040)" d="M557 -125c0 28 23 51 51 51s51 -23 51 -51s-23 -51 -51 -51s-51 23 -51 51zM557 125c0 28 23 51 51 51s51 -23 51 -51s-23 -51 -51 -51s-51 23 -51 51zM232 263c172 0 293 -88 293 -251c0 -263 -263 -414 -516 -521c-3 -3 -6 -4 -9 -4c-7 0 -13 6 -13 13c0 3 1 6 4 9
c202 118 412 265 412 493c0 120 -63 235 -171 235c-74 0 -129 -54 -154 -126c11 5 22 8 34 8c55 0 100 -45 100 -100c0 -58 -44 -106 -100 -106c-60 0 -112 47 -112 106c0 133 102 244 232 244z" fill="currentColor"/>
<path transform="translate(76.8868, 142.6189) scale(0.0040, -0.0040)" d="M-67 67c0 37 30 66 67 66s67 -29 67 -66s-30 -67 -67 -67s-67 30 -67 67zM-302 375h605c6 0 10 -4 10 -10v-346c0 -10 -9 -19 -19 -19s-19 9 -19 19v256h-550v-256c0 -10 -9 -19 -19 -19s-18 9 -18 19v346c0 6 4 10 10 10z" fill="currentColor"/>
<rect transform="translate(74.9577, 26.9140)" x="-0.3245" y="-0.1000" width="4.5072" height="0.1000" ry="0.0000" fill="currentColor"/>
<rect transform="translate(74.9577, 24.9652)" x="-0.3245" y="-0.1000" width="4.5072" height="0.1000" ry="0.0000" fill="currentColor"/>
<rect transform="translate(74.6332, 26.5554)" x="0" y="-1.5902" width="0.1000" height="1.8489" ry="0.0000" fill="currentColor"/>
<rect transform="translate(79.0404, 26.5554)" x="0" y="-1.5902" width="0.1000" height="1.8489" ry="0.0000" fill="currentColor"/>
<text transform="translate(74.9577, 26.5554)" font-family="serif" font-size="2.4696" text-anchor="start" fill="currentColor">
<tspan>om</tspan>
</text>
<path transform="translate(72.3718, 22.0660) scale(0.0040, -0.0040)" d="M376 262c4 0 9 1 13 1c155 0 256 -128 256 -261c0 -76 -33 -154 -107 -210c-22 -17 -47 -28 -73 -36c3 -35 5 -70 5 -105c0 -19 -1 -39 -2 -58c-7 -120 -90 -228 -208 -228c-108 0 -195 88 -195 197c0 58 53 103 112 103c54 0 95 -47 95 -103c0 -52 -43 -95 -95 -95
c-11 0 -21 2 -31 6c26 -39 68 -65 117 -65c96 0 157 92 163 191c1 18 2 37 2 55c0 31 -1 61 -4 92c-29 -5 -58 -8 -89 -8c-188 0 -333 172 -333 374c0 177 131 306 248 441c-19 62 -37 125 -45 190c-6 52 -7 104 -7 156c0 115 55 224 149 292c3 2 7 3 10 3c4 0 7 0 10 -3
c71 -84 133 -245 133 -358c0 -143 -86 -255 -180 -364c21 -68 39 -138 56 -207zM461 -203c68 24 113 95 113 164c0 90 -66 179 -173 190c24 -116 46 -231 60 -354zM74 28c0 -135 129 -247 264 -247c28 0 55 2 82 6c-14 127 -37 245 -63 364c-79 -8 -124 -61 -124 -119
c0 -44 25 -91 81 -123c5 -5 7 -10 7 -15c0 -11 -10 -22 -22 -22c-3 0 -6 1 -9 2c-80 43 -117 115 -117 185c0 88 58 174 160 197c-14 58 -29 117 -46 175c-107 -121 -213 -243 -213 -403zM408 1045c-99 -48 -162 -149 -162 -259c0 -74 18 -133 36 -194
c80 97 146 198 146 324c0 55 -4 79 -20 129z" fill="currentColor"/>
<path transform="translate(76.8868, 17.3210) scale(0.0040, -0.0040)" d="M-67 67c0 37 30 66 67 66s67 -29 67 -66s-30 -67 -67 -67s-67 30 -67 67zM-302 375h605c6 0 10 -4 10 -10v-346c0 -10 -9 -19 -19 -19s-19 9 -19 19v256h-550v-256c0 -10 -9 -19 -19 -19s-18 9 -18 19v346c0 6 4 10 10 10z" fill="currentColor"/>
<path transform="translate(75.9058, 18.0660) scale(0.0040, -0.0040)" d="M213 112c-50 0 -69 -43 -69 -88c0 -77 57 -136 134 -136c50 0 69 43 69 88c0 77 -57 136 -134 136zM491 0c0 -43 -34 -75 -72 -96c-53 -29 -114 -40 -174 -40s-120 11 -173 40c-38 21 -72 53 -72 96s34 75 72 96c53 29 113 40 173 40s121 -11 174 -40
c38 -21 72 -53 72 -96z" fill="currentColor"/>
<text transform="translate(5.1623, 128.0280)" font-family="serif" font-size="2.2001" text-anchor="start" fill="currentColor">
<tspan>B</tspan>
</text>
<text transform="translate(5.1623, 145.7213)" font-family="serif" font-size="2.2001" text-anchor="start" fill="currentColor">
<tspan>B</tspan>
</text>
<text transform="translate(5.1623, 74.9482)" font-family="serif" font-size="2.2001" text-anchor="start" fill="currentColor">
<tspan>A</tspan>
</text>
<line transform="translate(75.9058, 15.2562)" stroke-linejoin="round" stroke-linecap="round" stroke-width="0.1000" stroke="currentColor" x1="0.0000" y1="0.0000" x2="27.1744" y2="0.6666"/>
<line transform="translate(75.9058, 15.2562)" stroke-linejoin="round" stroke-linecap="round" stroke-width="0.1000" stroke="currentColor" x1="0.0000" y1="-0.0000" x2="27.1744" y2="-0.6666"/>
<text transform="translate(5.1623, 57.2549)" font-family="serif" font-size="2.2001" text-anchor="start" fill="currentColor">
<tspan>A</tspan>
</text>
<line transform="translate(75.9058, 140.5542)" stroke-linejoin="round" stroke-linecap="round" stroke-width="0.1000" stroke="currentColor" x1="0.0000" y1="0.0000" x2="27.1744" y2="0.6666"/>
<line transform="translate(75.9058, 140.5542)" stroke-linejoin="round" stroke-linecap="round" stroke-width="0.1000" stroke="currentColor" x1="0.0000" y1="-0.0000" x2="27.1744" y2="-0.6666"/>
<text transform="translate(5.2988, 92.6415)" font-family="serif" font-size="2.2001" text-anchor="start" fill="currentColor">
<tspan>T</tspan>
</text>
<circle transform="translate(67.5819, 17.2356)" stroke-linejoin="round" stroke-linecap="round" fill="none" stroke="currentColor" stroke-width="0.1000" r="0.3500"/>
<line transform="translate(47.9013, 17.2356)" stroke-linejoin="round" stroke-linecap="round" stroke-width="0.1000" stroke="currentColor" x1="0.0000" y1="0.6666" x2="19.2807" y2="0.0000"/>
<line transform="translate(47.9013, 17.2356)" stroke-linejoin="round" stroke-linecap="round" stroke-width="0.1000" stroke="currentColor" x1="0.0000" y1="-0.6666" x2="19.2807" y2="-0.0000"/>
<text transform="translate(5.2988, 110.3348)" font-family="serif" font-size="2.2001" text-anchor="start" fill="currentColor">
<tspan>T</tspan>
</text>
<path transform="translate(86.4574, 92.8391) scale(0.0127, -0.0127)" d="M-102 0c0 -86 12 -174 61 -244c2 -2 2 -4 2 -6c0 -6 -5 -11 -11 -11c-3 0 -7 2 -9 5c-53 76 -89 163 -89 256s36 180 89 256c2 3 6 5 9 5c6 0 11 -5 11 -11c0 -2 0 -4 -2 -6c-49 -70 -61 -158 -61 -244z" fill="currentColor"/>
<path transform="translate(88.1616, 92.8391) scale(0.0127, -0.0127)" d="M102 0c0 86 -12 174 -61 244c-2 2 -2 4 -2 6c0 6 5 11 11 11c3 0 7 -2 9 -5c53 -76 89 -163 89 -256s-36 -180 -89 -256c-2 -3 -6 -5 -9 -5c-6 0 -11 5 -11 11c0 2 0 4 2 6c49 70 61 158 61 244z" fill="currentColor"/>
<g transform="translate(104.0802, 141.1542)" >
<path transform="scale(0.0040, -0.0040)" d="M-41 146c26 76 82 153 149 153c22 0 36 -20 41 -45c22 26 51 45 81 45c23 0 38 -21 44 -46c22 27 51 46 80 46c33 0 59 -35 59 -69c0 -5 -1 -10 -2 -15l-35 -149c0 -2 -1 -4 -1 -5c0 -5 2 -8 7 -8c9 0 27 11 48 31c4 4 9 6 13 6c6 0 11 -4 11 -10c0 -4 -3 -8 -7 -12
c-40 -38 -85 -75 -131 -75c-20 0 -32 13 -32 32c0 4 0 7 1 11l39 165c1 5 2 9 2 14c0 10 -4 18 -14 18c-16 0 -33 -16 -39 -32l-53 -183c-3 -10 -12 -18 -22 -18h-41c-10 0 -16 8 -13 18l52 183c2 6 3 11 3 16c0 9 -4 16 -13 16c-16 0 -35 -15 -41 -32l-62 -183
c-3 -10 -14 -18 -24 -18h-41c-10 0 -15 8 -12 18l63 183c2 5 2 10 2 15c0 10 -3 17 -13 17c-29 0 -54 -53 -66 -87c-4 -11 -15 -17 -23 -17c-7 0 -12 4 -12 11c0 2 1 4 2 6z" fill="currentColor"/>

<path transform="translate(1.7413, 0.0000) scale(0.0040, -0.0040)" d="M233 243c-56 0 -102 -107 -102 -173c0 -22 8 -38 30 -38c64 0 97 126 97 178c0 18 -7 33 -25 33zM112 -146c-38 0 -78 5 -116 5c-39 0 -78 -5 -115 -5c-9 0 -14 7 -14 14c0 18 31 15 48 16c22 1 47 5 54 25l102 300c2 7 4 14 4 20c0 8 -2 14 -11 14
c-33 0 -63 -60 -79 -97c-5 -12 -15 -17 -24 -17c-8 0 -14 4 -14 12c0 2 1 5 2 8c30 68 72 143 132 143c35 0 59 -21 66 -52c29 31 67 52 103 52c69 0 107 -49 107 -114c0 -21 -4 -44 -12 -67c-20 -58 -91 -119 -147 -119c-27 0 -52 5 -73 17c-4 2 -7 3 -11 3
c-7 0 -14 -3 -16 -9l-29 -86c-1 -2 -1 -5 -1 -7c0 -20 21 -26 44 -28c9 -1 13 -8 13 -14c0 -7 -4 -14 -13 -14z" fill="currentColor"/>
</g>
<path transform="translate(108.9320, 142.9189) scale(0.0040, -0.0040)" d="M12 -153c-9 0 -15 7 -15 15c0 3 1 6 3 9c30 43 50 94 50 142c0 30 -7 59 -25 85c-5 7 -7 14 -7 21c0 19 16 38 37 38c41 0 57 -65 57 -98c0 -68 -42 -141 -87 -205c-3 -4 -8 -7 -13 -7z" fill="currentColor"/>
<g transform="translate(104.0802, 15.8562)" >
<path transform="scale(0.0040, -0.0040)" d="M-41 146c26 76 82 153 149 153c22 0 36 -20 41 -45c22 26 51 45 81 45c23 0 38 -21 44 -46c22 27 51 46 80 46c33 0 59 -35 59 -69c0 -5 -1 -10 -2 -15l-35 -149c0 -2 -1 -4 -1 -5c0 -5 2 -8 7 -8c9 0 27 11 48 31c4 4 9 6 13 6c6 0 11 -4 11 -10c0 -4 -3 -8 -7 -12
c-40 -38 -85 -75 -131 -75c-20 0 -32 13 -32 32c0 4 0 7 1 11l39 165c1 5 2 9 2 14c0 10 -4 18 -14 18c-16 0 -33 -16 -39 -32l-53 -183c-3 -10 -12 -18 -22 -18h-41c-10 0 -16 8 -13 18l52 183c2 6 3 11 3 16c0 9 -4 16 -13 16c-16 0 -35 -15 -41 -32l-62 -183
c-3 -10 -14 -18 -24 -18h-41c-10 0 -15 8 -12 18l63 183c2 5 2 10 2 15c0 10 -3 17 -13 17c-29 0 -54 -53 -66 -87c-4 -11 -15 -17 -23 -17c-7 0 -12 4 -12 11c0 2 1 4 2 6z" fill="currentColor"/>

<path transform="translate(1.7413, 0.0000) scale(0.0040, -0.0040)" d="M233 243c-56 0 -102 -107 -102 -173c0 -22 8 -38 30 -38c64 0 97 126 97 178c0 18 -7 33 -25 33zM112 -146c-38 0 -78 5 -116 5c-39 0 -78 -5 -115 -5c-9 0 -14 7 -14 14c0 18 31 15 48 16c22 1 47 5 54 25l102 300c2 7 4 14 4 20c0 8 -2 14 -11 14
c-33 0 -63 -60 -79 -97c-5 -12 -15 -17 -24 -17c-8 0 -14 4 -14 12c0 2 1 5 2 8c30 68 72 143 132 143c35 0 59 -21 66 -52c29 31 67 52 103 52c69 0 107 -49 107 -114c0 -21 -4 -44 -12 -67c-20 -58 -91 -119 -147 -119c-27 0 -52 5 -73 17c-4 2 -7 3 -11 3
c-7 0 -14 -3 -16 -9l-29 -86c-1 -2 -1 -5 -1 -7c0 -20 21 -26 44 -28c9 -1 13 -8 13 -14c0 -7 -4 -14 -13 -14z" fill="currentColor"/>
</g>
<path transform="translate(108.9320, 19.0660) scale(0.0040, -0.0040)" d="M12 -153c-9 0 -15 7 -15 15c0 3 1 6 3 9c30 43 50 94 50 142c0 30 -7 59 -25 85c-5 7 -7 14 -7 21c0 19 16 38 37 38c41 0 57 -65 57 -98c0 -68 -42 -141 -87 -205c-3 -4 -8 -7 -13 -7z" fill="currentColor"/>
<path transform="translate(86.4574, 110.5324) scale(0.0127, -0.0127)" d="M-102 0c0 -86 12 -174 61 -244c2 -2 2 -4 2 -6c0 -6 -5 -11 -11 -11c-3 0 -7 2 -9 5c-53 76 -89 163 -89 256s36 180 89 256c2 3 6 5 9 5c6 0 11 -5 11 -11c0 -2 0 -4 -2 -6c-49 -70 -61 -158 -61 -244z" fill="currentColor"/>
<path transform="translate(88.1616, 110.5324) scale(0.0127, -0.0127)" d="M102 0c0 86 -12 174 -61 244c-2 2 -2 4 -2 6c0 6 5 11 11 11c3 0 7 -2 9 -5c53 -76 89 -163 89 -256s-36 -180 -89 -256c-2 -3 -6 -5 -9 -5c-6 0 -11 5 -11 11c0 2 0 4 2 6c49 70 61 158 61 244z" fill="currentColor"/>
<circle transform="translate(67.5819, 141.0885)" stroke-linejoin="round" stroke-linecap="round" fill="none" stroke="currentColor" stroke-width="0.1000" r="0.3500"/>
<line transform="translate(47.9013, 141.0885)" stroke-linejoin="round" stroke-linecap="round" stroke-width="0.1000" stroke="currentColor" x1="0.0000" y1="0.6666" x2="19.2807" y2="0.0000"/>
<line transform="translate(47.9013, 141.0885)" stroke-linejoin="round" stroke-linecap="round" stroke-width="0.1000" stroke="currentColor" x1="0.0000" y1="-0.6666" x2="19.2807" y2="-0.0000"/>
<rect transform="translate(7.1670, 82.9925)" x="0.0000" y="-63.9765" width="0.1600" height="127.9530" ry="0.0500" fill="currentColor"/>
<rect transform="translate(113.0202, 10.4500)" x="-0.0650" y="3.3139" width="0.1300" height="0.0000" ry="0.0000" fill="currentColor"/>
<path transform="translate(17.6636, 92.8391) scale(0.0040, -0.0040)" d="M376 262c4 0 9 1 13 1c155 0 256 -128 256 -261c0 -76 -33 -154 -107 -210c-22 -17 -47 -28 -73 -36c3 -35 5 -70 5 -105c0 -19 -1 -39 -2 -58c-7 -120 -90 -228 -208 -228c-108 0 -195 88 -195 197c0 58 53 103 112 103c54 0 95 -47 95 -103c0 -52 -43 -95 -95 -95
c-11 0 -21 2 -31 6c26 -39 68 -65 117 -65c96 0 157 92 163 191c1 18 2 37 2 55c0 31 -1 61 -4 92c-29 -5 -58 -8 -89 -8c-188 0 -333 172 -333 374c0 177 131 306 248 441c-19 62 -37 125 -45 190c-6 52 -7 104 -7 156c0 115 55 224 149 292c3 2 7 3 10 3c4 0 7 0 10 -3
c71 -84 133 -245 133 -358c0 -143 -86 -255 -180 -364c21 -68 39 -138 56 -207zM461 -203c68 24 113 95 113 164c0 90 -66 179 -173 190c24 -116 46 -231 60 -354zM74 28c0 -135 129 -247 264 -247c28 0 55 2 82 6c-14 127 -37 245 -63 364c-79 -8 -124 -61 -124 -119
c0 -44 25 -91 81 -123c5 -5 7 -10 7 -15c0 -11 -10 -22 -22 -22c-3 0 -6 1 -9 2c-80 43 -117 115 -117 185c0 88 58 174 160 197c-14 58 -29 117 -46 175c-107 -121 -213 -243 -213 -403zM408 1045c-99 -48 -162 -149 -162 -259c0 -74 18 -133 36 -194
c80 97 146 198 146 324c0 55 -4 79 -20 129z" fill="currentColor"/>
<rect transform="translate(21.1095, 150.7670)" x="-0.3245" y="-0.1000" width="1.9123" height="0.1000" ry="0.0000" fill="currentColor"/>
<rect transform="translate(21.1095, 148.8523)" x="-0.3245" y="-0.1000" width="1.9123" height="0.1000" ry="0.0000" fill="currentColor"/>
<rect transform="translate(20.7850, 150.4084)" x="0" y="-1.5561" width="0.1000" height="1.8147" ry="0.0000" fill="currentColor"/>
<rect transform="translate(22.5973, 150.4084)" x="0" y="-1.5561" width="0.1000" height="1.8147" ry="0.0000" fill="currentColor"/>
<text transform="translate(21.1095, 150.4084)" font-family="serif" font-size="2.4696" text-anchor="start" fill="currentColor">
<tspan>s</tspan>
</text>
<path transform="translate(21.9036, 144.9189)" stroke-width="0.1000" stroke-linejoin="round" stroke-linecap="round" stroke="currentColor" fill="currentColor" d="M-0.6000 -0.5200L-0.6000 0.5000L0.6000 0.5000L0.6000 -0.5200L-0.6000 -0.5200L-0.5300 -0.3500L0.5300 -0.4900L0.5300 0.3300L-0.5300 0.4700L-0.5300 -0.3500z"/>
<text transform="translate(18.2457, 96.4376)" font-family="serif" font-style="italic" font-size="1.3860" text-anchor="start" fill="currentColor">
<tspan>8</tspan>
</text>
<path transform="translate(20.9286, 92.3391) scale(0.0040, -0.0040)" d="M218 136c55 0 108 -28 108 -89c0 -71 -55 -121 -102 -149c-35 -21 -75 -34 -116 -34c-55 0 -108 28 -108 89c0 71 55 121 102 149c35 21 75 34 116 34z" fill="currentColor"/>
<rect transform="translate(21.1095, 26.9140)" x="-0.3245" y="-0.1000" width="1.9123" height="0.1000" ry="0.0000" fill="currentColor"/>
<rect transform="translate(21.1095, 24.9993)" x="-0.3245" y="-0.1000" width="1.9123" height="0.1000" ry="0.0000" fill="currentColor"/>
<rect transform="translate(20.7850, 26.5554)" x="0" y="-1.5561" width="0.1000" height="1.8147" ry="0.0000" fill="currentColor"/>
<rect transform="translate(22.5973, 26.5554)" x="0" y="-1.5561" width="0.1000" height="1.8147" ry="0.0000" fill="currentColor"/>
<text transform="translate(21.1095, 26.5554)" font-family="serif" font-size="2.4696" text-anchor="start" fill="currentColor">
<tspan>s</tspan>
</text>
<path transform="translate(21.9036, 21.0660)" stroke-width="0.1000" stroke-linejoin="round" stroke-linecap="round" stroke="currentColor" fill="currentColor" d="M-0.6000 -0.5200L-0.6000 0.5000L0.6000 0.5000L0.6000 -0.5200L-0.6000 -0.5200L-0.5300 -0.3500L0.5300 -0.4900L0.5300 0.3300L-0.5300 0.4700L-0.5300 -0.3500z"/>
<path transform="translate(11.8883, 110.0324) scale(0.0127, -0.0127)" d="M-102 0c0 -86 12 -174 61 -244c2 -2 2 -4 2 -6c0 -6 -5 -11 -11 -11c-3 0 -7 2 -9 5c-53 76 -89 163 -89 256s36 180 89 256c2 3 6 5 9 5c6 0 11 -5 11 -11c0 -2 0 -4 -2 -6c-49 -70 -61 -158 -61 -244z" fill="currentColor"/>
<path transform="translate(13.5925, 110.0324) scale(0.0127, -0.0127)" d="M102 0c0 86 -12 174 -61 244c-2 2 -2 4 -2 6c0 6 5 11 11 11c3 0 7 -2 9 -5c53 -76 89 -163 89 -256s-36 -180 -89 -256c-2 -3 -6 -5 -9 -5c-6 0 -11 5 -11 11c0 2 0 4 2 6c49 70 61 158 61 244z" fill="currentColor"/>
<path transform="translate(39.9561, 39.7593) scale(0.0040, -0.0040)" d="M376 262c4 0 9 1 13 1c155 0 256 -128 256 -261c0 -76 -33 -154 -107 -210c-22 -17 -47 -28 -73 -36c3 -35 5 -70 5 -105c0 -19 -1 -39 -2 -58c-7 -120 -90 -228 -208 -228c-108 0 -195 88 -195 197c0 58 53 103 112 103c54 0 95 -47 95 -103c0 -52 -43 -95 -95 -95
c-11 0 -21 2 -31 6c26 -39 68 -65 117 -65c96 0 157 92 163 191c1 18 2 37 2 55c0 31 -1 61 -4 92c-29 -5 -58 -8 -89 -8c-188 0 -333 172 -333 374c0 177 131 306 248 441c-19 62 -37 125 -45 190c-6 52 -7 104 -7 156c0 115 55 224 149 292c3 2 7 3 10 3c4 0 7 0 10 -3
c71 -84 133 -245 133 -358c0 -143 -86 -255 -180 -364c21 -68 39 -138 56 -207zM461 -203c68 24 113 95 113 164c0 90 -66 179 -173 190c24 -116 46 -231 60 -354zM74 28c0 -135 129 -247 264 -247c28 0 55 2 82 6c-14 127 -37 245 -63 364c-79 -8 -124 -61 -124 -119
c0 -44 25 -91 81 -123c5 -5 7 -10 7 -15c0 -11 -10 -22 -22 -22c-3 0 -6 1 -9 2c-80 43 -117 115 -117 185c0 88 58 174 160 197c-14 58 -29 117 -46 175c-107 -121 -213 -243 -213 -403zM408 1045c-99 -48 -162 -149 -162 -259c0 -74 18 -133 36 -194
c80 97 146 198 146 324c0 55 -4 79 -20 129z" fill="currentColor"/>
<path transform="translate(46.5718, 41.2593) scale(0.0040, -0.0040)" d="M0 0c0 31 25 56 56 56s56 -25 56 -56s-25 -56 -56 -56s-56 25 -56 56z" fill="currentColor"/>
<g transform="translate(43.9650, 141.6885)" >
<path transform="scale(0.0040, -0.0040)" d="M233 243c-56 0 -102 -107 -102 -173c0 -22 8 -38 30 -38c64 0 97 126 97 178c0 18 -7 33 -25 33zM112 -146c-38 0 -78 5 -116 5c-39 0 -78 -5 -115 -5c-9 0 -14 7 -14 14c0 18 31 15 48 16c22 1 47 5 54 25l102 300c2 7 4 14 4 20c0 8 -2 14 -11 14
c-33 0 -63 -60 -79 -97c-5 -12 -15 -17 -24 -17c-8 0 -14 4 -14 12c0 2 1 5 2 8c30 68 72 143 132 143c35 0 59 -21 66 -52c29 31 67 52 103 52c69 0 107 -49 107 -114c0 -21 -4 -44 -12 -67c-20 -58 -91 -119 -147 -119c-27 0 -52 5 -73 17c-4 2 -7 3 -11 3
c-7 0 -14 -3 -16 -9l-29 -86c-1 -2 -1 -5 -1 -7c0 -20 21 -26 44 -28c9 -1 13 -8 13 -14c0 -7 -4 -14 -13 -14z" fill="currentColor"/>

<path transform="translate(1.4682, 0.0000) scale(0.0040, -0.0040)" d="M233 243c-56 0 -102 -107 -102 -173c0 -22 8 -38 30 -38c64 0 97 126 97 178c0 18 -7 33 -25 33zM112 -146c-38 0 -78 5 -116 5c-39 0 -78 -5 -115 -5c-9 0 -14 7 -14 14c0 18 31 15 48 16c22 1 47 5 54 25l102 300c2 7 4 14 4 20c0 8 -2 14 -11 14
c-33 0 -63 -60 -79 -97c-5 -12 -15 -17 -24 -17c-8 0 -14 4 -14 12c0 2 1 5 2 8c30 68 72 143 132 143c35 0 59 -21 66 -52c29 31 67 52 103 52c69 0 107 -49 107 -114c0 -21 -4 -44 -12 -67c-20 -58 -91 -119 -147 -119c-27 0 -52 5 -73 17c-4 2 -7 3 -11 3
c-7 0 -14 -3 -16 -9l-29 -86c-1 -2 -1 -5 -1 -7c0 -20 21 -26 44 -28c9 -1 13 -8 13 -14c0 -7 -4 -14 -13 -14z" fill="currentColor"/>
</g>
<path transform="translate(39.9561, 126.2257) scale(0.0040, -0.0040)" d="M557 -125c0 28 23 51 51 51s51 -23 51 -51s-23 -51 -51 -51s-51 23 -51 51zM557 125c0 28 23 51 51 51s51 -23 51 -51s-23 -51 -51 -51s-51 23 -51 51zM232 263c172 0 293 -88 293 -251c0 -263 -263 -414 -516 -521c-3 -3 -6 -4 -9 -4c-7 0 -13 6 -13 13c0 3 1 6 4 9
c202 118 412 265 412 493c0 120 -63 235 -171 235c-74 0 -129 -54 -154 -126c11 5 22 8 34 8c55 0 100 -45 100 -100c0 -58 -44 -106 -100 -106c-60 0 -112 47 -112 106c0 133 102 244 232 244z" fill="currentColor"/>
<path transform="translate(44.7445, 123.7257) scale(0.0040, -0.0040)" d="M314 65c0 24 -21 41 -42 41c-4 0 -8 0 -12 -1c-31 -9 -78 -40 -115 -64s-84 -53 -104 -78c-7 -8 -10 -18 -10 -28c0 -24 21 -41 42 -41c4 0 8 0 12 1c31 9 77 40 114 64s84 53 104 78c7 8 11 18 11 28zM262 136c46 0 82 -21 82 -71c0 -19 -4 -39 -10 -57
c-12 -37 -32 -72 -64 -94c-53 -36 -113 -50 -187 -50c-46 0 -83 21 -83 71c0 19 5 39 11 57c12 37 31 72 63 94c53 36 114 50 188 50z" fill="currentColor"/>
<path transform="translate(44.7445, 41.2593) scale(0.0040, -0.0040)" d="M314 65c0 24 -21 41 -42 41c-4 0 -8 0 -12 -1c-31 -9 -78 -40 -115 -64s-84 -53 -104 -78c-7 -8 -10 -18 -10 -28c0 -24 21 -41 42 -41c4 0 8 0 12 1c31 9 77 40 114 64s84 53 104 78c7 8 11 18 11 28zM262 136c46 0 82 -21 82 -71c0 -19 -4 -39 -10 -57
c-12 -37 -32 -72 -64 -94c-53 -36 -113 -50 -187 -50c-46 0 -83 21 -83 71c0 19 5 39 11 57c12 37 31 72 63 94c53 36 114 50 188 50z" fill="currentColor"/>
<g transform="translate(43.9650, 17.8356)" >
<path transform="scale(0.0040, -0.0040)" d="M233 243c-56 0 -102 -107 -102 -173c0 -22 8 -38 30 -38c64 0 97 126 97 178c0 18 -7 33 -25 33zM112 -146c-38 0 -78 5 -116 5c-39 0 -78 -5 -115 -5c-9 0 -14 7 -14 14c0 18 31 15 48 16c22 1 47 5 54 25l102 300c2 7 4 14 4 20c0 8 -2 14 -11 14
c-33 0 -63 -60 -79 -97c-5 -12 -15 -17 -24 -17c-8 0 -14 4 -14 12c0 2 1 5 2 8c30 68 72 143 132 143c35 0 59 -21 66 -52c29 31 67 52 103 52c69 0 107 -49 107 -114c0 -21 -4 -44 -12 -67c-20 -58 -91 -119 -147 -119c-27 0 -52 5 -73 17c-4 2 -7 3 -11 3
c-7 0 -14 -3 -16 -9l-29 -86c-1 -2 -1 -5 -1 -7c0 -20 21 -26 44 -28c9 -1 13 -8 13 -14c0 -7 -4 -14 -13 -14z" fill="currentColor"/>

<path transform="translate(1.4682, 0.0000) scale(0.0040, -0.0040)" d="M233 243c-56 0 -102 -107 -102 -173c0 -22 8 -38 30 -38c64 0 97 126 97 178c0 18 -7 33 -25 33zM112 -146c-38 0 -78 5 -116 5c-39 0 -78 -5 -115 -5c-9 0 -14 7 -14 14c0 18 31 15 48 16c22 1 47 5 54 25l102 300c2 7 4 14 4 20c0 8 -2 14 -11 14
c-33 0 -63 -60 -79 -97c-5 -12 -15 -17 -24 -17c-8 0 -14 4 -14 12c0 2 1 5 2 8c30 68 72 143 132 143c35 0 59 -21 66 -52c29 31 67 52 103 52c69 0 107 -49 107 -114c0 -21 -4 -44 -12 -67c-20 -58 -91 -119 -147 -119c-27 0 -52 5 -73 17c-4 2 -7 3 -11 3
c-7 0 -14 -3 -16 -9l-29 -86c-1 -2 -1 -5 -1 -7c0 -20 21 -26 44 -28c9 -1 13 -8 13 -14c0 -7 -4 -14 -13 -14z" fill="currentColor"/>
</g>
<path transform="translate(20.7286, 92.3391) scale(0.0127, -0.0127)" d="M-102 0c0 -86 12 -174 61 -244c2 -2 2 -4 2 -6c0 -6 -5 -11 -11 -11c-3 0 -7 2 -9 5c-53 76 -89 163 -89 256s36 180 89 256c2 3 6 5 9 5c6 0 11 -5 11 -11c0 -2 0 -4 -2 -6c-49 -70 -61 -158 -61 -244z" fill="currentColor"/>
<path transform="translate(22.4328, 92.3391) scale(0.0127, -0.0127)" d="M102 0c0 86 -12 174 -61 244c-2 2 -2 4 -2 6c0 6 5 11 11 11c3 0 7 -2 9 -5c53 -76 89 -163 89 -256s-36 -180 -89 -256c-2 -3 -6 -5 -9 -5c-6 0 -11 5 -11 11c0 2 0 4 2 6c49 70 61 158 61 244z" fill="currentColor"/>
<text transform="translate(9.4054, 114.1308)" font-family="serif" font-style="italic" font-size="1.3860" text-anchor="start" fill="currentColor">
<tspan>8</tspan>
</text>
<path transform="translate(8.8232, 110.5324) scale(0.0040, -0.0040)" d="M376 262c4 0 9 1 13 1c155 0 256 -128 256 -261c0 -76 -33 -154 -107 -210c-22 -17 -47 -28 -73 -36c3 -35 5 -70 5 -105c0 -19 -1 -39 -2 -58c-7 -120 -90 -228 -208 -228c-108 0 -195 88 -195 197c0 58 53 103 112 103c54 0 95 -47 95 -103c0 -52 -43 -95 -95 -95
c-11 0 -21 2 -31 6c26 -39 68 -65 117 -65c96 0 157 92 163 191c1 18 2 37 2 55c0 31 -1 61 -4 92c-29 -5 -58 -8 -89 -8c-188 0 -333 172 -333 374c0 177 131 306 248 441c-19 62 -37 125 -45 190c-6 52 -7 104 -7 156c0 115 55 224 149 292c3 2 7 3 10 3c4 0 7 0 10 -3
c71 -84 133 -245 133 -358c0 -143 -86 -255 -180 -364c21 -68 39 -138 56 -207zM461 -203c68 24 113 95 113 164c0 90 -66 179 -173 190c24 -116 46 -231 60 -354zM74 28c0 -135 129 -247 264 -247c28 0 55 2 82 6c-14 127 -37 245 -63 364c-79 -8 -124 -61 -124 -119
c0 -44 25 -91 81 -123c5 -5 7 -10 7 -15c0 -11 -10 -22 -22 -22c-3 0 -6 1 -9 2c-80 43 -117 115 -117 185c0 88 58 174 160 197c-14 58 -29 117 -46 175c-107 -121 -213 -243 -213 -403zM408 1045c-99 -48 -162 -149 -162 -259c0 -74 18 -133 36 -194
c80 97 146 198 146 324c0 55 -4 79 -20 129z" fill="currentColor"/>
<path transform="translate(12.0883, 110.0324) scale(0.0040, -0.0040)" d="M218 136c55 0 108 -28 108 -89c0 -71 -55 -121 -102 -149c-35 -21 -75 -34 -116 -34c-55 0 -108 28 -108 89c0 71 55 121 102 149c35 21 75 34 116 34z" fill="currentColor"/>
<path transform="translate(56.3487, 124.2257) scale(0.0040, -0.0040)" d="M216 -312c0 -10 -8 -19 -18 -19s-19 9 -19 19v145l-83 -31v-158c0 -10 -9 -19 -19 -19s-18 9 -18 19v145l-32 -12c-2 -1 -5 -1 -7 -1c-11 0 -20 9 -20 20v60c0 8 5 16 13 19l46 16v160l-32 -11c-2 -1 -5 -1 -7 -1c-11 0 -20 9 -20 20v60c0 8 5 15 13 18l46 17v158
c0 10 8 19 18 19s19 -9 19 -19v-145l83 31v158c0 10 9 19 19 19s18 -9 18 -19v-145l32 12c2 1 5 1 7 1c11 0 20 -9 20 -20v-60c0 -8 -5 -16 -13 -19l-46 -16v-160l32 11c2 1 5 1 7 1c11 0 20 -9 20 -20v-60c0 -8 -5 -15 -13 -18l-46 -17v-158zM96 65v-160l83 30v160z" fill="currentColor"/>
<rect transform="translate(57.8637, 127.2257)" x="-0.0650" y="-2.7410" width="0.1300" height="3.2410" ry="0.0400" fill="currentColor"/>
<path transform="translate(56.3487, 41.7593) scale(0.0040, -0.0040)" d="M216 -312c0 -10 -8 -19 -18 -19s-19 9 -19 19v145l-83 -31v-158c0 -10 -9 -19 -19 -19s-18 9 -18 19v145l-32 -12c-2 -1 -5 -1 -7 -1c-11 0 -20 9 -20 20v60c0 8 5 16 13 19l46 16v160l-32 -11c-2 -1 -5 -1 -7 -1c-11 0 -20 9 -20 20v60c0 8 5 15 13 18l46 17v158
c0 10 8 19 18 19s19 -9 19 -19v-145l83 31v158c0 10 9 19 19 19s18 -9 18 -19v-145l32 12c2 1 5 1 7 1c11 0 20 -9 20 -20v-60c0 -8 -5 -16 -13 -19l-46 -16v-160l32 11c2 1 5 1 7 1c11 0 20 -9 20 -20v-60c0 -8 -5 -15 -13 -18l-46 -17v-158zM96 65v-160l83 30v160z" fill="currentColor"/>
<rect transform="translate(59.1111, 38.7593)" x="-0.0650" y="-0.5000" width="0.1300" height="3.2410" ry="0.0400" fill="currentColor"/>
<path transform="translate(57.7987, 124.2257) scale(0.0040, -0.0040)" d="M314 65c0 24 -21 41 -42 41c-4 0 -8 0 -12 -1c-31 -9 -78 -40 -115 -64s-84 -53 -104 -78c-7 -8 -10 -18 -10 -28c0 -24 21 -41 42 -41c4 0 8 0 12 1c31 9 77 40 114 64s84 53 104 78c7 8 11 18 11 28zM262 136c46 0 82 -21 82 -71c0 -19 -4 -39 -10 -57
c-12 -37 -32 -72 -64 -94c-53 -36 -113 -50 -187 -50c-46 0 -83 21 -83 71c0 19 5 39 11 57c12 37 31 72 63 94c53 36 114 50 188 50z" fill="currentColor"/>
<path transform="translate(57.7987, 41.7593) scale(0.0040, -0.0040)" d="M314 65c0 24 -21 41 -42 41c-4 0 -8 0 -12 -1c-31 -9 -78 -40 -115 -64s-84 -53 -104 -78c-7 -8 -10 -18 -10 -28c0 -24 21 -41 42 -41c4 0 8 0 12 1c31 9 77 40 114 64s84 53 104 78c7 8 11 18 11 28zM262 136c46 0 82 -21 82 -71c0 -19 -4 -39 -10 -57
c-12 -37 -32 -72 -64 -94c-53 -36 -113 -50 -187 -50c-46 0 -83 21 -83 71c0 19 5 39 11 57c12 37 31 72 63 94c53 36 114 50 188 50z" fill="currentColor"/>
<rect transform="translate(63.3081, 10.4500)" x="-0.0650" y="3.3139" width="0.1300" height="0.0000" ry="0.0000" fill="currentColor"/>
<rect transform="translate(46.0568, 38.7593)" x="-0.0650" y="-1.0000" width="0.1300" height="3.2410" ry="0.0400" fill="currentColor"/>
<rect transform="translate(44.8095, 127.2257)" x="-0.0650" y="-3.2410" width="0.1300" height="3.2410" ry="0.0400" fill="currentColor"/>
<path transform="translate(46.5718, 123.7257) scale(0.0040, -0.0040)" d="M0 0c0 31 25 56 56 56s56 -25 56 -56s-25 -56 -56 -56s-56 25 -56 56z" fill="currentColor"/>
</svg>
