<?xml version="1.0" encoding="UTF-8" standalone="no"?>
<svg
   xmlns:dc="http://purl.org/dc/elements/1.1/"
   xmlns:cc="http://creativecommons.org/ns#"
   xmlns:rdf="http://www.w3.org/1999/02/22-rdf-syntax-ns#"
   xmlns:svg="http://www.w3.org/2000/svg"
   xmlns="http://www.w3.org/2000/svg"
   xmlns:sodipodi="http://sodipodi.sourceforge.net/DTD/sodipodi-0.dtd"
   xmlns:inkscape="http://www.inkscape.org/namespaces/inkscape"
   version="1.2"
   width="215.90mm"
   height="279.40mm"
   viewBox="0 0 122.8590 158.9940"
   id="svg4075"
   sodipodi:docname="book-2.svg"
   inkscape:version="0.92.3 (2405546, 2018-03-11)">
  <metadata
     id="metadata4081">
    <rdf:RDF>
      <cc:Work
         rdf:about="">
        <dc:format>image/svg+xml</dc:format>
        <dc:type
           rdf:resource="http://purl.org/dc/dcmitype/StillImage" />
      </cc:Work>
    </rdf:RDF>
  </metadata>
  <defs
     id="defs4079" />
  <sodipodi:namedview
     pagecolor="#ffffff"
     bordercolor="#666666"
     borderopacity="1"
     objecttolerance="10"
     gridtolerance="10"
     guidetolerance="10"
     inkscape:pageopacity="0"
     inkscape:pageshadow="2"
     inkscape:window-width="1080"
     inkscape:window-height="1920"
     id="namedview4077"
     showgrid="false"
     inkscape:zoom="0.89393941"
     inkscape:cx="335.66596"
     inkscape:cy="297.87328"
     inkscape:window-x="0"
     inkscape:window-y="0"
     inkscape:window-maximized="1"
     inkscape:current-layer="svg4075" />
  <style
     text="style/css"
     id="style3395"><![CDATA[
tspan { white-space: pre; }
]]></style>
  <!-- Page: 2/19 -->
  <text
     transform="translate(7.2270, 8.8659)"
     font-family="serif"
     font-size="2.2001"
     text-anchor="start"
     fill="currentColor"
     id="text3399">
    <tspan
       id="tspan3397">2</tspan>
  </text>
  <text
     transform="translate(115.6320, 8.8659)"
     font-family="serif"
     font-size="2.2001"
     text-anchor="start"
     fill="currentColor"
     id="text3403">
    <tspan
       id="tspan3401" />
  </text>
  <rect
     transform="translate(115.4420, 115.6327)"
     x="0.0000"
     y="-2.0000"
     width="0.1900"
     height="4.0000"
     ry="0.0000"
     fill="currentColor"
     id="rect3405" />
  <rect
     transform="translate(114.9520, 115.6327)"
     x="0.0000"
     y="-2.0000"
     width="0.1900"
     height="4.0000"
     ry="0.0000"
     fill="currentColor"
     id="rect3407" />
  <rect
     x="115.442"
     y="23.446899"
     width="0.19"
     height="109.2168"
     ry="0.0000"
     id="rect3409"
     style="fill:currentColor;stroke-width:5.22534227" />
  <rect
     transform="translate(114.9520, 130.6637)"
     x="0.0000"
     y="-2.0000"
     width="0.1900"
     height="4.0000"
     ry="0.0000"
     fill="currentColor"
     id="rect3411" />
  <rect
     transform="translate(115.4420, 25.4469)"
     x="0.0000"
     y="-2.0000"
     width="0.1900"
     height="4.0000"
     ry="0.0000"
     fill="currentColor"
     id="rect3413" />
  <rect
     x="114.952"
     y="23.446899"
     width="0.19"
     height="109.2168"
     ry="0.0000"
     id="rect3415"
     style="fill:currentColor;stroke-width:5.22534227" />
  <rect
     transform="translate(115.4420, 40.4778)"
     x="0.0000"
     y="-2.0000"
     width="0.1900"
     height="4.0000"
     ry="0.0000"
     fill="currentColor"
     id="rect3417" />
  <rect
     transform="translate(114.9520, 40.4778)"
     x="0.0000"
     y="-2.0000"
     width="0.1900"
     height="4.0000"
     ry="0.0000"
     fill="currentColor"
     id="rect3419" />
  <rect
     transform="translate(115.4420, 55.5088)"
     x="0.0000"
     y="-2.0000"
     width="0.1900"
     height="4.0000"
     ry="0.0000"
     fill="currentColor"
     id="rect3421" />
  <rect
     transform="translate(114.9520, 55.5088)"
     x="0.0000"
     y="-2.0000"
     width="0.1900"
     height="4.0000"
     ry="0.0000"
     fill="currentColor"
     id="rect3423" />
  <rect
     transform="translate(115.4420, 70.5398)"
     x="0.0000"
     y="-2.0000"
     width="0.1900"
     height="4.0000"
     ry="0.0000"
     fill="currentColor"
     id="rect3425" />
  <rect
     transform="translate(114.9520, 70.5398)"
     x="0.0000"
     y="-2.0000"
     width="0.1900"
     height="4.0000"
     ry="0.0000"
     fill="currentColor"
     id="rect3427" />
  <rect
     transform="translate(115.4420, 85.5708)"
     x="0.0000"
     y="-2.0000"
     width="0.1900"
     height="4.0000"
     ry="0.0000"
     fill="currentColor"
     id="rect3429" />
  <rect
     transform="translate(114.9520, 85.5708)"
     x="0.0000"
     y="-2.0000"
     width="0.1900"
     height="4.0000"
     ry="0.0000"
     fill="currentColor"
     id="rect3431" />
  <rect
     transform="translate(115.4420, 100.6018)"
     x="0.0000"
     y="-2.0000"
     width="0.1900"
     height="4.0000"
     ry="0.0000"
     fill="currentColor"
     id="rect3433" />
  <rect
     transform="translate(114.9520, 100.6018)"
     x="0.0000"
     y="-2.0000"
     width="0.1900"
     height="4.0000"
     ry="0.0000"
     fill="currentColor"
     id="rect3435" />
  <line
     transform="translate(115.6320, 102.6018)"
     stroke-linejoin="round"
     stroke-linecap="round"
     stroke-width="0.1000"
     stroke="currentColor"
     x1="107.7750"
     y1="-0.0000"
     x2="107.6750"
     y2="-0.0000"
     id="line3437" />
  <line
     transform="translate(115.6320, 101.6018)"
     stroke-linejoin="round"
     stroke-linecap="round"
     stroke-width="0.1000"
     stroke="currentColor"
     x1="107.7750"
     y1="-0.0000"
     x2="107.6750"
     y2="-0.0000"
     id="line3439" />
  <line
     transform="translate(115.6320, 100.6018)"
     stroke-linejoin="round"
     stroke-linecap="round"
     stroke-width="0.1000"
     stroke="currentColor"
     x1="107.7750"
     y1="-0.0000"
     x2="107.6750"
     y2="-0.0000"
     id="line3441" />
  <line
     transform="translate(115.6320, 99.6018)"
     stroke-linejoin="round"
     stroke-linecap="round"
     stroke-width="0.1000"
     stroke="currentColor"
     x1="107.7750"
     y1="-0.0000"
     x2="107.6750"
     y2="-0.0000"
     id="line3443" />
  <line
     transform="translate(115.6320, 98.6018)"
     stroke-linejoin="round"
     stroke-linecap="round"
     stroke-width="0.1000"
     stroke="currentColor"
     x1="107.7750"
     y1="-0.0000"
     x2="107.6750"
     y2="-0.0000"
     id="line3445" />
  <line
     transform="translate(115.6320, 87.5708)"
     stroke-linejoin="round"
     stroke-linecap="round"
     stroke-width="0.1000"
     stroke="currentColor"
     x1="107.7750"
     y1="-0.0000"
     x2="107.6750"
     y2="-0.0000"
     id="line3447" />
  <line
     transform="translate(115.6320, 86.5708)"
     stroke-linejoin="round"
     stroke-linecap="round"
     stroke-width="0.1000"
     stroke="currentColor"
     x1="107.7750"
     y1="-0.0000"
     x2="107.6750"
     y2="-0.0000"
     id="line3449" />
  <line
     transform="translate(115.6320, 85.5708)"
     stroke-linejoin="round"
     stroke-linecap="round"
     stroke-width="0.1000"
     stroke="currentColor"
     x1="107.7750"
     y1="-0.0000"
     x2="107.6750"
     y2="-0.0000"
     id="line3451" />
  <line
     transform="translate(115.6320, 84.5708)"
     stroke-linejoin="round"
     stroke-linecap="round"
     stroke-width="0.1000"
     stroke="currentColor"
     x1="107.7750"
     y1="-0.0000"
     x2="107.6750"
     y2="-0.0000"
     id="line3453" />
  <line
     transform="translate(115.6320, 83.5708)"
     stroke-linejoin="round"
     stroke-linecap="round"
     stroke-width="0.1000"
     stroke="currentColor"
     x1="107.7750"
     y1="-0.0000"
     x2="107.6750"
     y2="-0.0000"
     id="line3455" />
  <line
     transform="translate(115.6320, 42.4778)"
     stroke-linejoin="round"
     stroke-linecap="round"
     stroke-width="0.1000"
     stroke="currentColor"
     x1="107.7750"
     y1="-0.0000"
     x2="107.6750"
     y2="-0.0000"
     id="line3457" />
  <line
     transform="translate(115.6320, 41.4778)"
     stroke-linejoin="round"
     stroke-linecap="round"
     stroke-width="0.1000"
     stroke="currentColor"
     x1="107.7750"
     y1="-0.0000"
     x2="107.6750"
     y2="-0.0000"
     id="line3459" />
  <line
     transform="translate(115.6320, 40.4778)"
     stroke-linejoin="round"
     stroke-linecap="round"
     stroke-width="0.1000"
     stroke="currentColor"
     x1="107.7750"
     y1="-0.0000"
     x2="107.6750"
     y2="-0.0000"
     id="line3461" />
  <line
     transform="translate(115.6320, 39.4778)"
     stroke-linejoin="round"
     stroke-linecap="round"
     stroke-width="0.1000"
     stroke="currentColor"
     x1="107.7750"
     y1="-0.0000"
     x2="107.6750"
     y2="-0.0000"
     id="line3463" />
  <line
     transform="translate(115.6320, 38.4778)"
     stroke-linejoin="round"
     stroke-linecap="round"
     stroke-width="0.1000"
     stroke="currentColor"
     x1="107.7750"
     y1="-0.0000"
     x2="107.6750"
     y2="-0.0000"
     id="line3465" />
  <line
     transform="translate(7.2270, 27.4469)"
     stroke-linejoin="round"
     stroke-linecap="round"
     stroke-width="0.1000"
     stroke="currentColor"
     x1="0.0500"
     y1="-0.0000"
     x2="107.6750"
     y2="-0.0000"
     id="line3467" />
  <line
     transform="translate(7.2270, 26.4469)"
     stroke-linejoin="round"
     stroke-linecap="round"
     stroke-width="0.1000"
     stroke="currentColor"
     x1="0.0500"
     y1="-0.0000"
     x2="107.6750"
     y2="-0.0000"
     id="line3469" />
  <line
     transform="translate(7.2270, 25.4469)"
     stroke-linejoin="round"
     stroke-linecap="round"
     stroke-width="0.1000"
     stroke="currentColor"
     x1="0.0500"
     y1="-0.0000"
     x2="107.6750"
     y2="-0.0000"
     id="line3471" />
  <line
     transform="translate(7.2270, 24.4469)"
     stroke-linejoin="round"
     stroke-linecap="round"
     stroke-width="0.1000"
     stroke="currentColor"
     x1="0.0500"
     y1="-0.0000"
     x2="107.6750"
     y2="-0.0000"
     id="line3473" />
  <line
     transform="translate(7.2270, 23.4469)"
     stroke-linejoin="round"
     stroke-linecap="round"
     stroke-width="0.1000"
     stroke="currentColor"
     x1="0.0500"
     y1="-0.0000"
     x2="107.6750"
     y2="-0.0000"
     id="line3475" />
  <line
     transform="translate(7.2270, 57.5088)"
     stroke-linejoin="round"
     stroke-linecap="round"
     stroke-width="0.1000"
     stroke="currentColor"
     x1="0.0500"
     y1="-0.0000"
     x2="107.6750"
     y2="-0.0000"
     id="line3477" />
  <line
     transform="translate(7.2270, 56.5088)"
     stroke-linejoin="round"
     stroke-linecap="round"
     stroke-width="0.1000"
     stroke="currentColor"
     x1="0.0500"
     y1="-0.0000"
     x2="107.6750"
     y2="-0.0000"
     id="line3479" />
  <line
     transform="translate(7.2270, 55.5088)"
     stroke-linejoin="round"
     stroke-linecap="round"
     stroke-width="0.1000"
     stroke="currentColor"
     x1="0.0500"
     y1="-0.0000"
     x2="107.6750"
     y2="-0.0000"
     id="line3481" />
  <line
     transform="translate(7.2270, 54.5088)"
     stroke-linejoin="round"
     stroke-linecap="round"
     stroke-width="0.1000"
     stroke="currentColor"
     x1="0.0500"
     y1="-0.0000"
     x2="107.6750"
     y2="-0.0000"
     id="line3483" />
  <line
     transform="translate(7.2270, 53.5088)"
     stroke-linejoin="round"
     stroke-linecap="round"
     stroke-width="0.1000"
     stroke="currentColor"
     x1="0.0500"
     y1="-0.0000"
     x2="107.6750"
     y2="-0.0000"
     id="line3485" />
  <line
     transform="translate(7.2270, 117.6327)"
     stroke-linejoin="round"
     stroke-linecap="round"
     stroke-width="0.1000"
     stroke="currentColor"
     x1="0.0500"
     y1="-0.0000"
     x2="37.7236"
     y2="-0.0000"
     id="line3487" />
  <line
     transform="translate(7.2270, 116.6327)"
     stroke-linejoin="round"
     stroke-linecap="round"
     stroke-width="0.1000"
     stroke="currentColor"
     x1="0.0500"
     y1="-0.0000"
     x2="37.7236"
     y2="-0.0000"
     id="line3489" />
  <line
     transform="translate(7.2270, 115.6327)"
     stroke-linejoin="round"
     stroke-linecap="round"
     stroke-width="0.1000"
     stroke="currentColor"
     x1="0.0500"
     y1="-0.0000"
     x2="37.7236"
     y2="-0.0000"
     id="line3491" />
  <line
     transform="translate(7.2270, 114.6327)"
     stroke-linejoin="round"
     stroke-linecap="round"
     stroke-width="0.1000"
     stroke="currentColor"
     x1="0.0500"
     y1="-0.0000"
     x2="37.7236"
     y2="-0.0000"
     id="line3493" />
  <line
     transform="translate(7.2270, 113.6327)"
     stroke-linejoin="round"
     stroke-linecap="round"
     stroke-width="0.1000"
     stroke="currentColor"
     x1="0.0500"
     y1="-0.0000"
     x2="37.7236"
     y2="-0.0000"
     id="line3495" />
  <rect
     transform="translate(7.2270, 73.5398)"
     x="66.4194"
     y="-0.1000"
     width="2.0660"
     height="0.2000"
     ry="0.1000"
     fill="currentColor"
     id="rect3497" />
  <rect
     transform="translate(7.2270, 73.5398)"
     x="38.2293"
     y="-0.1000"
     width="2.0660"
     height="0.2000"
     ry="0.1000"
     fill="currentColor"
     id="rect3499" />
  <rect
     transform="translate(7.2270, 73.5398)"
     x="30.0479"
     y="-0.1000"
     width="1.8053"
     height="0.2000"
     ry="0.1000"
     fill="currentColor"
     id="rect3501" />
  <line
     transform="translate(7.2270, 72.5398)"
     stroke-linejoin="round"
     stroke-linecap="round"
     stroke-width="0.1000"
     stroke="currentColor"
     x1="0.0500"
     y1="-0.0000"
     x2="107.6750"
     y2="-0.0000"
     id="line3503" />
  <line
     transform="translate(7.2270, 71.5398)"
     stroke-linejoin="round"
     stroke-linecap="round"
     stroke-width="0.1000"
     stroke="currentColor"
     x1="0.0500"
     y1="-0.0000"
     x2="107.6750"
     y2="-0.0000"
     id="line3505" />
  <line
     transform="translate(7.2270, 70.5398)"
     stroke-linejoin="round"
     stroke-linecap="round"
     stroke-width="0.1000"
     stroke="currentColor"
     x1="0.0500"
     y1="-0.0000"
     x2="107.6750"
     y2="-0.0000"
     id="line3507" />
  <line
     transform="translate(7.2270, 69.5398)"
     stroke-linejoin="round"
     stroke-linecap="round"
     stroke-width="0.1000"
     stroke="currentColor"
     x1="0.0500"
     y1="-0.0000"
     x2="107.6750"
     y2="-0.0000"
     id="line3509" />
  <line
     transform="translate(7.2270, 68.5398)"
     stroke-linejoin="round"
     stroke-linecap="round"
     stroke-width="0.1000"
     stroke="currentColor"
     x1="0.0500"
     y1="-0.0000"
     x2="107.6750"
     y2="-0.0000"
     id="line3511" />
  <line
     transform="translate(7.2270, 132.6637)"
     stroke-linejoin="round"
     stroke-linecap="round"
     stroke-width="0.1000"
     stroke="currentColor"
     x1="0.0500"
     y1="-0.0000"
     x2="107.6750"
     y2="-0.0000"
     id="line3513" />
  <line
     transform="translate(7.2270, 131.6637)"
     stroke-linejoin="round"
     stroke-linecap="round"
     stroke-width="0.1000"
     stroke="currentColor"
     x1="0.0500"
     y1="-0.0000"
     x2="107.6750"
     y2="-0.0000"
     id="line3515" />
  <line
     transform="translate(7.2270, 130.6637)"
     stroke-linejoin="round"
     stroke-linecap="round"
     stroke-width="0.1000"
     stroke="currentColor"
     x1="0.0500"
     y1="-0.0000"
     x2="107.6750"
     y2="-0.0000"
     id="line3517" />
  <line
     transform="translate(7.2270, 129.6637)"
     stroke-linejoin="round"
     stroke-linecap="round"
     stroke-width="0.1000"
     stroke="currentColor"
     x1="0.0500"
     y1="-0.0000"
     x2="107.6750"
     y2="-0.0000"
     id="line3519" />
  <line
     transform="translate(7.2270, 128.6637)"
     stroke-linejoin="round"
     stroke-linecap="round"
     stroke-width="0.1000"
     stroke="currentColor"
     x1="0.0500"
     y1="-0.0000"
     x2="107.6750"
     y2="-0.0000"
     id="line3521" />
  <line
     transform="translate(115.6320, 117.6327)"
     stroke-linejoin="round"
     stroke-linecap="round"
     stroke-width="0.1000"
     stroke="currentColor"
     x1="107.7750"
     y1="-0.0000"
     x2="107.6750"
     y2="-0.0000"
     id="line3523" />
  <line
     transform="translate(115.6320, 116.6327)"
     stroke-linejoin="round"
     stroke-linecap="round"
     stroke-width="0.1000"
     stroke="currentColor"
     x1="107.7750"
     y1="-0.0000"
     x2="107.6750"
     y2="-0.0000"
     id="line3525" />
  <line
     transform="translate(115.6320, 115.6327)"
     stroke-linejoin="round"
     stroke-linecap="round"
     stroke-width="0.1000"
     stroke="currentColor"
     x1="107.7750"
     y1="-0.0000"
     x2="107.6750"
     y2="-0.0000"
     id="line3527" />
  <line
     transform="translate(115.6320, 114.6327)"
     stroke-linejoin="round"
     stroke-linecap="round"
     stroke-width="0.1000"
     stroke="currentColor"
     x1="107.7750"
     y1="-0.0000"
     x2="107.6750"
     y2="-0.0000"
     id="line3529" />
  <line
     transform="translate(115.6320, 113.6327)"
     stroke-linejoin="round"
     stroke-linecap="round"
     stroke-width="0.1000"
     stroke="currentColor"
     x1="107.7750"
     y1="-0.0000"
     x2="107.6750"
     y2="-0.0000"
     id="line3531" />
  <rect
     transform="translate(97.7140, 46.9063)"
     x="-0.3245"
     y="-0.1000"
     width="1.9123"
     height="0.1000"
     ry="0.0000"
     fill="currentColor"
     id="rect3533" />
  <rect
     transform="translate(97.7140, 44.9916)"
     x="-0.3245"
     y="-0.1000"
     width="1.9123"
     height="0.1000"
     ry="0.0000"
     fill="currentColor"
     id="rect3535" />
  <rect
     transform="translate(97.3896, 46.5477)"
     x="0"
     y="-1.5561"
     width="0.1000"
     height="1.8147"
     ry="0.0000"
     fill="currentColor"
     id="rect3537" />
  <rect
     transform="translate(99.2018, 46.5477)"
     x="0"
     y="-1.5561"
     width="0.1000"
     height="1.8147"
     ry="0.0000"
     fill="currentColor"
     id="rect3539" />
  <text
     transform="translate(97.7140, 46.5477)"
     font-family="serif"
     font-size="2.4696"
     text-anchor="start"
     fill="currentColor"
     id="text3543">
    <tspan
       id="tspan3541">s</tspan>
  </text>
  <path
     transform="translate(98.5082, 85.5708)"
     stroke-width="0.1000"
     stroke-linejoin="round"
     stroke-linecap="round"
     stroke="currentColor"
     fill="currentColor"
     d="M-0.6000 -0.5200L-0.6000 0.5000L0.6000 0.5000L0.6000 -0.5200L-0.6000 -0.5200L-0.5300 -0.3500L0.5300 -0.4900L0.5300 0.3300L-0.5300 0.4700L-0.5300 -0.3500z"
     id="path3545" />
  <rect
     transform="translate(97.7140, 91.9993)"
     x="-0.3245"
     y="-0.1000"
     width="1.9123"
     height="0.1000"
     ry="0.0000"
     fill="currentColor"
     id="rect3547" />
  <rect
     transform="translate(97.7140, 90.0846)"
     x="-0.3245"
     y="-0.1000"
     width="1.9123"
     height="0.1000"
     ry="0.0000"
     fill="currentColor"
     id="rect3549" />
  <rect
     transform="translate(97.3896, 91.6406)"
     x="0"
     y="-1.5561"
     width="0.1000"
     height="1.8147"
     ry="0.0000"
     fill="currentColor"
     id="rect3551" />
  <rect
     transform="translate(99.2018, 91.6406)"
     x="0"
     y="-1.5561"
     width="0.1000"
     height="1.8147"
     ry="0.0000"
     fill="currentColor"
     id="rect3553" />
  <text
     transform="translate(97.7140, 91.6406)"
     font-family="serif"
     font-size="2.4696"
     text-anchor="start"
     fill="currentColor"
     id="text3557">
    <tspan
       id="tspan3555">s</tspan>
  </text>
  <path
     transform="translate(98.5082, 100.6018)"
     stroke-width="0.1000"
     stroke-linejoin="round"
     stroke-linecap="round"
     stroke="currentColor"
     fill="currentColor"
     d="M-0.6000 -0.5200L-0.6000 0.5000L0.6000 0.5000L0.6000 -0.5200L-0.6000 -0.5200L-0.5300 -0.3500L0.5300 -0.4900L0.5300 0.3300L-0.5300 0.4700L-0.5300 -0.3500z"
     id="path3559" />
  <rect
     transform="translate(97.7140, 107.0303)"
     x="-0.3245"
     y="-0.1000"
     width="1.9123"
     height="0.1000"
     ry="0.0000"
     fill="currentColor"
     id="rect3561" />
  <rect
     transform="translate(97.7140, 105.1155)"
     x="-0.3245"
     y="-0.1000"
     width="1.9123"
     height="0.1000"
     ry="0.0000"
     fill="currentColor"
     id="rect3563" />
  <rect
     transform="translate(97.3896, 106.6716)"
     x="0"
     y="-1.5561"
     width="0.1000"
     height="1.8147"
     ry="0.0000"
     fill="currentColor"
     id="rect3565" />
  <rect
     transform="translate(99.2018, 106.6716)"
     x="0"
     y="-1.5561"
     width="0.1000"
     height="1.8147"
     ry="0.0000"
     fill="currentColor"
     id="rect3567" />
  <text
     transform="translate(97.7140, 106.6716)"
     font-family="serif"
     font-size="2.4696"
     text-anchor="start"
     fill="currentColor"
     id="text3571">
    <tspan
       id="tspan3569">s</tspan>
  </text>
  <path
     transform="translate(98.5082, 115.6327)"
     stroke-width="0.1000"
     stroke-linejoin="round"
     stroke-linecap="round"
     stroke="currentColor"
     fill="currentColor"
     d="M-0.6000 -0.5200L-0.6000 0.5000L0.6000 0.5000L0.6000 -0.5200L-0.6000 -0.5200L-0.5300 -0.3500L0.5300 -0.4900L0.5300 0.3300L-0.5300 0.4700L-0.5300 -0.3500z"
     id="path3573" />
  <path
     transform="translate(98.5082, 40.4778)"
     stroke-width="0.1000"
     stroke-linejoin="round"
     stroke-linecap="round"
     stroke="currentColor"
     fill="currentColor"
     d="M-0.6000 -0.5200L-0.6000 0.5000L0.6000 0.5000L0.6000 -0.5200L-0.6000 -0.5200L-0.5300 -0.3500L0.5300 -0.4900L0.5300 0.3300L-0.5300 0.4700L-0.5300 -0.3500z"
     id="path3575" />
  <line
     transform="translate(12.7103, 15.4159)"
     stroke-linejoin="round"
     stroke-linecap="round"
     stroke-width="0.1000"
     stroke="currentColor"
     x1="53.7338"
     y1="-0.0000"
     x2="54.2338"
     y2="1.0000"
     id="line3577" />
  <line
     transform="translate(12.7103, 15.4159)"
     stroke-linejoin="round"
     stroke-linecap="round"
     stroke-width="0.1000"
     stroke="currentColor"
     x1="0.5000"
     y1="-0.0000"
     x2="0.0000"
     y2="1.0000"
     id="line3579" />
  <line
     transform="translate(12.7103, 15.4159)"
     stroke-linejoin="round"
     stroke-linecap="round"
     stroke-width="0.1000"
     stroke="currentColor"
     x1="0.5000"
     y1="-0.0000"
     x2="53.7338"
     y2="-0.0000"
     id="line3581" />
  <rect
     transform="translate(97.7140, 122.0612)"
     x="-0.3245"
     y="-0.1000"
     width="1.9123"
     height="0.1000"
     ry="0.0000"
     fill="currentColor"
     id="rect3583" />
  <rect
     transform="translate(97.7140, 120.1465)"
     x="-0.3245"
     y="-0.1000"
     width="1.9123"
     height="0.1000"
     ry="0.0000"
     fill="currentColor"
     id="rect3585" />
  <rect
     transform="translate(97.3896, 121.7026)"
     x="0"
     y="-1.5561"
     width="0.1000"
     height="1.8147"
     ry="0.0000"
     fill="currentColor"
     id="rect3587" />
  <rect
     transform="translate(99.2018, 121.7026)"
     x="0"
     y="-1.5561"
     width="0.1000"
     height="1.8147"
     ry="0.0000"
     fill="currentColor"
     id="rect3589" />
  <text
     transform="translate(97.7140, 121.7026)"
     font-family="serif"
     font-size="2.4696"
     text-anchor="start"
     fill="currentColor"
     id="text3593">
    <tspan
       id="tspan3591">s</tspan>
  </text>
  <text
     transform="translate(77.4691, 46.5477)"
     font-family="serif"
     font-size="2.4696"
     text-anchor="start"
     fill="currentColor"
     id="text3597">
    <tspan
       id="tspan3595">→</tspan>
  </text>
  <text
     transform="translate(77.4691, 91.6406)"
     font-family="serif"
     font-size="2.4696"
     text-anchor="start"
     fill="currentColor"
     id="text3601">
    <tspan
       id="tspan3599">→</tspan>
  </text>
  <text
     transform="translate(77.4691, 106.6716)"
     font-family="serif"
     font-size="2.4696"
     text-anchor="start"
     fill="currentColor"
     id="text3605">
    <tspan
       id="tspan3603">→</tspan>
  </text>
  <text
     transform="translate(77.4691, 121.7026)"
     font-family="serif"
     font-size="2.4696"
     text-anchor="start"
     fill="currentColor"
     id="text3609">
    <tspan
       id="tspan3607">→</tspan>
  </text>
  <path
     transform="translate(73.9907, 85.5708)"
     stroke-width="0.0800"
     stroke-linejoin="round"
     stroke-linecap="round"
     stroke="currentColor"
     fill="currentColor"
     d="M1.1750 -0.7500C2.7524 -1.7575 22.7401 -1.7575 24.3175 -0.7500L24.3175 -0.7500C22.7401 -1.6375 2.7524 -1.6375 1.1750 -0.7500z"
     id="path3611" />
  <path
     transform="translate(73.9907, 40.4778)"
     stroke-width="0.0800"
     stroke-linejoin="round"
     stroke-linecap="round"
     stroke="currentColor"
     fill="currentColor"
     d="M1.1750 -0.7500C2.7524 -1.7575 22.7401 -1.7575 24.3175 -0.7500L24.3175 -0.7500C22.7401 -1.6375 2.7524 -1.6375 1.1750 -0.7500z"
     id="path3613" />
  <path
     transform="translate(73.9907, 100.6018)"
     stroke-width="0.0800"
     stroke-linejoin="round"
     stroke-linecap="round"
     stroke="currentColor"
     fill="currentColor"
     d="M1.1750 -0.7500C2.7524 -1.7575 22.7401 -1.7575 24.3175 -0.7500L24.3175 -0.7500C22.7401 -1.6375 2.7524 -1.6375 1.1750 -0.7500z"
     id="path3615" />
  <line
     transform="translate(73.9907, 126.9439)"
     stroke-linejoin="round"
     stroke-linecap="round"
     stroke-width="0.1000"
     stroke="currentColor"
     x1="0.0000"
     y1="0.0000"
     x2="14.1062"
     y2="0.6666"
     id="line3617" />
  <line
     transform="translate(73.9907, 126.9439)"
     stroke-linejoin="round"
     stroke-linecap="round"
     stroke-width="0.1000"
     stroke="currentColor"
     x1="0.0000"
     y1="-0.0000"
     x2="14.1062"
     y2="-0.6666"
     id="line3619" />
  <line
     transform="translate(73.9907, 67.1733)"
     stroke-linejoin="round"
     stroke-linecap="round"
     stroke-width="0.1000"
     stroke="currentColor"
     x1="0.0000"
     y1="0.0000"
     x2="14.1062"
     y2="0.6666"
     id="line3621" />
  <line
     transform="translate(73.9907, 67.1733)"
     stroke-linejoin="round"
     stroke-linecap="round"
     stroke-width="0.1000"
     stroke="currentColor"
     x1="0.0000"
     y1="-0.0000"
     x2="14.1062"
     y2="-0.6666"
     id="line3623" />
  <line
     transform="translate(73.9907, 52.1423)"
     stroke-linejoin="round"
     stroke-linecap="round"
     stroke-width="0.1000"
     stroke="currentColor"
     x1="0.0000"
     y1="0.0000"
     x2="14.1062"
     y2="0.6666"
     id="line3625" />
  <line
     transform="translate(73.9907, 52.1423)"
     stroke-linejoin="round"
     stroke-linecap="round"
     stroke-width="0.1000"
     stroke="currentColor"
     x1="0.0000"
     y1="-0.0000"
     x2="14.1062"
     y2="-0.6666"
     id="line3627" />
  <line
     transform="translate(73.8907, 22.0803)"
     stroke-linejoin="round"
     stroke-linecap="round"
     stroke-width="0.1000"
     stroke="currentColor"
     x1="0.0000"
     y1="0.0000"
     x2="14.2062"
     y2="0.6666"
     id="line3629" />
  <line
     transform="translate(73.8907, 22.0803)"
     stroke-linejoin="round"
     stroke-linecap="round"
     stroke-width="0.1000"
     stroke="currentColor"
     x1="0.0000"
     y1="-0.0000"
     x2="14.2062"
     y2="-0.6666"
     id="line3631" />
  <text
     transform="translate(91.1043, 14.8317)"
     font-family="serif"
     font-size="1.9600"
     text-anchor="start"
     fill="currentColor"
     id="text3635">
    <tspan
       id="tspan3633">20&quot;</tspan>
  </text>
  <line
     transform="translate(73.9907, 15.4159)"
     stroke-linejoin="round"
     stroke-linecap="round"
     stroke-width="0.1000"
     stroke="currentColor"
     x1="37.1415"
     y1="-0.0000"
     x2="37.6415"
     y2="1.0000"
     id="line3637" />
  <line
     transform="translate(73.9907, 15.4159)"
     stroke-linejoin="round"
     stroke-linecap="round"
     stroke-width="0.1000"
     stroke="currentColor"
     x1="0.5000"
     y1="-0.0000"
     x2="0.0000"
     y2="1.0000"
     id="line3639" />
  <line
     transform="translate(73.9907, 15.4159)"
     stroke-linejoin="round"
     stroke-linecap="round"
     stroke-width="0.1000"
     stroke="currentColor"
     x1="0.5000"
     y1="-0.0000"
     x2="37.1415"
     y2="-0.0000"
     id="line3641" />
  <circle
     r="0.34999999"
     id="circle3645"
     cx="113.41541"
     cy="37.1049"
     style="fill:none;stroke:currentColor;stroke-width:0.1;stroke-linecap:round;stroke-linejoin:round" />
  <line
     x1="97.771507"
     y1="37.764885"
     x2="112.95215"
     y2="37.111401"
     id="line3647"
     style="stroke:currentColor;stroke-width:0.12601545;stroke-linecap:round;stroke-linejoin:round" />
  <line
     x1="97.771507"
     y1="36.457912"
     x2="112.95215"
     y2="37.111401"
     id="line3649"
     style="stroke:currentColor;stroke-width:0.12601545;stroke-linecap:round;stroke-linejoin:round" />
  <circle
     transform="translate(98.8582, 126.9439)"
     stroke-linejoin="round"
     stroke-linecap="round"
     fill="none"
     stroke="currentColor"
     stroke-width="0.1000"
     r="0.3500"
     id="circle3651" />
  <line
     transform="translate(88.7635, 126.9439)"
     stroke-linejoin="round"
     stroke-linecap="round"
     stroke-width="0.1000"
     stroke="currentColor"
     x1="0.0000"
     y1="0.6666"
     x2="9.6947"
     y2="0.0000"
     id="line3653" />
  <line
     transform="translate(88.7635, 126.9439)"
     stroke-linejoin="round"
     stroke-linecap="round"
     stroke-width="0.1000"
     stroke="currentColor"
     x1="0.0000"
     y1="-0.6666"
     x2="9.6947"
     y2="-0.0000"
     id="line3655" />
  <circle
     transform="translate(98.8582, 67.1733)"
     stroke-linejoin="round"
     stroke-linecap="round"
     fill="none"
     stroke="currentColor"
     stroke-width="0.1000"
     r="0.3500"
     id="circle3657" />
  <line
     transform="translate(88.7635, 67.1733)"
     stroke-linejoin="round"
     stroke-linecap="round"
     stroke-width="0.1000"
     stroke="currentColor"
     x1="0.0000"
     y1="0.6666"
     x2="9.6947"
     y2="0.0000"
     id="line3659" />
  <line
     transform="translate(88.7635, 67.1733)"
     stroke-linejoin="round"
     stroke-linecap="round"
     stroke-width="0.1000"
     stroke="currentColor"
     x1="0.0000"
     y1="-0.6666"
     x2="9.6947"
     y2="-0.0000"
     id="line3661" />
  <circle
     transform="translate(98.8582, 52.1423)"
     stroke-linejoin="round"
     stroke-linecap="round"
     fill="none"
     stroke="currentColor"
     stroke-width="0.1000"
     r="0.3500"
     id="circle3663" />
  <line
     transform="translate(88.7635, 52.1423)"
     stroke-linejoin="round"
     stroke-linecap="round"
     stroke-width="0.1000"
     stroke="currentColor"
     x1="0.0000"
     y1="0.6666"
     x2="9.6947"
     y2="0.0000"
     id="line3665" />
  <line
     transform="translate(88.7635, 52.1423)"
     stroke-linejoin="round"
     stroke-linecap="round"
     stroke-width="0.1000"
     stroke="currentColor"
     x1="0.0000"
     y1="-0.6666"
     x2="9.6947"
     y2="-0.0000"
     id="line3667" />
  <circle
     transform="translate(98.8582, 22.0803)"
     stroke-linejoin="round"
     stroke-linecap="round"
     fill="none"
     stroke="currentColor"
     stroke-width="0.1000"
     r="0.3500"
     id="circle3669" />
  <line
     transform="translate(88.7635, 22.0803)"
     stroke-linejoin="round"
     stroke-linecap="round"
     stroke-width="0.1000"
     stroke="currentColor"
     x1="0.0000"
     y1="0.6666"
     x2="9.6947"
     y2="0.0000"
     id="line3671" />
  <line
     transform="translate(88.7635, 22.0803)"
     stroke-linejoin="round"
     stroke-linecap="round"
     stroke-width="0.1000"
     stroke="currentColor"
     x1="0.0000"
     y1="-0.6666"
     x2="9.6947"
     y2="-0.0000"
     id="line3673" />
  <path
     transform="translate(73.9907, 115.6327)"
     stroke-width="0.0800"
     stroke-linejoin="round"
     stroke-linecap="round"
     stroke="currentColor"
     fill="currentColor"
     d="M1.1750 -0.7500C2.7524 -1.7575 22.7401 -1.7575 24.3175 -0.7500L24.3175 -0.7500C22.7401 -1.6375 2.7524 -1.6375 1.1750 -0.7500z"
     id="path3675" />
  <circle
     transform="translate(46.3256, 96.7713)"
     stroke-linejoin="round"
     stroke-linecap="round"
     fill="none"
     stroke="currentColor"
     stroke-width="0.1000"
     r="0.3500"
     id="circle3677" />
  <line
     transform="translate(46.0256, 96.7713)"
     stroke-linejoin="round"
     stroke-linecap="round"
     stroke-width="0.1000"
     stroke="currentColor"
     x1="0.6999"
     y1="0.0000"
     x2="9.7990"
     y2="0.6666"
     id="line3679" />
  <line
     transform="translate(46.0256, 96.7713)"
     stroke-linejoin="round"
     stroke-linecap="round"
     stroke-width="0.1000"
     stroke="currentColor"
     x1="0.6999"
     y1="-0.0000"
     x2="9.7990"
     y2="-0.6666"
     id="line3681" />
  <path
     transform="translate(37.4499, 70.5398)"
     stroke-width="0.0800"
     stroke-linejoin="round"
     stroke-linecap="round"
     stroke="currentColor"
     fill="currentColor"
     d="M0.8521 3.7500C1.9781 4.6604 7.7134 4.6604 8.8394 3.7500L8.8394 3.7500C7.7134 4.5404 1.9781 4.5404 0.8521 3.7500z"
     id="path3683" />
  <circle
     transform="translate(47.1256, 111.8023)"
     stroke-linejoin="round"
     stroke-linecap="round"
     fill="none"
     stroke="currentColor"
     stroke-width="0.1000"
     r="0.3500"
     id="circle3685" />
  <line
     transform="translate(40.5701, 111.8023)"
     stroke-linejoin="round"
     stroke-linecap="round"
     stroke-width="0.1000"
     stroke="currentColor"
     x1="0.0000"
     y1="0.6666"
     x2="6.1555"
     y2="0.0000"
     id="line3687" />
  <line
     transform="translate(40.5701, 111.8023)"
     stroke-linejoin="round"
     stroke-linecap="round"
     stroke-width="0.1000"
     stroke="currentColor"
     x1="0.0000"
     y1="-0.6666"
     x2="6.1555"
     y2="-0.0000"
     id="line3689" />
  <path
     transform="translate(29.2034, 85.5708)"
     stroke-width="0.0800"
     stroke-linejoin="round"
     stroke-linecap="round"
     stroke="currentColor"
     fill="currentColor"
     d="M1.1000 -0.7500C2.5482 -1.7355 15.9240 -1.7355 17.3722 -0.7500L17.3722 -0.7500C15.9240 -1.6155 2.5482 -1.6155 1.1000 -0.7500z"
     id="path3691" />
  <path
     transform="translate(45.8006, 25.4469)"
     stroke-width="0.0800"
     stroke-linejoin="round"
     stroke-linecap="round"
     stroke="currentColor"
     fill="currentColor"
     d="M0.8887 -0.7500C2.5239 -1.7663 27.0436 -1.7663 28.6788 -0.7500L28.6788 -0.7500C27.0436 -1.6463 2.5239 -1.6463 0.8887 -0.7500z"
     id="path3693" />
  <path
     transform="translate(29.2034, 40.4778)"
     stroke-width="0.0800"
     stroke-linejoin="round"
     stroke-linecap="round"
     stroke="currentColor"
     fill="currentColor"
     d="M1.1000 -0.7500C2.5482 -1.7355 15.9240 -1.7355 17.3722 -0.7500L17.3722 -0.7500C15.9240 -1.6155 2.5482 -1.6155 1.1000 -0.7500z"
     id="path3695" />
  <circle
     transform="translate(29.7033, 81.7403)"
     stroke-linejoin="round"
     stroke-linecap="round"
     fill="none"
     stroke="currentColor"
     stroke-width="0.1000"
     r="0.3500"
     id="circle3697" />
  <line
     transform="translate(29.4034, 81.7403)"
     stroke-linejoin="round"
     stroke-linecap="round"
     stroke-width="0.1000"
     stroke="currentColor"
     x1="0.6999"
     y1="0.0000"
     x2="14.1700"
     y2="0.6666"
     id="line3699" />
  <line
     transform="translate(29.4034, 81.7403)"
     stroke-linejoin="round"
     stroke-linecap="round"
     stroke-width="0.1000"
     stroke="currentColor"
     x1="0.6999"
     y1="-0.0000"
     x2="14.1700"
     y2="-0.6666"
     id="line3701" />
  <circle
     transform="translate(29.7033, 36.6474)"
     stroke-linejoin="round"
     stroke-linecap="round"
     fill="none"
     stroke="currentColor"
     stroke-width="0.1000"
     r="0.3500"
     id="circle3703" />
  <line
     transform="translate(29.4034, 36.6474)"
     stroke-linejoin="round"
     stroke-linecap="round"
     stroke-width="0.1000"
     stroke="currentColor"
     x1="0.6999"
     y1="0.0000"
     x2="14.1700"
     y2="0.6666"
     id="line3705" />
  <line
     transform="translate(29.4034, 36.6474)"
     stroke-linejoin="round"
     stroke-linecap="round"
     stroke-width="0.1000"
     stroke="currentColor"
     x1="0.6999"
     y1="-0.0000"
     x2="14.1700"
     y2="-0.6666"
     id="line3707" />
  <path
     transform="translate(20.9569, 55.5088)"
     stroke-width="0.0800"
     stroke-linejoin="round"
     stroke-linecap="round"
     stroke="currentColor"
     fill="currentColor"
     d="M0.8521 2.7500C2.4479 3.7604 23.7366 3.7604 25.3324 2.7500L25.3324 2.7500C23.7366 3.6404 2.4479 3.6404 0.8521 2.7500z"
     id="path3709" />
  <path
     transform="translate(12.7103, 25.4469)"
     stroke-width="0.0800"
     stroke-linejoin="round"
     stroke-linecap="round"
     stroke="currentColor"
     fill="currentColor"
     d="M0.8521 -0.7500C2.5336 -1.7729 31.8975 -1.7729 33.5789 -0.7500L33.5789 -0.7500C31.8975 -1.6529 2.5336 -1.6529 0.8521 -0.7500z"
     id="path3711" />
  <text
     transform="translate(38.1201, 14.8317)"
     font-family="serif"
     font-size="1.9600"
     text-anchor="start"
     fill="currentColor"
     id="text3715">
    <tspan
       id="tspan3713">15&quot;</tspan>
  </text>
  <path
     transform="translate(52.4137, 115.6327)"
     stroke-width="0.0800"
     stroke-linejoin="round"
     stroke-linecap="round"
     stroke="currentColor"
     fill="currentColor"
     d="M1.1750 -0.7500C2.7221 -1.7527 20.8049 -1.7527 22.3520 -0.7500L22.3520 -0.7500C20.8049 -1.6327 2.7221 -1.6327 1.1750 -0.7500z"
     id="path3717" />
  <circle
     transform="translate(52.9387, 111.8023)"
     stroke-linejoin="round"
     stroke-linecap="round"
     fill="none"
     stroke="currentColor"
     stroke-width="0.1000"
     r="0.3500"
     id="circle3719" />
  <line
     transform="translate(52.6387, 111.8023)"
     stroke-linejoin="round"
     stroke-linecap="round"
     stroke-width="0.1000"
     stroke="currentColor"
     x1="0.6999"
     y1="0.0000"
     x2="10.4511"
     y2="0.6666"
     id="line3721" />
  <line
     transform="translate(52.6387, 111.8023)"
     stroke-linejoin="round"
     stroke-linecap="round"
     stroke-width="0.1000"
     stroke="currentColor"
     x1="0.6999"
     y1="-0.0000"
     x2="10.4511"
     y2="-0.6666"
     id="line3723" />
  <path
     transform="translate(45.8006, 130.6637)"
     stroke-width="0.0800"
     stroke-linejoin="round"
     stroke-linecap="round"
     stroke="currentColor"
     fill="currentColor"
     d="M0.8887 1.5823C2.5239 2.5986 27.0436 2.5986 28.6788 1.5823L28.6788 1.5823C27.0436 2.4786 2.5239 2.4786 0.8887 1.5823z"
     id="path3725" />
  <path
     transform="translate(45.8006, 100.6018)"
     stroke-width="0.0800"
     stroke-linejoin="round"
     stroke-linecap="round"
     stroke="currentColor"
     fill="currentColor"
     d="M1.1750 -0.7500C2.8102 -1.7663 27.3299 -1.7663 28.9651 -0.7500L28.9651 -0.7500C27.3299 -1.6463 2.8102 -1.6463 1.1750 -0.7500z"
     id="path3727" />
  <path
     transform="translate(45.8006, 85.5708)"
     stroke-width="0.0800"
     stroke-linejoin="round"
     stroke-linecap="round"
     stroke="currentColor"
     fill="currentColor"
     d="M1.1750 -0.7500C2.8102 -1.7663 27.3299 -1.7663 28.9651 -0.7500L28.9651 -0.7500C27.3299 -1.6463 2.8102 -1.6463 1.1750 -0.7500z"
     id="path3731" />
  <path
     transform="translate(45.8006, 70.5398)"
     stroke-width="0.0800"
     stroke-linejoin="round"
     stroke-linecap="round"
     stroke="currentColor"
     fill="currentColor"
     d="M0.8887 3.7500C2.5239 4.7663 27.0436 4.7663 28.6788 3.7500L28.6788 3.7500C27.0436 4.6463 2.5239 4.6463 0.8887 3.7500z"
     id="path3733" />
  <path
     transform="translate(45.8006, 55.5088)"
     stroke-width="0.0800"
     stroke-linejoin="round"
     stroke-linecap="round"
     stroke="currentColor"
     fill="currentColor"
     d="M0.8887 2.7500C2.5239 3.7663 27.0436 3.7663 28.6788 2.7500L28.6788 2.7500C27.0436 3.6463 2.5239 3.6463 0.8887 2.7500z"
     id="path3735" />
  <path
     transform="translate(45.8006, 40.4778)"
     stroke-width="0.0800"
     stroke-linejoin="round"
     stroke-linecap="round"
     stroke="currentColor"
     fill="currentColor"
     d="M1.1750 -0.7500C2.8102 -1.7663 27.3299 -1.7663 28.9651 -0.7500L28.9651 -0.7500C27.3299 -1.6463 2.8102 -1.6463 1.1750 -0.7500z"
     id="path3737" />
  <rect
     transform="translate(111.5672, 10.4159)"
     x="-0.0650"
     y="3.3139"
     width="0.1300"
     height="0.0000"
     ry="0.0000"
     fill="currentColor"
     id="rect3739" />
  <rect
     transform="translate(29.3217, 91.9993)"
     x="-0.3245"
     y="-0.1000"
     width="1.9123"
     height="0.1000"
     ry="0.0000"
     fill="currentColor"
     id="rect3743" />
  <rect
     transform="translate(29.3217, 90.0846)"
     x="-0.3245"
     y="-0.1000"
     width="1.9123"
     height="0.1000"
     ry="0.0000"
     fill="currentColor"
     id="rect3745" />
  <rect
     transform="translate(28.9972, 91.6406)"
     x="0"
     y="-1.5561"
     width="0.1000"
     height="1.8147"
     ry="0.0000"
     fill="currentColor"
     id="rect3747" />
  <rect
     transform="translate(30.8095, 91.6406)"
     x="0"
     y="-1.5561"
     width="0.1000"
     height="1.8147"
     ry="0.0000"
     fill="currentColor"
     id="rect3749" />
  <text
     transform="translate(29.3217, 91.6406)"
     font-family="serif"
     font-size="2.4696"
     text-anchor="start"
     fill="currentColor"
     id="text3753">
    <tspan
       id="tspan3751">s</tspan>
  </text>
  <g
     transform="translate(20.1408, 52.2784)"
     id="g3759">
    <path
       transform="scale(0.0040, -0.0040)"
       d="M233 243c-56 0 -102 -107 -102 -173c0 -22 8 -38 30 -38c64 0 97 126 97 178c0 18 -7 33 -25 33zM112 -146c-38 0 -78 5 -116 5c-39 0 -78 -5 -115 -5c-9 0 -14 7 -14 14c0 18 31 15 48 16c22 1 47 5 54 25l102 300c2 7 4 14 4 20c0 8 -2 14 -11 14 c-33 0 -63 -60 -79 -97c-5 -12 -15 -17 -24 -17c-8 0 -14 4 -14 12c0 2 1 5 2 8c30 68 72 143 132 143c35 0 59 -21 66 -52c29 31 67 52 103 52c69 0 107 -49 107 -114c0 -21 -4 -44 -12 -67c-20 -58 -91 -119 -147 -119c-27 0 -52 5 -73 17c-4 2 -7 3 -11 3 c-7 0 -14 -3 -16 -9l-29 -86c-1 -2 -1 -5 -1 -7c0 -20 21 -26 44 -28c9 -1 13 -8 13 -14c0 -7 -4 -14 -13 -14z"
       fill="currentColor"
       id="path3755" />
    <path
       transform="translate(1.4682, 0.0000) scale(0.0040, -0.0040)"
       d="M233 243c-56 0 -102 -107 -102 -173c0 -22 8 -38 30 -38c64 0 97 126 97 178c0 18 -7 33 -25 33zM112 -146c-38 0 -78 5 -116 5c-39 0 -78 -5 -115 -5c-9 0 -14 7 -14 14c0 18 31 15 48 16c22 1 47 5 54 25l102 300c2 7 4 14 4 20c0 8 -2 14 -11 14 c-33 0 -63 -60 -79 -97c-5 -12 -15 -17 -24 -17c-8 0 -14 4 -14 12c0 2 1 5 2 8c30 68 72 143 132 143c35 0 59 -21 66 -52c29 31 67 52 103 52c69 0 107 -49 107 -114c0 -21 -4 -44 -12 -67c-20 -58 -91 -119 -147 -119c-27 0 -52 5 -73 17c-4 2 -7 3 -11 3 c-7 0 -14 -3 -16 -9l-29 -86c-1 -2 -1 -5 -1 -7c0 -20 21 -26 44 -28c9 -1 13 -8 13 -14c0 -7 -4 -14 -13 -14z"
       fill="currentColor"
       id="path3757" />
  </g>
  <rect
     transform="translate(20.9078, 61.3675)"
     x="-0.3245"
     y="-0.1000"
     width="2.1513"
     height="0.1000"
     ry="0.0000"
     fill="currentColor"
     id="rect3761" />
  <rect
     transform="translate(20.9078, 59.4527)"
     x="-0.3245"
     y="-0.1000"
     width="2.1513"
     height="0.1000"
     ry="0.0000"
     fill="currentColor"
     id="rect3763" />
  <rect
     transform="translate(20.5833, 61.0088)"
     x="0"
     y="-1.5561"
     width="0.1000"
     height="1.8147"
     ry="0.0000"
     fill="currentColor"
     id="rect3765" />
  <rect
     transform="translate(22.6346, 61.0088)"
     x="0"
     y="-1.5561"
     width="0.1000"
     height="1.8147"
     ry="0.0000"
     fill="currentColor"
     id="rect3767" />
  <text
     transform="translate(20.9078, 61.0088)"
     font-family="serif"
     font-size="2.4696"
     text-anchor="start"
     fill="currentColor"
     id="text3771">
    <tspan
       id="tspan3769">o</tspan>
  </text>
  <rect
     transform="translate(30.1034, 40.4778)"
     x="-0.6000"
     y="-0.5000"
     width="1.2000"
     height="1.0000"
     ry="0.0000"
     fill="currentColor"
     id="rect3773" />
  <rect
     transform="translate(29.3217, 46.9063)"
     x="-0.3245"
     y="-0.1000"
     width="1.9123"
     height="0.1000"
     ry="0.0000"
     fill="currentColor"
     id="rect3775" />
  <rect
     transform="translate(29.3217, 44.9916)"
     x="-0.3245"
     y="-0.1000"
     width="1.9123"
     height="0.1000"
     ry="0.0000"
     fill="currentColor"
     id="rect3777" />
  <rect
     transform="translate(28.9972, 46.5477)"
     x="0"
     y="-1.5561"
     width="0.1000"
     height="1.8147"
     ry="0.0000"
     fill="currentColor"
     id="rect3779" />
  <rect
     transform="translate(30.8095, 46.5477)"
     x="0"
     y="-1.5561"
     width="0.1000"
     height="1.8147"
     ry="0.0000"
     fill="currentColor"
     id="rect3781" />
  <text
     transform="translate(29.3217, 46.5477)"
     font-family="serif"
     font-size="2.4696"
     text-anchor="start"
     fill="currentColor"
     id="text3785">
    <tspan
       id="tspan3783">s</tspan>
  </text>
  <rect
     transform="translate(30.1034, 85.5708)"
     x="-0.6000"
     y="-0.5000"
     width="1.2000"
     height="1.0000"
     ry="0.0000"
     fill="currentColor"
     id="rect3787" />
  <path
     transform="translate(35.9999, 73.5398) scale(0.0040, -0.0040)"
     d="M216 -312c0 -10 -8 -19 -18 -19s-19 9 -19 19v145l-83 -31v-158c0 -10 -9 -19 -19 -19s-18 9 -18 19v145l-32 -12c-2 -1 -5 -1 -7 -1c-11 0 -20 9 -20 20v60c0 8 5 16 13 19l46 16v160l-32 -11c-2 -1 -5 -1 -7 -1c-11 0 -20 9 -20 20v60c0 8 5 15 13 18l46 17v158 c0 10 8 19 18 19s19 -9 19 -19v-145l83 31v158c0 10 9 19 19 19s18 -9 18 -19v-145l32 12c2 1 5 1 7 1c11 0 20 -9 20 -20v-60c0 -8 -5 -16 -13 -19l-46 -16v-160l32 11c2 1 5 1 7 1c11 0 20 -9 20 -20v-60c0 -8 -5 -15 -13 -18l-46 -17v-158zM96 65v-160l83 30v160z"
     fill="currentColor"
     id="path3789" />
  <path
     transform="translate(36.2376, 115.6327) scale(0.0040, -0.0040)"
     d="M27 41l-1 -66v-11c0 -22 1 -44 4 -66c45 38 93 80 93 139c0 33 -14 67 -43 67c-31 0 -52 -30 -53 -63zM-15 -138l-12 595c8 5 18 8 27 8s19 -3 27 -8l-7 -345c25 21 58 34 91 34c52 0 89 -48 89 -102c0 -80 -86 -117 -147 -169c-15 -13 -24 -38 -45 -38 c-13 0 -23 11 -23 25z"
     fill="currentColor"
     id="path3791" />
  <path
     transform="translate(45.8006, 25.4469) scale(0.0040, -0.0040)"
     d="M314 65c0 24 -21 41 -42 41c-4 0 -8 0 -12 -1c-31 -9 -78 -40 -115 -64s-84 -53 -104 -78c-7 -8 -10 -18 -10 -28c0 -24 21 -41 42 -41c4 0 8 0 12 1c31 9 77 40 114 64s84 53 104 78c7 8 11 18 11 28zM262 136c46 0 82 -21 82 -71c0 -19 -4 -39 -10 -57 c-12 -37 -32 -72 -64 -94c-53 -36 -113 -50 -187 -50c-46 0 -83 21 -83 71c0 19 5 39 11 57c12 37 31 72 63 94c53 36 114 50 188 50z"
     fill="currentColor"
     id="path3793" />
  <path
     transform="translate(46.7756, 40.4778)"
     stroke-width="0.1000"
     stroke-linejoin="round"
     stroke-linecap="round"
     stroke="currentColor"
     fill="currentColor"
     d="M-0.6000 -0.5200L-0.6000 0.5000L0.6000 0.5000L0.6000 -0.5200L-0.6000 -0.5200L-0.5300 -0.3500L0.5300 -0.4900L0.5300 0.3300L-0.5300 0.4700L-0.5300 -0.3500z"
     id="path3795" />
  <g
     transform="translate(44.5734, 37.2474)"
     id="g3803">
    <path
       transform="scale(0.0040, -0.0040)"
       d="M233 243c-56 0 -102 -107 -102 -173c0 -22 8 -38 30 -38c64 0 97 126 97 178c0 18 -7 33 -25 33zM112 -146c-38 0 -78 5 -116 5c-39 0 -78 -5 -115 -5c-9 0 -14 7 -14 14c0 18 31 15 48 16c22 1 47 5 54 25l102 300c2 7 4 14 4 20c0 8 -2 14 -11 14 c-33 0 -63 -60 -79 -97c-5 -12 -15 -17 -24 -17c-8 0 -14 4 -14 12c0 2 1 5 2 8c30 68 72 143 132 143c35 0 59 -21 66 -52c29 31 67 52 103 52c69 0 107 -49 107 -114c0 -21 -4 -44 -12 -67c-20 -58 -91 -119 -147 -119c-27 0 -52 5 -73 17c-4 2 -7 3 -11 3 c-7 0 -14 -3 -16 -9l-29 -86c-1 -2 -1 -5 -1 -7c0 -20 21 -26 44 -28c9 -1 13 -8 13 -14c0 -7 -4 -14 -13 -14z"
       fill="currentColor"
       id="path3797" />
    <path
       transform="translate(1.4682, 0.0000) scale(0.0040, -0.0040)"
       d="M233 243c-56 0 -102 -107 -102 -173c0 -22 8 -38 30 -38c64 0 97 126 97 178c0 18 -7 33 -25 33zM112 -146c-38 0 -78 5 -116 5c-39 0 -78 -5 -115 -5c-9 0 -14 7 -14 14c0 18 31 15 48 16c22 1 47 5 54 25l102 300c2 7 4 14 4 20c0 8 -2 14 -11 14 c-33 0 -63 -60 -79 -97c-5 -12 -15 -17 -24 -17c-8 0 -14 4 -14 12c0 2 1 5 2 8c30 68 72 143 132 143c35 0 59 -21 66 -52c29 31 67 52 103 52c69 0 107 -49 107 -114c0 -21 -4 -44 -12 -67c-20 -58 -91 -119 -147 -119c-27 0 -52 5 -73 17c-4 2 -7 3 -11 3 c-7 0 -14 -3 -16 -9l-29 -86c-1 -2 -1 -5 -1 -7c0 -20 21 -26 44 -28c9 -1 13 -8 13 -14c0 -7 -4 -14 -13 -14z"
       fill="currentColor"
       id="path3799" />
    <path
       transform="translate(2.9363, 0.0000) scale(0.0040, -0.0040)"
       d="M233 243c-56 0 -102 -107 -102 -173c0 -22 8 -38 30 -38c64 0 97 126 97 178c0 18 -7 33 -25 33zM112 -146c-38 0 -78 5 -116 5c-39 0 -78 -5 -115 -5c-9 0 -14 7 -14 14c0 18 31 15 48 16c22 1 47 5 54 25l102 300c2 7 4 14 4 20c0 8 -2 14 -11 14 c-33 0 -63 -60 -79 -97c-5 -12 -15 -17 -24 -17c-8 0 -14 4 -14 12c0 2 1 5 2 8c30 68 72 143 132 143c35 0 59 -21 66 -52c29 31 67 52 103 52c69 0 107 -49 107 -114c0 -21 -4 -44 -12 -67c-20 -58 -91 -119 -147 -119c-27 0 -52 5 -73 17c-4 2 -7 3 -11 3 c-7 0 -14 -3 -16 -9l-29 -86c-1 -2 -1 -5 -1 -7c0 -20 21 -26 44 -28c9 -1 13 -8 13 -14c0 -7 -4 -14 -13 -14z"
       fill="currentColor"
       id="path3801" />
  </g>
  <text
     transform="translate(45.5217, 46.5477)"
     font-family="serif"
     font-size="2.4696"
     text-anchor="start"
     fill="currentColor"
     id="text3807">
    <tspan
       id="tspan3805">→</tspan>
  </text>
  <path
     transform="translate(45.8006, 73.5398) scale(0.0040, -0.0040)"
     d="M314 65c0 24 -21 41 -42 41c-4 0 -8 0 -12 -1c-31 -9 -78 -40 -115 -64s-84 -53 -104 -78c-7 -8 -10 -18 -10 -28c0 -24 21 -41 42 -41c4 0 8 0 12 1c31 9 77 40 114 64s84 53 104 78c7 8 11 18 11 28zM262 136c46 0 82 -21 82 -71c0 -19 -4 -39 -10 -57 c-12 -37 -32 -72 -64 -94c-53 -36 -113 -50 -187 -50c-46 0 -83 21 -83 71c0 19 5 39 11 57c12 37 31 72 63 94c53 36 114 50 188 50z"
     fill="currentColor"
     id="path3809" />
  <path
     transform="translate(46.7756, 85.5708)"
     stroke-width="0.1000"
     stroke-linejoin="round"
     stroke-linecap="round"
     stroke="currentColor"
     fill="currentColor"
     d="M-0.6000 -0.5200L-0.6000 0.5000L0.6000 0.5000L0.6000 -0.5200L-0.6000 -0.5200L-0.5300 -0.3500L0.5300 -0.4900L0.5300 0.3300L-0.5300 0.4700L-0.5300 -0.3500z"
     id="path3811" />
  <g
     transform="translate(44.5734, 82.3403)"
     id="g3819">
    <path
       transform="scale(0.0040, -0.0040)"
       d="M233 243c-56 0 -102 -107 -102 -173c0 -22 8 -38 30 -38c64 0 97 126 97 178c0 18 -7 33 -25 33zM112 -146c-38 0 -78 5 -116 5c-39 0 -78 -5 -115 -5c-9 0 -14 7 -14 14c0 18 31 15 48 16c22 1 47 5 54 25l102 300c2 7 4 14 4 20c0 8 -2 14 -11 14 c-33 0 -63 -60 -79 -97c-5 -12 -15 -17 -24 -17c-8 0 -14 4 -14 12c0 2 1 5 2 8c30 68 72 143 132 143c35 0 59 -21 66 -52c29 31 67 52 103 52c69 0 107 -49 107 -114c0 -21 -4 -44 -12 -67c-20 -58 -91 -119 -147 -119c-27 0 -52 5 -73 17c-4 2 -7 3 -11 3 c-7 0 -14 -3 -16 -9l-29 -86c-1 -2 -1 -5 -1 -7c0 -20 21 -26 44 -28c9 -1 13 -8 13 -14c0 -7 -4 -14 -13 -14z"
       fill="currentColor"
       id="path3813" />
    <path
       transform="translate(1.4682, 0.0000) scale(0.0040, -0.0040)"
       d="M233 243c-56 0 -102 -107 -102 -173c0 -22 8 -38 30 -38c64 0 97 126 97 178c0 18 -7 33 -25 33zM112 -146c-38 0 -78 5 -116 5c-39 0 -78 -5 -115 -5c-9 0 -14 7 -14 14c0 18 31 15 48 16c22 1 47 5 54 25l102 300c2 7 4 14 4 20c0 8 -2 14 -11 14 c-33 0 -63 -60 -79 -97c-5 -12 -15 -17 -24 -17c-8 0 -14 4 -14 12c0 2 1 5 2 8c30 68 72 143 132 143c35 0 59 -21 66 -52c29 31 67 52 103 52c69 0 107 -49 107 -114c0 -21 -4 -44 -12 -67c-20 -58 -91 -119 -147 -119c-27 0 -52 5 -73 17c-4 2 -7 3 -11 3 c-7 0 -14 -3 -16 -9l-29 -86c-1 -2 -1 -5 -1 -7c0 -20 21 -26 44 -28c9 -1 13 -8 13 -14c0 -7 -4 -14 -13 -14z"
       fill="currentColor"
       id="path3815" />
    <path
       transform="translate(2.9363, 0.0000) scale(0.0040, -0.0040)"
       d="M233 243c-56 0 -102 -107 -102 -173c0 -22 8 -38 30 -38c64 0 97 126 97 178c0 18 -7 33 -25 33zM112 -146c-38 0 -78 5 -116 5c-39 0 -78 -5 -115 -5c-9 0 -14 7 -14 14c0 18 31 15 48 16c22 1 47 5 54 25l102 300c2 7 4 14 4 20c0 8 -2 14 -11 14 c-33 0 -63 -60 -79 -97c-5 -12 -15 -17 -24 -17c-8 0 -14 4 -14 12c0 2 1 5 2 8c30 68 72 143 132 143c35 0 59 -21 66 -52c29 31 67 52 103 52c69 0 107 -49 107 -114c0 -21 -4 -44 -12 -67c-20 -58 -91 -119 -147 -119c-27 0 -52 5 -73 17c-4 2 -7 3 -11 3 c-7 0 -14 -3 -16 -9l-29 -86c-1 -2 -1 -5 -1 -7c0 -20 21 -26 44 -28c9 -1 13 -8 13 -14c0 -7 -4 -14 -13 -14z"
       fill="currentColor"
       id="path3817" />
  </g>
  <text
     transform="translate(45.5217, 91.6406)"
     font-family="serif"
     font-size="2.4696"
     text-anchor="start"
     fill="currentColor"
     id="text3823">
    <tspan
       id="tspan3821">→</tspan>
  </text>
  <path
     transform="translate(20.9569, 57.5088) scale(0.0040, -0.0040)"
     d="M218 136c55 0 108 -28 108 -89c0 -71 -55 -121 -102 -149c-35 -21 -75 -34 -116 -34c-55 0 -108 28 -108 89c0 71 55 121 102 149c35 21 75 34 116 34z"
     fill="currentColor"
     id="path3825" />
  <path
     transform="translate(37.4499, 73.5398) scale(0.0040, -0.0040)"
     d="M218 136c55 0 108 -28 108 -89c0 -71 -55 -121 -102 -149c-35 -21 -75 -34 -116 -34c-55 0 -108 28 -108 89c0 71 55 121 102 149c35 21 75 34 116 34z"
     fill="currentColor"
     id="path3827" />
  <g
     transform="translate(36.6338, 67.3094)"
     id="g3833">
    <path
       transform="scale(0.0040, -0.0040)"
       d="M233 243c-56 0 -102 -107 -102 -173c0 -22 8 -38 30 -38c64 0 97 126 97 178c0 18 -7 33 -25 33zM112 -146c-38 0 -78 5 -116 5c-39 0 -78 -5 -115 -5c-9 0 -14 7 -14 14c0 18 31 15 48 16c22 1 47 5 54 25l102 300c2 7 4 14 4 20c0 8 -2 14 -11 14 c-33 0 -63 -60 -79 -97c-5 -12 -15 -17 -24 -17c-8 0 -14 4 -14 12c0 2 1 5 2 8c30 68 72 143 132 143c35 0 59 -21 66 -52c29 31 67 52 103 52c69 0 107 -49 107 -114c0 -21 -4 -44 -12 -67c-20 -58 -91 -119 -147 -119c-27 0 -52 5 -73 17c-4 2 -7 3 -11 3 c-7 0 -14 -3 -16 -9l-29 -86c-1 -2 -1 -5 -1 -7c0 -20 21 -26 44 -28c9 -1 13 -8 13 -14c0 -7 -4 -14 -13 -14z"
       fill="currentColor"
       id="path3829" />
    <path
       transform="translate(1.4682, 0.0000) scale(0.0040, -0.0040)"
       d="M233 243c-56 0 -102 -107 -102 -173c0 -22 8 -38 30 -38c64 0 97 126 97 178c0 18 -7 33 -25 33zM112 -146c-38 0 -78 5 -116 5c-39 0 -78 -5 -115 -5c-9 0 -14 7 -14 14c0 18 31 15 48 16c22 1 47 5 54 25l102 300c2 7 4 14 4 20c0 8 -2 14 -11 14 c-33 0 -63 -60 -79 -97c-5 -12 -15 -17 -24 -17c-8 0 -14 4 -14 12c0 2 1 5 2 8c30 68 72 143 132 143c35 0 59 -21 66 -52c29 31 67 52 103 52c69 0 107 -49 107 -114c0 -21 -4 -44 -12 -67c-20 -58 -91 -119 -147 -119c-27 0 -52 5 -73 17c-4 2 -7 3 -11 3 c-7 0 -14 -3 -16 -9l-29 -86c-1 -2 -1 -5 -1 -7c0 -20 21 -26 44 -28c9 -1 13 -8 13 -14c0 -7 -4 -14 -13 -14z"
       fill="currentColor"
       id="path3831" />
  </g>
  <rect
     transform="translate(37.3508, 77.2571)"
     x="-0.3245"
     y="-0.1000"
     width="2.1513"
     height="0.1000"
     ry="0.0000"
     fill="currentColor"
     id="rect3835" />
  <rect
     transform="translate(37.3508, 75.3424)"
     x="-0.3245"
     y="-0.1000"
     width="2.1513"
     height="0.1000"
     ry="0.0000"
     fill="currentColor"
     id="rect3837" />
  <rect
     transform="translate(37.0263, 76.8985)"
     x="0"
     y="-1.5561"
     width="0.1000"
     height="1.8147"
     ry="0.0000"
     fill="currentColor"
     id="rect3839" />
  <rect
     transform="translate(39.0776, 76.8985)"
     x="0"
     y="-1.5561"
     width="0.1000"
     height="1.8147"
     ry="0.0000"
     fill="currentColor"
     id="rect3841" />
  <text
     transform="translate(37.3508, 76.8985)"
     font-family="serif"
     font-size="2.4696"
     text-anchor="start"
     fill="currentColor"
     id="text3845">
    <tspan
       id="tspan3843">o</tspan>
  </text>
  <path
     transform="translate(37.4499, 115.6327) scale(0.0040, -0.0040)"
     d="M218 136c55 0 108 -28 108 -89c0 -71 -55 -121 -102 -149c-35 -21 -75 -34 -116 -34c-55 0 -108 28 -108 89c0 71 55 121 102 149c35 21 75 34 116 34z"
     fill="currentColor"
     id="path3847" />
  <g
     transform="translate(36.6338, 112.4023)"
     id="g3853">
    <path
       transform="scale(0.0040, -0.0040)"
       d="M233 243c-56 0 -102 -107 -102 -173c0 -22 8 -38 30 -38c64 0 97 126 97 178c0 18 -7 33 -25 33zM112 -146c-38 0 -78 5 -116 5c-39 0 -78 -5 -115 -5c-9 0 -14 7 -14 14c0 18 31 15 48 16c22 1 47 5 54 25l102 300c2 7 4 14 4 20c0 8 -2 14 -11 14 c-33 0 -63 -60 -79 -97c-5 -12 -15 -17 -24 -17c-8 0 -14 4 -14 12c0 2 1 5 2 8c30 68 72 143 132 143c35 0 59 -21 66 -52c29 31 67 52 103 52c69 0 107 -49 107 -114c0 -21 -4 -44 -12 -67c-20 -58 -91 -119 -147 -119c-27 0 -52 5 -73 17c-4 2 -7 3 -11 3 c-7 0 -14 -3 -16 -9l-29 -86c-1 -2 -1 -5 -1 -7c0 -20 21 -26 44 -28c9 -1 13 -8 13 -14c0 -7 -4 -14 -13 -14z"
       fill="currentColor"
       id="path3849" />
    <path
       transform="translate(1.4682, 0.0000) scale(0.0040, -0.0040)"
       d="M233 243c-56 0 -102 -107 -102 -173c0 -22 8 -38 30 -38c64 0 97 126 97 178c0 18 -7 33 -25 33zM112 -146c-38 0 -78 5 -116 5c-39 0 -78 -5 -115 -5c-9 0 -14 7 -14 14c0 18 31 15 48 16c22 1 47 5 54 25l102 300c2 7 4 14 4 20c0 8 -2 14 -11 14 c-33 0 -63 -60 -79 -97c-5 -12 -15 -17 -24 -17c-8 0 -14 4 -14 12c0 2 1 5 2 8c30 68 72 143 132 143c35 0 59 -21 66 -52c29 31 67 52 103 52c69 0 107 -49 107 -114c0 -21 -4 -44 -12 -67c-20 -58 -91 -119 -147 -119c-27 0 -52 5 -73 17c-4 2 -7 3 -11 3 c-7 0 -14 -3 -16 -9l-29 -86c-1 -2 -1 -5 -1 -7c0 -20 21 -26 44 -28c9 -1 13 -8 13 -14c0 -7 -4 -14 -13 -14z"
       fill="currentColor"
       id="path3851" />
  </g>
  <rect
     transform="translate(37.3508, 122.0612)"
     x="-0.3245"
     y="-0.1000"
     width="2.1513"
     height="0.1000"
     ry="0.0000"
     fill="currentColor"
     id="rect3855" />
  <rect
     transform="translate(37.3508, 120.1465)"
     x="-0.3245"
     y="-0.1000"
     width="2.1513"
     height="0.1000"
     ry="0.0000"
     fill="currentColor"
     id="rect3857" />
  <rect
     transform="translate(37.0263, 121.7026)"
     x="0"
     y="-1.5561"
     width="0.1000"
     height="1.8147"
     ry="0.0000"
     fill="currentColor"
     id="rect3859" />
  <rect
     transform="translate(39.0776, 121.7026)"
     x="0"
     y="-1.5561"
     width="0.1000"
     height="1.8147"
     ry="0.0000"
     fill="currentColor"
     id="rect3861" />
  <text
     transform="translate(37.3508, 121.7026)"
     font-family="serif"
     font-size="2.4696"
     text-anchor="start"
     fill="currentColor"
     id="text3865">
    <tspan
       id="tspan3863">o</tspan>
  </text>
  <text
     transform="translate(5.1623, 131.4661)"
     font-family="serif"
     font-size="2.2001"
     text-anchor="start"
     fill="currentColor"
     id="text3869">
    <tspan
       id="tspan3867">B</tspan>
  </text>
  <rect
     transform="translate(7.1670, 78.0553)"
     x="0.0000"
     y="-54.6584"
     width="0.1600"
     height="109.3169"
     ry="0.0500"
     fill="currentColor"
     id="rect3871" />
  <text
     transform="translate(5.1623, 116.4351)"
     font-family="serif"
     font-size="2.2001"
     text-anchor="start"
     fill="currentColor"
     id="text3875">
    <tspan
       id="tspan3873">B</tspan>
  </text>
  <path
     transform="translate(8.0270, 26.4469) scale(0.0040, -0.0040)"
     d="M376 262c4 0 9 1 13 1c155 0 256 -128 256 -261c0 -76 -33 -154 -107 -210c-22 -17 -47 -28 -73 -36c3 -35 5 -70 5 -105c0 -19 -1 -39 -2 -58c-7 -120 -90 -228 -208 -228c-108 0 -195 88 -195 197c0 58 53 103 112 103c54 0 95 -47 95 -103c0 -52 -43 -95 -95 -95 c-11 0 -21 2 -31 6c26 -39 68 -65 117 -65c96 0 157 92 163 191c1 18 2 37 2 55c0 31 -1 61 -4 92c-29 -5 -58 -8 -89 -8c-188 0 -333 172 -333 374c0 177 131 306 248 441c-19 62 -37 125 -45 190c-6 52 -7 104 -7 156c0 115 55 224 149 292c3 2 7 3 10 3c4 0 7 0 10 -3 c71 -84 133 -245 133 -358c0 -143 -86 -255 -180 -364c21 -68 39 -138 56 -207zM461 -203c68 24 113 95 113 164c0 90 -66 179 -173 190c24 -116 46 -231 60 -354zM74 28c0 -135 129 -247 264 -247c28 0 55 2 82 6c-14 127 -37 245 -63 364c-79 -8 -124 -61 -124 -119 c0 -44 25 -91 81 -123c5 -5 7 -10 7 -15c0 -11 -10 -22 -22 -22c-3 0 -6 1 -9 2c-80 43 -117 115 -117 185c0 88 58 174 160 197c-14 58 -29 117 -46 175c-107 -121 -213 -243 -213 -403zM408 1045c-99 -48 -162 -149 -162 -259c0 -74 18 -133 36 -194 c80 97 146 198 146 324c0 55 -4 79 -20 129z"
     fill="currentColor"
     id="path3877" />
  <text
     transform="translate(5.2647, 26.2492)"
     font-family="serif"
     font-size="2.2001"
     text-anchor="start"
     fill="currentColor"
     id="text3881">
    <tspan
       id="tspan3879">S</tspan>
  </text>
  <text
     transform="translate(5.2647, 41.2802)"
     font-family="serif"
     font-size="2.2001"
     text-anchor="start"
     fill="currentColor"
     id="text3885">
    <tspan
       id="tspan3883">S</tspan>
  </text>
  <text
     transform="translate(5.1623, 56.3112)"
     font-family="serif"
     font-size="2.2001"
     text-anchor="start"
     fill="currentColor"
     id="text3889">
    <tspan
       id="tspan3887">A</tspan>
  </text>
  <text
     transform="translate(5.1623, 71.3422)"
     font-family="serif"
     font-size="2.2001"
     text-anchor="start"
     fill="currentColor"
     id="text3893">
    <tspan
       id="tspan3891">A</tspan>
  </text>
  <text
     transform="translate(5.2988, 86.3732)"
     font-family="serif"
     font-size="2.2001"
     text-anchor="start"
     fill="currentColor"
     id="text3897">
    <tspan
       id="tspan3895">T</tspan>
  </text>
  <text
     transform="translate(5.2988, 101.4041)"
     font-family="serif"
     font-size="2.2001"
     text-anchor="start"
     fill="currentColor"
     id="text3901">
    <tspan
       id="tspan3899">T</tspan>
  </text>
  <g
     transform="translate(11.1602, 22.2164)"
     id="g3909">
    <path
       transform="scale(0.0040, -0.0040)"
       d="M233 243c-56 0 -102 -107 -102 -173c0 -22 8 -38 30 -38c64 0 97 126 97 178c0 18 -7 33 -25 33zM112 -146c-38 0 -78 5 -116 5c-39 0 -78 -5 -115 -5c-9 0 -14 7 -14 14c0 18 31 15 48 16c22 1 47 5 54 25l102 300c2 7 4 14 4 20c0 8 -2 14 -11 14 c-33 0 -63 -60 -79 -97c-5 -12 -15 -17 -24 -17c-8 0 -14 4 -14 12c0 2 1 5 2 8c30 68 72 143 132 143c35 0 59 -21 66 -52c29 31 67 52 103 52c69 0 107 -49 107 -114c0 -21 -4 -44 -12 -67c-20 -58 -91 -119 -147 -119c-27 0 -52 5 -73 17c-4 2 -7 3 -11 3 c-7 0 -14 -3 -16 -9l-29 -86c-1 -2 -1 -5 -1 -7c0 -20 21 -26 44 -28c9 -1 13 -8 13 -14c0 -7 -4 -14 -13 -14z"
       fill="currentColor"
       id="path3903" />
    <path
       transform="translate(1.4682, 0.0000) scale(0.0040, -0.0040)"
       d="M233 243c-56 0 -102 -107 -102 -173c0 -22 8 -38 30 -38c64 0 97 126 97 178c0 18 -7 33 -25 33zM112 -146c-38 0 -78 5 -116 5c-39 0 -78 -5 -115 -5c-9 0 -14 7 -14 14c0 18 31 15 48 16c22 1 47 5 54 25l102 300c2 7 4 14 4 20c0 8 -2 14 -11 14 c-33 0 -63 -60 -79 -97c-5 -12 -15 -17 -24 -17c-8 0 -14 4 -14 12c0 2 1 5 2 8c30 68 72 143 132 143c35 0 59 -21 66 -52c29 31 67 52 103 52c69 0 107 -49 107 -114c0 -21 -4 -44 -12 -67c-20 -58 -91 -119 -147 -119c-27 0 -52 5 -73 17c-4 2 -7 3 -11 3 c-7 0 -14 -3 -16 -9l-29 -86c-1 -2 -1 -5 -1 -7c0 -20 21 -26 44 -28c9 -1 13 -8 13 -14c0 -7 -4 -14 -13 -14z"
       fill="currentColor"
       id="path3905" />
    <path
       transform="translate(2.9363, 0.0000) scale(0.0040, -0.0040)"
       d="M233 243c-56 0 -102 -107 -102 -173c0 -22 8 -38 30 -38c64 0 97 126 97 178c0 18 -7 33 -25 33zM112 -146c-38 0 -78 5 -116 5c-39 0 -78 -5 -115 -5c-9 0 -14 7 -14 14c0 18 31 15 48 16c22 1 47 5 54 25l102 300c2 7 4 14 4 20c0 8 -2 14 -11 14 c-33 0 -63 -60 -79 -97c-5 -12 -15 -17 -24 -17c-8 0 -14 4 -14 12c0 2 1 5 2 8c30 68 72 143 132 143c35 0 59 -21 66 -52c29 31 67 52 103 52c69 0 107 -49 107 -114c0 -21 -4 -44 -12 -67c-20 -58 -91 -119 -147 -119c-27 0 -52 5 -73 17c-4 2 -7 3 -11 3 c-7 0 -14 -3 -16 -9l-29 -86c-1 -2 -1 -5 -1 -7c0 -20 21 -26 44 -28c9 -1 13 -8 13 -14c0 -7 -4 -14 -13 -14z"
       fill="currentColor"
       id="path3907" />
  </g>
  <path
     transform="translate(12.7103, 25.4469) scale(0.0040, -0.0040)"
     d="M218 136c55 0 108 -28 108 -89c0 -71 -55 -121 -102 -149c-35 -21 -75 -34 -116 -34c-55 0 -108 28 -108 89c0 71 55 121 102 149c35 21 75 34 116 34z"
     fill="currentColor"
     id="path3911" />
  <path
     transform="translate(8.0270, 129.6637) scale(0.0040, -0.0040)"
     d="M557 -125c0 28 23 51 51 51s51 -23 51 -51s-23 -51 -51 -51s-51 23 -51 51zM557 125c0 28 23 51 51 51s51 -23 51 -51s-23 -51 -51 -51s-51 23 -51 51zM232 263c172 0 293 -88 293 -251c0 -263 -263 -414 -516 -521c-3 -3 -6 -4 -9 -4c-7 0 -13 6 -13 13c0 3 1 6 4 9 c202 118 412 265 412 493c0 120 -63 235 -171 235c-74 0 -129 -54 -154 -126c11 5 22 8 34 8c55 0 100 -45 100 -100c0 -58 -44 -106 -100 -106c-60 0 -112 47 -112 106c0 133 102 244 232 244z"
     fill="currentColor"
     id="path3913" />
  <rect
     transform="translate(12.8902, 31.3055)"
     x="-0.3245"
     y="-0.1000"
     width="2.1513"
     height="0.1000"
     ry="0.0000"
     fill="currentColor"
     id="rect3915" />
  <rect
     transform="translate(12.8902, 29.3908)"
     x="-0.3245"
     y="-0.1000"
     width="2.1513"
     height="0.1000"
     ry="0.0000"
     fill="currentColor"
     id="rect3917" />
  <rect
     transform="translate(12.5657, 30.9469)"
     x="0"
     y="-1.5561"
     width="0.1000"
     height="1.8147"
     ry="0.0000"
     fill="currentColor"
     id="rect3919" />
  <rect
     transform="translate(14.6170, 30.9469)"
     x="0"
     y="-1.5561"
     width="0.1000"
     height="1.8147"
     ry="0.0000"
     fill="currentColor"
     id="rect3921" />
  <text
     transform="translate(12.8902, 30.9469)"
     font-family="serif"
     font-size="2.4696"
     text-anchor="start"
     fill="currentColor"
     id="text3925">
    <tspan
       id="tspan3923">o</tspan>
  </text>
  <path
     transform="translate(8.0270, 56.5088) scale(0.0040, -0.0040)"
     d="M376 262c4 0 9 1 13 1c155 0 256 -128 256 -261c0 -76 -33 -154 -107 -210c-22 -17 -47 -28 -73 -36c3 -35 5 -70 5 -105c0 -19 -1 -39 -2 -58c-7 -120 -90 -228 -208 -228c-108 0 -195 88 -195 197c0 58 53 103 112 103c54 0 95 -47 95 -103c0 -52 -43 -95 -95 -95 c-11 0 -21 2 -31 6c26 -39 68 -65 117 -65c96 0 157 92 163 191c1 18 2 37 2 55c0 31 -1 61 -4 92c-29 -5 -58 -8 -89 -8c-188 0 -333 172 -333 374c0 177 131 306 248 441c-19 62 -37 125 -45 190c-6 52 -7 104 -7 156c0 115 55 224 149 292c3 2 7 3 10 3c4 0 7 0 10 -3 c71 -84 133 -245 133 -358c0 -143 -86 -255 -180 -364c21 -68 39 -138 56 -207zM461 -203c68 24 113 95 113 164c0 90 -66 179 -173 190c24 -116 46 -231 60 -354zM74 28c0 -135 129 -247 264 -247c28 0 55 2 82 6c-14 127 -37 245 -63 364c-79 -8 -124 -61 -124 -119 c0 -44 25 -91 81 -123c5 -5 7 -10 7 -15c0 -11 -10 -22 -22 -22c-3 0 -6 1 -9 2c-80 43 -117 115 -117 185c0 88 58 174 160 197c-14 58 -29 117 -46 175c-107 -121 -213 -243 -213 -403zM408 1045c-99 -48 -162 -149 -162 -259c0 -74 18 -133 36 -194 c80 97 146 198 146 324c0 55 -4 79 -20 129z"
     fill="currentColor"
     id="path3927" />
  <path
     transform="translate(8.0270, 71.5398) scale(0.0040, -0.0040)"
     d="M376 262c4 0 9 1 13 1c155 0 256 -128 256 -261c0 -76 -33 -154 -107 -210c-22 -17 -47 -28 -73 -36c3 -35 5 -70 5 -105c0 -19 -1 -39 -2 -58c-7 -120 -90 -228 -208 -228c-108 0 -195 88 -195 197c0 58 53 103 112 103c54 0 95 -47 95 -103c0 -52 -43 -95 -95 -95 c-11 0 -21 2 -31 6c26 -39 68 -65 117 -65c96 0 157 92 163 191c1 18 2 37 2 55c0 31 -1 61 -4 92c-29 -5 -58 -8 -89 -8c-188 0 -333 172 -333 374c0 177 131 306 248 441c-19 62 -37 125 -45 190c-6 52 -7 104 -7 156c0 115 55 224 149 292c3 2 7 3 10 3c4 0 7 0 10 -3 c71 -84 133 -245 133 -358c0 -143 -86 -255 -180 -364c21 -68 39 -138 56 -207zM461 -203c68 24 113 95 113 164c0 90 -66 179 -173 190c24 -116 46 -231 60 -354zM74 28c0 -135 129 -247 264 -247c28 0 55 2 82 6c-14 127 -37 245 -63 364c-79 -8 -124 -61 -124 -119 c0 -44 25 -91 81 -123c5 -5 7 -10 7 -15c0 -11 -10 -22 -22 -22c-3 0 -6 1 -9 2c-80 43 -117 115 -117 185c0 88 58 174 160 197c-14 58 -29 117 -46 175c-107 -121 -213 -243 -213 -403zM408 1045c-99 -48 -162 -149 -162 -259c0 -74 18 -133 36 -194 c80 97 146 198 146 324c0 55 -4 79 -20 129z"
     fill="currentColor"
     id="path3929" />
  <path
     transform="translate(45.8006, 57.5088) scale(0.0040, -0.0040)"
     d="M314 65c0 24 -21 41 -42 41c-4 0 -8 0 -12 -1c-31 -9 -78 -40 -115 -64s-84 -53 -104 -78c-7 -8 -10 -18 -10 -28c0 -24 21 -41 42 -41c4 0 8 0 12 1c31 9 77 40 114 64s84 53 104 78c7 8 11 18 11 28zM262 136c46 0 82 -21 82 -71c0 -19 -4 -39 -10 -57 c-12 -37 -32 -72 -64 -94c-53 -36 -113 -50 -187 -50c-46 0 -83 21 -83 71c0 19 5 39 11 57c12 37 31 72 63 94c53 36 114 50 188 50z"
     fill="currentColor"
     id="path3931" />
  <path
     transform="translate(8.0270, 114.6327) scale(0.0040, -0.0040)"
     d="M557 -125c0 28 23 51 51 51s51 -23 51 -51s-23 -51 -51 -51s-51 23 -51 51zM557 125c0 28 23 51 51 51s51 -23 51 -51s-23 -51 -51 -51s-51 23 -51 51zM232 263c172 0 293 -88 293 -251c0 -263 -263 -414 -516 -521c-3 -3 -6 -4 -9 -4c-7 0 -13 6 -13 13c0 3 1 6 4 9 c202 118 412 265 412 493c0 120 -63 235 -171 235c-74 0 -129 -54 -154 -126c11 5 22 8 34 8c55 0 100 -45 100 -100c0 -58 -44 -106 -100 -106c-60 0 -112 47 -112 106c0 133 102 244 232 244z"
     fill="currentColor"
     id="path3933" />
  <text
     transform="translate(54.6789, 121.7026)"
     font-family="serif"
     font-size="2.4696"
     text-anchor="start"
     fill="currentColor"
     id="text3937">
    <tspan
       id="tspan3935">→</tspan>
  </text>
  <g
     transform="translate(56.8246, 97.3713)"
     id="g3945">
    <path
       transform="scale(0.0040, -0.0040)"
       d="M233 243c-56 0 -102 -107 -102 -173c0 -22 8 -38 30 -38c64 0 97 126 97 178c0 18 -7 33 -25 33zM112 -146c-38 0 -78 5 -116 5c-39 0 -78 -5 -115 -5c-9 0 -14 7 -14 14c0 18 31 15 48 16c22 1 47 5 54 25l102 300c2 7 4 14 4 20c0 8 -2 14 -11 14 c-33 0 -63 -60 -79 -97c-5 -12 -15 -17 -24 -17c-8 0 -14 4 -14 12c0 2 1 5 2 8c30 68 72 143 132 143c35 0 59 -21 66 -52c29 31 67 52 103 52c69 0 107 -49 107 -114c0 -21 -4 -44 -12 -67c-20 -58 -91 -119 -147 -119c-27 0 -52 5 -73 17c-4 2 -7 3 -11 3 c-7 0 -14 -3 -16 -9l-29 -86c-1 -2 -1 -5 -1 -7c0 -20 21 -26 44 -28c9 -1 13 -8 13 -14c0 -7 -4 -14 -13 -14z"
       fill="currentColor"
       id="path3939" />
    <path
       transform="translate(1.4682, 0.0000) scale(0.0040, -0.0040)"
       d="M233 243c-56 0 -102 -107 -102 -173c0 -22 8 -38 30 -38c64 0 97 126 97 178c0 18 -7 33 -25 33zM112 -146c-38 0 -78 5 -116 5c-39 0 -78 -5 -115 -5c-9 0 -14 7 -14 14c0 18 31 15 48 16c22 1 47 5 54 25l102 300c2 7 4 14 4 20c0 8 -2 14 -11 14 c-33 0 -63 -60 -79 -97c-5 -12 -15 -17 -24 -17c-8 0 -14 4 -14 12c0 2 1 5 2 8c30 68 72 143 132 143c35 0 59 -21 66 -52c29 31 67 52 103 52c69 0 107 -49 107 -114c0 -21 -4 -44 -12 -67c-20 -58 -91 -119 -147 -119c-27 0 -52 5 -73 17c-4 2 -7 3 -11 3 c-7 0 -14 -3 -16 -9l-29 -86c-1 -2 -1 -5 -1 -7c0 -20 21 -26 44 -28c9 -1 13 -8 13 -14c0 -7 -4 -14 -13 -14z"
       fill="currentColor"
       id="path3941" />
    <path
       transform="translate(2.9363, 0.0000) scale(0.0040, -0.0040)"
       d="M233 243c-56 0 -102 -107 -102 -173c0 -22 8 -38 30 -38c64 0 97 126 97 178c0 18 -7 33 -25 33zM112 -146c-38 0 -78 5 -116 5c-39 0 -78 -5 -115 -5c-9 0 -14 7 -14 14c0 18 31 15 48 16c22 1 47 5 54 25l102 300c2 7 4 14 4 20c0 8 -2 14 -11 14 c-33 0 -63 -60 -79 -97c-5 -12 -15 -17 -24 -17c-8 0 -14 4 -14 12c0 2 1 5 2 8c30 68 72 143 132 143c35 0 59 -21 66 -52c29 31 67 52 103 52c69 0 107 -49 107 -114c0 -21 -4 -44 -12 -67c-20 -58 -91 -119 -147 -119c-27 0 -52 5 -73 17c-4 2 -7 3 -11 3 c-7 0 -14 -3 -16 -9l-29 -86c-1 -2 -1 -5 -1 -7c0 -20 21 -26 44 -28c9 -1 13 -8 13 -14c0 -7 -4 -14 -13 -14z"
       fill="currentColor"
       id="path3943" />
  </g>
  <path
     transform="translate(73.9907, 131.1637) scale(0.0040, -0.0040)"
     d="M314 65c0 24 -21 41 -42 41c-4 0 -8 0 -12 -1c-31 -9 -78 -40 -115 -64s-84 -53 -104 -78c-7 -8 -10 -18 -10 -28c0 -24 21 -41 42 -41c4 0 8 0 12 1c31 9 77 40 114 64s84 53 104 78c7 8 11 18 11 28zM262 136c46 0 82 -21 82 -71c0 -19 -4 -39 -10 -57 c-12 -37 -32 -72 -64 -94c-53 -36 -113 -50 -187 -50c-46 0 -83 21 -83 71c0 19 5 39 11 57c12 37 31 72 63 94c53 36 114 50 188 50z"
     fill="currentColor"
     id="path3947" />
  <rect
     transform="translate(75.2299, 10.4159)"
     x="-0.0650"
     y="3.3139"
     width="0.1300"
     height="0.0000"
     ry="0.0000"
     fill="currentColor"
     id="rect3949" />
  <rect
     transform="translate(73.3192, 122.0612)"
     x="-0.3245"
     y="-0.1000"
     width="3.5170"
     height="0.1000"
     ry="0.0000"
     fill="currentColor"
     id="rect3951" />
  <rect
     transform="translate(73.3192, 119.5661)"
     x="-0.3245"
     y="-0.1000"
     width="3.5170"
     height="0.1000"
     ry="0.0000"
     fill="currentColor"
     id="rect3953" />
  <rect
     transform="translate(72.9947, 121.7026)"
     x="0"
     y="-2.1365"
     width="0.1000"
     height="2.3952"
     ry="0.0000"
     fill="currentColor"
     id="rect3955" />
  <rect
     transform="translate(76.4117, 121.7026)"
     x="0"
     y="-2.1365"
     width="0.1000"
     height="2.3952"
     ry="0.0000"
     fill="currentColor"
     id="rect3957" />
  <text
     transform="translate(73.3192, 121.7026)"
     font-family="serif"
     font-size="2.4696"
     text-anchor="start"
     fill="currentColor"
     id="text3961">
    <tspan
       id="tspan3959">sh</tspan>
  </text>
  <path
     transform="translate(74.9657, 40.4778)"
     stroke-width="0.1000"
     stroke-linejoin="round"
     stroke-linecap="round"
     stroke="currentColor"
     fill="currentColor"
     d="M-0.6000 -0.5200L-0.6000 0.5000L0.6000 0.5000L0.6000 -0.5200L-0.6000 -0.5200L-0.5300 -0.3500L0.5300 -0.4900L0.5300 0.3300L-0.5300 0.4700L-0.5300 -0.3500z"
     id="path3963" />
  <g
     transform="translate(64.0898, 112.4023)"
     id="g3971">
    <path
       transform="scale(0.0040, -0.0040)"
       d="M233 243c-56 0 -102 -107 -102 -173c0 -22 8 -38 30 -38c64 0 97 126 97 178c0 18 -7 33 -25 33zM112 -146c-38 0 -78 5 -116 5c-39 0 -78 -5 -115 -5c-9 0 -14 7 -14 14c0 18 31 15 48 16c22 1 47 5 54 25l102 300c2 7 4 14 4 20c0 8 -2 14 -11 14 c-33 0 -63 -60 -79 -97c-5 -12 -15 -17 -24 -17c-8 0 -14 4 -14 12c0 2 1 5 2 8c30 68 72 143 132 143c35 0 59 -21 66 -52c29 31 67 52 103 52c69 0 107 -49 107 -114c0 -21 -4 -44 -12 -67c-20 -58 -91 -119 -147 -119c-27 0 -52 5 -73 17c-4 2 -7 3 -11 3 c-7 0 -14 -3 -16 -9l-29 -86c-1 -2 -1 -5 -1 -7c0 -20 21 -26 44 -28c9 -1 13 -8 13 -14c0 -7 -4 -14 -13 -14z"
       fill="currentColor"
       id="path3965" />
    <path
       transform="translate(1.4682, 0.0000) scale(0.0040, -0.0040)"
       d="M233 243c-56 0 -102 -107 -102 -173c0 -22 8 -38 30 -38c64 0 97 126 97 178c0 18 -7 33 -25 33zM112 -146c-38 0 -78 5 -116 5c-39 0 -78 -5 -115 -5c-9 0 -14 7 -14 14c0 18 31 15 48 16c22 1 47 5 54 25l102 300c2 7 4 14 4 20c0 8 -2 14 -11 14 c-33 0 -63 -60 -79 -97c-5 -12 -15 -17 -24 -17c-8 0 -14 4 -14 12c0 2 1 5 2 8c30 68 72 143 132 143c35 0 59 -21 66 -52c29 31 67 52 103 52c69 0 107 -49 107 -114c0 -21 -4 -44 -12 -67c-20 -58 -91 -119 -147 -119c-27 0 -52 5 -73 17c-4 2 -7 3 -11 3 c-7 0 -14 -3 -16 -9l-29 -86c-1 -2 -1 -5 -1 -7c0 -20 21 -26 44 -28c9 -1 13 -8 13 -14c0 -7 -4 -14 -13 -14z"
       fill="currentColor"
       id="path3967" />
    <path
       transform="translate(2.9363, 0.0000) scale(0.0040, -0.0040)"
       d="M233 243c-56 0 -102 -107 -102 -173c0 -22 8 -38 30 -38c64 0 97 126 97 178c0 18 -7 33 -25 33zM112 -146c-38 0 -78 5 -116 5c-39 0 -78 -5 -115 -5c-9 0 -14 7 -14 14c0 18 31 15 48 16c22 1 47 5 54 25l102 300c2 7 4 14 4 20c0 8 -2 14 -11 14 c-33 0 -63 -60 -79 -97c-5 -12 -15 -17 -24 -17c-8 0 -14 4 -14 12c0 2 1 5 2 8c30 68 72 143 132 143c35 0 59 -21 66 -52c29 31 67 52 103 52c69 0 107 -49 107 -114c0 -21 -4 -44 -12 -67c-20 -58 -91 -119 -147 -119c-27 0 -52 5 -73 17c-4 2 -7 3 -11 3 c-7 0 -14 -3 -16 -9l-29 -86c-1 -2 -1 -5 -1 -7c0 -20 21 -26 44 -28c9 -1 13 -8 13 -14c0 -7 -4 -14 -13 -14z"
       fill="currentColor"
       id="path3969" />
  </g>
  <rect
     transform="translate(66.8792, 10.4159)"
     x="-0.0650"
     y="3.3139"
     width="0.1300"
     height="0.0000"
     ry="0.0000"
     fill="currentColor"
     id="rect3973" />
  <path
     transform="translate(73.9907, 25.4469) scale(0.0040, -0.0040)"
     d="M314 65c0 24 -21 41 -42 41c-4 0 -8 0 -12 -1c-31 -9 -78 -40 -115 -64s-84 -53 -104 -78c-7 -8 -10 -18 -10 -28c0 -24 21 -41 42 -41c4 0 8 0 12 1c31 9 77 40 114 64s84 53 104 78c7 8 11 18 11 28zM262 136c46 0 82 -21 82 -71c0 -19 -4 -39 -10 -57 c-12 -37 -32 -72 -64 -94c-53 -36 -113 -50 -187 -50c-46 0 -83 21 -83 71c0 19 5 39 11 57c12 37 31 72 63 94c53 36 114 50 188 50z"
     fill="currentColor"
     id="path3975" />
  <rect
     transform="translate(45.9314, 107.0303)"
     x="-0.3245"
     y="-0.1000"
     width="1.9123"
     height="0.1000"
     ry="0.0000"
     fill="currentColor"
     id="rect3977" />
  <rect
     transform="translate(45.9314, 105.1155)"
     x="-0.3245"
     y="-0.1000"
     width="1.9123"
     height="0.1000"
     ry="0.0000"
     fill="currentColor"
     id="rect3979" />
  <rect
     transform="translate(45.6070, 106.6716)"
     x="0"
     y="-1.5561"
     width="0.1000"
     height="1.8147"
     ry="0.0000"
     fill="currentColor"
     id="rect3981" />
  <rect
     transform="translate(47.4192, 106.6716)"
     x="0"
     y="-1.5561"
     width="0.1000"
     height="1.8147"
     ry="0.0000"
     fill="currentColor"
     id="rect3983" />
  <text
     transform="translate(45.9314, 106.6716)"
     font-family="serif"
     font-size="2.4696"
     text-anchor="start"
     fill="currentColor"
     id="text3987">
    <tspan
       id="tspan3985">s</tspan>
  </text>
  <rect
     transform="translate(73.3192, 46.9063)"
     x="-0.3245"
     y="-0.1000"
     width="3.5170"
     height="0.1000"
     ry="0.0000"
     fill="currentColor"
     id="rect3989" />
  <rect
     transform="translate(73.3192, 44.4112)"
     x="-0.3245"
     y="-0.1000"
     width="3.5170"
     height="0.1000"
     ry="0.0000"
     fill="currentColor"
     id="rect3991" />
  <rect
     transform="translate(72.9947, 46.5477)"
     x="0"
     y="-2.1365"
     width="0.1000"
     height="2.3952"
     ry="0.0000"
     fill="currentColor"
     id="rect3993" />
  <rect
     transform="translate(76.4117, 46.5477)"
     x="0"
     y="-2.1365"
     width="0.1000"
     height="2.3952"
     ry="0.0000"
     fill="currentColor"
     id="rect3995" />
  <text
     transform="translate(73.3192, 46.5477)"
     font-family="serif"
     font-size="2.4696"
     text-anchor="start"
     fill="currentColor"
     id="text3999">
    <tspan
       id="tspan3997">sh</tspan>
  </text>
  <path
     transform="translate(73.9907, 57.5088) scale(0.0040, -0.0040)"
     d="M314 65c0 24 -21 41 -42 41c-4 0 -8 0 -12 -1c-31 -9 -78 -40 -115 -64s-84 -53 -104 -78c-7 -8 -10 -18 -10 -28c0 -24 21 -41 42 -41c4 0 8 0 12 1c31 9 77 40 114 64s84 53 104 78c7 8 11 18 11 28zM262 136c46 0 82 -21 82 -71c0 -19 -4 -39 -10 -57 c-12 -37 -32 -72 -64 -94c-53 -36 -113 -50 -187 -50c-46 0 -83 21 -83 71c0 19 5 39 11 57c12 37 31 72 63 94c53 36 114 50 188 50z"
     fill="currentColor"
     id="path4001" />
  <path
     transform="translate(73.9907, 73.5398) scale(0.0040, -0.0040)"
     d="M314 65c0 24 -21 41 -42 41c-4 0 -8 0 -12 -1c-31 -9 -78 -40 -115 -64s-84 -53 -104 -78c-7 -8 -10 -18 -10 -28c0 -24 21 -41 42 -41c4 0 8 0 12 1c31 9 77 40 114 64s84 53 104 78c7 8 11 18 11 28zM262 136c46 0 82 -21 82 -71c0 -19 -4 -39 -10 -57 c-12 -37 -32 -72 -64 -94c-53 -36 -113 -50 -187 -50c-46 0 -83 21 -83 71c0 19 5 39 11 57c12 37 31 72 63 94c53 36 114 50 188 50z"
     fill="currentColor"
     id="path4003" />
  <path
     transform="translate(74.9657, 85.5708)"
     stroke-width="0.1000"
     stroke-linejoin="round"
     stroke-linecap="round"
     stroke="currentColor"
     fill="currentColor"
     d="M-0.6000 -0.5200L-0.6000 0.5000L0.6000 0.5000L0.6000 -0.5200L-0.6000 -0.5200L-0.5300 -0.3500L0.5300 -0.4900L0.5300 0.3300L-0.5300 0.4700L-0.5300 -0.3500z"
     id="path4005" />
  <rect
     transform="translate(73.3192, 91.9993)"
     x="-0.3245"
     y="-0.1000"
     width="3.5170"
     height="0.1000"
     ry="0.0000"
     fill="currentColor"
     id="rect4007" />
  <rect
     transform="translate(73.3192, 89.5041)"
     x="-0.3245"
     y="-0.1000"
     width="3.5170"
     height="0.1000"
     ry="0.0000"
     fill="currentColor"
     id="rect4009" />
  <rect
     transform="translate(72.9947, 91.6406)"
     x="0"
     y="-2.1365"
     width="0.1000"
     height="2.3952"
     ry="0.0000"
     fill="currentColor"
     id="rect4011" />
  <rect
     transform="translate(76.4117, 91.6406)"
     x="0"
     y="-2.1365"
     width="0.1000"
     height="2.3952"
     ry="0.0000"
     fill="currentColor"
     id="rect4013" />
  <text
     transform="translate(73.3192, 91.6406)"
     font-family="serif"
     font-size="2.4696"
     text-anchor="start"
     fill="currentColor"
     id="text4017">
    <tspan
       id="tspan4015">sh</tspan>
  </text>
  <path
     transform="translate(74.9657, 100.6018)"
     stroke-width="0.1000"
     stroke-linejoin="round"
     stroke-linecap="round"
     stroke="currentColor"
     fill="currentColor"
     d="M-0.6000 -0.5200L-0.6000 0.5000L0.6000 0.5000L0.6000 -0.5200L-0.6000 -0.5200L-0.5300 -0.3500L0.5300 -0.4900L0.5300 0.3300L-0.5300 0.4700L-0.5300 -0.3500z"
     id="path4019" />
  <rect
     transform="translate(73.3192, 107.0303)"
     x="-0.3245"
     y="-0.1000"
     width="3.5170"
     height="0.1000"
     ry="0.0000"
     fill="currentColor"
     id="rect4021" />
  <rect
     transform="translate(73.3192, 104.5351)"
     x="-0.3245"
     y="-0.1000"
     width="3.5170"
     height="0.1000"
     ry="0.0000"
     fill="currentColor"
     id="rect4023" />
  <rect
     transform="translate(72.9947, 106.6716)"
     x="0"
     y="-2.1365"
     width="0.1000"
     height="2.3952"
     ry="0.0000"
     fill="currentColor"
     id="rect4025" />
  <rect
     transform="translate(76.4117, 106.6716)"
     x="0"
     y="-2.1365"
     width="0.1000"
     height="2.3952"
     ry="0.0000"
     fill="currentColor"
     id="rect4027" />
  <text
     transform="translate(73.3192, 106.6716)"
     font-family="serif"
     font-size="2.4696"
     text-anchor="start"
     fill="currentColor"
     id="text4031">
    <tspan
       id="tspan4029">sh</tspan>
  </text>
  <path
     transform="translate(74.9657, 115.6327)"
     stroke-width="0.1000"
     stroke-linejoin="round"
     stroke-linecap="round"
     stroke="currentColor"
     fill="currentColor"
     d="M-0.6000 -0.5200L-0.6000 0.5000L0.6000 0.5000L0.6000 -0.5200L-0.6000 -0.5200L-0.5300 -0.3500L0.5300 -0.4900L0.5300 0.3300L-0.5300 0.4700L-0.5300 -0.3500z"
     id="path4033" />
  <rect
     transform="translate(52.5946, 122.0612)"
     x="-0.3245"
     y="-0.1000"
     width="1.9123"
     height="0.1000"
     ry="0.0000"
     fill="currentColor"
     id="rect4035" />
  <rect
     transform="translate(52.5946, 120.1465)"
     x="-0.3245"
     y="-0.1000"
     width="1.9123"
     height="0.1000"
     ry="0.0000"
     fill="currentColor"
     id="rect4037" />
  <rect
     transform="translate(52.2701, 121.7026)"
     x="0"
     y="-1.5561"
     width="0.1000"
     height="1.8147"
     ry="0.0000"
     fill="currentColor"
     id="rect4039" />
  <rect
     transform="translate(54.0824, 121.7026)"
     x="0"
     y="-1.5561"
     width="0.1000"
     height="1.8147"
     ry="0.0000"
     fill="currentColor"
     id="rect4041" />
  <text
     transform="translate(52.5946, 121.7026)"
     font-family="serif"
     font-size="2.4696"
     text-anchor="start"
     fill="currentColor"
     id="text4045">
    <tspan
       id="tspan4043">s</tspan>
  </text>
  <path
     transform="translate(46.7756, 100.6018)"
     stroke-width="0.1000"
     stroke-linejoin="round"
     stroke-linecap="round"
     stroke="currentColor"
     fill="currentColor"
     d="M-0.6000 -0.5200L-0.6000 0.5000L0.6000 0.5000L0.6000 -0.5200L-0.6000 -0.5200L-0.5300 -0.3500L0.5300 -0.4900L0.5300 0.3300L-0.5300 0.4700L-0.5300 -0.3500z"
     id="path4047" />
  <path
     transform="translate(45.8006, 131.1637) scale(0.0040, -0.0040)"
     d="M314 65c0 24 -21 41 -42 41c-4 0 -8 0 -12 -1c-31 -9 -78 -40 -115 -64s-84 -53 -104 -78c-7 -8 -10 -18 -10 -28c0 -24 21 -41 42 -41c4 0 8 0 12 1c31 9 77 40 114 64s84 53 104 78c7 8 11 18 11 28zM262 136c46 0 82 -21 82 -71c0 -19 -4 -39 -10 -57 c-12 -37 -32 -72 -64 -94c-53 -36 -113 -50 -187 -50c-46 0 -83 21 -83 71c0 19 5 39 11 57c12 37 31 72 63 94c53 36 114 50 188 50z"
     fill="currentColor"
     id="path4049" />
  <g
     transform="translate(45.0211, 127.0410)"
     id="g4055">
    <path
       transform="scale(0.0040, -0.0040)"
       d="M233 243c-56 0 -102 -107 -102 -173c0 -22 8 -38 30 -38c64 0 97 126 97 178c0 18 -7 33 -25 33zM112 -146c-38 0 -78 5 -116 5c-39 0 -78 -5 -115 -5c-9 0 -14 7 -14 14c0 18 31 15 48 16c22 1 47 5 54 25l102 300c2 7 4 14 4 20c0 8 -2 14 -11 14 c-33 0 -63 -60 -79 -97c-5 -12 -15 -17 -24 -17c-8 0 -14 4 -14 12c0 2 1 5 2 8c30 68 72 143 132 143c35 0 59 -21 66 -52c29 31 67 52 103 52c69 0 107 -49 107 -114c0 -21 -4 -44 -12 -67c-20 -58 -91 -119 -147 -119c-27 0 -52 5 -73 17c-4 2 -7 3 -11 3 c-7 0 -14 -3 -16 -9l-29 -86c-1 -2 -1 -5 -1 -7c0 -20 21 -26 44 -28c9 -1 13 -8 13 -14c0 -7 -4 -14 -13 -14z"
       fill="currentColor"
       id="path4051" />
    <path
       transform="translate(1.4682, 0.0000) scale(0.0040, -0.0040)"
       d="M233 243c-56 0 -102 -107 -102 -173c0 -22 8 -38 30 -38c64 0 97 126 97 178c0 18 -7 33 -25 33zM112 -146c-38 0 -78 5 -116 5c-39 0 -78 -5 -115 -5c-9 0 -14 7 -14 14c0 18 31 15 48 16c22 1 47 5 54 25l102 300c2 7 4 14 4 20c0 8 -2 14 -11 14 c-33 0 -63 -60 -79 -97c-5 -12 -15 -17 -24 -17c-8 0 -14 4 -14 12c0 2 1 5 2 8c30 68 72 143 132 143c35 0 59 -21 66 -52c29 31 67 52 103 52c69 0 107 -49 107 -114c0 -21 -4 -44 -12 -67c-20 -58 -91 -119 -147 -119c-27 0 -52 5 -73 17c-4 2 -7 3 -11 3 c-7 0 -14 -3 -16 -9l-29 -86c-1 -2 -1 -5 -1 -7c0 -20 21 -26 44 -28c9 -1 13 -8 13 -14c0 -7 -4 -14 -13 -14z"
       fill="currentColor"
       id="path4053" />
  </g>
  <rect
     transform="translate(45.8119, 136.5224)"
     x="-0.3245"
     y="-0.1000"
     width="2.1513"
     height="0.1000"
     ry="0.0000"
     fill="currentColor"
     id="rect4057" />
  <rect
     transform="translate(45.8119, 134.6076)"
     x="-0.3245"
     y="-0.1000"
     width="2.1513"
     height="0.1000"
     ry="0.0000"
     fill="currentColor"
     id="rect4059" />
  <rect
     transform="translate(45.4875, 136.1637)"
     x="0"
     y="-1.5561"
     width="0.1000"
     height="1.8147"
     ry="0.0000"
     fill="currentColor"
     id="rect4061" />
  <rect
     transform="translate(47.5387, 136.1637)"
     x="0"
     y="-1.5561"
     width="0.1000"
     height="1.8147"
     ry="0.0000"
     fill="currentColor"
     id="rect4063" />
  <text
     transform="translate(45.8119, 136.1637)"
     font-family="serif"
     font-size="2.4696"
     text-anchor="start"
     fill="currentColor"
     id="text4067">
    <tspan
       id="tspan4065">o</tspan>
  </text>
  <text
     transform="translate(48.0658, 106.6716)"
     font-family="serif"
     font-size="2.4696"
     text-anchor="start"
     fill="currentColor"
     id="text4071">
    <tspan
       id="tspan4069">→</tspan>
  </text>
  <path
     transform="translate(53.3887, 115.6327)"
     stroke-width="0.1000"
     stroke-linejoin="round"
     stroke-linecap="round"
     stroke="currentColor"
     fill="currentColor"
     d="M-0.6000 -0.5200L-0.6000 0.5000L0.6000 0.5000L0.6000 -0.5200L-0.6000 -0.5200L-0.5300 -0.3500L0.5300 -0.4900L0.5300 0.3300L-0.5300 0.4700L-0.5300 -0.3500z"
     id="path4073" />
  <path
     inkscape:connector-curvature="0"
     style="fill:currentColor;stroke:currentColor;stroke-width:0.07125381;stroke-linecap:round;stroke-linejoin:round"
     d="m 98.736106,114.84934 c 1.237054,-1.01914 16.912164,-1.01914 18.149214,0 v 0 c -1.23705,-0.89776 -16.91216,-0.89776 -18.149214,0 z"
     id="path3675-3" />
  <path
     inkscape:connector-curvature="0"
     style="fill:currentColor;stroke:currentColor;stroke-width:0.07125381;stroke-linecap:round;stroke-linejoin:round"
     d="m 98.859557,99.754515 c 1.237053,-1.01914 16.912163,-1.01914 18.149213,0 v 0 c -1.23705,-0.89776 -16.91216,-0.89776 -18.149213,0 z"
     id="path3675-3-6" />
  <path
     inkscape:connector-curvature="0"
     style="fill:currentColor;stroke:currentColor;stroke-width:0.07125381;stroke-linecap:round;stroke-linejoin:round"
     d="m 98.765967,84.703606 c 1.237053,-1.01914 16.912163,-1.01914 18.149213,0 v 0 c -1.23705,-0.89776 -16.91216,-0.89776 -18.149213,0 z"
     id="path3675-3-6-7" />
</svg>
