<svg xmlns="http://www.w3.org/2000/svg" xmlns:xlink="http://www.w3.org/1999/xlink" version="1.2" width="215.90mm" height="279.40mm" viewBox="0 0 122.8590 158.9940">
<style text="style/css">
<![CDATA[
tspan { white-space: pre; }
]]>
</style>
<!-- Page: 13/19 -->
<text transform="translate(7.2270, 8.8659)" font-family="serif" font-size="2.2001" text-anchor="start" fill="currentColor">
<tspan/>
</text>
<text transform="translate(112.8322, 8.8659)" font-family="serif" font-size="2.2001" text-anchor="start" fill="currentColor">
<tspan>13</tspan>
</text>
<path transform="translate(69.4578, 144.4863) scale(0.0040, -0.0040)" d="M0 0c0 31 25 56 56 56s56 -25 56 -56s-25 -56 -56 -56s-56 25 -56 56z" fill="currentColor"/>
<path transform="translate(69.4578, 145.7863) scale(0.0040, -0.0040)" d="M0 0c0 31 25 56 56 56s56 -25 56 -56s-25 -56 -56 -56s-56 25 -56 56z" fill="currentColor"/>
<rect transform="translate(70.6978, 145.1363)" x="0.0000" y="-1.2500" width="0.6000" height="2.5000" ry="0.0000" fill="currentColor"/>
<rect transform="translate(70.2078, 145.1363)" x="0.0000" y="-1.2500" width="0.1900" height="2.5000" ry="0.0000" fill="currentColor"/>
<path transform="translate(79.5867, 110.0763) scale(0.0040, -0.0040)" d="M0 0c0 31 25 56 56 56s56 -25 56 -56s-25 -56 -56 -56s-56 25 -56 56z" fill="currentColor"/>
<path transform="translate(79.5867, 111.3763) scale(0.0040, -0.0040)" d="M0 0c0 31 25 56 56 56s56 -25 56 -56s-25 -56 -56 -56s-56 25 -56 56z" fill="currentColor"/>
<rect transform="translate(80.8267, 110.7263)" x="0.0000" y="-1.2500" width="0.6000" height="2.5000" ry="0.0000" fill="currentColor"/>
<rect transform="translate(80.3367, 110.7263)" x="0.0000" y="-1.2500" width="0.1900" height="2.5000" ry="0.0000" fill="currentColor"/>
<line transform="translate(79.5867, 110.5263)" stroke-linejoin="round" stroke-linecap="round" stroke-width="0.1000" stroke="currentColor" x1="0.0500" y1="-0.0000" x2="17.3726" y2="-0.0000"/>
<line transform="translate(79.5867, 110.6263)" stroke-linejoin="round" stroke-linecap="round" stroke-width="0.1000" stroke="currentColor" x1="0.0500" y1="-0.0000" x2="17.3726" y2="-0.0000"/>
<line transform="translate(79.5867, 110.7263)" stroke-linejoin="round" stroke-linecap="round" stroke-width="0.1000" stroke="currentColor" x1="0.0500" y1="-0.0000" x2="17.3726" y2="-0.0000"/>
<line transform="translate(79.5867, 110.8263)" stroke-linejoin="round" stroke-linecap="round" stroke-width="0.1000" stroke="currentColor" x1="0.0500" y1="-0.0000" x2="17.3726" y2="-0.0000"/>
<line transform="translate(79.5867, 110.9263)" stroke-linejoin="round" stroke-linecap="round" stroke-width="0.1000" stroke="currentColor" x1="0.0500" y1="-0.0000" x2="17.3726" y2="-0.0000"/>
<line transform="translate(101.7166, 95.5214)" stroke-linejoin="round" stroke-linecap="round" stroke-width="0.1000" stroke="currentColor" x1="0.0500" y1="-0.0000" x2="13.8654" y2="-0.0000"/>
<line transform="translate(101.7166, 94.5214)" stroke-linejoin="round" stroke-linecap="round" stroke-width="0.1000" stroke="currentColor" x1="0.0500" y1="-0.0000" x2="13.8654" y2="-0.0000"/>
<line transform="translate(101.7166, 93.5214)" stroke-linejoin="round" stroke-linecap="round" stroke-width="0.1000" stroke="currentColor" x1="0.0500" y1="-0.0000" x2="13.8654" y2="-0.0000"/>
<line transform="translate(101.7166, 92.5214)" stroke-linejoin="round" stroke-linecap="round" stroke-width="0.1000" stroke="currentColor" x1="0.0500" y1="-0.0000" x2="13.8654" y2="-0.0000"/>
<line transform="translate(101.7166, 91.5214)" stroke-linejoin="round" stroke-linecap="round" stroke-width="0.1000" stroke="currentColor" x1="0.0500" y1="-0.0000" x2="13.8654" y2="-0.0000"/>
<line transform="translate(69.4578, 144.9363)" stroke-linejoin="round" stroke-linecap="round" stroke-width="0.1000" stroke="currentColor" x1="0.0500" y1="-0.0000" x2="27.5015" y2="-0.0000"/>
<line transform="translate(69.4578, 145.0363)" stroke-linejoin="round" stroke-linecap="round" stroke-width="0.1000" stroke="currentColor" x1="0.0500" y1="-0.0000" x2="27.5015" y2="-0.0000"/>
<line transform="translate(69.4578, 145.1363)" stroke-linejoin="round" stroke-linecap="round" stroke-width="0.1000" stroke="currentColor" x1="0.0500" y1="-0.0000" x2="27.5015" y2="-0.0000"/>
<line transform="translate(69.4578, 145.2363)" stroke-linejoin="round" stroke-linecap="round" stroke-width="0.1000" stroke="currentColor" x1="0.0500" y1="-0.0000" x2="27.5015" y2="-0.0000"/>
<line transform="translate(69.4578, 145.3363)" stroke-linejoin="round" stroke-linecap="round" stroke-width="0.1000" stroke="currentColor" x1="0.0500" y1="-0.0000" x2="27.5015" y2="-0.0000"/>
<line transform="translate(101.7166, 61.1114)" stroke-linejoin="round" stroke-linecap="round" stroke-width="0.1000" stroke="currentColor" x1="0.0500" y1="-0.0000" x2="13.8654" y2="-0.0000"/>
<line transform="translate(101.7166, 60.1114)" stroke-linejoin="round" stroke-linecap="round" stroke-width="0.1000" stroke="currentColor" x1="0.0500" y1="-0.0000" x2="13.8654" y2="-0.0000"/>
<line transform="translate(101.7166, 59.1114)" stroke-linejoin="round" stroke-linecap="round" stroke-width="0.1000" stroke="currentColor" x1="0.0500" y1="-0.0000" x2="13.8654" y2="-0.0000"/>
<line transform="translate(101.7166, 58.1114)" stroke-linejoin="round" stroke-linecap="round" stroke-width="0.1000" stroke="currentColor" x1="0.0500" y1="-0.0000" x2="13.8654" y2="-0.0000"/>
<line transform="translate(101.7166, 57.1114)" stroke-linejoin="round" stroke-linecap="round" stroke-width="0.1000" stroke="currentColor" x1="0.0500" y1="-0.0000" x2="13.8654" y2="-0.0000"/>
<line transform="translate(101.7166, 26.7015)" stroke-linejoin="round" stroke-linecap="round" stroke-width="0.1000" stroke="currentColor" x1="0.0500" y1="-0.0000" x2="13.8654" y2="-0.0000"/>
<line transform="translate(101.7166, 25.7015)" stroke-linejoin="round" stroke-linecap="round" stroke-width="0.1000" stroke="currentColor" x1="0.0500" y1="-0.0000" x2="13.8654" y2="-0.0000"/>
<line transform="translate(101.7166, 24.7015)" stroke-linejoin="round" stroke-linecap="round" stroke-width="0.1000" stroke="currentColor" x1="0.0500" y1="-0.0000" x2="13.8654" y2="-0.0000"/>
<line transform="translate(101.7166, 23.7015)" stroke-linejoin="round" stroke-linecap="round" stroke-width="0.1000" stroke="currentColor" x1="0.0500" y1="-0.0000" x2="13.8654" y2="-0.0000"/>
<line transform="translate(101.7166, 22.7015)" stroke-linejoin="round" stroke-linecap="round" stroke-width="0.1000" stroke="currentColor" x1="0.0500" y1="-0.0000" x2="13.8654" y2="-0.0000"/>
<path transform="translate(43.1819, 144.6363) scale(0.0040, -0.0040)" d="M0 0c0 31 25 56 56 56s56 -25 56 -56s-25 -56 -56 -56s-56 25 -56 56z" fill="currentColor"/>
<path transform="translate(43.1819, 145.6363) scale(0.0040, -0.0040)" d="M0 0c0 31 25 56 56 56s56 -25 56 -56s-25 -56 -56 -56s-56 25 -56 56z" fill="currentColor"/>
<rect transform="translate(42.6919, 145.1363)" x="0.0000" y="-2.0000" width="0.1900" height="4.0000" ry="0.0000" fill="currentColor"/>
<rect transform="translate(41.7919, 145.1363)" x="0.0000" y="-2.0000" width="0.6000" height="4.0000" ry="0.0000" fill="currentColor"/>
<path transform="translate(51.2988, 75.6664) scale(0.0040, -0.0040)" d="M0 0c0 31 25 56 56 56s56 -25 56 -56s-25 -56 -56 -56s-56 25 -56 56z" fill="currentColor"/>
<path transform="translate(51.2988, 76.9664) scale(0.0040, -0.0040)" d="M0 0c0 31 25 56 56 56s56 -25 56 -56s-25 -56 -56 -56s-56 25 -56 56z" fill="currentColor"/>
<rect transform="translate(52.5388, 76.3164)" x="0.0000" y="-1.2500" width="0.6000" height="2.5000" ry="0.0000" fill="currentColor"/>
<rect transform="translate(52.0488, 76.3164)" x="0.0000" y="-1.2500" width="0.1900" height="2.5000" ry="0.0000" fill="currentColor"/>
<path transform="translate(26.6958, 75.8164) scale(0.0040, -0.0040)" d="M0 0c0 31 25 56 56 56s56 -25 56 -56s-25 -56 -56 -56s-56 25 -56 56z" fill="currentColor"/>
<path transform="translate(26.6958, 76.8164) scale(0.0040, -0.0040)" d="M0 0c0 31 25 56 56 56s56 -25 56 -56s-25 -56 -56 -56s-56 25 -56 56z" fill="currentColor"/>
<rect transform="translate(26.2058, 76.3164)" x="0.0000" y="-2.0000" width="0.1900" height="4.0000" ry="0.0000" fill="currentColor"/>
<rect transform="translate(25.3058, 76.3164)" x="0.0000" y="-2.0000" width="0.6000" height="4.0000" ry="0.0000" fill="currentColor"/>
<path transform="translate(61.3408, 110.2263) scale(0.0040, -0.0040)" d="M0 0c0 31 25 56 56 56s56 -25 56 -56s-25 -56 -56 -56s-56 25 -56 56z" fill="currentColor"/>
<path transform="translate(61.3408, 111.2263) scale(0.0040, -0.0040)" d="M0 0c0 31 25 56 56 56s56 -25 56 -56s-25 -56 -56 -56s-56 25 -56 56z" fill="currentColor"/>
<rect transform="translate(60.8508, 110.7263)" x="0.0000" y="-2.0000" width="0.1900" height="4.0000" ry="0.0000" fill="currentColor"/>
<rect transform="translate(59.9508, 110.7263)" x="0.0000" y="-2.0000" width="0.6000" height="4.0000" ry="0.0000" fill="currentColor"/>
<line transform="translate(51.2988, 76.1164)" stroke-linejoin="round" stroke-linecap="round" stroke-width="0.1000" stroke="currentColor" x1="0.0500" y1="-0.0000" x2="8.6020" y2="-0.0000"/>
<line transform="translate(51.2988, 76.2164)" stroke-linejoin="round" stroke-linecap="round" stroke-width="0.1000" stroke="currentColor" x1="0.0500" y1="-0.0000" x2="8.6020" y2="-0.0000"/>
<line transform="translate(51.2988, 76.3164)" stroke-linejoin="round" stroke-linecap="round" stroke-width="0.1000" stroke="currentColor" x1="0.0500" y1="-0.0000" x2="8.6020" y2="-0.0000"/>
<line transform="translate(51.2988, 76.4164)" stroke-linejoin="round" stroke-linecap="round" stroke-width="0.1000" stroke="currentColor" x1="0.0500" y1="-0.0000" x2="8.6020" y2="-0.0000"/>
<line transform="translate(51.2988, 76.5164)" stroke-linejoin="round" stroke-linecap="round" stroke-width="0.1000" stroke="currentColor" x1="0.0500" y1="-0.0000" x2="8.6020" y2="-0.0000"/>
<line transform="translate(14.4540, 58.9114)" stroke-linejoin="round" stroke-linecap="round" stroke-width="0.1000" stroke="currentColor" x1="0.0500" y1="-0.0000" x2="45.4468" y2="-0.0000"/>
<line transform="translate(14.4540, 59.0114)" stroke-linejoin="round" stroke-linecap="round" stroke-width="0.1000" stroke="currentColor" x1="0.0500" y1="-0.0000" x2="45.4468" y2="-0.0000"/>
<line transform="translate(14.4540, 59.1114)" stroke-linejoin="round" stroke-linecap="round" stroke-width="0.1000" stroke="currentColor" x1="0.0500" y1="-0.0000" x2="45.4468" y2="-0.0000"/>
<line transform="translate(14.4540, 59.2114)" stroke-linejoin="round" stroke-linecap="round" stroke-width="0.1000" stroke="currentColor" x1="0.0500" y1="-0.0000" x2="45.4468" y2="-0.0000"/>
<line transform="translate(14.4540, 59.3114)" stroke-linejoin="round" stroke-linecap="round" stroke-width="0.1000" stroke="currentColor" x1="0.0500" y1="-0.0000" x2="45.4468" y2="-0.0000"/>
<line transform="translate(14.4540, 144.9363)" stroke-linejoin="round" stroke-linecap="round" stroke-width="0.1000" stroke="currentColor" x1="0.0500" y1="-0.0000" x2="29.1279" y2="-0.0000"/>
<line transform="translate(14.4540, 145.0363)" stroke-linejoin="round" stroke-linecap="round" stroke-width="0.1000" stroke="currentColor" x1="0.0500" y1="-0.0000" x2="29.1279" y2="-0.0000"/>
<line transform="translate(14.4540, 145.1363)" stroke-linejoin="round" stroke-linecap="round" stroke-width="0.1000" stroke="currentColor" x1="0.0500" y1="-0.0000" x2="29.1279" y2="-0.0000"/>
<line transform="translate(14.4540, 145.2363)" stroke-linejoin="round" stroke-linecap="round" stroke-width="0.1000" stroke="currentColor" x1="0.0500" y1="-0.0000" x2="29.1279" y2="-0.0000"/>
<line transform="translate(14.4540, 145.3363)" stroke-linejoin="round" stroke-linecap="round" stroke-width="0.1000" stroke="currentColor" x1="0.0500" y1="-0.0000" x2="29.1279" y2="-0.0000"/>
<line transform="translate(14.4540, 24.5015)" stroke-linejoin="round" stroke-linecap="round" stroke-width="0.1000" stroke="currentColor" x1="0.0500" y1="-0.0000" x2="45.4468" y2="-0.0000"/>
<line transform="translate(14.4540, 24.6015)" stroke-linejoin="round" stroke-linecap="round" stroke-width="0.1000" stroke="currentColor" x1="0.0500" y1="-0.0000" x2="45.4468" y2="-0.0000"/>
<line transform="translate(14.4540, 24.7015)" stroke-linejoin="round" stroke-linecap="round" stroke-width="0.1000" stroke="currentColor" x1="0.0500" y1="-0.0000" x2="45.4468" y2="-0.0000"/>
<line transform="translate(14.4540, 24.8015)" stroke-linejoin="round" stroke-linecap="round" stroke-width="0.1000" stroke="currentColor" x1="0.0500" y1="-0.0000" x2="45.4468" y2="-0.0000"/>
<line transform="translate(14.4540, 24.9015)" stroke-linejoin="round" stroke-linecap="round" stroke-width="0.1000" stroke="currentColor" x1="0.0500" y1="-0.0000" x2="45.4468" y2="-0.0000"/>
<line transform="translate(14.4540, 93.3214)" stroke-linejoin="round" stroke-linecap="round" stroke-width="0.1000" stroke="currentColor" x1="0.0500" y1="-0.0000" x2="45.4468" y2="-0.0000"/>
<line transform="translate(14.4540, 93.4214)" stroke-linejoin="round" stroke-linecap="round" stroke-width="0.1000" stroke="currentColor" x1="0.0500" y1="-0.0000" x2="45.4468" y2="-0.0000"/>
<line transform="translate(14.4540, 93.5214)" stroke-linejoin="round" stroke-linecap="round" stroke-width="0.1000" stroke="currentColor" x1="0.0500" y1="-0.0000" x2="45.4468" y2="-0.0000"/>
<line transform="translate(14.4540, 93.6214)" stroke-linejoin="round" stroke-linecap="round" stroke-width="0.1000" stroke="currentColor" x1="0.0500" y1="-0.0000" x2="45.4468" y2="-0.0000"/>
<line transform="translate(14.4540, 93.7214)" stroke-linejoin="round" stroke-linecap="round" stroke-width="0.1000" stroke="currentColor" x1="0.0500" y1="-0.0000" x2="45.4468" y2="-0.0000"/>
<line transform="translate(14.4540, 127.7313)" stroke-linejoin="round" stroke-linecap="round" stroke-width="0.1000" stroke="currentColor" x1="0.0500" y1="-0.0000" x2="72.4586" y2="-0.0000"/>
<line transform="translate(14.4540, 127.8313)" stroke-linejoin="round" stroke-linecap="round" stroke-width="0.1000" stroke="currentColor" x1="0.0500" y1="-0.0000" x2="72.4586" y2="-0.0000"/>
<line transform="translate(14.4540, 127.9313)" stroke-linejoin="round" stroke-linecap="round" stroke-width="0.1000" stroke="currentColor" x1="0.0500" y1="-0.0000" x2="72.4586" y2="-0.0000"/>
<line transform="translate(14.4540, 128.0313)" stroke-linejoin="round" stroke-linecap="round" stroke-width="0.1000" stroke="currentColor" x1="0.0500" y1="-0.0000" x2="72.4586" y2="-0.0000"/>
<line transform="translate(14.4540, 128.1313)" stroke-linejoin="round" stroke-linecap="round" stroke-width="0.1000" stroke="currentColor" x1="0.0500" y1="-0.0000" x2="72.4586" y2="-0.0000"/>
<line transform="translate(14.4540, 41.7064)" stroke-linejoin="round" stroke-linecap="round" stroke-width="0.1000" stroke="currentColor" x1="0.0500" y1="-0.0000" x2="72.4586" y2="-0.0000"/>
<line transform="translate(14.4540, 41.8064)" stroke-linejoin="round" stroke-linecap="round" stroke-width="0.1000" stroke="currentColor" x1="0.0500" y1="-0.0000" x2="72.4586" y2="-0.0000"/>
<line transform="translate(14.4540, 41.9064)" stroke-linejoin="round" stroke-linecap="round" stroke-width="0.1000" stroke="currentColor" x1="0.0500" y1="-0.0000" x2="72.4586" y2="-0.0000"/>
<line transform="translate(14.4540, 42.0064)" stroke-linejoin="round" stroke-linecap="round" stroke-width="0.1000" stroke="currentColor" x1="0.0500" y1="-0.0000" x2="72.4586" y2="-0.0000"/>
<line transform="translate(14.4540, 42.1064)" stroke-linejoin="round" stroke-linecap="round" stroke-width="0.1000" stroke="currentColor" x1="0.0500" y1="-0.0000" x2="72.4586" y2="-0.0000"/>
<line transform="translate(14.4540, 110.5263)" stroke-linejoin="round" stroke-linecap="round" stroke-width="0.1000" stroke="currentColor" x1="0.0500" y1="-0.0000" x2="45.4468" y2="-0.0000"/>
<line transform="translate(14.4540, 110.6263)" stroke-linejoin="round" stroke-linecap="round" stroke-width="0.1000" stroke="currentColor" x1="0.0500" y1="-0.0000" x2="45.4468" y2="-0.0000"/>
<line transform="translate(14.4540, 110.7263)" stroke-linejoin="round" stroke-linecap="round" stroke-width="0.1000" stroke="currentColor" x1="0.0500" y1="-0.0000" x2="45.4468" y2="-0.0000"/>
<line transform="translate(14.4540, 110.8263)" stroke-linejoin="round" stroke-linecap="round" stroke-width="0.1000" stroke="currentColor" x1="0.0500" y1="-0.0000" x2="45.4468" y2="-0.0000"/>
<line transform="translate(14.4540, 110.9263)" stroke-linejoin="round" stroke-linecap="round" stroke-width="0.1000" stroke="currentColor" x1="0.0500" y1="-0.0000" x2="45.4468" y2="-0.0000"/>
<line transform="translate(38.4086, 147.1363)" stroke-linejoin="round" stroke-linecap="round" stroke-width="0.1000" stroke="currentColor" x1="0.0500" y1="-0.0000" x2="32.8392" y2="-0.0000"/>
<line transform="translate(38.4086, 146.1363)" stroke-linejoin="round" stroke-linecap="round" stroke-width="0.1000" stroke="currentColor" x1="0.0500" y1="-0.0000" x2="32.8392" y2="-0.0000"/>
<line transform="translate(38.4086, 145.1363)" stroke-linejoin="round" stroke-linecap="round" stroke-width="0.1000" stroke="currentColor" x1="0.0500" y1="-0.0000" x2="32.8392" y2="-0.0000"/>
<line transform="translate(38.4086, 144.1363)" stroke-linejoin="round" stroke-linecap="round" stroke-width="0.1000" stroke="currentColor" x1="0.0500" y1="-0.0000" x2="32.8392" y2="-0.0000"/>
<line transform="translate(38.4086, 143.1363)" stroke-linejoin="round" stroke-linecap="round" stroke-width="0.1000" stroke="currentColor" x1="0.0500" y1="-0.0000" x2="32.8392" y2="-0.0000"/>
<rect transform="translate(7.2270, 79.3164)" x="91.8612" y="-0.1000" width="1.8967" height="0.2000" ry="0.1000" fill="currentColor"/>
<line transform="translate(56.6858, 112.7263)" stroke-linejoin="round" stroke-linecap="round" stroke-width="0.1000" stroke="currentColor" x1="0.0500" y1="-0.0000" x2="24.6909" y2="-0.0000"/>
<line transform="translate(56.6858, 111.7263)" stroke-linejoin="round" stroke-linecap="round" stroke-width="0.1000" stroke="currentColor" x1="0.0500" y1="-0.0000" x2="24.6909" y2="-0.0000"/>
<line transform="translate(56.6858, 110.7263)" stroke-linejoin="round" stroke-linecap="round" stroke-width="0.1000" stroke="currentColor" x1="0.0500" y1="-0.0000" x2="24.6909" y2="-0.0000"/>
<line transform="translate(56.6858, 109.7263)" stroke-linejoin="round" stroke-linecap="round" stroke-width="0.1000" stroke="currentColor" x1="0.0500" y1="-0.0000" x2="24.6909" y2="-0.0000"/>
<line transform="translate(56.6858, 108.7263)" stroke-linejoin="round" stroke-linecap="round" stroke-width="0.1000" stroke="currentColor" x1="0.0500" y1="-0.0000" x2="24.6909" y2="-0.0000"/>
<line transform="translate(93.6260, 78.3164)" stroke-linejoin="round" stroke-linecap="round" stroke-width="0.1000" stroke="currentColor" x1="0.0500" y1="-0.0000" x2="21.9560" y2="-0.0000"/>
<line transform="translate(93.6260, 77.3164)" stroke-linejoin="round" stroke-linecap="round" stroke-width="0.1000" stroke="currentColor" x1="0.0500" y1="-0.0000" x2="21.9560" y2="-0.0000"/>
<line transform="translate(93.6260, 76.3164)" stroke-linejoin="round" stroke-linecap="round" stroke-width="0.1000" stroke="currentColor" x1="0.0500" y1="-0.0000" x2="21.9560" y2="-0.0000"/>
<line transform="translate(93.6260, 75.3164)" stroke-linejoin="round" stroke-linecap="round" stroke-width="0.1000" stroke="currentColor" x1="0.0500" y1="-0.0000" x2="21.9560" y2="-0.0000"/>
<line transform="translate(93.6260, 74.3164)" stroke-linejoin="round" stroke-linecap="round" stroke-width="0.1000" stroke="currentColor" x1="0.0500" y1="-0.0000" x2="21.9560" y2="-0.0000"/>
<line transform="translate(93.6260, 112.7263)" stroke-linejoin="round" stroke-linecap="round" stroke-width="0.1000" stroke="currentColor" x1="0.0500" y1="-0.0000" x2="21.9560" y2="-0.0000"/>
<line transform="translate(93.6260, 111.7263)" stroke-linejoin="round" stroke-linecap="round" stroke-width="0.1000" stroke="currentColor" x1="0.0500" y1="-0.0000" x2="21.9560" y2="-0.0000"/>
<line transform="translate(93.6260, 110.7263)" stroke-linejoin="round" stroke-linecap="round" stroke-width="0.1000" stroke="currentColor" x1="0.0500" y1="-0.0000" x2="21.9560" y2="-0.0000"/>
<line transform="translate(93.6260, 109.7263)" stroke-linejoin="round" stroke-linecap="round" stroke-width="0.1000" stroke="currentColor" x1="0.0500" y1="-0.0000" x2="21.9560" y2="-0.0000"/>
<line transform="translate(93.6260, 108.7263)" stroke-linejoin="round" stroke-linecap="round" stroke-width="0.1000" stroke="currentColor" x1="0.0500" y1="-0.0000" x2="21.9560" y2="-0.0000"/>
<line transform="translate(22.0408, 78.3164)" stroke-linejoin="round" stroke-linecap="round" stroke-width="0.1000" stroke="currentColor" x1="0.0500" y1="-0.0000" x2="31.0480" y2="-0.0000"/>
<line transform="translate(22.0408, 77.3164)" stroke-linejoin="round" stroke-linecap="round" stroke-width="0.1000" stroke="currentColor" x1="0.0500" y1="-0.0000" x2="31.0480" y2="-0.0000"/>
<line transform="translate(22.0408, 76.3164)" stroke-linejoin="round" stroke-linecap="round" stroke-width="0.1000" stroke="currentColor" x1="0.0500" y1="-0.0000" x2="31.0480" y2="-0.0000"/>
<line transform="translate(22.0408, 75.3164)" stroke-linejoin="round" stroke-linecap="round" stroke-width="0.1000" stroke="currentColor" x1="0.0500" y1="-0.0000" x2="31.0480" y2="-0.0000"/>
<line transform="translate(22.0408, 74.3164)" stroke-linejoin="round" stroke-linecap="round" stroke-width="0.1000" stroke="currentColor" x1="0.0500" y1="-0.0000" x2="31.0480" y2="-0.0000"/>
<line transform="translate(56.6858, 76.1164)" stroke-linejoin="round" stroke-linecap="round" stroke-width="0.1000" stroke="currentColor" x1="0.0500" y1="-0.0000" x2="40.2735" y2="-0.0000"/>
<line transform="translate(56.6858, 76.2164)" stroke-linejoin="round" stroke-linecap="round" stroke-width="0.1000" stroke="currentColor" x1="0.0500" y1="-0.0000" x2="40.2735" y2="-0.0000"/>
<line transform="translate(56.6858, 76.3164)" stroke-linejoin="round" stroke-linecap="round" stroke-width="0.1000" stroke="currentColor" x1="0.0500" y1="-0.0000" x2="40.2735" y2="-0.0000"/>
<line transform="translate(56.6858, 76.4164)" stroke-linejoin="round" stroke-linecap="round" stroke-width="0.1000" stroke="currentColor" x1="0.0500" y1="-0.0000" x2="40.2735" y2="-0.0000"/>
<line transform="translate(56.6858, 76.5164)" stroke-linejoin="round" stroke-linecap="round" stroke-width="0.1000" stroke="currentColor" x1="0.0500" y1="-0.0000" x2="40.2735" y2="-0.0000"/>
<line transform="translate(93.6260, 147.1363)" stroke-linejoin="round" stroke-linecap="round" stroke-width="0.1000" stroke="currentColor" x1="0.0500" y1="-0.0000" x2="21.9560" y2="-0.0000"/>
<line transform="translate(93.6260, 146.1363)" stroke-linejoin="round" stroke-linecap="round" stroke-width="0.1000" stroke="currentColor" x1="0.0500" y1="-0.0000" x2="21.9560" y2="-0.0000"/>
<line transform="translate(93.6260, 145.1363)" stroke-linejoin="round" stroke-linecap="round" stroke-width="0.1000" stroke="currentColor" x1="0.0500" y1="-0.0000" x2="21.9560" y2="-0.0000"/>
<line transform="translate(93.6260, 144.1363)" stroke-linejoin="round" stroke-linecap="round" stroke-width="0.1000" stroke="currentColor" x1="0.0500" y1="-0.0000" x2="21.9560" y2="-0.0000"/>
<line transform="translate(93.6260, 143.1363)" stroke-linejoin="round" stroke-linecap="round" stroke-width="0.1000" stroke="currentColor" x1="0.0500" y1="-0.0000" x2="21.9560" y2="-0.0000"/>
<line transform="translate(14.4540, 76.1164)" stroke-linejoin="round" stroke-linecap="round" stroke-width="0.1000" stroke="currentColor" x1="0.0500" y1="-0.0000" x2="10.8018" y2="-0.0000"/>
<line transform="translate(14.4540, 76.2164)" stroke-linejoin="round" stroke-linecap="round" stroke-width="0.1000" stroke="currentColor" x1="0.0500" y1="-0.0000" x2="10.8018" y2="-0.0000"/>
<line transform="translate(14.4540, 76.3164)" stroke-linejoin="round" stroke-linecap="round" stroke-width="0.1000" stroke="currentColor" x1="0.0500" y1="-0.0000" x2="10.8018" y2="-0.0000"/>
<line transform="translate(14.4540, 76.4164)" stroke-linejoin="round" stroke-linecap="round" stroke-width="0.1000" stroke="currentColor" x1="0.0500" y1="-0.0000" x2="10.8018" y2="-0.0000"/>
<line transform="translate(14.4540, 76.5164)" stroke-linejoin="round" stroke-linecap="round" stroke-width="0.1000" stroke="currentColor" x1="0.0500" y1="-0.0000" x2="10.8018" y2="-0.0000"/>
<path transform="translate(97.8132, 79.3164) scale(0.0040, -0.0040)" d="M216 -312c0 -10 -8 -19 -18 -19s-19 9 -19 19v145l-83 -31v-158c0 -10 -9 -19 -19 -19s-18 9 -18 19v145l-32 -12c-2 -1 -5 -1 -7 -1c-11 0 -20 9 -20 20v60c0 8 5 16 13 19l46 16v160l-32 -11c-2 -1 -5 -1 -7 -1c-11 0 -20 9 -20 20v60c0 8 5 15 13 18l46 17v158
c0 10 8 19 18 19s19 -9 19 -19v-145l83 31v158c0 10 9 19 19 19s18 -9 18 -19v-145l32 12c2 1 5 1 7 1c11 0 20 -9 20 -20v-60c0 -8 -5 -16 -13 -19l-46 -16v-160l32 11c2 1 5 1 7 1c11 0 20 -9 20 -20v-60c0 -8 -5 -15 -13 -18l-46 -17v-158zM96 65v-160l83 30v160z" fill="currentColor"/>
<path transform="translate(97.8132, 145.6363) scale(0.0040, -0.0040)" d="M216 -312c0 -10 -8 -19 -18 -19s-19 9 -19 19v145l-83 -31v-158c0 -10 -9 -19 -19 -19s-18 9 -18 19v145l-32 -12c-2 -1 -5 -1 -7 -1c-11 0 -20 9 -20 20v60c0 8 5 16 13 19l46 16v160l-32 -11c-2 -1 -5 -1 -7 -1c-11 0 -20 9 -20 20v60c0 8 5 15 13 18l46 17v158
c0 10 8 19 18 19s19 -9 19 -19v-145l83 31v158c0 10 9 19 19 19s18 -9 18 -19v-145l32 12c2 1 5 1 7 1c11 0 20 -9 20 -20v-60c0 -8 -5 -16 -13 -19l-46 -16v-160l32 11c2 1 5 1 7 1c11 0 20 -9 20 -20v-60c0 -8 -5 -15 -13 -18l-46 -17v-158zM96 65v-160l83 30v160z" fill="currentColor"/>
<path transform="translate(97.7132, 110.2263) scale(0.0040, -0.0040)" d="M216 -312c0 -10 -8 -19 -18 -19s-19 9 -19 19v145l-83 -31v-158c0 -10 -9 -19 -19 -19s-18 9 -18 19v145l-32 -12c-2 -1 -5 -1 -7 -1c-11 0 -20 9 -20 20v60c0 8 5 16 13 19l46 16v160l-32 -11c-2 -1 -5 -1 -7 -1c-11 0 -20 9 -20 20v60c0 8 5 15 13 18l46 17v158
c0 10 8 19 18 19s19 -9 19 -19v-145l83 31v158c0 10 9 19 19 19s18 -9 18 -19v-145l32 12c2 1 5 1 7 1c11 0 20 -9 20 -20v-60c0 -8 -5 -16 -13 -19l-46 -16v-160l32 11c2 1 5 1 7 1c11 0 20 -9 20 -20v-60c0 -8 -5 -15 -13 -18l-46 -17v-158zM96 65v-160l83 30v160z" fill="currentColor"/>
<line transform="translate(15.9591, 18.4184)" stroke-linejoin="round" stroke-linecap="round" stroke-width="0.1000" stroke="currentColor" x1="69.7265" y1="-0.0000" x2="70.2265" y2="1.0000"/>
<line transform="translate(15.9591, 18.4184)" stroke-linejoin="round" stroke-linecap="round" stroke-width="0.1000" stroke="currentColor" x1="0.5000" y1="-0.0000" x2="0.0000" y2="1.0000"/>
<line transform="translate(15.9591, 18.4184)" stroke-linejoin="round" stroke-linecap="round" stroke-width="0.1000" stroke="currentColor" x1="0.5000" y1="-0.0000" x2="69.7265" y2="-0.0000"/>
<rect transform="translate(98.7739, 150.7329)" x="-0.3245" y="-0.1000" width="3.0049" height="0.1000" ry="0.0000" fill="currentColor"/>
<rect transform="translate(98.7739, 148.8181)" x="-0.3245" y="-0.1000" width="3.0049" height="0.1000" ry="0.0000" fill="currentColor"/>
<rect transform="translate(98.4494, 150.4084)" x="0" y="-1.5902" width="0.1000" height="1.8147" ry="0.0000" fill="currentColor"/>
<rect transform="translate(101.3543, 150.4084)" x="0" y="-1.5902" width="0.1000" height="1.8147" ry="0.0000" fill="currentColor"/>
<text transform="translate(98.7739, 150.4084)" font-family="serif" font-size="2.4696" text-anchor="start" fill="currentColor">
<tspan>m</tspan>
</text>
<path transform="translate(93.6260, 144.1363) scale(0.0040, -0.0040)" d="M557 -125c0 28 23 51 51 51s51 -23 51 -51s-23 -51 -51 -51s-51 23 -51 51zM557 125c0 28 23 51 51 51s51 -23 51 -51s-23 -51 -51 -51s-51 23 -51 51zM232 263c172 0 293 -88 293 -251c0 -263 -263 -414 -516 -521c-3 -3 -6 -4 -9 -4c-7 0 -13 6 -13 13c0 3 1 6 4 9
c202 118 412 265 412 493c0 120 -63 235 -171 235c-74 0 -129 -54 -154 -126c11 5 22 8 34 8c55 0 100 -45 100 -100c0 -58 -44 -106 -100 -106c-60 0 -112 47 -112 106c0 133 102 244 232 244z" fill="currentColor"/>
<path transform="translate(99.2632, 145.6363) scale(0.0040, -0.0040)" d="M314 65c0 24 -21 41 -42 41c-4 0 -8 0 -12 -1c-31 -9 -78 -40 -115 -64s-84 -53 -104 -78c-7 -8 -10 -18 -10 -28c0 -24 21 -41 42 -41c4 0 8 0 12 1c31 9 77 40 114 64s84 53 104 78c7 8 11 18 11 28zM262 136c46 0 82 -21 82 -71c0 -19 -4 -39 -10 -57
c-12 -37 -32 -72 -64 -94c-53 -36 -113 -50 -187 -50c-46 0 -83 21 -83 71c0 19 5 39 11 57c12 37 31 72 63 94c53 36 114 50 188 50z" fill="currentColor"/>
<rect transform="translate(98.7739, 116.2411)" x="-0.3245" y="-0.1000" width="3.0049" height="0.1000" ry="0.0000" fill="currentColor"/>
<rect transform="translate(98.7739, 114.3263)" x="-0.3245" y="-0.1000" width="3.0049" height="0.1000" ry="0.0000" fill="currentColor"/>
<rect transform="translate(98.4494, 115.9166)" x="0" y="-1.5902" width="0.1000" height="1.8147" ry="0.0000" fill="currentColor"/>
<rect transform="translate(101.3543, 115.9166)" x="0" y="-1.5902" width="0.1000" height="1.8147" ry="0.0000" fill="currentColor"/>
<text transform="translate(98.7739, 115.9166)" font-family="serif" font-size="2.4696" text-anchor="start" fill="currentColor">
<tspan>m</tspan>
</text>
<text transform="translate(94.2081, 115.3248)" font-family="serif" font-style="italic" font-size="1.3860" text-anchor="start" fill="currentColor">
<tspan>8</tspan>
</text>
<path transform="translate(93.6260, 111.7263) scale(0.0040, -0.0040)" d="M376 262c4 0 9 1 13 1c155 0 256 -128 256 -261c0 -76 -33 -154 -107 -210c-22 -17 -47 -28 -73 -36c3 -35 5 -70 5 -105c0 -19 -1 -39 -2 -58c-7 -120 -90 -228 -208 -228c-108 0 -195 88 -195 197c0 58 53 103 112 103c54 0 95 -47 95 -103c0 -52 -43 -95 -95 -95
c-11 0 -21 2 -31 6c26 -39 68 -65 117 -65c96 0 157 92 163 191c1 18 2 37 2 55c0 31 -1 61 -4 92c-29 -5 -58 -8 -89 -8c-188 0 -333 172 -333 374c0 177 131 306 248 441c-19 62 -37 125 -45 190c-6 52 -7 104 -7 156c0 115 55 224 149 292c3 2 7 3 10 3c4 0 7 0 10 -3
c71 -84 133 -245 133 -358c0 -143 -86 -255 -180 -364c21 -68 39 -138 56 -207zM461 -203c68 24 113 95 113 164c0 90 -66 179 -173 190c24 -116 46 -231 60 -354zM74 28c0 -135 129 -247 264 -247c28 0 55 2 82 6c-14 127 -37 245 -63 364c-79 -8 -124 -61 -124 -119
c0 -44 25 -91 81 -123c5 -5 7 -10 7 -15c0 -11 -10 -22 -22 -22c-3 0 -6 1 -9 2c-80 43 -117 115 -117 185c0 88 58 174 160 197c-14 58 -29 117 -46 175c-107 -121 -213 -243 -213 -403zM408 1045c-99 -48 -162 -149 -162 -259c0 -74 18 -133 36 -194
c80 97 146 198 146 324c0 55 -4 79 -20 129z" fill="currentColor"/>
<path transform="translate(99.2632, 110.2263) scale(0.0040, -0.0040)" d="M314 65c0 24 -21 41 -42 41c-4 0 -8 0 -12 -1c-31 -9 -78 -40 -115 -64s-84 -53 -104 -78c-7 -8 -10 -18 -10 -28c0 -24 21 -41 42 -41c4 0 8 0 12 1c31 9 77 40 114 64s84 53 104 78c7 8 11 18 11 28zM262 136c46 0 82 -21 82 -71c0 -19 -4 -39 -10 -57
c-12 -37 -32 -72 -64 -94c-53 -36 -113 -50 -187 -50c-46 0 -83 21 -83 71c0 19 5 39 11 57c12 37 31 72 63 94c53 36 114 50 188 50z" fill="currentColor"/>
<rect transform="translate(98.7739, 83.1551)" x="-0.3245" y="-0.1000" width="3.0049" height="0.1000" ry="0.0000" fill="currentColor"/>
<rect transform="translate(98.7739, 81.2404)" x="-0.3245" y="-0.1000" width="3.0049" height="0.1000" ry="0.0000" fill="currentColor"/>
<rect transform="translate(98.4494, 82.8306)" x="0" y="-1.5902" width="0.1000" height="1.8147" ry="0.0000" fill="currentColor"/>
<rect transform="translate(101.3543, 82.8306)" x="0" y="-1.5902" width="0.1000" height="1.8147" ry="0.0000" fill="currentColor"/>
<text transform="translate(98.7739, 82.8306)" font-family="serif" font-size="2.4696" text-anchor="start" fill="currentColor">
<tspan>m</tspan>
</text>
<path transform="translate(93.6260, 77.3164) scale(0.0040, -0.0040)" d="M376 262c4 0 9 1 13 1c155 0 256 -128 256 -261c0 -76 -33 -154 -107 -210c-22 -17 -47 -28 -73 -36c3 -35 5 -70 5 -105c0 -19 -1 -39 -2 -58c-7 -120 -90 -228 -208 -228c-108 0 -195 88 -195 197c0 58 53 103 112 103c54 0 95 -47 95 -103c0 -52 -43 -95 -95 -95
c-11 0 -21 2 -31 6c26 -39 68 -65 117 -65c96 0 157 92 163 191c1 18 2 37 2 55c0 31 -1 61 -4 92c-29 -5 -58 -8 -89 -8c-188 0 -333 172 -333 374c0 177 131 306 248 441c-19 62 -37 125 -45 190c-6 52 -7 104 -7 156c0 115 55 224 149 292c3 2 7 3 10 3c4 0 7 0 10 -3
c71 -84 133 -245 133 -358c0 -143 -86 -255 -180 -364c21 -68 39 -138 56 -207zM461 -203c68 24 113 95 113 164c0 90 -66 179 -173 190c24 -116 46 -231 60 -354zM74 28c0 -135 129 -247 264 -247c28 0 55 2 82 6c-14 127 -37 245 -63 364c-79 -8 -124 -61 -124 -119
c0 -44 25 -91 81 -123c5 -5 7 -10 7 -15c0 -11 -10 -22 -22 -22c-3 0 -6 1 -9 2c-80 43 -117 115 -117 185c0 88 58 174 160 197c-14 58 -29 117 -46 175c-107 -121 -213 -243 -213 -403zM408 1045c-99 -48 -162 -149 -162 -259c0 -74 18 -133 36 -194
c80 97 146 198 146 324c0 55 -4 79 -20 129z" fill="currentColor"/>
<path transform="translate(99.2632, 79.3164) scale(0.0040, -0.0040)" d="M314 65c0 24 -21 41 -42 41c-4 0 -8 0 -12 -1c-31 -9 -78 -40 -115 -64s-84 -53 -104 -78c-7 -8 -10 -18 -10 -28c0 -24 21 -41 42 -41c4 0 8 0 12 1c31 9 77 40 114 64s84 53 104 78c7 8 11 18 11 28zM262 136c46 0 82 -21 82 -71c0 -19 -4 -39 -10 -57
c-12 -37 -32 -72 -64 -94c-53 -36 -113 -50 -187 -50c-46 0 -83 21 -83 71c0 19 5 39 11 57c12 37 31 72 63 94c53 36 114 50 188 50z" fill="currentColor"/>
<text transform="translate(49.3652, 17.8343)" font-family="serif" font-size="1.9600" text-anchor="start" fill="currentColor">
<tspan>15"</tspan>
</text>
<line transform="translate(31.5395, 22.1415)" stroke-linejoin="round" stroke-linecap="round" stroke-width="0.1000" stroke="currentColor" x1="0" y1="0" x2="32.6396" y2="-0.0000" stroke-dasharray="0.58284991840591,2.33139967362364"/>
<text transform="translate(16.2091, 22.1415)" font-family="serif" font-style="italic" font-size="2.2001" text-anchor="start" fill="currentColor">
<tspan>dim. al niente</tspan>
</text>
<line transform="translate(31.5395, 56.5514)" stroke-linejoin="round" stroke-linecap="round" stroke-width="0.1000" stroke="currentColor" x1="0" y1="0" x2="32.6396" y2="-0.0000" stroke-dasharray="0.58284991840591,2.33139967362364"/>
<text transform="translate(16.2091, 56.5514)" font-family="serif" font-style="italic" font-size="2.2001" text-anchor="start" fill="currentColor">
<tspan>dim. al niente</tspan>
</text>
<line transform="translate(19.5552, 71.3504)" stroke-linejoin="round" stroke-linecap="round" stroke-width="0.1000" stroke="currentColor" x1="0" y1="0" x2="15.7882" y2="-0.0000" stroke-dasharray="0.607237928493748,2.42895171397499"/>
<text transform="translate(16.2091, 71.3504)" font-family="serif" font-style="italic" font-size="2.2001" text-anchor="start" fill="currentColor">
<tspan>rit.</tspan>
</text>
<line transform="translate(31.5395, 90.9614)" stroke-linejoin="round" stroke-linecap="round" stroke-width="0.1000" stroke="currentColor" x1="0" y1="0" x2="32.6396" y2="-0.0000" stroke-dasharray="0.58284991840591,2.33139967362364"/>
<text transform="translate(16.2091, 90.9614)" font-family="serif" font-style="italic" font-size="2.2001" text-anchor="start" fill="currentColor">
<tspan>dim. al niente</tspan>
</text>
<line transform="translate(19.5552, 105.6263)" stroke-linejoin="round" stroke-linecap="round" stroke-width="0.1000" stroke="currentColor" x1="0" y1="0" x2="53.1351" y2="-0.0000" stroke-dasharray="0.58390239018676,2.33560956074704"/>
<text transform="translate(16.2091, 105.6263)" font-family="serif" font-style="italic" font-size="2.2001" text-anchor="start" fill="currentColor">
<tspan>rit.</tspan>
</text>
<line transform="translate(19.5552, 140.1611)" stroke-linejoin="round" stroke-linecap="round" stroke-width="0.1000" stroke="currentColor" x1="0" y1="0" x2="34.9762" y2="-0.0000" stroke-dasharray="0.62457465945125,2.498298637805"/>
<text transform="translate(16.2091, 140.1611)" font-family="serif" font-style="italic" font-size="2.2001" text-anchor="start" fill="currentColor">
<tspan>rit.</tspan>
</text>
<line transform="translate(44.7000, 39.3464)" stroke-linejoin="round" stroke-linecap="round" stroke-width="0.1000" stroke="currentColor" x1="0" y1="0" x2="43.6936" y2="-0.0000" stroke-dasharray="0.615402862242195,2.46161144896878"/>
<text transform="translate(29.3697, 39.3464)" font-family="serif" font-style="italic" font-size="2.2001" text-anchor="start" fill="currentColor">
<tspan>dim. al niente</tspan>
</text>
<line transform="translate(44.7000, 125.3713)" stroke-linejoin="round" stroke-linecap="round" stroke-width="0.1000" stroke="currentColor" x1="0" y1="0" x2="43.6936" y2="-0.0000" stroke-dasharray="0.615402862242195,2.46161144896878"/>
<text transform="translate(29.3697, 125.3713)" font-family="serif" font-style="italic" font-size="2.2001" text-anchor="start" fill="currentColor">
<tspan>dim. al niente</tspan>
</text>
<path transform="translate(29.1197, 76.3164)" stroke-width="0.0800" stroke-linejoin="round" stroke-linecap="round" stroke="currentColor" fill="currentColor" d="M0.8521 2.7500C1.7805 3.5923 5.2953 3.5923 6.2237 2.7500L6.2237 2.7500C5.2953 3.4723 1.7805 3.4723 0.8521 2.7500z"/>
<path transform="translate(45.6680, 145.1363)" stroke-width="0.0800" stroke-linejoin="round" stroke-linecap="round" stroke="currentColor" fill="currentColor" d="M0.8521 -1.6555C1.9857 -2.5681 7.8298 -2.5681 8.9633 -1.6555L8.9633 -1.6555C7.8298 -2.4481 1.9857 -2.4481 0.8521 -1.6555z"/>
<path transform="translate(63.8270, 110.7263)" stroke-width="0.0800" stroke-linejoin="round" stroke-linecap="round" stroke="currentColor" fill="currentColor" d="M1.5042 -2.0000C2.5482 -2.8848 7.2307 -2.8848 8.2747 -2.0000L8.2747 -2.0000C7.2307 -2.7648 2.5482 -2.7648 1.5042 -2.0000z"/>
<line transform="translate(87.6626, 18.4184)" stroke-linejoin="round" stroke-linecap="round" stroke-width="0.1000" stroke="currentColor" x1="25.9924" y1="-0.0000" x2="26.4924" y2="1.0000"/>
<line transform="translate(87.6626, 18.4184)" stroke-linejoin="round" stroke-linecap="round" stroke-width="0.1000" stroke="currentColor" x1="0.5000" y1="-0.0000" x2="0.0000" y2="1.0000"/>
<line transform="translate(87.6626, 18.4184)" stroke-linejoin="round" stroke-linecap="round" stroke-width="0.1000" stroke="currentColor" x1="0.5000" y1="-0.0000" x2="25.9924" y2="-0.0000"/>
<text transform="translate(99.2017, 17.8343)" font-family="serif" font-size="1.9600" text-anchor="start" fill="currentColor">
<tspan>10"</tspan>
</text>
<path transform="translate(99.2632, 110.7263)" stroke-width="0.0800" stroke-linejoin="round" stroke-linecap="round" stroke="currentColor" fill="currentColor" d="M0.8887 -1.2250C1.9470 -2.1145 6.7987 -2.1145 7.8571 -1.2250L7.8571 -1.2250C6.7987 -1.9945 1.9470 -1.9945 0.8887 -1.2250z"/>
<rect transform="translate(106.5862, 116.2752)" x="-0.3245" y="-0.1000" width="2.1171" height="0.1000" ry="0.0000" fill="currentColor"/>
<rect transform="translate(106.5862, 114.3605)" x="-0.3245" y="-0.1000" width="2.1171" height="0.1000" ry="0.0000" fill="currentColor"/>
<rect transform="translate(106.2617, 115.9166)" x="0" y="-1.5561" width="0.1000" height="1.8147" ry="0.0000" fill="currentColor"/>
<rect transform="translate(108.2788, 115.9166)" x="0" y="-1.5561" width="0.1000" height="1.8147" ry="0.0000" fill="currentColor"/>
<text transform="translate(106.5862, 115.9166)" font-family="serif" font-size="2.4696" text-anchor="start" fill="currentColor">
<tspan>e</tspan>
</text>
<path transform="translate(105.0816, 22.7015) scale(0.0040, -0.0040)" d="M216 -312c0 -10 -8 -19 -18 -19s-19 9 -19 19v145l-83 -31v-158c0 -10 -9 -19 -19 -19s-18 9 -18 19v145l-32 -12c-2 -1 -5 -1 -7 -1c-11 0 -20 9 -20 20v60c0 8 5 16 13 19l46 16v160l-32 -11c-2 -1 -5 -1 -7 -1c-11 0 -20 9 -20 20v60c0 8 5 15 13 18l46 17v158
c0 10 8 19 18 19s19 -9 19 -19v-145l83 31v158c0 10 9 19 19 19s18 -9 18 -19v-145l32 12c2 1 5 1 7 1c11 0 20 -9 20 -20v-60c0 -8 -5 -16 -13 -19l-46 -16v-160l32 11c2 1 5 1 7 1c11 0 20 -9 20 -20v-60c0 -8 -5 -15 -13 -18l-46 -17v-158zM96 65v-160l83 30v160z" fill="currentColor"/>
<rect transform="translate(106.5862, 150.7670)" x="-0.3245" y="-0.1000" width="2.1171" height="0.1000" ry="0.0000" fill="currentColor"/>
<rect transform="translate(106.5862, 148.8523)" x="-0.3245" y="-0.1000" width="2.1171" height="0.1000" ry="0.0000" fill="currentColor"/>
<rect transform="translate(106.2617, 150.4084)" x="0" y="-1.5561" width="0.1000" height="1.8147" ry="0.0000" fill="currentColor"/>
<rect transform="translate(108.2788, 150.4084)" x="0" y="-1.5561" width="0.1000" height="1.8147" ry="0.0000" fill="currentColor"/>
<text transform="translate(106.5862, 150.4084)" font-family="serif" font-size="2.4696" text-anchor="start" fill="currentColor">
<tspan>e</tspan>
</text>
<path transform="translate(106.6316, 147.6363) scale(0.0040, -0.0040)" d="M314 65c0 24 -21 41 -42 41c-4 0 -8 0 -12 -1c-31 -9 -78 -40 -115 -64s-84 -53 -104 -78c-7 -8 -10 -18 -10 -28c0 -24 21 -41 42 -41c4 0 8 0 12 1c31 9 77 40 114 64s84 53 104 78c7 8 11 18 11 28zM262 136c46 0 82 -21 82 -71c0 -19 -4 -39 -10 -57
c-12 -37 -32 -72 -64 -94c-53 -36 -113 -50 -187 -50c-46 0 -83 21 -83 71c0 19 5 39 11 57c12 37 31 72 63 94c53 36 114 50 188 50z" fill="currentColor"/>
<path transform="translate(106.6316, 110.2263) scale(0.0040, -0.0040)" d="M314 65c0 24 -21 41 -42 41c-4 0 -8 0 -12 -1c-31 -9 -78 -40 -115 -64s-84 -53 -104 -78c-7 -8 -10 -18 -10 -28c0 -24 21 -41 42 -41c4 0 8 0 12 1c31 9 77 40 114 64s84 53 104 78c7 8 11 18 11 28zM262 136c46 0 82 -21 82 -71c0 -19 -4 -39 -10 -57
c-12 -37 -32 -72 -64 -94c-53 -36 -113 -50 -187 -50c-46 0 -83 21 -83 71c0 19 5 39 11 57c12 37 31 72 63 94c53 36 114 50 188 50z" fill="currentColor"/>
<rect transform="translate(106.5862, 99.0361)" x="-0.3245" y="-0.1000" width="2.1171" height="0.1000" ry="0.0000" fill="currentColor"/>
<rect transform="translate(106.5862, 97.1214)" x="-0.3245" y="-0.1000" width="2.1171" height="0.1000" ry="0.0000" fill="currentColor"/>
<rect transform="translate(106.2617, 98.6774)" x="0" y="-1.5561" width="0.1000" height="1.8147" ry="0.0000" fill="currentColor"/>
<rect transform="translate(108.2788, 98.6774)" x="0" y="-1.5561" width="0.1000" height="1.8147" ry="0.0000" fill="currentColor"/>
<text transform="translate(106.5862, 98.6774)" font-family="serif" font-size="2.4696" text-anchor="start" fill="currentColor">
<tspan>e</tspan>
</text>
<text transform="translate(102.2987, 98.1198)" font-family="serif" font-style="italic" font-size="1.3860" text-anchor="start" fill="currentColor">
<tspan>8</tspan>
</text>
<path transform="translate(101.7166, 94.5214) scale(0.0040, -0.0040)" d="M376 262c4 0 9 1 13 1c155 0 256 -128 256 -261c0 -76 -33 -154 -107 -210c-22 -17 -47 -28 -73 -36c3 -35 5 -70 5 -105c0 -19 -1 -39 -2 -58c-7 -120 -90 -228 -208 -228c-108 0 -195 88 -195 197c0 58 53 103 112 103c54 0 95 -47 95 -103c0 -52 -43 -95 -95 -95
c-11 0 -21 2 -31 6c26 -39 68 -65 117 -65c96 0 157 92 163 191c1 18 2 37 2 55c0 31 -1 61 -4 92c-29 -5 -58 -8 -89 -8c-188 0 -333 172 -333 374c0 177 131 306 248 441c-19 62 -37 125 -45 190c-6 52 -7 104 -7 156c0 115 55 224 149 292c3 2 7 3 10 3c4 0 7 0 10 -3
c71 -84 133 -245 133 -358c0 -143 -86 -255 -180 -364c21 -68 39 -138 56 -207zM461 -203c68 24 113 95 113 164c0 90 -66 179 -173 190c24 -116 46 -231 60 -354zM74 28c0 -135 129 -247 264 -247c28 0 55 2 82 6c-14 127 -37 245 -63 364c-79 -8 -124 -61 -124 -119
c0 -44 25 -91 81 -123c5 -5 7 -10 7 -15c0 -11 -10 -22 -22 -22c-3 0 -6 1 -9 2c-80 43 -117 115 -117 185c0 88 58 174 160 197c-14 58 -29 117 -46 175c-107 -121 -213 -243 -213 -403zM408 1045c-99 -48 -162 -149 -162 -259c0 -74 18 -133 36 -194
c80 97 146 198 146 324c0 55 -4 79 -20 129z" fill="currentColor"/>
<path transform="translate(106.6316, 93.0214) scale(0.0040, -0.0040)" d="M314 65c0 24 -21 41 -42 41c-4 0 -8 0 -12 -1c-31 -9 -78 -40 -115 -64s-84 -53 -104 -78c-7 -8 -10 -18 -10 -28c0 -24 21 -41 42 -41c4 0 8 0 12 1c31 9 77 40 114 64s84 53 104 78c7 8 11 18 11 28zM262 136c46 0 82 -21 82 -71c0 -19 -4 -39 -10 -57
c-12 -37 -32 -72 -64 -94c-53 -36 -113 -50 -187 -50c-46 0 -83 21 -83 71c0 19 5 39 11 57c12 37 31 72 63 94c53 36 114 50 188 50z" fill="currentColor"/>
<rect transform="translate(106.5862, 83.1892)" x="-0.3245" y="-0.1000" width="2.1171" height="0.1000" ry="0.0000" fill="currentColor"/>
<rect transform="translate(106.5862, 81.2745)" x="-0.3245" y="-0.1000" width="2.1171" height="0.1000" ry="0.0000" fill="currentColor"/>
<rect transform="translate(106.2617, 82.8306)" x="0" y="-1.5561" width="0.1000" height="1.8147" ry="0.0000" fill="currentColor"/>
<rect transform="translate(108.2788, 82.8306)" x="0" y="-1.5561" width="0.1000" height="1.8147" ry="0.0000" fill="currentColor"/>
<text transform="translate(106.5862, 82.8306)" font-family="serif" font-size="2.4696" text-anchor="start" fill="currentColor">
<tspan>e</tspan>
</text>
<path transform="translate(106.6316, 76.8164) scale(0.0040, -0.0040)" d="M314 65c0 24 -21 41 -42 41c-4 0 -8 0 -12 -1c-31 -9 -78 -40 -115 -64s-84 -53 -104 -78c-7 -8 -10 -18 -10 -28c0 -24 21 -41 42 -41c4 0 8 0 12 1c31 9 77 40 114 64s84 53 104 78c7 8 11 18 11 28zM262 136c46 0 82 -21 82 -71c0 -19 -4 -39 -10 -57
c-12 -37 -32 -72 -64 -94c-53 -36 -113 -50 -187 -50c-46 0 -83 21 -83 71c0 19 5 39 11 57c12 37 31 72 63 94c53 36 114 50 188 50z" fill="currentColor"/>
<rect transform="translate(106.5862, 63.6761)" x="-0.3245" y="-0.1000" width="2.1171" height="0.1000" ry="0.0000" fill="currentColor"/>
<rect transform="translate(106.5862, 61.7614)" x="-0.3245" y="-0.1000" width="2.1171" height="0.1000" ry="0.0000" fill="currentColor"/>
<rect transform="translate(106.2617, 63.3175)" x="0" y="-1.5561" width="0.1000" height="1.8147" ry="0.0000" fill="currentColor"/>
<rect transform="translate(108.2788, 63.3175)" x="0" y="-1.5561" width="0.1000" height="1.8147" ry="0.0000" fill="currentColor"/>
<text transform="translate(106.5862, 63.3175)" font-family="serif" font-size="2.4696" text-anchor="start" fill="currentColor">
<tspan>e</tspan>
</text>
<path transform="translate(101.7166, 60.1114) scale(0.0040, -0.0040)" d="M376 262c4 0 9 1 13 1c155 0 256 -128 256 -261c0 -76 -33 -154 -107 -210c-22 -17 -47 -28 -73 -36c3 -35 5 -70 5 -105c0 -19 -1 -39 -2 -58c-7 -120 -90 -228 -208 -228c-108 0 -195 88 -195 197c0 58 53 103 112 103c54 0 95 -47 95 -103c0 -52 -43 -95 -95 -95
c-11 0 -21 2 -31 6c26 -39 68 -65 117 -65c96 0 157 92 163 191c1 18 2 37 2 55c0 31 -1 61 -4 92c-29 -5 -58 -8 -89 -8c-188 0 -333 172 -333 374c0 177 131 306 248 441c-19 62 -37 125 -45 190c-6 52 -7 104 -7 156c0 115 55 224 149 292c3 2 7 3 10 3c4 0 7 0 10 -3
c71 -84 133 -245 133 -358c0 -143 -86 -255 -180 -364c21 -68 39 -138 56 -207zM461 -203c68 24 113 95 113 164c0 90 -66 179 -173 190c24 -116 46 -231 60 -354zM74 28c0 -135 129 -247 264 -247c28 0 55 2 82 6c-14 127 -37 245 -63 364c-79 -8 -124 -61 -124 -119
c0 -44 25 -91 81 -123c5 -5 7 -10 7 -15c0 -11 -10 -22 -22 -22c-3 0 -6 1 -9 2c-80 43 -117 115 -117 185c0 88 58 174 160 197c-14 58 -29 117 -46 175c-107 -121 -213 -243 -213 -403zM408 1045c-99 -48 -162 -149 -162 -259c0 -74 18 -133 36 -194
c80 97 146 198 146 324c0 55 -4 79 -20 129z" fill="currentColor"/>
<path transform="translate(106.6316, 59.6114) scale(0.0040, -0.0040)" d="M314 65c0 24 -21 41 -42 41c-4 0 -8 0 -12 -1c-31 -9 -78 -40 -115 -64s-84 -53 -104 -78c-7 -8 -10 -18 -10 -28c0 -24 21 -41 42 -41c4 0 8 0 12 1c31 9 77 40 114 64s84 53 104 78c7 8 11 18 11 28zM262 136c46 0 82 -21 82 -71c0 -19 -4 -39 -10 -57
c-12 -37 -32 -72 -64 -94c-53 -36 -113 -50 -187 -50c-46 0 -83 21 -83 71c0 19 5 39 11 57c12 37 31 72 63 94c53 36 114 50 188 50z" fill="currentColor"/>
<rect transform="translate(106.5862, 29.2662)" x="-0.3245" y="-0.1000" width="2.1171" height="0.1000" ry="0.0000" fill="currentColor"/>
<rect transform="translate(106.5862, 27.3515)" x="-0.3245" y="-0.1000" width="2.1171" height="0.1000" ry="0.0000" fill="currentColor"/>
<rect transform="translate(106.2617, 28.9075)" x="0" y="-1.5561" width="0.1000" height="1.8147" ry="0.0000" fill="currentColor"/>
<rect transform="translate(108.2788, 28.9075)" x="0" y="-1.5561" width="0.1000" height="1.8147" ry="0.0000" fill="currentColor"/>
<text transform="translate(106.5862, 28.9075)" font-family="serif" font-size="2.4696" text-anchor="start" fill="currentColor">
<tspan>e</tspan>
</text>
<path transform="translate(101.7166, 25.7015) scale(0.0040, -0.0040)" d="M376 262c4 0 9 1 13 1c155 0 256 -128 256 -261c0 -76 -33 -154 -107 -210c-22 -17 -47 -28 -73 -36c3 -35 5 -70 5 -105c0 -19 -1 -39 -2 -58c-7 -120 -90 -228 -208 -228c-108 0 -195 88 -195 197c0 58 53 103 112 103c54 0 95 -47 95 -103c0 -52 -43 -95 -95 -95
c-11 0 -21 2 -31 6c26 -39 68 -65 117 -65c96 0 157 92 163 191c1 18 2 37 2 55c0 31 -1 61 -4 92c-29 -5 -58 -8 -89 -8c-188 0 -333 172 -333 374c0 177 131 306 248 441c-19 62 -37 125 -45 190c-6 52 -7 104 -7 156c0 115 55 224 149 292c3 2 7 3 10 3c4 0 7 0 10 -3
c71 -84 133 -245 133 -358c0 -143 -86 -255 -180 -364c21 -68 39 -138 56 -207zM461 -203c68 24 113 95 113 164c0 90 -66 179 -173 190c24 -116 46 -231 60 -354zM74 28c0 -135 129 -247 264 -247c28 0 55 2 82 6c-14 127 -37 245 -63 364c-79 -8 -124 -61 -124 -119
c0 -44 25 -91 81 -123c5 -5 7 -10 7 -15c0 -11 -10 -22 -22 -22c-3 0 -6 1 -9 2c-80 43 -117 115 -117 185c0 88 58 174 160 197c-14 58 -29 117 -46 175c-107 -121 -213 -243 -213 -403zM408 1045c-99 -48 -162 -149 -162 -259c0 -74 18 -133 36 -194
c80 97 146 198 146 324c0 55 -4 79 -20 129z" fill="currentColor"/>
<path transform="translate(106.6316, 22.7015) scale(0.0040, -0.0040)" d="M314 65c0 24 -21 41 -42 41c-4 0 -8 0 -12 -1c-31 -9 -78 -40 -115 -64s-84 -53 -104 -78c-7 -8 -10 -18 -10 -28c0 -24 21 -41 42 -41c4 0 8 0 12 1c31 9 77 40 114 64s84 53 104 78c7 8 11 18 11 28zM262 136c46 0 82 -21 82 -71c0 -19 -4 -39 -10 -57
c-12 -37 -32 -72 -64 -94c-53 -36 -113 -50 -187 -50c-46 0 -83 21 -83 71c0 19 5 39 11 57c12 37 31 72 63 94c53 36 114 50 188 50z" fill="currentColor"/>
<rect transform="translate(114.0901, 13.4184)" x="-0.0650" y="3.3139" width="0.1300" height="0.0000" ry="0.0000" fill="currentColor"/>
<path transform="translate(105.1816, 147.6363) scale(0.0040, -0.0040)" d="M216 -312c0 -10 -8 -19 -18 -19s-19 9 -19 19v145l-83 -31v-158c0 -10 -9 -19 -19 -19s-18 9 -18 19v145l-32 -12c-2 -1 -5 -1 -7 -1c-11 0 -20 9 -20 20v60c0 8 5 16 13 19l46 16v160l-32 -11c-2 -1 -5 -1 -7 -1c-11 0 -20 9 -20 20v60c0 8 5 15 13 18l46 17v158
c0 10 8 19 18 19s19 -9 19 -19v-145l83 31v158c0 10 9 19 19 19s18 -9 18 -19v-145l32 12c2 1 5 1 7 1c11 0 20 -9 20 -20v-60c0 -8 -5 -16 -13 -19l-46 -16v-160l32 11c2 1 5 1 7 1c11 0 20 -9 20 -20v-60c0 -8 -5 -15 -13 -18l-46 -17v-158zM96 65v-160l83 30v160z" fill="currentColor"/>
<path transform="translate(105.0816, 93.0214) scale(0.0040, -0.0040)" d="M216 -312c0 -10 -8 -19 -18 -19s-19 9 -19 19v145l-83 -31v-158c0 -10 -9 -19 -19 -19s-18 9 -18 19v145l-32 -12c-2 -1 -5 -1 -7 -1c-11 0 -20 9 -20 20v60c0 8 5 16 13 19l46 16v160l-32 -11c-2 -1 -5 -1 -7 -1c-11 0 -20 9 -20 20v60c0 8 5 15 13 18l46 17v158
c0 10 8 19 18 19s19 -9 19 -19v-145l83 31v158c0 10 9 19 19 19s18 -9 18 -19v-145l32 12c2 1 5 1 7 1c11 0 20 -9 20 -20v-60c0 -8 -5 -16 -13 -19l-46 -16v-160l32 11c2 1 5 1 7 1c11 0 20 -9 20 -20v-60c0 -8 -5 -15 -13 -18l-46 -17v-158zM96 65v-160l83 30v160z" fill="currentColor"/>
<path transform="translate(29.1197, 78.3164) scale(0.0040, -0.0040)" d="M218 136c55 0 108 -28 108 -89c0 -71 -55 -121 -102 -149c-35 -21 -75 -34 -116 -34c-55 0 -108 28 -108 89c0 71 55 121 102 149c35 21 75 34 116 34z" fill="currentColor"/>
<path transform="translate(22.0408, 77.3164) scale(0.0040, -0.0040)" d="M376 262c4 0 9 1 13 1c155 0 256 -128 256 -261c0 -76 -33 -154 -107 -210c-22 -17 -47 -28 -73 -36c3 -35 5 -70 5 -105c0 -19 -1 -39 -2 -58c-7 -120 -90 -228 -208 -228c-108 0 -195 88 -195 197c0 58 53 103 112 103c54 0 95 -47 95 -103c0 -52 -43 -95 -95 -95
c-11 0 -21 2 -31 6c26 -39 68 -65 117 -65c96 0 157 92 163 191c1 18 2 37 2 55c0 31 -1 61 -4 92c-29 -5 -58 -8 -89 -8c-188 0 -333 172 -333 374c0 177 131 306 248 441c-19 62 -37 125 -45 190c-6 52 -7 104 -7 156c0 115 55 224 149 292c3 2 7 3 10 3c4 0 7 0 10 -3
c71 -84 133 -245 133 -358c0 -143 -86 -255 -180 -364c21 -68 39 -138 56 -207zM461 -203c68 24 113 95 113 164c0 90 -66 179 -173 190c24 -116 46 -231 60 -354zM74 28c0 -135 129 -247 264 -247c28 0 55 2 82 6c-14 127 -37 245 -63 364c-79 -8 -124 -61 -124 -119
c0 -44 25 -91 81 -123c5 -5 7 -10 7 -15c0 -11 -10 -22 -22 -22c-3 0 -6 1 -9 2c-80 43 -117 115 -117 185c0 88 58 174 160 197c-14 58 -29 117 -46 175c-107 -121 -213 -243 -213 -403zM408 1045c-99 -48 -162 -149 -162 -259c0 -74 18 -133 36 -194
c80 97 146 198 146 324c0 55 -4 79 -20 129z" fill="currentColor"/>
<rect transform="translate(28.6438, 83.1551)" x="-0.3245" y="-0.1000" width="3.0049" height="0.1000" ry="0.0000" fill="currentColor"/>
<rect transform="translate(28.6438, 81.2404)" x="-0.3245" y="-0.1000" width="3.0049" height="0.1000" ry="0.0000" fill="currentColor"/>
<rect transform="translate(28.3193, 82.8306)" x="0" y="-1.5902" width="0.1000" height="1.8147" ry="0.0000" fill="currentColor"/>
<rect transform="translate(31.2242, 82.8306)" x="0" y="-1.5902" width="0.1000" height="1.8147" ry="0.0000" fill="currentColor"/>
<text transform="translate(28.6438, 82.8306)" font-family="serif" font-size="2.4696" text-anchor="start" fill="currentColor">
<tspan>m</tspan>
</text>
<rect transform="translate(13.4638, 12.6184)" x="-0.3520" y="-0.1000" width="2.6843" height="0.1000" ry="0.0000" fill="currentColor"/>
<rect transform="translate(13.4638, 10.0000)" x="-0.3520" y="-0.1000" width="2.6843" height="0.1000" ry="0.0000" fill="currentColor"/>
<rect transform="translate(13.1119, 12.2665)" x="0" y="-2.2664" width="0.1000" height="2.5184" ry="0.0000" fill="currentColor"/>
<rect transform="translate(15.6961, 12.2665)" x="0" y="-2.2664" width="0.1000" height="2.5184" ry="0.0000" fill="currentColor"/>
<text transform="translate(13.4638, 12.2665)" font-family="serif" font-weight="bold" font-size="2.7719" text-anchor="start" fill="currentColor">
<tspan>F</tspan>
</text>
<path transform="translate(34.8547, 78.3164) scale(0.0040, -0.0040)" d="M314 65c0 24 -21 41 -42 41c-4 0 -8 0 -12 -1c-31 -9 -78 -40 -115 -64s-84 -53 -104 -78c-7 -8 -10 -18 -10 -28c0 -24 21 -41 42 -41c4 0 8 0 12 1c31 9 77 40 114 64s84 53 104 78c7 8 11 18 11 28zM262 136c46 0 82 -21 82 -71c0 -19 -4 -39 -10 -57
c-12 -37 -32 -72 -64 -94c-53 -36 -113 -50 -187 -50c-46 0 -83 21 -83 71c0 19 5 39 11 57c12 37 31 72 63 94c53 36 114 50 188 50z" fill="currentColor"/>
<path transform="translate(35.5434, 74.0164) scale(0.0040, -0.0040)" d="M-91 67c0 37 29 66 66 66s67 -29 67 -66s-30 -67 -67 -67s-66 30 -66 67zM-231 0c-11 0 -19 9 -19 19c0 3 1 4 2 7l231 513c3 7 10 11 17 11s14 -4 17 -11l231 -513c1 -3 2 -4 2 -7c0 -10 -8 -19 -19 -19h-49c-7 0 -14 4 -17 11l-190 418l-189 -418
c-3 -7 -10 -11 -17 -11z" fill="currentColor"/>
<path transform="translate(27.9697, 78.3164) scale(0.0040, -0.0040)" d="M27 41l-1 -66v-11c0 -22 1 -44 4 -66c45 38 93 80 93 139c0 33 -14 67 -43 67c-31 0 -52 -30 -53 -63zM-15 -138l-12 595c8 5 18 8 27 8s19 -3 27 -8l-7 -345c25 21 58 34 91 34c52 0 89 -48 89 -102c0 -80 -86 -117 -147 -169c-15 -13 -24 -38 -45 -38
c-13 0 -23 11 -23 25z" fill="currentColor"/>
<text transform="translate(9.6464, 111.5287)" font-family="serif" font-size="2.2001" text-anchor="start" fill="currentColor">
<tspan>T</tspan>
</text>
<text transform="translate(9.5781, 128.7337)" font-family="serif" font-size="2.2001" text-anchor="start" fill="currentColor">
<tspan>B</tspan>
</text>
<text transform="translate(9.5781, 145.9387)" font-family="serif" font-size="2.2001" text-anchor="start" fill="currentColor">
<tspan>B</tspan>
</text>
<rect transform="translate(14.3940, 84.9189)" x="0.0000" y="-60.4674" width="0.1600" height="120.9348" ry="0.0500" fill="currentColor"/>
<line transform="translate(99.2632, 72.2827)" stroke-linejoin="round" stroke-linecap="round" stroke-width="0.1000" stroke="currentColor" x1="0.0000" y1="0.0000" x2="15.3688" y2="0.6666"/>
<line transform="translate(99.2632, 72.2827)" stroke-linejoin="round" stroke-linecap="round" stroke-width="0.1000" stroke="currentColor" x1="0.0000" y1="-0.0000" x2="15.3688" y2="-0.6666"/>
<line transform="translate(99.1632, 107.3598)" stroke-linejoin="round" stroke-linecap="round" stroke-width="0.1000" stroke="currentColor" x1="0.0000" y1="0.0000" x2="15.4688" y2="0.6666"/>
<line transform="translate(99.1632, 107.3598)" stroke-linejoin="round" stroke-linecap="round" stroke-width="0.1000" stroke="currentColor" x1="0.0000" y1="-0.0000" x2="15.4688" y2="-0.6666"/>
<line transform="translate(99.2632, 141.4222)" stroke-linejoin="round" stroke-linecap="round" stroke-width="0.1000" stroke="currentColor" x1="0.0000" y1="0.0000" x2="15.3688" y2="0.6666"/>
<line transform="translate(99.2632, 141.4222)" stroke-linejoin="round" stroke-linecap="round" stroke-width="0.1000" stroke="currentColor" x1="0.0000" y1="-0.0000" x2="15.3688" y2="-0.6666"/>
<text transform="translate(9.6464, 94.3237)" font-family="serif" font-size="2.2001" text-anchor="start" fill="currentColor">
<tspan>T</tspan>
</text>
<text transform="translate(9.5781, 77.1188)" font-family="serif" font-size="2.2001" text-anchor="start" fill="currentColor">
<tspan>A</tspan>
</text>
<text transform="translate(9.5781, 59.9138)" font-family="serif" font-size="2.2001" text-anchor="start" fill="currentColor">
<tspan>A</tspan>
</text>
<text transform="translate(9.6293, 42.7088)" font-family="serif" font-size="2.2001" text-anchor="start" fill="currentColor">
<tspan>S</tspan>
</text>
<text transform="translate(9.6293, 25.5038)" font-family="serif" font-size="2.2001" text-anchor="start" fill="currentColor">
<tspan>S</tspan>
</text>
<circle transform="translate(106.8315, 90.1550)" stroke-linejoin="round" stroke-linecap="round" fill="none" stroke="currentColor" stroke-width="0.1000" r="0.3500"/>
<line transform="translate(106.5316, 90.1550)" stroke-linejoin="round" stroke-linecap="round" stroke-width="0.1000" stroke="currentColor" x1="0.6999" y1="0.0000" x2="8.1004" y2="0.6666"/>
<line transform="translate(106.5316, 90.1550)" stroke-linejoin="round" stroke-linecap="round" stroke-width="0.1000" stroke="currentColor" x1="0.6999" y1="-0.0000" x2="8.1004" y2="-0.6666"/>
<circle transform="translate(106.9315, 55.3902)" stroke-linejoin="round" stroke-linecap="round" fill="none" stroke="currentColor" stroke-width="0.1000" r="0.3500"/>
<line transform="translate(106.6316, 55.3902)" stroke-linejoin="round" stroke-linecap="round" stroke-width="0.1000" stroke="currentColor" x1="0.6999" y1="0.0000" x2="8.0004" y2="0.6666"/>
<line transform="translate(106.6316, 55.3902)" stroke-linejoin="round" stroke-linecap="round" stroke-width="0.1000" stroke="currentColor" x1="0.6999" y1="-0.0000" x2="8.0004" y2="-0.6666"/>
<circle transform="translate(106.8315, 21.2082)" stroke-linejoin="round" stroke-linecap="round" fill="none" stroke="currentColor" stroke-width="0.1000" r="0.3500"/>
<line transform="translate(106.5316, 21.2082)" stroke-linejoin="round" stroke-linecap="round" stroke-width="0.1000" stroke="currentColor" x1="0.6999" y1="0.0000" x2="8.1004" y2="0.6666"/>
<line transform="translate(106.5316, 21.2082)" stroke-linejoin="round" stroke-linecap="round" stroke-width="0.1000" stroke="currentColor" x1="0.6999" y1="-0.0000" x2="8.1004" y2="-0.6666"/>
<path transform="translate(62.6147, 109.2263) scale(0.0040, -0.0040)" d="M27 41l-1 -66v-11c0 -22 1 -44 4 -66c45 38 93 80 93 139c0 33 -14 67 -43 67c-31 0 -52 -30 -53 -63zM-15 -138l-12 595c8 5 18 8 27 8s19 -3 27 -8l-7 -345c25 21 58 34 91 34c52 0 89 -48 89 -102c0 -80 -86 -117 -147 -169c-15 -13 -24 -38 -45 -38
c-13 0 -23 11 -23 25z" fill="currentColor"/>
<path transform="translate(72.3016, 109.2263) scale(0.0040, -0.0040)" d="M314 65c0 24 -21 41 -42 41c-4 0 -8 0 -12 -1c-31 -9 -78 -40 -115 -64s-84 -53 -104 -78c-7 -8 -10 -18 -10 -28c0 -24 21 -41 42 -41c4 0 8 0 12 1c31 9 77 40 114 64s84 53 104 78c7 8 11 18 11 28zM262 136c46 0 82 -21 82 -71c0 -19 -4 -39 -10 -57
c-12 -37 -32 -72 -64 -94c-53 -36 -113 -50 -187 -50c-46 0 -83 21 -83 71c0 19 5 39 11 57c12 37 31 72 63 94c53 36 114 50 188 50z" fill="currentColor"/>
<path transform="translate(72.9903, 108.2923) scale(0.0040, -0.0040)" d="M-91 67c0 37 29 66 66 66s67 -29 67 -66s-30 -67 -67 -67s-66 30 -66 67zM-231 0c-11 0 -19 9 -19 19c0 3 1 4 2 7l231 513c3 7 10 11 17 11s14 -4 17 -11l231 -513c1 -3 2 -4 2 -7c0 -10 -8 -19 -19 -19h-49c-7 0 -14 4 -17 11l-190 418l-189 -418
c-3 -7 -10 -11 -17 -11z" fill="currentColor"/>
<rect transform="translate(72.2062, 116.2752)" x="-0.3245" y="-0.1000" width="2.1171" height="0.1000" ry="0.0000" fill="currentColor"/>
<rect transform="translate(72.2062, 114.3605)" x="-0.3245" y="-0.1000" width="2.1171" height="0.1000" ry="0.0000" fill="currentColor"/>
<rect transform="translate(71.8817, 115.9166)" x="0" y="-1.5561" width="0.1000" height="1.8147" ry="0.0000" fill="currentColor"/>
<rect transform="translate(73.8989, 115.9166)" x="0" y="-1.5561" width="0.1000" height="1.8147" ry="0.0000" fill="currentColor"/>
<text transform="translate(72.2062, 115.9166)" font-family="serif" font-size="2.4696" text-anchor="start" fill="currentColor">
<tspan>e</tspan>
</text>
<rect transform="translate(34.8593, 83.1892)" x="-0.3245" y="-0.1000" width="2.1171" height="0.1000" ry="0.0000" fill="currentColor"/>
<rect transform="translate(34.8593, 81.2745)" x="-0.3245" y="-0.1000" width="2.1171" height="0.1000" ry="0.0000" fill="currentColor"/>
<rect transform="translate(34.5348, 82.8306)" x="0" y="-1.5561" width="0.1000" height="1.8147" ry="0.0000" fill="currentColor"/>
<rect transform="translate(36.5519, 82.8306)" x="0" y="-1.5561" width="0.1000" height="1.8147" ry="0.0000" fill="currentColor"/>
<text transform="translate(34.8593, 82.8306)" font-family="serif" font-size="2.4696" text-anchor="start" fill="currentColor">
<tspan>e</tspan>
</text>
<rect transform="translate(86.1207, 13.4184)" x="-0.0650" y="3.3139" width="0.1300" height="0.0000" ry="0.0000" fill="currentColor"/>
<rect transform="translate(54.0473, 150.7670)" x="-0.3245" y="-0.1000" width="2.1171" height="0.1000" ry="0.0000" fill="currentColor"/>
<rect transform="translate(54.0473, 148.8523)" x="-0.3245" y="-0.1000" width="2.1171" height="0.1000" ry="0.0000" fill="currentColor"/>
<rect transform="translate(53.7228, 150.4084)" x="0" y="-1.5561" width="0.1000" height="1.8147" ry="0.0000" fill="currentColor"/>
<rect transform="translate(55.7399, 150.4084)" x="0" y="-1.5561" width="0.1000" height="1.8147" ry="0.0000" fill="currentColor"/>
<text transform="translate(54.0473, 150.4084)" font-family="serif" font-size="2.4696" text-anchor="start" fill="currentColor">
<tspan>e</tspan>
</text>
<path transform="translate(54.8314, 142.8271) scale(0.0040, -0.0040)" d="M-91 67c0 37 29 66 66 66s67 -29 67 -66s-30 -67 -67 -67s-66 30 -66 67zM-231 0c-11 0 -19 9 -19 19c0 3 1 4 2 7l231 513c3 7 10 11 17 11s14 -4 17 -11l231 -513c1 -3 2 -4 2 -7c0 -10 -8 -19 -19 -19h-49c-7 0 -14 4 -17 11l-190 418l-189 -418
c-3 -7 -10 -11 -17 -11z" fill="currentColor"/>
<path transform="translate(54.1427, 144.6363) scale(0.0040, -0.0040)" d="M314 65c0 24 -21 41 -42 41c-4 0 -8 0 -12 -1c-31 -9 -78 -40 -115 -64s-84 -53 -104 -78c-7 -8 -10 -18 -10 -28c0 -24 21 -41 42 -41c4 0 8 0 12 1c31 9 77 40 114 64s84 53 104 78c7 8 11 18 11 28zM262 136c46 0 82 -21 82 -71c0 -19 -4 -39 -10 -57
c-12 -37 -32 -72 -64 -94c-53 -36 -113 -50 -187 -50c-46 0 -83 21 -83 71c0 19 5 39 11 57c12 37 31 72 63 94c53 36 114 50 188 50z" fill="currentColor"/>
<path transform="translate(44.4558, 144.6363) scale(0.0040, -0.0040)" d="M27 41l-1 -66v-11c0 -22 1 -44 4 -66c45 38 93 80 93 139c0 33 -14 67 -43 67c-31 0 -52 -30 -53 -63zM-15 -138l-12 595c8 5 18 8 27 8s19 -3 27 -8l-7 -345c25 21 58 34 91 34c52 0 89 -48 89 -102c0 -80 -86 -117 -147 -169c-15 -13 -24 -38 -45 -38
c-13 0 -23 11 -23 25z" fill="currentColor"/>
<rect transform="translate(45.0922, 150.7329)" x="-0.3245" y="-0.1000" width="3.0049" height="0.1000" ry="0.0000" fill="currentColor"/>
<rect transform="translate(45.0922, 148.8181)" x="-0.3245" y="-0.1000" width="3.0049" height="0.1000" ry="0.0000" fill="currentColor"/>
<rect transform="translate(44.7677, 150.4084)" x="0" y="-1.5902" width="0.1000" height="1.8147" ry="0.0000" fill="currentColor"/>
<rect transform="translate(47.6726, 150.4084)" x="0" y="-1.5902" width="0.1000" height="1.8147" ry="0.0000" fill="currentColor"/>
<text transform="translate(45.0922, 150.4084)" font-family="serif" font-size="2.4696" text-anchor="start" fill="currentColor">
<tspan>m</tspan>
</text>
<path transform="translate(38.4086, 144.1363) scale(0.0040, -0.0040)" d="M557 -125c0 28 23 51 51 51s51 -23 51 -51s-23 -51 -51 -51s-51 23 -51 51zM557 125c0 28 23 51 51 51s51 -23 51 -51s-23 -51 -51 -51s-51 23 -51 51zM232 263c172 0 293 -88 293 -251c0 -263 -263 -414 -516 -521c-3 -3 -6 -4 -9 -4c-7 0 -13 6 -13 13c0 3 1 6 4 9
c202 118 412 265 412 493c0 120 -63 235 -171 235c-74 0 -129 -54 -154 -126c11 5 22 8 34 8c55 0 100 -45 100 -100c0 -58 -44 -106 -100 -106c-60 0 -112 47 -112 106c0 133 102 244 232 244z" fill="currentColor"/>
<path transform="translate(45.6680, 144.6363) scale(0.0040, -0.0040)" d="M218 136c55 0 108 -28 108 -89c0 -71 -55 -121 -102 -149c-35 -21 -75 -34 -116 -34c-55 0 -108 28 -108 89c0 71 55 121 102 149c35 21 75 34 116 34z" fill="currentColor"/>
<text transform="translate(57.2680, 115.3248)" font-family="serif" font-style="italic" font-size="1.3860" text-anchor="start" fill="currentColor">
<tspan>8</tspan>
</text>
<path transform="translate(56.6858, 111.7263) scale(0.0040, -0.0040)" d="M376 262c4 0 9 1 13 1c155 0 256 -128 256 -261c0 -76 -33 -154 -107 -210c-22 -17 -47 -28 -73 -36c3 -35 5 -70 5 -105c0 -19 -1 -39 -2 -58c-7 -120 -90 -228 -208 -228c-108 0 -195 88 -195 197c0 58 53 103 112 103c54 0 95 -47 95 -103c0 -52 -43 -95 -95 -95
c-11 0 -21 2 -31 6c26 -39 68 -65 117 -65c96 0 157 92 163 191c1 18 2 37 2 55c0 31 -1 61 -4 92c-29 -5 -58 -8 -89 -8c-188 0 -333 172 -333 374c0 177 131 306 248 441c-19 62 -37 125 -45 190c-6 52 -7 104 -7 156c0 115 55 224 149 292c3 2 7 3 10 3c4 0 7 0 10 -3
c71 -84 133 -245 133 -358c0 -143 -86 -255 -180 -364c21 -68 39 -138 56 -207zM461 -203c68 24 113 95 113 164c0 90 -66 179 -173 190c24 -116 46 -231 60 -354zM74 28c0 -135 129 -247 264 -247c28 0 55 2 82 6c-14 127 -37 245 -63 364c-79 -8 -124 -61 -124 -119
c0 -44 25 -91 81 -123c5 -5 7 -10 7 -15c0 -11 -10 -22 -22 -22c-3 0 -6 1 -9 2c-80 43 -117 115 -117 185c0 88 58 174 160 197c-14 58 -29 117 -46 175c-107 -121 -213 -243 -213 -403zM408 1045c-99 -48 -162 -149 -162 -259c0 -74 18 -133 36 -194
c80 97 146 198 146 324c0 55 -4 79 -20 129z" fill="currentColor"/>
<path transform="translate(63.8270, 109.2263) scale(0.0040, -0.0040)" d="M218 136c55 0 108 -28 108 -89c0 -71 -55 -121 -102 -149c-35 -21 -75 -34 -116 -34c-55 0 -108 28 -108 89c0 71 55 121 102 149c35 21 75 34 116 34z" fill="currentColor"/>
<rect transform="translate(63.2511, 116.2411)" x="-0.3245" y="-0.1000" width="3.0049" height="0.1000" ry="0.0000" fill="currentColor"/>
<rect transform="translate(63.2511, 114.3263)" x="-0.3245" y="-0.1000" width="3.0049" height="0.1000" ry="0.0000" fill="currentColor"/>
<rect transform="translate(62.9266, 115.9166)" x="0" y="-1.5902" width="0.1000" height="1.8147" ry="0.0000" fill="currentColor"/>
<rect transform="translate(65.8315, 115.9166)" x="0" y="-1.5902" width="0.1000" height="1.8147" ry="0.0000" fill="currentColor"/>
<text transform="translate(63.2511, 115.9166)" font-family="serif" font-size="2.4696" text-anchor="start" fill="currentColor">
<tspan>m</tspan>
</text>
</svg>
