<svg xmlns="http://www.w3.org/2000/svg" xmlns:xlink="http://www.w3.org/1999/xlink" version="1.2" width="215.90mm" height="279.40mm" viewBox="0 0 122.8590 158.9940">
<style text="style/css">
<![CDATA[
tspan { white-space: pre; }
]]>
</style>
<!-- Page: 1/19 -->
<text transform="translate(7.2270, 7.2270)" font-family="serif" font-size="2.2001" text-anchor="start" fill="currentColor">
<tspan/>
</text>
<text transform="translate(44.5968, 10.8902)" font-family="serif" font-weight="bold" font-size="3.4927" text-anchor="start" fill="currentColor">
<tspan>Total Abstraction</tspan>
</text>
<text transform="translate(61.4295, 14.3902)" font-family="serif" font-weight="bold" font-size="2.4696" text-anchor="start" fill="currentColor">
<tspan/>
</text>
<text transform="translate(105.9353, 17.8902)" font-family="serif" font-size="2.2001" text-anchor="start" fill="currentColor">
<tspan>Z.V. Pine</tspan>
</text>
<rect transform="translate(7.2270, 50.5041)" x="47.6067" y="-0.1000" width="1.8967" height="0.2000" ry="0.1000" fill="currentColor"/>
<line transform="translate(14.4540, 61.8418)" stroke-linejoin="round" stroke-linecap="round" stroke-width="0.1000" stroke="currentColor" x1="0.0500" y1="-0.0000" x2="52.2179" y2="-0.0000"/>
<line transform="translate(14.4540, 60.8418)" stroke-linejoin="round" stroke-linecap="round" stroke-width="0.1000" stroke="currentColor" x1="0.0500" y1="-0.0000" x2="52.2179" y2="-0.0000"/>
<line transform="translate(14.4540, 59.8418)" stroke-linejoin="round" stroke-linecap="round" stroke-width="0.1000" stroke="currentColor" x1="0.0500" y1="-0.0000" x2="52.2179" y2="-0.0000"/>
<line transform="translate(14.4540, 58.8418)" stroke-linejoin="round" stroke-linecap="round" stroke-width="0.1000" stroke="currentColor" x1="0.0500" y1="-0.0000" x2="52.2179" y2="-0.0000"/>
<line transform="translate(14.4540, 57.8418)" stroke-linejoin="round" stroke-linecap="round" stroke-width="0.1000" stroke="currentColor" x1="0.0500" y1="-0.0000" x2="52.2179" y2="-0.0000"/>
<line transform="translate(71.0200, 73.8152)" stroke-linejoin="round" stroke-linecap="round" stroke-width="0.1000" stroke="currentColor" x1="0.0500" y1="-0.0000" x2="44.5620" y2="-0.0000"/>
<line transform="translate(71.0200, 72.8152)" stroke-linejoin="round" stroke-linecap="round" stroke-width="0.1000" stroke="currentColor" x1="0.0500" y1="-0.0000" x2="44.5620" y2="-0.0000"/>
<line transform="translate(71.0200, 71.8152)" stroke-linejoin="round" stroke-linecap="round" stroke-width="0.1000" stroke="currentColor" x1="0.0500" y1="-0.0000" x2="44.5620" y2="-0.0000"/>
<line transform="translate(71.0200, 70.8152)" stroke-linejoin="round" stroke-linecap="round" stroke-width="0.1000" stroke="currentColor" x1="0.0500" y1="-0.0000" x2="44.5620" y2="-0.0000"/>
<line transform="translate(71.0200, 69.8152)" stroke-linejoin="round" stroke-linecap="round" stroke-width="0.1000" stroke="currentColor" x1="0.0500" y1="-0.0000" x2="44.5620" y2="-0.0000"/>
<line transform="translate(14.4540, 49.5041)" stroke-linejoin="round" stroke-linecap="round" stroke-width="0.1000" stroke="currentColor" x1="0.0500" y1="-0.0000" x2="52.2179" y2="-0.0000"/>
<line transform="translate(14.4540, 48.5041)" stroke-linejoin="round" stroke-linecap="round" stroke-width="0.1000" stroke="currentColor" x1="0.0500" y1="-0.0000" x2="52.2179" y2="-0.0000"/>
<line transform="translate(14.4540, 47.5041)" stroke-linejoin="round" stroke-linecap="round" stroke-width="0.1000" stroke="currentColor" x1="0.0500" y1="-0.0000" x2="52.2179" y2="-0.0000"/>
<line transform="translate(14.4540, 46.5041)" stroke-linejoin="round" stroke-linecap="round" stroke-width="0.1000" stroke="currentColor" x1="0.0500" y1="-0.0000" x2="52.2179" y2="-0.0000"/>
<line transform="translate(14.4540, 45.5041)" stroke-linejoin="round" stroke-linecap="round" stroke-width="0.1000" stroke="currentColor" x1="0.0500" y1="-0.0000" x2="52.2179" y2="-0.0000"/>
<line transform="translate(14.4540, 37.5307)" stroke-linejoin="round" stroke-linecap="round" stroke-width="0.1000" stroke="currentColor" x1="0.0500" y1="-0.0000" x2="52.2179" y2="-0.0000"/>
<line transform="translate(14.4540, 36.5307)" stroke-linejoin="round" stroke-linecap="round" stroke-width="0.1000" stroke="currentColor" x1="0.0500" y1="-0.0000" x2="52.2179" y2="-0.0000"/>
<line transform="translate(14.4540, 35.5307)" stroke-linejoin="round" stroke-linecap="round" stroke-width="0.1000" stroke="currentColor" x1="0.0500" y1="-0.0000" x2="52.2179" y2="-0.0000"/>
<line transform="translate(14.4540, 34.5307)" stroke-linejoin="round" stroke-linecap="round" stroke-width="0.1000" stroke="currentColor" x1="0.0500" y1="-0.0000" x2="52.2179" y2="-0.0000"/>
<line transform="translate(14.4540, 33.5307)" stroke-linejoin="round" stroke-linecap="round" stroke-width="0.1000" stroke="currentColor" x1="0.0500" y1="-0.0000" x2="52.2179" y2="-0.0000"/>
<line transform="translate(71.0200, 37.5307)" stroke-linejoin="round" stroke-linecap="round" stroke-width="0.1000" stroke="currentColor" x1="0.0500" y1="-0.0000" x2="44.5620" y2="-0.0000"/>
<line transform="translate(71.0200, 36.5307)" stroke-linejoin="round" stroke-linecap="round" stroke-width="0.1000" stroke="currentColor" x1="0.0500" y1="-0.0000" x2="44.5620" y2="-0.0000"/>
<line transform="translate(71.0200, 35.5307)" stroke-linejoin="round" stroke-linecap="round" stroke-width="0.1000" stroke="currentColor" x1="0.0500" y1="-0.0000" x2="44.5620" y2="-0.0000"/>
<line transform="translate(71.0200, 34.5307)" stroke-linejoin="round" stroke-linecap="round" stroke-width="0.1000" stroke="currentColor" x1="0.0500" y1="-0.0000" x2="44.5620" y2="-0.0000"/>
<line transform="translate(71.0200, 33.5307)" stroke-linejoin="round" stroke-linecap="round" stroke-width="0.1000" stroke="currentColor" x1="0.0500" y1="-0.0000" x2="44.5620" y2="-0.0000"/>
<line transform="translate(71.0200, 49.5041)" stroke-linejoin="round" stroke-linecap="round" stroke-width="0.1000" stroke="currentColor" x1="0.0500" y1="-0.0000" x2="44.5620" y2="-0.0000"/>
<line transform="translate(71.0200, 48.5041)" stroke-linejoin="round" stroke-linecap="round" stroke-width="0.1000" stroke="currentColor" x1="0.0500" y1="-0.0000" x2="44.5620" y2="-0.0000"/>
<line transform="translate(71.0200, 47.5041)" stroke-linejoin="round" stroke-linecap="round" stroke-width="0.1000" stroke="currentColor" x1="0.0500" y1="-0.0000" x2="44.5620" y2="-0.0000"/>
<line transform="translate(71.0200, 46.5041)" stroke-linejoin="round" stroke-linecap="round" stroke-width="0.1000" stroke="currentColor" x1="0.0500" y1="-0.0000" x2="44.5620" y2="-0.0000"/>
<line transform="translate(71.0200, 45.5041)" stroke-linejoin="round" stroke-linecap="round" stroke-width="0.1000" stroke="currentColor" x1="0.0500" y1="-0.0000" x2="44.5620" y2="-0.0000"/>
<rect transform="translate(7.2270, 50.5041)" x="100.3637" y="-0.1000" width="2.0660" height="0.2000" ry="0.1000" fill="currentColor"/>
<rect transform="translate(7.2270, 51.5041)" x="100.3637" y="-0.1000" width="2.0660" height="0.2000" ry="0.1000" fill="currentColor"/>
<line transform="translate(14.4540, 73.8152)" stroke-linejoin="round" stroke-linecap="round" stroke-width="0.1000" stroke="currentColor" x1="0.0500" y1="-0.0000" x2="52.2179" y2="-0.0000"/>
<line transform="translate(14.4540, 72.8152)" stroke-linejoin="round" stroke-linecap="round" stroke-width="0.1000" stroke="currentColor" x1="0.0500" y1="-0.0000" x2="52.2179" y2="-0.0000"/>
<line transform="translate(14.4540, 71.8152)" stroke-linejoin="round" stroke-linecap="round" stroke-width="0.1000" stroke="currentColor" x1="0.0500" y1="-0.0000" x2="52.2179" y2="-0.0000"/>
<line transform="translate(14.4540, 70.8152)" stroke-linejoin="round" stroke-linecap="round" stroke-width="0.1000" stroke="currentColor" x1="0.0500" y1="-0.0000" x2="52.2179" y2="-0.0000"/>
<line transform="translate(14.4540, 69.8152)" stroke-linejoin="round" stroke-linecap="round" stroke-width="0.1000" stroke="currentColor" x1="0.0500" y1="-0.0000" x2="52.2179" y2="-0.0000"/>
<line transform="translate(71.0200, 61.8418)" stroke-linejoin="round" stroke-linecap="round" stroke-width="0.1000" stroke="currentColor" x1="0.0500" y1="-0.0000" x2="44.5620" y2="-0.0000"/>
<line transform="translate(71.0200, 60.8418)" stroke-linejoin="round" stroke-linecap="round" stroke-width="0.1000" stroke="currentColor" x1="0.0500" y1="-0.0000" x2="44.5620" y2="-0.0000"/>
<line transform="translate(71.0200, 59.8418)" stroke-linejoin="round" stroke-linecap="round" stroke-width="0.1000" stroke="currentColor" x1="0.0500" y1="-0.0000" x2="44.5620" y2="-0.0000"/>
<line transform="translate(71.0200, 58.8418)" stroke-linejoin="round" stroke-linecap="round" stroke-width="0.1000" stroke="currentColor" x1="0.0500" y1="-0.0000" x2="44.5620" y2="-0.0000"/>
<line transform="translate(71.0200, 57.8418)" stroke-linejoin="round" stroke-linecap="round" stroke-width="0.1000" stroke="currentColor" x1="0.0500" y1="-0.0000" x2="44.5620" y2="-0.0000"/>
<path transform="translate(90.6368, 36.0307) scale(0.0040, -0.0040)" d="M314 65c0 24 -21 41 -42 41c-4 0 -8 0 -12 -1c-31 -9 -78 -40 -115 -64s-84 -53 -104 -78c-7 -8 -10 -18 -10 -28c0 -24 21 -41 42 -41c4 0 8 0 12 1c31 9 77 40 114 64s84 53 104 78c7 8 11 18 11 28zM262 136c46 0 82 -21 82 -71c0 -19 -4 -39 -10 -57
c-12 -37 -32 -72 -64 -94c-53 -36 -113 -50 -187 -50c-46 0 -83 21 -83 71c0 19 5 39 11 57c12 37 31 72 63 94c53 36 114 50 188 50z" fill="currentColor"/>
<text transform="translate(90.2841, 41.0308)" font-family="serif" font-size="2.4696" text-anchor="start" fill="currentColor">
<tspan>→</tspan>
</text>
<path transform="translate(28.5153, 71.8152)" stroke-width="0.0800" stroke-linejoin="round" stroke-linecap="round" stroke="currentColor" fill="currentColor" d="M0.8521 -0.7500C2.0609 -1.6832 9.1155 -1.6832 10.3243 -0.7500L10.3243 -0.7500C9.1155 -1.5632 2.0609 -1.5632 0.8521 -0.7500z"/>
<path transform="translate(90.6368, 50.0041) scale(0.0040, -0.0040)" d="M314 65c0 24 -21 41 -42 41c-4 0 -8 0 -12 -1c-31 -9 -78 -40 -115 -64s-84 -53 -104 -78c-7 -8 -10 -18 -10 -28c0 -24 21 -41 42 -41c4 0 8 0 12 1c31 9 77 40 114 64s84 53 104 78c7 8 11 18 11 28zM262 136c46 0 82 -21 82 -71c0 -19 -4 -39 -10 -57
c-12 -37 -32 -72 -64 -94c-53 -36 -113 -50 -187 -50c-46 0 -83 21 -83 71c0 19 5 39 11 57c12 37 31 72 63 94c53 36 114 50 188 50z" fill="currentColor"/>
<text transform="translate(90.2841, 54.2052)" font-family="serif" font-size="2.4696" text-anchor="start" fill="currentColor">
<tspan>→</tspan>
</text>
<path transform="translate(90.6368, 60.3418) scale(0.0040, -0.0040)" d="M314 65c0 24 -21 41 -42 41c-4 0 -8 0 -12 -1c-31 -9 -78 -40 -115 -64s-84 -53 -104 -78c-7 -8 -10 -18 -10 -28c0 -24 21 -41 42 -41c4 0 8 0 12 1c31 9 77 40 114 64s84 53 104 78c7 8 11 18 11 28zM262 136c46 0 82 -21 82 -71c0 -19 -4 -39 -10 -57
c-12 -37 -32 -72 -64 -94c-53 -36 -113 -50 -187 -50c-46 0 -83 21 -83 71c0 19 5 39 11 57c12 37 31 72 63 94c53 36 114 50 188 50z" fill="currentColor"/>
<rect transform="translate(90.5402, 65.7005)" x="-0.3245" y="-0.1000" width="2.2196" height="0.1000" ry="0.0000" fill="currentColor"/>
<rect transform="translate(90.5402, 63.7858)" x="-0.3245" y="-0.1000" width="2.2196" height="0.1000" ry="0.0000" fill="currentColor"/>
<rect transform="translate(90.2157, 65.3418)" x="0" y="-1.5561" width="0.1000" height="1.8147" ry="0.0000" fill="currentColor"/>
<rect transform="translate(92.3353, 65.3418)" x="0" y="-1.5561" width="0.1000" height="1.8147" ry="0.0000" fill="currentColor"/>
<text transform="translate(90.5402, 65.3418)" font-family="serif" font-size="2.4696" text-anchor="start" fill="currentColor">
<tspan>ɑ</tspan>
</text>
<path transform="translate(90.6368, 71.8152) scale(0.0040, -0.0040)" d="M314 65c0 24 -21 41 -42 41c-4 0 -8 0 -12 -1c-31 -9 -78 -40 -115 -64s-84 -53 -104 -78c-7 -8 -10 -18 -10 -28c0 -24 21 -41 42 -41c4 0 8 0 12 1c31 9 77 40 114 64s84 53 104 78c7 8 11 18 11 28zM262 136c46 0 82 -21 82 -71c0 -19 -4 -39 -10 -57
c-12 -37 -32 -72 -64 -94c-53 -36 -113 -50 -187 -50c-46 0 -83 21 -83 71c0 19 5 39 11 57c12 37 31 72 63 94c53 36 114 50 188 50z" fill="currentColor"/>
<text transform="translate(90.2841, 77.3152)" font-family="serif" font-size="2.4696" text-anchor="start" fill="currentColor">
<tspan>→</tspan>
</text>
<path transform="translate(32.7534, 35.5307)" stroke-width="0.0800" stroke-linejoin="round" stroke-linecap="round" stroke="currentColor" fill="currentColor" d="M0.8521 1.2031C1.7676 2.0402 5.1707 2.0402 6.0862 1.2031L6.0862 1.2031C5.1707 1.9202 1.7676 1.9202 0.8521 1.2031z"/>
<text transform="translate(92.8853, 65.3418)" font-family="serif" font-size="2.4696" text-anchor="start" fill="currentColor">
<tspan>→</tspan>
</text>
<line transform="translate(7.2270, 47.5041)" stroke-linejoin="round" stroke-linecap="round" stroke-width="0.2500" stroke="currentColor" x1="33.0010" y1="2.5181" x2="45.8320" y2="2.9819"/>
<line transform="translate(20.0390, 28.5574)" stroke-linejoin="round" stroke-linecap="round" stroke-width="0.1000" stroke="currentColor" x1="38.9665" y1="-0.0000" x2="39.4665" y2="1.0000"/>
<line transform="translate(20.0390, 28.5574)" stroke-linejoin="round" stroke-linecap="round" stroke-width="0.1000" stroke="currentColor" x1="0.5000" y1="-0.0000" x2="0.0000" y2="1.0000"/>
<line transform="translate(20.0390, 28.5574)" stroke-linejoin="round" stroke-linecap="round" stroke-width="0.1000" stroke="currentColor" x1="0.5000" y1="-0.0000" x2="38.9665" y2="-0.0000"/>
<line transform="translate(7.2270, 35.5307)" stroke-linejoin="round" stroke-linecap="round" stroke-width="0.2500" stroke="currentColor" x1="33.0010" y1="0.4836" x2="47.2820" y2="0.0164"/>
<path transform="translate(76.5630, 50.0041) scale(0.0040, -0.0040)" d="M218 136c55 0 108 -28 108 -89c0 -71 -55 -121 -102 -149c-35 -21 -75 -34 -116 -34c-55 0 -108 28 -108 89c0 71 55 121 102 149c35 21 75 34 116 34z" fill="currentColor"/>
<rect transform="translate(76.4798, 54.5638)" x="-0.3245" y="-0.1000" width="2.2196" height="0.1000" ry="0.0000" fill="currentColor"/>
<rect transform="translate(76.4798, 52.6491)" x="-0.3245" y="-0.1000" width="2.2196" height="0.1000" ry="0.0000" fill="currentColor"/>
<rect transform="translate(76.1553, 54.2052)" x="0" y="-1.5561" width="0.1000" height="1.8147" ry="0.0000" fill="currentColor"/>
<rect transform="translate(78.2749, 54.2052)" x="0" y="-1.5561" width="0.1000" height="1.8147" ry="0.0000" fill="currentColor"/>
<text transform="translate(76.4798, 54.2052)" font-family="serif" font-size="2.4696" text-anchor="start" fill="currentColor">
<tspan>ɑ</tspan>
</text>
<rect transform="translate(77.8753, 23.5574)" x="-0.0650" y="3.2410" width="0.1300" height="0.0000" ry="0.0000" fill="currentColor"/>
<path transform="translate(80.8012, 71.8152) scale(0.0040, -0.0040)" d="M218 136c55 0 108 -28 108 -89c0 -71 -55 -121 -102 -149c-35 -21 -75 -34 -116 -34c-55 0 -108 28 -108 89c0 71 55 121 102 149c35 21 75 34 116 34z" fill="currentColor"/>
<rect transform="translate(80.6180, 77.6738)" x="-0.3245" y="-0.1000" width="2.2196" height="0.1000" ry="0.0000" fill="currentColor"/>
<rect transform="translate(80.6180, 75.7591)" x="-0.3245" y="-0.1000" width="2.2196" height="0.1000" ry="0.0000" fill="currentColor"/>
<rect transform="translate(80.2935, 77.3152)" x="0" y="-1.5561" width="0.1000" height="1.8147" ry="0.0000" fill="currentColor"/>
<rect transform="translate(82.4130, 77.3152)" x="0" y="-1.5561" width="0.1000" height="1.8147" ry="0.0000" fill="currentColor"/>
<text transform="translate(80.6180, 77.3152)" font-family="serif" font-size="2.4696" text-anchor="start" fill="currentColor">
<tspan>ɑ</tspan>
</text>
<path transform="translate(20.0390, 59.8418)" stroke-width="0.0800" stroke-linejoin="round" stroke-linecap="round" stroke="currentColor" fill="currentColor" d="M0.8521 1.5996C2.3386 2.5920 17.3141 2.5920 18.8006 1.5996L18.8006 1.5996C17.3141 2.4720 2.3386 2.4720 0.8521 1.5996z"/>
<text transform="translate(38.0651, 27.9732)" font-family="serif" font-size="1.9600" text-anchor="start" fill="currentColor">
<tspan>40"</tspan>
</text>
<path transform="translate(85.0393, 36.0307) scale(0.0040, -0.0040)" d="M218 136c55 0 108 -28 108 -89c0 -71 -55 -121 -102 -149c-35 -21 -75 -34 -116 -34c-55 0 -108 28 -108 89c0 71 55 121 102 149c35 21 75 34 116 34z" fill="currentColor"/>
<rect transform="translate(84.9561, 41.3894)" x="-0.3245" y="-0.1000" width="2.2196" height="0.1000" ry="0.0000" fill="currentColor"/>
<rect transform="translate(84.9561, 39.4747)" x="-0.3245" y="-0.1000" width="2.2196" height="0.1000" ry="0.0000" fill="currentColor"/>
<rect transform="translate(84.6316, 41.0308)" x="0" y="-1.5561" width="0.1000" height="1.8147" ry="0.0000" fill="currentColor"/>
<rect transform="translate(86.7512, 41.0308)" x="0" y="-1.5561" width="0.1000" height="1.8147" ry="0.0000" fill="currentColor"/>
<text transform="translate(84.9561, 41.0308)" font-family="serif" font-size="2.4696" text-anchor="start" fill="currentColor">
<tspan>ɑ</tspan>
</text>
<path transform="translate(24.2772, 47.5041)" stroke-width="0.0800" stroke-linejoin="round" stroke-linecap="round" stroke="currentColor" fill="currentColor" d="M1.5042 3.0000C2.8365 3.9624 12.5416 3.9624 13.8738 3.0000L13.8738 3.0000C12.5416 3.8424 2.8365 3.8424 1.5042 3.0000z"/>
<rect transform="translate(112.5289, 23.5574)" x="-0.0650" y="3.3139" width="0.1300" height="0.0000" ry="0.0000" fill="currentColor"/>
<path transform="translate(109.0392, 36.5307) scale(0.0040, -0.0040)" d="M216 -312c0 -10 -8 -19 -18 -19s-19 9 -19 19v145l-83 -31v-158c0 -10 -9 -19 -19 -19s-18 9 -18 19v145l-32 -12c-2 -1 -5 -1 -7 -1c-11 0 -20 9 -20 20v60c0 8 5 16 13 19l46 16v160l-32 -11c-2 -1 -5 -1 -7 -1c-11 0 -20 9 -20 20v60c0 8 5 15 13 18l46 17v158
c0 10 8 19 18 19s19 -9 19 -19v-145l83 31v158c0 10 9 19 19 19s18 -9 18 -19v-145l32 12c2 1 5 1 7 1c11 0 20 -9 20 -20v-60c0 -8 -5 -16 -13 -19l-46 -16v-160l32 11c2 1 5 1 7 1c11 0 20 -9 20 -20v-60c0 -8 -5 -15 -13 -18l-46 -17v-158zM96 65v-160l83 30v160z" fill="currentColor"/>
<path transform="translate(110.4892, 36.5307) scale(0.0040, -0.0040)" d="M314 65c0 24 -21 41 -42 41c-4 0 -8 0 -12 -1c-31 -9 -78 -40 -115 -64s-84 -53 -104 -78c-7 -8 -10 -18 -10 -28c0 -24 21 -41 42 -41c4 0 8 0 12 1c31 9 77 40 114 64s84 53 104 78c7 8 11 18 11 28zM262 136c46 0 82 -21 82 -71c0 -19 -4 -39 -10 -57
c-12 -37 -32 -72 -64 -94c-53 -36 -113 -50 -187 -50c-46 0 -83 21 -83 71c0 19 5 39 11 57c12 37 31 72 63 94c53 36 114 50 188 50z" fill="currentColor"/>
<path transform="translate(111.1778, 32.7547) scale(0.0040, -0.0040)" d="M-67 48c0 37 30 67 67 67s67 -30 67 -67s-30 -67 -67 -67s-67 30 -67 67zM0 363c157 0 332 -176 332 -366c0 -9 -10 -15 -19 -15s-17 5 -19 18c-26 148 -146 262 -294 262s-268 -114 -294 -262c-2 -13 -10 -18 -19 -18s-19 6 -19 15c0 190 175 366 332 366z" fill="currentColor"/>
<line transform="translate(7.2270, 35.5307)" stroke-linejoin="round" stroke-linecap="round" stroke-width="0.2500" stroke="currentColor" x1="96.1799" y1="1.4594" x2="101.3138" y2="1.0406"/>
<line transform="translate(7.2270, 71.8152)" stroke-linejoin="round" stroke-linecap="round" stroke-width="0.2500" stroke="currentColor" x1="85.2862" y1="0.0313" x2="100.2091" y2="0.9687"/>
<line transform="translate(7.2270, 59.8418)" stroke-linejoin="round" stroke-linecap="round" stroke-width="0.2500" stroke="currentColor" x1="85.2832" y1="0.4377" x2="100.2120" y2="-1.4377"/>
<line transform="translate(7.2270, 47.5041)" stroke-linejoin="round" stroke-linecap="round" stroke-width="0.2500" stroke="currentColor" x1="85.2849" y1="2.5469" x2="100.2103" y2="3.9531"/>
<line transform="translate(7.2270, 35.5307)" stroke-linejoin="round" stroke-linecap="round" stroke-width="0.2500" stroke="currentColor" x1="85.2833" y1="0.5615" x2="92.3580" y2="1.4385"/>
<path transform="translate(85.0393, 35.5307)" stroke-width="0.0800" stroke-linejoin="round" stroke-linecap="round" stroke="currentColor" fill="currentColor" d="M0.8521 1.2031C1.7676 2.0402 5.1707 2.0402 6.0862 1.2031L6.0862 1.2031C5.1707 1.9202 1.7676 1.9202 0.8521 1.2031z"/>
<path transform="translate(80.8012, 71.8152)" stroke-width="0.0800" stroke-linejoin="round" stroke-linecap="round" stroke="currentColor" fill="currentColor" d="M0.8521 -0.7500C2.0609 -1.6832 9.1155 -1.6832 10.3243 -0.7500L10.3243 -0.7500C9.1155 -1.5632 2.0609 -1.5632 0.8521 -0.7500z"/>
<path transform="translate(76.5630, 47.5041)" stroke-width="0.0800" stroke-linejoin="round" stroke-linecap="round" stroke="currentColor" fill="currentColor" d="M1.5042 3.0000C2.8365 3.9624 12.5416 3.9624 13.8738 3.0000L13.8738 3.0000C12.5416 3.8424 2.8365 3.8424 1.5042 3.0000z"/>
<text transform="translate(92.8713, 27.9732)" font-family="serif" font-size="1.9600" text-anchor="start" fill="currentColor">
<tspan>35"</tspan>
</text>
<line transform="translate(76.5630, 28.5574)" stroke-linejoin="round" stroke-linecap="round" stroke-width="0.1000" stroke="currentColor" x1="35.5308" y1="-0.0000" x2="36.0308" y2="1.0000"/>
<line transform="translate(76.5630, 28.5574)" stroke-linejoin="round" stroke-linecap="round" stroke-width="0.1000" stroke="currentColor" x1="0.5000" y1="-0.0000" x2="0.0000" y2="1.0000"/>
<line transform="translate(76.5630, 28.5574)" stroke-linejoin="round" stroke-linecap="round" stroke-width="0.1000" stroke="currentColor" x1="0.5000" y1="-0.0000" x2="35.5308" y2="-0.0000"/>
<path transform="translate(101.5312, 37.0307) scale(0.0040, -0.0040)" d="M314 65c0 24 -21 41 -42 41c-4 0 -8 0 -12 -1c-31 -9 -78 -40 -115 -64s-84 -53 -104 -78c-7 -8 -10 -18 -10 -28c0 -24 21 -41 42 -41c4 0 8 0 12 1c31 9 77 40 114 64s84 53 104 78c7 8 11 18 11 28zM262 136c46 0 82 -21 82 -71c0 -19 -4 -39 -10 -57
c-12 -37 -32 -72 -64 -94c-53 -36 -113 -50 -187 -50c-46 0 -83 21 -83 71c0 19 5 39 11 57c12 37 31 72 63 94c53 36 114 50 188 50z" fill="currentColor"/>
<path transform="translate(100.0812, 37.0307) scale(0.0040, -0.0040)" d="M216 -312c0 -10 -8 -19 -18 -19s-19 9 -19 19v145l-83 -31v-158c0 -10 -9 -19 -19 -19s-18 9 -18 19v145l-32 -12c-2 -1 -5 -1 -7 -1c-11 0 -20 9 -20 20v60c0 8 5 16 13 19l46 16v160l-32 -11c-2 -1 -5 -1 -7 -1c-11 0 -20 9 -20 20v60c0 8 5 15 13 18l46 17v158
c0 10 8 19 18 19s19 -9 19 -19v-145l83 31v158c0 10 9 19 19 19s18 -9 18 -19v-145l32 12c2 1 5 1 7 1c11 0 20 -9 20 -20v-60c0 -8 -5 -16 -13 -19l-46 -16v-160l32 11c2 1 5 1 7 1c11 0 20 -9 20 -20v-60c0 -8 -5 -15 -13 -18l-46 -17v-158zM96 65v-160l83 30v160z" fill="currentColor"/>
<rect transform="translate(107.9921, 41.3894)" x="-0.3245" y="-0.1000" width="1.9123" height="0.1000" ry="0.0000" fill="currentColor"/>
<rect transform="translate(107.9921, 39.4747)" x="-0.3245" y="-0.1000" width="1.9123" height="0.1000" ry="0.0000" fill="currentColor"/>
<rect transform="translate(107.6676, 41.0308)" x="0" y="-1.5561" width="0.1000" height="1.8147" ry="0.0000" fill="currentColor"/>
<rect transform="translate(109.4799, 41.0308)" x="0" y="-1.5561" width="0.1000" height="1.8147" ry="0.0000" fill="currentColor"/>
<text transform="translate(107.9921, 41.0308)" font-family="serif" font-size="2.4696" text-anchor="start" fill="currentColor">
<tspan>ɛ</tspan>
</text>
<path transform="translate(107.9351, 51.5041) scale(0.0040, -0.0040)" d="M314 65c0 24 -21 41 -42 41c-4 0 -8 0 -12 -1c-31 -9 -78 -40 -115 -64s-84 -53 -104 -78c-7 -8 -10 -18 -10 -28c0 -24 21 -41 42 -41c4 0 8 0 12 1c31 9 77 40 114 64s84 53 104 78c7 8 11 18 11 28zM262 136c46 0 82 -21 82 -71c0 -19 -4 -39 -10 -57
c-12 -37 -32 -72 -64 -94c-53 -36 -113 -50 -187 -50c-46 0 -83 21 -83 71c0 19 5 39 11 57c12 37 31 72 63 94c53 36 114 50 188 50z" fill="currentColor"/>
<path transform="translate(108.6238, 45.1781) scale(0.0040, -0.0040)" d="M-67 48c0 37 30 67 67 67s67 -30 67 -67s-30 -67 -67 -67s-67 30 -67 67zM0 363c157 0 332 -176 332 -366c0 -9 -10 -15 -19 -15s-17 5 -19 18c-26 148 -146 262 -294 262s-268 -114 -294 -262c-2 -13 -10 -18 -19 -18s-19 6 -19 15c0 190 175 366 332 366z" fill="currentColor"/>
<rect transform="translate(107.9921, 54.5638)" x="-0.3245" y="-0.1000" width="1.9123" height="0.1000" ry="0.0000" fill="currentColor"/>
<rect transform="translate(107.9921, 52.6491)" x="-0.3245" y="-0.1000" width="1.9123" height="0.1000" ry="0.0000" fill="currentColor"/>
<rect transform="translate(107.6676, 54.2052)" x="0" y="-1.5561" width="0.1000" height="1.8147" ry="0.0000" fill="currentColor"/>
<rect transform="translate(109.4799, 54.2052)" x="0" y="-1.5561" width="0.1000" height="1.8147" ry="0.0000" fill="currentColor"/>
<text transform="translate(107.9921, 54.2052)" font-family="serif" font-size="2.4696" text-anchor="start" fill="currentColor">
<tspan>ɛ</tspan>
</text>
<path transform="translate(107.9351, 58.3418) scale(0.0040, -0.0040)" d="M314 65c0 24 -21 41 -42 41c-4 0 -8 0 -12 -1c-31 -9 -78 -40 -115 -64s-84 -53 -104 -78c-7 -8 -10 -18 -10 -28c0 -24 21 -41 42 -41c4 0 8 0 12 1c31 9 77 40 114 64s84 53 104 78c7 8 11 18 11 28zM262 136c46 0 82 -21 82 -71c0 -19 -4 -39 -10 -57
c-12 -37 -32 -72 -64 -94c-53 -36 -113 -50 -187 -50c-46 0 -83 21 -83 71c0 19 5 39 11 57c12 37 31 72 63 94c53 36 114 50 188 50z" fill="currentColor"/>
<line transform="translate(7.2270, 59.8418)" stroke-linejoin="round" stroke-linecap="round" stroke-width="0.2500" stroke="currentColor" x1="33.0000" y1="0.5361" x2="45.8330" y2="1.4639"/>
<path transform="translate(108.6238, 57.5158) scale(0.0040, -0.0040)" d="M-67 48c0 37 30 67 67 67s67 -30 67 -67s-30 -67 -67 -67s-67 30 -67 67zM0 363c157 0 332 -176 332 -366c0 -9 -10 -15 -19 -15s-17 5 -19 18c-26 148 -146 262 -294 262s-268 -114 -294 -262c-2 -13 -10 -18 -19 -18s-19 6 -19 15c0 190 175 366 332 366z" fill="currentColor"/>
<line transform="translate(7.2270, 71.8152)" stroke-linejoin="round" stroke-linecap="round" stroke-width="0.2500" stroke="currentColor" x1="32.9971" y1="0.0649" x2="47.2859" y2="1.9351"/>
<rect transform="translate(107.9921, 65.7005)" x="-0.3245" y="-0.1000" width="1.9123" height="0.1000" ry="0.0000" fill="currentColor"/>
<rect transform="translate(107.9921, 63.7858)" x="-0.3245" y="-0.1000" width="1.9123" height="0.1000" ry="0.0000" fill="currentColor"/>
<rect transform="translate(107.6676, 65.3418)" x="0" y="-1.5561" width="0.1000" height="1.8147" ry="0.0000" fill="currentColor"/>
<rect transform="translate(109.4799, 65.3418)" x="0" y="-1.5561" width="0.1000" height="1.8147" ry="0.0000" fill="currentColor"/>
<text transform="translate(107.9921, 65.3418)" font-family="serif" font-size="2.4696" text-anchor="start" fill="currentColor">
<tspan>ɛ</tspan>
</text>
<path transform="translate(107.9351, 72.8152) scale(0.0040, -0.0040)" d="M314 65c0 24 -21 41 -42 41c-4 0 -8 0 -12 -1c-31 -9 -78 -40 -115 -64s-84 -53 -104 -78c-7 -8 -10 -18 -10 -28c0 -24 21 -41 42 -41c4 0 8 0 12 1c31 9 77 40 114 64s84 53 104 78c7 8 11 18 11 28zM262 136c46 0 82 -21 82 -71c0 -19 -4 -39 -10 -57
c-12 -37 -32 -72 -64 -94c-53 -36 -113 -50 -187 -50c-46 0 -83 21 -83 71c0 19 5 39 11 57c12 37 31 72 63 94c53 36 114 50 188 50z" fill="currentColor"/>
<path transform="translate(108.6238, 69.0392) scale(0.0040, -0.0040)" d="M-67 48c0 37 30 67 67 67s67 -30 67 -67s-30 -67 -67 -67s-67 30 -67 67zM0 363c157 0 332 -176 332 -366c0 -9 -10 -15 -19 -15s-17 5 -19 18c-26 148 -146 262 -294 262s-268 -114 -294 -262c-2 -13 -10 -18 -19 -18s-19 6 -19 15c0 190 175 366 332 366z" fill="currentColor"/>
<rect transform="translate(107.9921, 77.6738)" x="-0.3245" y="-0.1000" width="1.9123" height="0.1000" ry="0.0000" fill="currentColor"/>
<rect transform="translate(107.9921, 75.7591)" x="-0.3245" y="-0.1000" width="1.9123" height="0.1000" ry="0.0000" fill="currentColor"/>
<rect transform="translate(107.6676, 77.3152)" x="0" y="-1.5561" width="0.1000" height="1.8147" ry="0.0000" fill="currentColor"/>
<rect transform="translate(109.4799, 77.3152)" x="0" y="-1.5561" width="0.1000" height="1.8147" ry="0.0000" fill="currentColor"/>
<text transform="translate(107.9921, 77.3152)" font-family="serif" font-size="2.4696" text-anchor="start" fill="currentColor">
<tspan>ɛ</tspan>
</text>
<path transform="translate(32.7534, 36.0307) scale(0.0040, -0.0040)" d="M218 136c55 0 108 -28 108 -89c0 -71 -55 -121 -102 -149c-35 -21 -75 -34 -116 -34c-55 0 -108 28 -108 89c0 71 55 121 102 149c35 21 75 34 116 34z" fill="currentColor"/>
<path transform="translate(32.6715, 32.3003) scale(0.0040, -0.0040)" d="M233 243c-56 0 -102 -107 -102 -173c0 -22 8 -38 30 -38c64 0 97 126 97 178c0 18 -7 33 -25 33zM112 -146c-38 0 -78 5 -116 5c-39 0 -78 -5 -115 -5c-9 0 -14 7 -14 14c0 18 31 15 48 16c22 1 47 5 54 25l102 300c2 7 4 14 4 20c0 8 -2 14 -11 14
c-33 0 -63 -60 -79 -97c-5 -12 -15 -17 -24 -17c-8 0 -14 4 -14 12c0 2 1 5 2 8c30 68 72 143 132 143c35 0 59 -21 66 -52c29 31 67 52 103 52c69 0 107 -49 107 -114c0 -21 -4 -44 -12 -67c-20 -58 -91 -119 -147 -119c-27 0 -52 5 -73 17c-4 2 -7 3 -11 3
c-7 0 -14 -3 -16 -9l-29 -86c-1 -2 -1 -5 -1 -7c0 -20 21 -26 44 -28c9 -1 13 -8 13 -14c0 -7 -4 -14 -13 -14z" fill="currentColor"/>
<rect transform="translate(32.6703, 41.3894)" x="-0.3245" y="-0.1000" width="2.2196" height="0.1000" ry="0.0000" fill="currentColor"/>
<rect transform="translate(32.6703, 39.4747)" x="-0.3245" y="-0.1000" width="2.2196" height="0.1000" ry="0.0000" fill="currentColor"/>
<rect transform="translate(32.3458, 41.0308)" x="0" y="-1.5561" width="0.1000" height="1.8147" ry="0.0000" fill="currentColor"/>
<rect transform="translate(34.4653, 41.0308)" x="0" y="-1.5561" width="0.1000" height="1.8147" ry="0.0000" fill="currentColor"/>
<text transform="translate(32.6703, 41.0308)" font-family="serif" font-size="2.4696" text-anchor="start" fill="currentColor">
<tspan>ɑ</tspan>
</text>
<path transform="translate(38.3510, 36.0307) scale(0.0040, -0.0040)" d="M314 65c0 24 -21 41 -42 41c-4 0 -8 0 -12 -1c-31 -9 -78 -40 -115 -64s-84 -53 -104 -78c-7 -8 -10 -18 -10 -28c0 -24 21 -41 42 -41c4 0 8 0 12 1c31 9 77 40 114 64s84 53 104 78c7 8 11 18 11 28zM262 136c46 0 82 -21 82 -71c0 -19 -4 -39 -10 -57
c-12 -37 -32 -72 -64 -94c-53 -36 -113 -50 -187 -50c-46 0 -83 21 -83 71c0 19 5 39 11 57c12 37 31 72 63 94c53 36 114 50 188 50z" fill="currentColor"/>
<text transform="translate(37.9983, 41.0308)" font-family="serif" font-size="2.4696" text-anchor="start" fill="currentColor">
<tspan>→</tspan>
</text>
<path transform="translate(38.3510, 50.0041) scale(0.0040, -0.0040)" d="M314 65c0 24 -21 41 -42 41c-4 0 -8 0 -12 -1c-31 -9 -78 -40 -115 -64s-84 -53 -104 -78c-7 -8 -10 -18 -10 -28c0 -24 21 -41 42 -41c4 0 8 0 12 1c31 9 77 40 114 64s84 53 104 78c7 8 11 18 11 28zM262 136c46 0 82 -21 82 -71c0 -19 -4 -39 -10 -57
c-12 -37 -32 -72 -64 -94c-53 -36 -113 -50 -187 -50c-46 0 -83 21 -83 71c0 19 5 39 11 57c12 37 31 72 63 94c53 36 114 50 188 50z" fill="currentColor"/>
<text transform="translate(37.9983, 54.2052)" font-family="serif" font-size="2.4696" text-anchor="start" fill="currentColor">
<tspan>→</tspan>
</text>
<path transform="translate(38.3510, 60.3418) scale(0.0040, -0.0040)" d="M314 65c0 24 -21 41 -42 41c-4 0 -8 0 -12 -1c-31 -9 -78 -40 -115 -64s-84 -53 -104 -78c-7 -8 -10 -18 -10 -28c0 -24 21 -41 42 -41c4 0 8 0 12 1c31 9 77 40 114 64s84 53 104 78c7 8 11 18 11 28zM262 136c46 0 82 -21 82 -71c0 -19 -4 -39 -10 -57
c-12 -37 -32 -72 -64 -94c-53 -36 -113 -50 -187 -50c-46 0 -83 21 -83 71c0 19 5 39 11 57c12 37 31 72 63 94c53 36 114 50 188 50z" fill="currentColor"/>
<text transform="translate(37.9983, 65.3418)" font-family="serif" font-size="2.4696" text-anchor="start" fill="currentColor">
<tspan>→</tspan>
</text>
<path transform="translate(38.3510, 71.8152) scale(0.0040, -0.0040)" d="M314 65c0 24 -21 41 -42 41c-4 0 -8 0 -12 -1c-31 -9 -78 -40 -115 -64s-84 -53 -104 -78c-7 -8 -10 -18 -10 -28c0 -24 21 -41 42 -41c4 0 8 0 12 1c31 9 77 40 114 64s84 53 104 78c7 8 11 18 11 28zM262 136c46 0 82 -21 82 -71c0 -19 -4 -39 -10 -57
c-12 -37 -32 -72 -64 -94c-53 -36 -113 -50 -187 -50c-46 0 -83 21 -83 71c0 19 5 39 11 57c12 37 31 72 63 94c53 36 114 50 188 50z" fill="currentColor"/>
<text transform="translate(37.9983, 77.3152)" font-family="serif" font-size="2.4696" text-anchor="start" fill="currentColor">
<tspan>→</tspan>
</text>
<text transform="translate(9.5781, 72.6176)" font-family="serif" font-size="2.2001" text-anchor="start" fill="currentColor">
<tspan>B</tspan>
</text>
<rect transform="translate(14.3940, 53.6730)" x="0.0000" y="-20.1922" width="0.1600" height="40.3845" ry="0.0500" fill="currentColor"/>
<path transform="translate(15.2540, 36.5307) scale(0.0040, -0.0040)" d="M376 262c4 0 9 1 13 1c155 0 256 -128 256 -261c0 -76 -33 -154 -107 -210c-22 -17 -47 -28 -73 -36c3 -35 5 -70 5 -105c0 -19 -1 -39 -2 -58c-7 -120 -90 -228 -208 -228c-108 0 -195 88 -195 197c0 58 53 103 112 103c54 0 95 -47 95 -103c0 -52 -43 -95 -95 -95
c-11 0 -21 2 -31 6c26 -39 68 -65 117 -65c96 0 157 92 163 191c1 18 2 37 2 55c0 31 -1 61 -4 92c-29 -5 -58 -8 -89 -8c-188 0 -333 172 -333 374c0 177 131 306 248 441c-19 62 -37 125 -45 190c-6 52 -7 104 -7 156c0 115 55 224 149 292c3 2 7 3 10 3c4 0 7 0 10 -3
c71 -84 133 -245 133 -358c0 -143 -86 -255 -180 -364c21 -68 39 -138 56 -207zM461 -203c68 24 113 95 113 164c0 90 -66 179 -173 190c24 -116 46 -231 60 -354zM74 28c0 -135 129 -247 264 -247c28 0 55 2 82 6c-14 127 -37 245 -63 364c-79 -8 -124 -61 -124 -119
c0 -44 25 -91 81 -123c5 -5 7 -10 7 -15c0 -11 -10 -22 -22 -22c-3 0 -6 1 -9 2c-80 43 -117 115 -117 185c0 88 58 174 160 197c-14 58 -29 117 -46 175c-107 -121 -213 -243 -213 -403zM408 1045c-99 -48 -162 -149 -162 -259c0 -74 18 -133 36 -194
c80 97 146 198 146 324c0 55 -4 79 -20 129z" fill="currentColor"/>
<path transform="translate(15.2540, 48.5041) scale(0.0040, -0.0040)" d="M376 262c4 0 9 1 13 1c155 0 256 -128 256 -261c0 -76 -33 -154 -107 -210c-22 -17 -47 -28 -73 -36c3 -35 5 -70 5 -105c0 -19 -1 -39 -2 -58c-7 -120 -90 -228 -208 -228c-108 0 -195 88 -195 197c0 58 53 103 112 103c54 0 95 -47 95 -103c0 -52 -43 -95 -95 -95
c-11 0 -21 2 -31 6c26 -39 68 -65 117 -65c96 0 157 92 163 191c1 18 2 37 2 55c0 31 -1 61 -4 92c-29 -5 -58 -8 -89 -8c-188 0 -333 172 -333 374c0 177 131 306 248 441c-19 62 -37 125 -45 190c-6 52 -7 104 -7 156c0 115 55 224 149 292c3 2 7 3 10 3c4 0 7 0 10 -3
c71 -84 133 -245 133 -358c0 -143 -86 -255 -180 -364c21 -68 39 -138 56 -207zM461 -203c68 24 113 95 113 164c0 90 -66 179 -173 190c24 -116 46 -231 60 -354zM74 28c0 -135 129 -247 264 -247c28 0 55 2 82 6c-14 127 -37 245 -63 364c-79 -8 -124 -61 -124 -119
c0 -44 25 -91 81 -123c5 -5 7 -10 7 -15c0 -11 -10 -22 -22 -22c-3 0 -6 1 -9 2c-80 43 -117 115 -117 185c0 88 58 174 160 197c-14 58 -29 117 -46 175c-107 -121 -213 -243 -213 -403zM408 1045c-99 -48 -162 -149 -162 -259c0 -74 18 -133 36 -194
c80 97 146 198 146 324c0 55 -4 79 -20 129z" fill="currentColor"/>
<text transform="translate(9.6293, 36.3331)" font-family="serif" font-size="2.2001" text-anchor="start" fill="currentColor">
<tspan>S</tspan>
</text>
<text transform="translate(9.5781, 48.3065)" font-family="serif" font-size="2.2001" text-anchor="start" fill="currentColor">
<tspan>A</tspan>
</text>
<text transform="translate(9.6464, 60.6442)" font-family="serif" font-size="2.2001" text-anchor="start" fill="currentColor">
<tspan>T</tspan>
</text>
<path transform="translate(24.2772, 50.0041) scale(0.0040, -0.0040)" d="M218 136c55 0 108 -28 108 -89c0 -71 -55 -121 -102 -149c-35 -21 -75 -34 -116 -34c-55 0 -108 28 -108 89c0 71 55 121 102 149c35 21 75 34 116 34z" fill="currentColor"/>
<path transform="translate(24.1952, 44.2737) scale(0.0040, -0.0040)" d="M233 243c-56 0 -102 -107 -102 -173c0 -22 8 -38 30 -38c64 0 97 126 97 178c0 18 -7 33 -25 33zM112 -146c-38 0 -78 5 -116 5c-39 0 -78 -5 -115 -5c-9 0 -14 7 -14 14c0 18 31 15 48 16c22 1 47 5 54 25l102 300c2 7 4 14 4 20c0 8 -2 14 -11 14
c-33 0 -63 -60 -79 -97c-5 -12 -15 -17 -24 -17c-8 0 -14 4 -14 12c0 2 1 5 2 8c30 68 72 143 132 143c35 0 59 -21 66 -52c29 31 67 52 103 52c69 0 107 -49 107 -114c0 -21 -4 -44 -12 -67c-20 -58 -91 -119 -147 -119c-27 0 -52 5 -73 17c-4 2 -7 3 -11 3
c-7 0 -14 -3 -16 -9l-29 -86c-1 -2 -1 -5 -1 -7c0 -20 21 -26 44 -28c9 -1 13 -8 13 -14c0 -7 -4 -14 -13 -14z" fill="currentColor"/>
<rect transform="translate(24.1940, 54.5638)" x="-0.3245" y="-0.1000" width="2.2196" height="0.1000" ry="0.0000" fill="currentColor"/>
<rect transform="translate(24.1940, 52.6491)" x="-0.3245" y="-0.1000" width="2.2196" height="0.1000" ry="0.0000" fill="currentColor"/>
<rect transform="translate(23.8695, 54.2052)" x="0" y="-1.5561" width="0.1000" height="1.8147" ry="0.0000" fill="currentColor"/>
<rect transform="translate(25.9890, 54.2052)" x="0" y="-1.5561" width="0.1000" height="1.8147" ry="0.0000" fill="currentColor"/>
<text transform="translate(24.1940, 54.2052)" font-family="serif" font-size="2.4696" text-anchor="start" fill="currentColor">
<tspan>ɑ</tspan>
</text>
<path transform="translate(28.5153, 71.8152) scale(0.0040, -0.0040)" d="M218 136c55 0 108 -28 108 -89c0 -71 -55 -121 -102 -149c-35 -21 -75 -34 -116 -34c-55 0 -108 28 -108 89c0 71 55 121 102 149c35 21 75 34 116 34z" fill="currentColor"/>
<path transform="translate(28.4333, 68.5848) scale(0.0040, -0.0040)" d="M233 243c-56 0 -102 -107 -102 -173c0 -22 8 -38 30 -38c64 0 97 126 97 178c0 18 -7 33 -25 33zM112 -146c-38 0 -78 5 -116 5c-39 0 -78 -5 -115 -5c-9 0 -14 7 -14 14c0 18 31 15 48 16c22 1 47 5 54 25l102 300c2 7 4 14 4 20c0 8 -2 14 -11 14
c-33 0 -63 -60 -79 -97c-5 -12 -15 -17 -24 -17c-8 0 -14 4 -14 12c0 2 1 5 2 8c30 68 72 143 132 143c35 0 59 -21 66 -52c29 31 67 52 103 52c69 0 107 -49 107 -114c0 -21 -4 -44 -12 -67c-20 -58 -91 -119 -147 -119c-27 0 -52 5 -73 17c-4 2 -7 3 -11 3
c-7 0 -14 -3 -16 -9l-29 -86c-1 -2 -1 -5 -1 -7c0 -20 21 -26 44 -28c9 -1 13 -8 13 -14c0 -7 -4 -14 -13 -14z" fill="currentColor"/>
<rect transform="translate(28.3321, 77.6738)" x="-0.3245" y="-0.1000" width="2.2196" height="0.1000" ry="0.0000" fill="currentColor"/>
<rect transform="translate(28.3321, 75.7591)" x="-0.3245" y="-0.1000" width="2.2196" height="0.1000" ry="0.0000" fill="currentColor"/>
<rect transform="translate(28.0076, 77.3152)" x="0" y="-1.5561" width="0.1000" height="1.8147" ry="0.0000" fill="currentColor"/>
<rect transform="translate(30.1272, 77.3152)" x="0" y="-1.5561" width="0.1000" height="1.8147" ry="0.0000" fill="currentColor"/>
<text transform="translate(28.3321, 77.3152)" font-family="serif" font-size="2.4696" text-anchor="start" fill="currentColor">
<tspan>ɑ</tspan>
</text>
<path transform="translate(15.2540, 70.8152) scale(0.0040, -0.0040)" d="M557 -125c0 28 23 51 51 51s51 -23 51 -51s-23 -51 -51 -51s-51 23 -51 51zM557 125c0 28 23 51 51 51s51 -23 51 -51s-23 -51 -51 -51s-51 23 -51 51zM232 263c172 0 293 -88 293 -251c0 -263 -263 -414 -516 -521c-3 -3 -6 -4 -9 -4c-7 0 -13 6 -13 13c0 3 1 6 4 9
c202 118 412 265 412 493c0 120 -63 235 -171 235c-74 0 -129 -54 -154 -126c11 5 22 8 34 8c55 0 100 -45 100 -100c0 -58 -44 -106 -100 -106c-60 0 -112 47 -112 106c0 133 102 244 232 244z" fill="currentColor"/>
<path transform="translate(20.0390, 60.3418) scale(0.0040, -0.0040)" d="M218 136c55 0 108 -28 108 -89c0 -71 -55 -121 -102 -149c-35 -21 -75 -34 -116 -34c-55 0 -108 28 -108 89c0 71 55 121 102 149c35 21 75 34 116 34z" fill="currentColor"/>
<path transform="translate(19.9570, 56.6114) scale(0.0040, -0.0040)" d="M233 243c-56 0 -102 -107 -102 -173c0 -22 8 -38 30 -38c64 0 97 126 97 178c0 18 -7 33 -25 33zM112 -146c-38 0 -78 5 -116 5c-39 0 -78 -5 -115 -5c-9 0 -14 7 -14 14c0 18 31 15 48 16c22 1 47 5 54 25l102 300c2 7 4 14 4 20c0 8 -2 14 -11 14
c-33 0 -63 -60 -79 -97c-5 -12 -15 -17 -24 -17c-8 0 -14 4 -14 12c0 2 1 5 2 8c30 68 72 143 132 143c35 0 59 -21 66 -52c29 31 67 52 103 52c69 0 107 -49 107 -114c0 -21 -4 -44 -12 -67c-20 -58 -91 -119 -147 -119c-27 0 -52 5 -73 17c-4 2 -7 3 -11 3
c-7 0 -14 -3 -16 -9l-29 -86c-1 -2 -1 -5 -1 -7c0 -20 21 -26 44 -28c9 -1 13 -8 13 -14c0 -7 -4 -14 -13 -14z" fill="currentColor"/>
<path transform="translate(15.2540, 60.8418) scale(0.0040, -0.0040)" d="M376 262c4 0 9 1 13 1c155 0 256 -128 256 -261c0 -76 -33 -154 -107 -210c-22 -17 -47 -28 -73 -36c3 -35 5 -70 5 -105c0 -19 -1 -39 -2 -58c-7 -120 -90 -228 -208 -228c-108 0 -195 88 -195 197c0 58 53 103 112 103c54 0 95 -47 95 -103c0 -52 -43 -95 -95 -95
c-11 0 -21 2 -31 6c26 -39 68 -65 117 -65c96 0 157 92 163 191c1 18 2 37 2 55c0 31 -1 61 -4 92c-29 -5 -58 -8 -89 -8c-188 0 -333 172 -333 374c0 177 131 306 248 441c-19 62 -37 125 -45 190c-6 52 -7 104 -7 156c0 115 55 224 149 292c3 2 7 3 10 3c4 0 7 0 10 -3
c71 -84 133 -245 133 -358c0 -143 -86 -255 -180 -364c21 -68 39 -138 56 -207zM461 -203c68 24 113 95 113 164c0 90 -66 179 -173 190c24 -116 46 -231 60 -354zM74 28c0 -135 129 -247 264 -247c28 0 55 2 82 6c-14 127 -37 245 -63 364c-79 -8 -124 -61 -124 -119
c0 -44 25 -91 81 -123c5 -5 7 -10 7 -15c0 -11 -10 -22 -22 -22c-3 0 -6 1 -9 2c-80 43 -117 115 -117 185c0 88 58 174 160 197c-14 58 -29 117 -46 175c-107 -121 -213 -243 -213 -403zM408 1045c-99 -48 -162 -149 -162 -259c0 -74 18 -133 36 -194
c80 97 146 198 146 324c0 55 -4 79 -20 129z" fill="currentColor"/>
<text transform="translate(15.8361, 64.4403)" font-family="serif" font-style="italic" font-size="1.3860" text-anchor="start" fill="currentColor">
<tspan>8</tspan>
</text>
<rect transform="translate(20.2347, 65.7005)" x="-0.3245" y="-0.1000" width="2.2196" height="0.1000" ry="0.0000" fill="currentColor"/>
<rect transform="translate(20.2347, 63.7858)" x="-0.3245" y="-0.1000" width="2.2196" height="0.1000" ry="0.0000" fill="currentColor"/>
<rect transform="translate(19.9102, 65.3418)" x="0" y="-1.5561" width="0.1000" height="1.8147" ry="0.0000" fill="currentColor"/>
<rect transform="translate(22.0298, 65.3418)" x="0" y="-1.5561" width="0.1000" height="1.8147" ry="0.0000" fill="currentColor"/>
<text transform="translate(20.2347, 65.3418)" font-family="serif" font-size="2.4696" text-anchor="start" fill="currentColor">
<tspan>ɑ</tspan>
</text>
<rect transform="translate(59.4405, 23.5574)" x="-0.0650" y="3.3139" width="0.1300" height="0.0000" ry="0.0000" fill="currentColor"/>
<path transform="translate(53.5587, 61.3418) scale(0.0040, -0.0040)" d="M216 -312c0 -10 -8 -19 -18 -19s-19 9 -19 19v145l-83 -31v-158c0 -10 -9 -19 -19 -19s-18 9 -18 19v145l-32 -12c-2 -1 -5 -1 -7 -1c-11 0 -20 9 -20 20v60c0 8 5 16 13 19l46 16v160l-32 -11c-2 -1 -5 -1 -7 -1c-11 0 -20 9 -20 20v60c0 8 5 15 13 18l46 17v158
c0 10 8 19 18 19s19 -9 19 -19v-145l83 31v158c0 10 9 19 19 19s18 -9 18 -19v-145l32 12c2 1 5 1 7 1c11 0 20 -9 20 -20v-60c0 -8 -5 -16 -13 -19l-46 -16v-160l32 11c2 1 5 1 7 1c11 0 20 -9 20 -20v-60c0 -8 -5 -15 -13 -18l-46 -17v-158zM96 65v-160l83 30v160z" fill="currentColor"/>
<rect transform="translate(54.9633, 77.6738)" x="-0.3245" y="-0.1000" width="2.1171" height="0.1000" ry="0.0000" fill="currentColor"/>
<rect transform="translate(54.9633, 75.7591)" x="-0.3245" y="-0.1000" width="2.1171" height="0.1000" ry="0.0000" fill="currentColor"/>
<rect transform="translate(54.6388, 77.3152)" x="0" y="-1.5561" width="0.1000" height="1.8147" ry="0.0000" fill="currentColor"/>
<rect transform="translate(56.6560, 77.3152)" x="0" y="-1.5561" width="0.1000" height="1.8147" ry="0.0000" fill="currentColor"/>
<text transform="translate(54.9633, 77.3152)" font-family="serif" font-size="2.4696" text-anchor="start" fill="currentColor">
<tspan>a</tspan>
</text>
<path transform="translate(55.0087, 73.8152) scale(0.0040, -0.0040)" d="M314 65c0 24 -21 41 -42 41c-4 0 -8 0 -12 -1c-31 -9 -78 -40 -115 -64s-84 -53 -104 -78c-7 -8 -10 -18 -10 -28c0 -24 21 -41 42 -41c4 0 8 0 12 1c31 9 77 40 114 64s84 53 104 78c7 8 11 18 11 28zM262 136c46 0 82 -21 82 -71c0 -19 -4 -39 -10 -57
c-12 -37 -32 -72 -64 -94c-53 -36 -113 -50 -187 -50c-46 0 -83 21 -83 71c0 19 5 39 11 57c12 37 31 72 63 94c53 36 114 50 188 50z" fill="currentColor"/>
<path transform="translate(53.5587, 50.5041) scale(0.0040, -0.0040)" d="M216 -312c0 -10 -8 -19 -18 -19s-19 9 -19 19v145l-83 -31v-158c0 -10 -9 -19 -19 -19s-18 9 -18 19v145l-32 -12c-2 -1 -5 -1 -7 -1c-11 0 -20 9 -20 20v60c0 8 5 16 13 19l46 16v160l-32 -11c-2 -1 -5 -1 -7 -1c-11 0 -20 9 -20 20v60c0 8 5 15 13 18l46 17v158
c0 10 8 19 18 19s19 -9 19 -19v-145l83 31v158c0 10 9 19 19 19s18 -9 18 -19v-145l32 12c2 1 5 1 7 1c11 0 20 -9 20 -20v-60c0 -8 -5 -16 -13 -19l-46 -16v-160l32 11c2 1 5 1 7 1c11 0 20 -9 20 -20v-60c0 -8 -5 -15 -13 -18l-46 -17v-158zM96 65v-160l83 30v160z" fill="currentColor"/>
<path transform="translate(55.0087, 35.5307) scale(0.0040, -0.0040)" d="M314 65c0 24 -21 41 -42 41c-4 0 -8 0 -12 -1c-31 -9 -78 -40 -115 -64s-84 -53 -104 -78c-7 -8 -10 -18 -10 -28c0 -24 21 -41 42 -41c4 0 8 0 12 1c31 9 77 40 114 64s84 53 104 78c7 8 11 18 11 28zM262 136c46 0 82 -21 82 -71c0 -19 -4 -39 -10 -57
c-12 -37 -32 -72 -64 -94c-53 -36 -113 -50 -187 -50c-46 0 -83 21 -83 71c0 19 5 39 11 57c12 37 31 72 63 94c53 36 114 50 188 50z" fill="currentColor"/>
<path transform="translate(55.6974, 33.2047) scale(0.0040, -0.0040)" d="M-67 48c0 37 30 67 67 67s67 -30 67 -67s-30 -67 -67 -67s-67 30 -67 67zM0 363c157 0 332 -176 332 -366c0 -9 -10 -15 -19 -15s-17 5 -19 18c-26 148 -146 262 -294 262s-268 -114 -294 -262c-2 -13 -10 -18 -19 -18s-19 6 -19 15c0 190 175 366 332 366z" fill="currentColor"/>
<rect transform="translate(54.9633, 41.3894)" x="-0.3245" y="-0.1000" width="2.1171" height="0.1000" ry="0.0000" fill="currentColor"/>
<rect transform="translate(54.9633, 39.4747)" x="-0.3245" y="-0.1000" width="2.1171" height="0.1000" ry="0.0000" fill="currentColor"/>
<rect transform="translate(54.6388, 41.0308)" x="0" y="-1.5561" width="0.1000" height="1.8147" ry="0.0000" fill="currentColor"/>
<rect transform="translate(56.6560, 41.0308)" x="0" y="-1.5561" width="0.1000" height="1.8147" ry="0.0000" fill="currentColor"/>
<text transform="translate(54.9633, 41.0308)" font-family="serif" font-size="2.4696" text-anchor="start" fill="currentColor">
<tspan>a</tspan>
</text>
<path transform="translate(55.0087, 50.5041) scale(0.0040, -0.0040)" d="M314 65c0 24 -21 41 -42 41c-4 0 -8 0 -12 -1c-31 -9 -78 -40 -115 -64s-84 -53 -104 -78c-7 -8 -10 -18 -10 -28c0 -24 21 -41 42 -41c4 0 8 0 12 1c31 9 77 40 114 64s84 53 104 78c7 8 11 18 11 28zM262 136c46 0 82 -21 82 -71c0 -19 -4 -39 -10 -57
c-12 -37 -32 -72 -64 -94c-53 -36 -113 -50 -187 -50c-46 0 -83 21 -83 71c0 19 5 39 11 57c12 37 31 72 63 94c53 36 114 50 188 50z" fill="currentColor"/>
<path transform="translate(55.6974, 45.1781) scale(0.0040, -0.0040)" d="M-67 48c0 37 30 67 67 67s67 -30 67 -67s-30 -67 -67 -67s-67 30 -67 67zM0 363c157 0 332 -176 332 -366c0 -9 -10 -15 -19 -15s-17 5 -19 18c-26 148 -146 262 -294 262s-268 -114 -294 -262c-2 -13 -10 -18 -19 -18s-19 6 -19 15c0 190 175 366 332 366z" fill="currentColor"/>
<rect transform="translate(54.9633, 54.5638)" x="-0.3245" y="-0.1000" width="2.1171" height="0.1000" ry="0.0000" fill="currentColor"/>
<rect transform="translate(54.9633, 52.6491)" x="-0.3245" y="-0.1000" width="2.1171" height="0.1000" ry="0.0000" fill="currentColor"/>
<rect transform="translate(54.6388, 54.2052)" x="0" y="-1.5561" width="0.1000" height="1.8147" ry="0.0000" fill="currentColor"/>
<rect transform="translate(56.6560, 54.2052)" x="0" y="-1.5561" width="0.1000" height="1.8147" ry="0.0000" fill="currentColor"/>
<text transform="translate(54.9633, 54.2052)" font-family="serif" font-size="2.4696" text-anchor="start" fill="currentColor">
<tspan>a</tspan>
</text>
<path transform="translate(55.0087, 61.3418) scale(0.0040, -0.0040)" d="M314 65c0 24 -21 41 -42 41c-4 0 -8 0 -12 -1c-31 -9 -78 -40 -115 -64s-84 -53 -104 -78c-7 -8 -10 -18 -10 -28c0 -24 21 -41 42 -41c4 0 8 0 12 1c31 9 77 40 114 64s84 53 104 78c7 8 11 18 11 28zM262 136c46 0 82 -21 82 -71c0 -19 -4 -39 -10 -57
c-12 -37 -32 -72 -64 -94c-53 -36 -113 -50 -187 -50c-46 0 -83 21 -83 71c0 19 5 39 11 57c12 37 31 72 63 94c53 36 114 50 188 50z" fill="currentColor"/>
<path transform="translate(55.6974, 57.5158) scale(0.0040, -0.0040)" d="M-67 48c0 37 30 67 67 67s67 -30 67 -67s-30 -67 -67 -67s-67 30 -67 67zM0 363c157 0 332 -176 332 -366c0 -9 -10 -15 -19 -15s-17 5 -19 18c-26 148 -146 262 -294 262s-268 -114 -294 -262c-2 -13 -10 -18 -19 -18s-19 6 -19 15c0 190 175 366 332 366z" fill="currentColor"/>
<rect transform="translate(54.9633, 65.7005)" x="-0.3245" y="-0.1000" width="2.1171" height="0.1000" ry="0.0000" fill="currentColor"/>
<rect transform="translate(54.9633, 63.7858)" x="-0.3245" y="-0.1000" width="2.1171" height="0.1000" ry="0.0000" fill="currentColor"/>
<rect transform="translate(54.6388, 65.3418)" x="0" y="-1.5561" width="0.1000" height="1.8147" ry="0.0000" fill="currentColor"/>
<rect transform="translate(56.6560, 65.3418)" x="0" y="-1.5561" width="0.1000" height="1.8147" ry="0.0000" fill="currentColor"/>
<text transform="translate(54.9633, 65.3418)" font-family="serif" font-size="2.4696" text-anchor="start" fill="currentColor">
<tspan>a</tspan>
</text>
<path transform="translate(55.6974, 69.4892) scale(0.0040, -0.0040)" d="M-67 48c0 37 30 67 67 67s67 -30 67 -67s-30 -67 -67 -67s-67 30 -67 67zM0 363c157 0 332 -176 332 -366c0 -9 -10 -15 -19 -15s-17 5 -19 18c-26 148 -146 262 -294 262s-268 -114 -294 -262c-2 -13 -10 -18 -19 -18s-19 6 -19 15c0 190 175 366 332 366z" fill="currentColor"/>
<rect transform="translate(7.2270, 117.2037)" x="99.5129" y="-0.1000" width="1.8553" height="0.2000" ry="0.1000" fill="currentColor"/>
<line transform="translate(7.2270, 142.8558)" stroke-linejoin="round" stroke-linecap="round" stroke-width="0.1000" stroke="currentColor" x1="0.0500" y1="-0.0000" x2="108.3550" y2="-0.0000"/>
<line transform="translate(7.2270, 141.8558)" stroke-linejoin="round" stroke-linecap="round" stroke-width="0.1000" stroke="currentColor" x1="0.0500" y1="-0.0000" x2="108.3550" y2="-0.0000"/>
<line transform="translate(7.2270, 140.8558)" stroke-linejoin="round" stroke-linecap="round" stroke-width="0.1000" stroke="currentColor" x1="0.0500" y1="-0.0000" x2="108.3550" y2="-0.0000"/>
<line transform="translate(7.2270, 139.8558)" stroke-linejoin="round" stroke-linecap="round" stroke-width="0.1000" stroke="currentColor" x1="0.0500" y1="-0.0000" x2="108.3550" y2="-0.0000"/>
<line transform="translate(7.2270, 138.8558)" stroke-linejoin="round" stroke-linecap="round" stroke-width="0.1000" stroke="currentColor" x1="0.0500" y1="-0.0000" x2="108.3550" y2="-0.0000"/>
<line transform="translate(7.2270, 129.4464)" stroke-linejoin="round" stroke-linecap="round" stroke-width="0.1000" stroke="currentColor" x1="0.0500" y1="-0.0000" x2="108.3550" y2="-0.0000"/>
<line transform="translate(7.2270, 128.4464)" stroke-linejoin="round" stroke-linecap="round" stroke-width="0.1000" stroke="currentColor" x1="0.0500" y1="-0.0000" x2="108.3550" y2="-0.0000"/>
<line transform="translate(7.2270, 127.4464)" stroke-linejoin="round" stroke-linecap="round" stroke-width="0.1000" stroke="currentColor" x1="0.0500" y1="-0.0000" x2="108.3550" y2="-0.0000"/>
<line transform="translate(7.2270, 126.4464)" stroke-linejoin="round" stroke-linecap="round" stroke-width="0.1000" stroke="currentColor" x1="0.0500" y1="-0.0000" x2="108.3550" y2="-0.0000"/>
<line transform="translate(7.2270, 125.4464)" stroke-linejoin="round" stroke-linecap="round" stroke-width="0.1000" stroke="currentColor" x1="0.0500" y1="-0.0000" x2="108.3550" y2="-0.0000"/>
<line transform="translate(7.2270, 116.2037)" stroke-linejoin="round" stroke-linecap="round" stroke-width="0.1000" stroke="currentColor" x1="0.0500" y1="-0.0000" x2="108.3550" y2="-0.0000"/>
<line transform="translate(7.2270, 115.2037)" stroke-linejoin="round" stroke-linecap="round" stroke-width="0.1000" stroke="currentColor" x1="0.0500" y1="-0.0000" x2="108.3550" y2="-0.0000"/>
<line transform="translate(7.2270, 114.2037)" stroke-linejoin="round" stroke-linecap="round" stroke-width="0.1000" stroke="currentColor" x1="0.0500" y1="-0.0000" x2="108.3550" y2="-0.0000"/>
<line transform="translate(7.2270, 113.2037)" stroke-linejoin="round" stroke-linecap="round" stroke-width="0.1000" stroke="currentColor" x1="0.0500" y1="-0.0000" x2="108.3550" y2="-0.0000"/>
<line transform="translate(7.2270, 112.2037)" stroke-linejoin="round" stroke-linecap="round" stroke-width="0.1000" stroke="currentColor" x1="0.0500" y1="-0.0000" x2="108.3550" y2="-0.0000"/>
<line transform="translate(7.2270, 104.2303)" stroke-linejoin="round" stroke-linecap="round" stroke-width="0.1000" stroke="currentColor" x1="0.0500" y1="-0.0000" x2="108.3550" y2="-0.0000"/>
<line transform="translate(7.2270, 103.2303)" stroke-linejoin="round" stroke-linecap="round" stroke-width="0.1000" stroke="currentColor" x1="0.0500" y1="-0.0000" x2="108.3550" y2="-0.0000"/>
<line transform="translate(7.2270, 102.2303)" stroke-linejoin="round" stroke-linecap="round" stroke-width="0.1000" stroke="currentColor" x1="0.0500" y1="-0.0000" x2="108.3550" y2="-0.0000"/>
<line transform="translate(7.2270, 101.2303)" stroke-linejoin="round" stroke-linecap="round" stroke-width="0.1000" stroke="currentColor" x1="0.0500" y1="-0.0000" x2="108.3550" y2="-0.0000"/>
<line transform="translate(7.2270, 100.2303)" stroke-linejoin="round" stroke-linecap="round" stroke-width="0.1000" stroke="currentColor" x1="0.0500" y1="-0.0000" x2="108.3550" y2="-0.0000"/>
<text transform="translate(69.5184, 121.3597)" font-family="serif" font-size="2.4696" text-anchor="start" fill="currentColor">
<tspan>→</tspan>
</text>
<text transform="translate(69.8577, 99.6803)" font-family="serif" font-size="1.9600" text-anchor="start" fill="currentColor">
<tspan>I</tspan>
</text>
<path transform="translate(69.8577, 102.2303) scale(0.0040, -0.0040)" d="M218 136c55 0 108 -28 108 -89c0 -71 -55 -121 -102 -149c-35 -21 -75 -34 -116 -34c-55 0 -108 28 -108 89c0 71 55 121 102 149c35 21 75 34 116 34z" fill="currentColor"/>
<text transform="translate(64.7344, 133.9358)" font-family="serif" font-size="2.4696" text-anchor="start" fill="currentColor">
<tspan>→</tspan>
</text>
<rect transform="translate(69.8257, 108.4117)" x="-0.3245" y="-0.1000" width="2.1171" height="0.1000" ry="0.0000" fill="currentColor"/>
<rect transform="translate(69.8257, 106.4970)" x="-0.3245" y="-0.1000" width="2.1171" height="0.1000" ry="0.0000" fill="currentColor"/>
<rect transform="translate(69.5012, 108.0530)" x="0" y="-1.5561" width="0.1000" height="1.8147" ry="0.0000" fill="currentColor"/>
<rect transform="translate(71.5184, 108.0530)" x="0" y="-1.5561" width="0.1000" height="1.8147" ry="0.0000" fill="currentColor"/>
<text transform="translate(69.8257, 108.0530)" font-family="serif" font-size="2.4696" text-anchor="start" fill="currentColor">
<tspan>a</tspan>
</text>
<line transform="translate(12.7103, 95.1190)" stroke-linejoin="round" stroke-linecap="round" stroke-width="0.1000" stroke="currentColor" x1="62.0335" y1="-0.0000" x2="62.5335" y2="1.0000"/>
<line transform="translate(12.7103, 95.1190)" stroke-linejoin="round" stroke-linecap="round" stroke-width="0.1000" stroke="currentColor" x1="0.5000" y1="-0.0000" x2="0.0000" y2="1.0000"/>
<line transform="translate(12.7103, 95.1190)" stroke-linejoin="round" stroke-linecap="round" stroke-width="0.1000" stroke="currentColor" x1="0.5000" y1="-0.0000" x2="62.0335" y2="-0.0000"/>
<path transform="translate(79.9021, 141.3558) scale(0.0040, -0.0040)" d="M314 65c0 24 -21 41 -42 41c-4 0 -8 0 -12 -1c-31 -9 -78 -40 -115 -64s-84 -53 -104 -78c-7 -8 -10 -18 -10 -28c0 -24 21 -41 42 -41c4 0 8 0 12 1c31 9 77 40 114 64s84 53 104 78c7 8 11 18 11 28zM262 136c46 0 82 -21 82 -71c0 -19 -4 -39 -10 -57
c-12 -37 -32 -72 -64 -94c-53 -36 -113 -50 -187 -50c-46 0 -83 21 -83 71c0 19 5 39 11 57c12 37 31 72 63 94c53 36 114 50 188 50z" fill="currentColor"/>
<rect transform="translate(79.7640, 90.1190)" x="-0.0650" y="3.3139" width="0.1300" height="0.0000" ry="0.0000" fill="currentColor"/>
<rect transform="translate(78.4794, 147.0371)" x="-0.3245" y="-0.1000" width="2.1171" height="0.1000" ry="0.0000" fill="currentColor"/>
<rect transform="translate(78.4794, 145.1224)" x="-0.3245" y="-0.1000" width="2.1171" height="0.1000" ry="0.0000" fill="currentColor"/>
<rect transform="translate(78.1549, 146.6785)" x="0" y="-1.5561" width="0.1000" height="1.8147" ry="0.0000" fill="currentColor"/>
<rect transform="translate(80.1720, 146.6785)" x="0" y="-1.5561" width="0.1000" height="1.8147" ry="0.0000" fill="currentColor"/>
<text transform="translate(78.4794, 146.6785)" font-family="serif" font-size="2.4696" text-anchor="start" fill="currentColor">
<tspan>e</tspan>
</text>
<path transform="translate(79.2135, 137.2464) scale(0.0040, -0.0040)" d="M-67 48c0 37 30 67 67 67s67 -30 67 -67s-30 -67 -67 -67s-67 30 -67 67zM0 363c157 0 332 -176 332 -366c0 -9 -10 -15 -19 -15s-17 5 -19 18c-26 148 -146 262 -294 262s-268 -114 -294 -262c-2 -13 -10 -18 -19 -18s-19 6 -19 15c0 190 175 366 332 366z" fill="currentColor"/>
<path transform="translate(78.5248, 102.2303) scale(0.0040, -0.0040)" d="M314 65c0 24 -21 41 -42 41c-4 0 -8 0 -12 -1c-31 -9 -78 -40 -115 -64s-84 -53 -104 -78c-7 -8 -10 -18 -10 -28c0 -24 21 -41 42 -41c4 0 8 0 12 1c31 9 77 40 114 64s84 53 104 78c7 8 11 18 11 28zM262 136c46 0 82 -21 82 -71c0 -19 -4 -39 -10 -57
c-12 -37 -32 -72 -64 -94c-53 -36 -113 -50 -187 -50c-46 0 -83 21 -83 71c0 19 5 39 11 57c12 37 31 72 63 94c53 36 114 50 188 50z" fill="currentColor"/>
<path transform="translate(78.5248, 140.8558) scale(0.0040, -0.0040)" d="M314 65c0 24 -21 41 -42 41c-4 0 -8 0 -12 -1c-31 -9 -78 -40 -115 -64s-84 -53 -104 -78c-7 -8 -10 -18 -10 -28c0 -24 21 -41 42 -41c4 0 8 0 12 1c31 9 77 40 114 64s84 53 104 78c7 8 11 18 11 28zM262 136c46 0 82 -21 82 -71c0 -19 -4 -39 -10 -57
c-12 -37 -32 -72 -64 -94c-53 -36 -113 -50 -187 -50c-46 0 -83 21 -83 71c0 19 5 39 11 57c12 37 31 72 63 94c53 36 114 50 188 50z" fill="currentColor"/>
<rect transform="translate(78.4794, 134.2944)" x="-0.3245" y="-0.1000" width="2.1171" height="0.1000" ry="0.0000" fill="currentColor"/>
<rect transform="translate(78.4794, 132.3797)" x="-0.3245" y="-0.1000" width="2.1171" height="0.1000" ry="0.0000" fill="currentColor"/>
<rect transform="translate(78.1549, 133.9358)" x="0" y="-1.5561" width="0.1000" height="1.8147" ry="0.0000" fill="currentColor"/>
<rect transform="translate(80.1720, 133.9358)" x="0" y="-1.5561" width="0.1000" height="1.8147" ry="0.0000" fill="currentColor"/>
<text transform="translate(78.4794, 133.9358)" font-family="serif" font-size="2.4696" text-anchor="start" fill="currentColor">
<tspan>e</tspan>
</text>
<path transform="translate(79.9021, 128.9464) scale(0.0040, -0.0040)" d="M314 65c0 24 -21 41 -42 41c-4 0 -8 0 -12 -1c-31 -9 -78 -40 -115 -64s-84 -53 -104 -78c-7 -8 -10 -18 -10 -28c0 -24 21 -41 42 -41c4 0 8 0 12 1c31 9 77 40 114 64s84 53 104 78c7 8 11 18 11 28zM262 136c46 0 82 -21 82 -71c0 -19 -4 -39 -10 -57
c-12 -37 -32 -72 -64 -94c-53 -36 -113 -50 -187 -50c-46 0 -83 21 -83 71c0 19 5 39 11 57c12 37 31 72 63 94c53 36 114 50 188 50z" fill="currentColor"/>
<path transform="translate(79.2135, 98.6210) scale(0.0040, -0.0040)" d="M-67 48c0 37 30 67 67 67s67 -30 67 -67s-30 -67 -67 -67s-67 30 -67 67zM0 363c157 0 332 -176 332 -366c0 -9 -10 -15 -19 -15s-17 5 -19 18c-26 148 -146 262 -294 262s-268 -114 -294 -262c-2 -13 -10 -18 -19 -18s-19 6 -19 15c0 190 175 366 332 366z" fill="currentColor"/>
<path transform="translate(79.2135, 124.6704) scale(0.0040, -0.0040)" d="M-67 48c0 37 30 67 67 67s67 -30 67 -67s-30 -67 -67 -67s-67 30 -67 67zM0 363c157 0 332 -176 332 -366c0 -9 -10 -15 -19 -15s-17 5 -19 18c-26 148 -146 262 -294 262s-268 -114 -294 -262c-2 -13 -10 -18 -19 -18s-19 6 -19 15c0 190 175 366 332 366z" fill="currentColor"/>
<path transform="translate(79.9021, 102.7303) scale(0.0040, -0.0040)" d="M314 65c0 24 -21 41 -42 41c-4 0 -8 0 -12 -1c-31 -9 -78 -40 -115 -64s-84 -53 -104 -78c-7 -8 -10 -18 -10 -28c0 -24 21 -41 42 -41c4 0 8 0 12 1c31 9 77 40 114 64s84 53 104 78c7 8 11 18 11 28zM262 136c46 0 82 -21 82 -71c0 -19 -4 -39 -10 -57
c-12 -37 -32 -72 -64 -94c-53 -36 -113 -50 -187 -50c-46 0 -83 21 -83 71c0 19 5 39 11 57c12 37 31 72 63 94c53 36 114 50 188 50z" fill="currentColor"/>
<rect transform="translate(78.4794, 108.4117)" x="-0.3245" y="-0.1000" width="2.1171" height="0.1000" ry="0.0000" fill="currentColor"/>
<rect transform="translate(78.4794, 106.4970)" x="-0.3245" y="-0.1000" width="2.1171" height="0.1000" ry="0.0000" fill="currentColor"/>
<rect transform="translate(78.1549, 108.0530)" x="0" y="-1.5561" width="0.1000" height="1.8147" ry="0.0000" fill="currentColor"/>
<rect transform="translate(80.1720, 108.0530)" x="0" y="-1.5561" width="0.1000" height="1.8147" ry="0.0000" fill="currentColor"/>
<text transform="translate(78.4794, 108.0530)" font-family="serif" font-size="2.4696" text-anchor="start" fill="currentColor">
<tspan>e</tspan>
</text>
<path transform="translate(78.5248, 116.2037) scale(0.0040, -0.0040)" d="M314 65c0 24 -21 41 -42 41c-4 0 -8 0 -12 -1c-31 -9 -78 -40 -115 -64s-84 -53 -104 -78c-7 -8 -10 -18 -10 -28c0 -24 21 -41 42 -41c4 0 8 0 12 1c31 9 77 40 114 64s84 53 104 78c7 8 11 18 11 28zM262 136c46 0 82 -21 82 -71c0 -19 -4 -39 -10 -57
c-12 -37 -32 -72 -64 -94c-53 -36 -113 -50 -187 -50c-46 0 -83 21 -83 71c0 19 5 39 11 57c12 37 31 72 63 94c53 36 114 50 188 50z" fill="currentColor"/>
<path transform="translate(79.2135, 111.8777) scale(0.0040, -0.0040)" d="M-67 48c0 37 30 67 67 67s67 -30 67 -67s-30 -67 -67 -67s-67 30 -67 67zM0 363c157 0 332 -176 332 -366c0 -9 -10 -15 -19 -15s-17 5 -19 18c-26 148 -146 262 -294 262s-268 -114 -294 -262c-2 -13 -10 -18 -19 -18s-19 6 -19 15c0 190 175 366 332 366z" fill="currentColor"/>
<path transform="translate(79.9021, 116.7037) scale(0.0040, -0.0040)" d="M314 65c0 24 -21 41 -42 41c-4 0 -8 0 -12 -1c-31 -9 -78 -40 -115 -64s-84 -53 -104 -78c-7 -8 -10 -18 -10 -28c0 -24 21 -41 42 -41c4 0 8 0 12 1c31 9 77 40 114 64s84 53 104 78c7 8 11 18 11 28zM262 136c46 0 82 -21 82 -71c0 -19 -4 -39 -10 -57
c-12 -37 -32 -72 -64 -94c-53 -36 -113 -50 -187 -50c-46 0 -83 21 -83 71c0 19 5 39 11 57c12 37 31 72 63 94c53 36 114 50 188 50z" fill="currentColor"/>
<rect transform="translate(78.4794, 121.7184)" x="-0.3245" y="-0.1000" width="2.1171" height="0.1000" ry="0.0000" fill="currentColor"/>
<rect transform="translate(78.4794, 119.8037)" x="-0.3245" y="-0.1000" width="2.1171" height="0.1000" ry="0.0000" fill="currentColor"/>
<rect transform="translate(78.1549, 121.3597)" x="0" y="-1.5561" width="0.1000" height="1.8147" ry="0.0000" fill="currentColor"/>
<rect transform="translate(80.1720, 121.3597)" x="0" y="-1.5561" width="0.1000" height="1.8147" ry="0.0000" fill="currentColor"/>
<text transform="translate(78.4794, 121.3597)" font-family="serif" font-size="2.4696" text-anchor="start" fill="currentColor">
<tspan>e</tspan>
</text>
<path transform="translate(78.5248, 128.4464) scale(0.0040, -0.0040)" d="M314 65c0 24 -21 41 -42 41c-4 0 -8 0 -12 -1c-31 -9 -78 -40 -115 -64s-84 -53 -104 -78c-7 -8 -10 -18 -10 -28c0 -24 21 -41 42 -41c4 0 8 0 12 1c31 9 77 40 114 64s84 53 104 78c7 8 11 18 11 28zM262 136c46 0 82 -21 82 -71c0 -19 -4 -39 -10 -57
c-12 -37 -32 -72 -64 -94c-53 -36 -113 -50 -187 -50c-46 0 -83 21 -83 71c0 19 5 39 11 57c12 37 31 72 63 94c53 36 114 50 188 50z" fill="currentColor"/>
<text transform="translate(73.5504, 108.0530)" font-family="serif" font-size="2.4696" text-anchor="start" fill="currentColor">
<tspan>→</tspan>
</text>
<rect transform="translate(75.1789, 90.1190)" x="-0.0650" y="3.3139" width="0.1300" height="0.0000" ry="0.0000" fill="currentColor"/>
<path transform="translate(53.5299, 127.4464)" stroke-width="0.0800" stroke-linejoin="round" stroke-linecap="round" stroke="currentColor" fill="currentColor" d="M1.5042 2.0000C3.0992 3.0103 24.3272 3.0103 25.9222 2.0000L25.9222 2.0000C24.3272 2.8903 3.0992 2.8903 1.5042 2.0000z"/>
<path transform="translate(45.3660, 140.8558)" stroke-width="0.0800" stroke-linejoin="round" stroke-linecap="round" stroke="currentColor" fill="currentColor" d="M1.7542 -0.7500C3.4287 -1.7719 31.9730 -1.7719 33.6475 -0.7500L33.6475 -0.7500C31.9730 -1.6519 3.4287 -1.6519 1.7542 -0.7500z"/>
<path transform="translate(37.2021, 102.2303)" stroke-width="0.0800" stroke-linejoin="round" stroke-linecap="round" stroke="currentColor" fill="currentColor" d="M0.8521 1.5717C2.5916 2.6024 40.5106 2.6024 42.2501 1.5717L42.2501 1.5717C40.5106 2.4824 2.5916 2.4824 0.8521 1.5717z"/>
<path transform="translate(29.0382, 114.2037)" stroke-width="0.0800" stroke-linejoin="round" stroke-linecap="round" stroke="currentColor" fill="currentColor" d="M1.5042 3.0000C3.2792 4.0351 48.6390 4.0351 50.4140 3.0000L50.4140 3.0000C48.6390 3.9151 3.2792 3.9151 1.5042 3.0000z"/>
<path transform="translate(20.8743, 127.4464)" stroke-width="0.0800" stroke-linejoin="round" stroke-linecap="round" stroke="currentColor" fill="currentColor" d="M1.7542 0.2500C3.5561 -0.7884 56.3373 -0.7884 58.1392 0.2500L58.1392 0.2500C56.3373 -0.6684 3.5561 -0.6684 1.7542 0.2500z"/>
<path transform="translate(12.7103, 140.8558)" stroke-width="0.0800" stroke-linejoin="round" stroke-linecap="round" stroke="currentColor" fill="currentColor" d="M0.8521 1.5637C2.6801 2.6053 64.9138 2.6053 66.7418 1.5637L66.7418 1.5637C64.9138 2.4853 2.6801 2.4853 0.8521 1.5637z"/>
<text transform="translate(42.2699, 94.5348)" font-family="serif" font-size="1.9600" text-anchor="start" fill="currentColor">
<tspan>20"</tspan>
</text>
<path transform="translate(61.6938, 114.2037)" stroke-width="0.0800" stroke-linejoin="round" stroke-linecap="round" stroke="currentColor" fill="currentColor" d="M1.7542 1.2500C3.1845 0.2678 15.8894 0.2678 17.3197 1.2500L17.3197 1.2500C15.8894 0.3878 3.1845 0.3878 1.7542 1.2500z"/>
<path transform="translate(69.8577, 102.2303)" stroke-width="0.0800" stroke-linejoin="round" stroke-linecap="round" stroke="currentColor" fill="currentColor" d="M1.7542 -0.7500C2.8426 -1.6491 8.0674 -1.6491 9.1557 -0.7500L9.1557 -0.7500C8.0674 -1.5291 2.8426 -1.5291 1.7542 -0.7500z"/>
<line transform="translate(78.5248, 95.1190)" stroke-linejoin="round" stroke-linecap="round" stroke-width="0.1000" stroke="currentColor" x1="33.3263" y1="-0.0000" x2="33.8263" y2="1.0000"/>
<line transform="translate(78.5248, 95.1190)" stroke-linejoin="round" stroke-linecap="round" stroke-width="0.1000" stroke="currentColor" x1="0.5000" y1="-0.0000" x2="0.0000" y2="1.0000"/>
<line transform="translate(78.5248, 95.1190)" stroke-linejoin="round" stroke-linecap="round" stroke-width="0.1000" stroke="currentColor" x1="0.5000" y1="-0.0000" x2="33.3263" y2="-0.0000"/>
<text transform="translate(93.7308, 94.5348)" font-family="serif" font-size="1.9600" text-anchor="start" fill="currentColor">
<tspan>10"</tspan>
</text>
<line transform="translate(7.2270, 114.2037)" stroke-linejoin="round" stroke-linecap="round" stroke-width="0.2500" stroke="currentColor" x1="74.5524" y1="2.5104" x2="97.6880" y2="2.9896"/>
<rect transform="translate(112.2861, 90.1190)" x="-0.0650" y="3.3139" width="0.1300" height="0.0000" ry="0.0000" fill="currentColor"/>
<path transform="translate(105.4149, 117.2037) scale(0.0040, -0.0040)" d="M216 -312c0 -10 -8 -19 -18 -19s-19 9 -19 19v145l-83 -31v-158c0 -10 -9 -19 -19 -19s-18 9 -18 19v145l-32 -12c-2 -1 -5 -1 -7 -1c-11 0 -20 9 -20 20v60c0 8 5 16 13 19l46 16v160l-32 -11c-2 -1 -5 -1 -7 -1c-11 0 -20 9 -20 20v60c0 8 5 15 13 18l46 17v158
c0 10 8 19 18 19s19 -9 19 -19v-145l83 31v158c0 10 9 19 19 19s18 -9 18 -19v-145l32 12c2 1 5 1 7 1c11 0 20 -9 20 -20v-60c0 -8 -5 -16 -13 -19l-46 -16v-160l32 11c2 1 5 1 7 1c11 0 20 -9 20 -20v-60c0 -8 -5 -15 -13 -18l-46 -17v-158zM96 65v-160l83 30v160z" fill="currentColor"/>
<path transform="translate(107.6170, 119.9037) scale(0.0040, -0.0040)" d="M91 -67c0 -37 -29 -66 -66 -66s-67 29 -67 66s30 67 67 67s66 -30 66 -67zM231 0c11 0 19 -9 19 -19c0 -3 -1 -4 -2 -7l-231 -513c-3 -7 -10 -11 -17 -11s-14 4 -17 11l-231 513c-1 3 -2 4 -2 7c0 10 8 19 19 19h49c7 0 14 -4 17 -11l190 -418l189 418c3 7 10 11 17 11z
" fill="currentColor"/>
<path transform="translate(106.9649, 117.2037) scale(0.0040, -0.0040)" d="M218 136c55 0 108 -28 108 -89c0 -71 -55 -121 -102 -149c-35 -21 -75 -34 -116 -34c-55 0 -108 28 -108 89c0 71 55 121 102 149c35 21 75 34 116 34z" fill="currentColor"/>
<path transform="translate(12.7103, 141.3558) scale(0.0040, -0.0040)" d="M218 136c55 0 108 -28 108 -89c0 -71 -55 -121 -102 -149c-35 -21 -75 -34 -116 -34c-55 0 -108 28 -108 89c0 71 55 121 102 149c35 21 75 34 116 34z" fill="currentColor"/>
<text transform="translate(12.7103, 138.3058)" font-family="serif" font-size="1.9600" text-anchor="start" fill="currentColor">
<tspan>II</tspan>
</text>
<rect transform="translate(12.9414, 147.0371)" x="-0.3245" y="-0.1000" width="2.0489" height="0.1000" ry="0.0000" fill="currentColor"/>
<rect transform="translate(12.9414, 145.1224)" x="-0.3245" y="-0.1000" width="2.0489" height="0.1000" ry="0.0000" fill="currentColor"/>
<rect transform="translate(12.6169, 146.6785)" x="0" y="-1.5561" width="0.1000" height="1.8147" ry="0.0000" fill="currentColor"/>
<rect transform="translate(14.5658, 146.6785)" x="0" y="-1.5561" width="0.1000" height="1.8147" ry="0.0000" fill="currentColor"/>
<text transform="translate(12.9414, 146.6785)" font-family="serif" font-size="2.4696" text-anchor="start" fill="currentColor">
<tspan>ɔ</tspan>
</text>
<path transform="translate(20.8743, 128.4464) scale(0.0040, -0.0040)" d="M218 136c55 0 108 -28 108 -89c0 -71 -55 -121 -102 -149c-35 -21 -75 -34 -116 -34c-55 0 -108 28 -108 89c0 71 55 121 102 149c35 21 75 34 116 34z" fill="currentColor"/>
<text transform="translate(20.8743, 124.8964)" font-family="serif" font-size="1.9600" text-anchor="start" fill="currentColor">
<tspan>I</tspan>
</text>
<rect transform="translate(20.8764, 134.2944)" x="-0.3245" y="-0.1000" width="2.0489" height="0.1000" ry="0.0000" fill="currentColor"/>
<rect transform="translate(20.8764, 132.3797)" x="-0.3245" y="-0.1000" width="2.0489" height="0.1000" ry="0.0000" fill="currentColor"/>
<rect transform="translate(20.5519, 133.9358)" x="0" y="-1.5561" width="0.1000" height="1.8147" ry="0.0000" fill="currentColor"/>
<rect transform="translate(22.5008, 133.9358)" x="0" y="-1.5561" width="0.1000" height="1.8147" ry="0.0000" fill="currentColor"/>
<text transform="translate(20.8764, 133.9358)" font-family="serif" font-size="2.4696" text-anchor="start" fill="currentColor">
<tspan>ɔ</tspan>
</text>
<path transform="translate(8.0270, 139.8558) scale(0.0040, -0.0040)" d="M557 -125c0 28 23 51 51 51s51 -23 51 -51s-23 -51 -51 -51s-51 23 -51 51zM557 125c0 28 23 51 51 51s51 -23 51 -51s-23 -51 -51 -51s-51 23 -51 51zM232 263c172 0 293 -88 293 -251c0 -263 -263 -414 -516 -521c-3 -3 -6 -4 -9 -4c-7 0 -13 6 -13 13c0 3 1 6 4 9
c202 118 412 265 412 493c0 120 -63 235 -171 235c-74 0 -129 -54 -154 -126c11 5 22 8 34 8c55 0 100 -45 100 -100c0 -58 -44 -106 -100 -106c-60 0 -112 47 -112 106c0 133 102 244 232 244z" fill="currentColor"/>
<text transform="translate(28.5989, 146.6785)" font-family="serif" font-size="2.4696" text-anchor="start" fill="currentColor">
<tspan>→</tspan>
</text>
<rect transform="translate(28.9403, 121.7184)" x="-0.3245" y="-0.1000" width="2.0489" height="0.1000" ry="0.0000" fill="currentColor"/>
<rect transform="translate(28.9403, 119.8037)" x="-0.3245" y="-0.1000" width="2.0489" height="0.1000" ry="0.0000" fill="currentColor"/>
<rect transform="translate(28.6158, 121.3597)" x="0" y="-1.5561" width="0.1000" height="1.8147" ry="0.0000" fill="currentColor"/>
<rect transform="translate(30.5647, 121.3597)" x="0" y="-1.5561" width="0.1000" height="1.8147" ry="0.0000" fill="currentColor"/>
<text transform="translate(28.9403, 121.3597)" font-family="serif" font-size="2.4696" text-anchor="start" fill="currentColor">
<tspan>ɔ</tspan>
</text>
<text transform="translate(29.0382, 111.6537)" font-family="serif" font-size="1.9600" text-anchor="start" fill="currentColor">
<tspan>II</tspan>
</text>
<path transform="translate(29.0382, 116.7037) scale(0.0040, -0.0040)" d="M218 136c55 0 108 -28 108 -89c0 -71 -55 -121 -102 -149c-35 -21 -75 -34 -116 -34c-55 0 -108 28 -108 89c0 71 55 121 102 149c35 21 75 34 116 34z" fill="currentColor"/>
<text transform="translate(5.2988, 128.2487)" font-family="serif" font-size="2.2001" text-anchor="start" fill="currentColor">
<tspan>T</tspan>
</text>
<text transform="translate(5.1623, 141.6581)" font-family="serif" font-size="2.2001" text-anchor="start" fill="currentColor">
<tspan>B</tspan>
</text>
<text transform="translate(5.1623, 115.0060)" font-family="serif" font-size="2.2001" text-anchor="start" fill="currentColor">
<tspan>A</tspan>
</text>
<text transform="translate(5.2647, 103.0327)" font-family="serif" font-size="2.2001" text-anchor="start" fill="currentColor">
<tspan>S</tspan>
</text>
<path transform="translate(8.0270, 115.2037) scale(0.0040, -0.0040)" d="M376 262c4 0 9 1 13 1c155 0 256 -128 256 -261c0 -76 -33 -154 -107 -210c-22 -17 -47 -28 -73 -36c3 -35 5 -70 5 -105c0 -19 -1 -39 -2 -58c-7 -120 -90 -228 -208 -228c-108 0 -195 88 -195 197c0 58 53 103 112 103c54 0 95 -47 95 -103c0 -52 -43 -95 -95 -95
c-11 0 -21 2 -31 6c26 -39 68 -65 117 -65c96 0 157 92 163 191c1 18 2 37 2 55c0 31 -1 61 -4 92c-29 -5 -58 -8 -89 -8c-188 0 -333 172 -333 374c0 177 131 306 248 441c-19 62 -37 125 -45 190c-6 52 -7 104 -7 156c0 115 55 224 149 292c3 2 7 3 10 3c4 0 7 0 10 -3
c71 -84 133 -245 133 -358c0 -143 -86 -255 -180 -364c21 -68 39 -138 56 -207zM461 -203c68 24 113 95 113 164c0 90 -66 179 -173 190c24 -116 46 -231 60 -354zM74 28c0 -135 129 -247 264 -247c28 0 55 2 82 6c-14 127 -37 245 -63 364c-79 -8 -124 -61 -124 -119
c0 -44 25 -91 81 -123c5 -5 7 -10 7 -15c0 -11 -10 -22 -22 -22c-3 0 -6 1 -9 2c-80 43 -117 115 -117 185c0 88 58 174 160 197c-14 58 -29 117 -46 175c-107 -121 -213 -243 -213 -403zM408 1045c-99 -48 -162 -149 -162 -259c0 -74 18 -133 36 -194
c80 97 146 198 146 324c0 55 -4 79 -20 129z" fill="currentColor"/>
<path transform="translate(8.0270, 103.2303) scale(0.0040, -0.0040)" d="M376 262c4 0 9 1 13 1c155 0 256 -128 256 -261c0 -76 -33 -154 -107 -210c-22 -17 -47 -28 -73 -36c3 -35 5 -70 5 -105c0 -19 -1 -39 -2 -58c-7 -120 -90 -228 -208 -228c-108 0 -195 88 -195 197c0 58 53 103 112 103c54 0 95 -47 95 -103c0 -52 -43 -95 -95 -95
c-11 0 -21 2 -31 6c26 -39 68 -65 117 -65c96 0 157 92 163 191c1 18 2 37 2 55c0 31 -1 61 -4 92c-29 -5 -58 -8 -89 -8c-188 0 -333 172 -333 374c0 177 131 306 248 441c-19 62 -37 125 -45 190c-6 52 -7 104 -7 156c0 115 55 224 149 292c3 2 7 3 10 3c4 0 7 0 10 -3
c71 -84 133 -245 133 -358c0 -143 -86 -255 -180 -364c21 -68 39 -138 56 -207zM461 -203c68 24 113 95 113 164c0 90 -66 179 -173 190c24 -116 46 -231 60 -354zM74 28c0 -135 129 -247 264 -247c28 0 55 2 82 6c-14 127 -37 245 -63 364c-79 -8 -124 -61 -124 -119
c0 -44 25 -91 81 -123c5 -5 7 -10 7 -15c0 -11 -10 -22 -22 -22c-3 0 -6 1 -9 2c-80 43 -117 115 -117 185c0 88 58 174 160 197c-14 58 -29 117 -46 175c-107 -121 -213 -243 -213 -403zM408 1045c-99 -48 -162 -149 -162 -259c0 -74 18 -133 36 -194
c80 97 146 198 146 324c0 55 -4 79 -20 129z" fill="currentColor"/>
<path transform="translate(8.0270, 128.4464) scale(0.0040, -0.0040)" d="M376 262c4 0 9 1 13 1c155 0 256 -128 256 -261c0 -76 -33 -154 -107 -210c-22 -17 -47 -28 -73 -36c3 -35 5 -70 5 -105c0 -19 -1 -39 -2 -58c-7 -120 -90 -228 -208 -228c-108 0 -195 88 -195 197c0 58 53 103 112 103c54 0 95 -47 95 -103c0 -52 -43 -95 -95 -95
c-11 0 -21 2 -31 6c26 -39 68 -65 117 -65c96 0 157 92 163 191c1 18 2 37 2 55c0 31 -1 61 -4 92c-29 -5 -58 -8 -89 -8c-188 0 -333 172 -333 374c0 177 131 306 248 441c-19 62 -37 125 -45 190c-6 52 -7 104 -7 156c0 115 55 224 149 292c3 2 7 3 10 3c4 0 7 0 10 -3
c71 -84 133 -245 133 -358c0 -143 -86 -255 -180 -364c21 -68 39 -138 56 -207zM461 -203c68 24 113 95 113 164c0 90 -66 179 -173 190c24 -116 46 -231 60 -354zM74 28c0 -135 129 -247 264 -247c28 0 55 2 82 6c-14 127 -37 245 -63 364c-79 -8 -124 -61 -124 -119
c0 -44 25 -91 81 -123c5 -5 7 -10 7 -15c0 -11 -10 -22 -22 -22c-3 0 -6 1 -9 2c-80 43 -117 115 -117 185c0 88 58 174 160 197c-14 58 -29 117 -46 175c-107 -121 -213 -243 -213 -403zM408 1045c-99 -48 -162 -149 -162 -259c0 -74 18 -133 36 -194
c80 97 146 198 146 324c0 55 -4 79 -20 129z" fill="currentColor"/>
<text transform="translate(8.6091, 132.0448)" font-family="serif" font-style="italic" font-size="1.3860" text-anchor="start" fill="currentColor">
<tspan>8</tspan>
</text>
<rect transform="translate(7.1670, 121.5430)" x="0.0000" y="-21.3627" width="0.1600" height="42.7255" ry="0.0500" fill="currentColor"/>
<text transform="translate(53.0906, 108.0530)" font-family="serif" font-size="2.4696" text-anchor="start" fill="currentColor">
<tspan>→</tspan>
</text>
<path transform="translate(53.5299, 128.9464) scale(0.0040, -0.0040)" d="M218 136c55 0 108 -28 108 -89c0 -71 -55 -121 -102 -149c-35 -21 -75 -34 -116 -34c-55 0 -108 28 -108 89c0 71 55 121 102 149c35 21 75 34 116 34z" fill="currentColor"/>
<text transform="translate(53.5299, 124.8964)" font-family="serif" font-size="1.9600" text-anchor="start" fill="currentColor">
<tspan>II</tspan>
</text>
<rect transform="translate(53.3979, 134.2944)" x="-0.3245" y="-0.1000" width="2.1171" height="0.1000" ry="0.0000" fill="currentColor"/>
<rect transform="translate(53.3979, 132.3797)" x="-0.3245" y="-0.1000" width="2.1171" height="0.1000" ry="0.0000" fill="currentColor"/>
<rect transform="translate(53.0734, 133.9358)" x="0" y="-1.5561" width="0.1000" height="1.8147" ry="0.0000" fill="currentColor"/>
<rect transform="translate(55.0906, 133.9358)" x="0" y="-1.5561" width="0.1000" height="1.8147" ry="0.0000" fill="currentColor"/>
<text transform="translate(53.3979, 133.9358)" font-family="serif" font-size="2.4696" text-anchor="start" fill="currentColor">
<tspan>a</tspan>
</text>
<path transform="translate(61.6938, 116.2037) scale(0.0040, -0.0040)" d="M218 136c55 0 108 -28 108 -89c0 -71 -55 -121 -102 -149c-35 -21 -75 -34 -116 -34c-55 0 -108 28 -108 89c0 71 55 121 102 149c35 21 75 34 116 34z" fill="currentColor"/>
<text transform="translate(61.6938, 111.6537)" font-family="serif" font-size="1.9600" text-anchor="start" fill="currentColor">
<tspan>I</tspan>
</text>
<rect transform="translate(61.6618, 121.7184)" x="-0.3245" y="-0.1000" width="2.1171" height="0.1000" ry="0.0000" fill="currentColor"/>
<rect transform="translate(61.6618, 119.8037)" x="-0.3245" y="-0.1000" width="2.1171" height="0.1000" ry="0.0000" fill="currentColor"/>
<rect transform="translate(61.3373, 121.3597)" x="0" y="-1.5561" width="0.1000" height="1.8147" ry="0.0000" fill="currentColor"/>
<rect transform="translate(63.3545, 121.3597)" x="0" y="-1.5561" width="0.1000" height="1.8147" ry="0.0000" fill="currentColor"/>
<text transform="translate(61.6618, 121.3597)" font-family="serif" font-size="2.4696" text-anchor="start" fill="currentColor">
<tspan>a</tspan>
</text>
<text transform="translate(61.3545, 146.6785)" font-family="serif" font-size="2.4696" text-anchor="start" fill="currentColor">
<tspan>→</tspan>
</text>
<path transform="translate(44.2160, 140.8558) scale(0.0040, -0.0040)" d="M27 41l-1 -66v-11c0 -22 1 -44 4 -66c45 38 93 80 93 139c0 33 -14 67 -43 67c-31 0 -52 -30 -53 -63zM-15 -138l-12 595c8 5 18 8 27 8s19 -3 27 -8l-7 -345c25 21 58 34 91 34c52 0 89 -48 89 -102c0 -80 -86 -117 -147 -169c-15 -13 -24 -38 -45 -38
c-13 0 -23 11 -23 25z" fill="currentColor"/>
<rect transform="translate(45.3340, 147.0371)" x="-0.3245" y="-0.1000" width="2.1171" height="0.1000" ry="0.0000" fill="currentColor"/>
<rect transform="translate(45.3340, 145.1224)" x="-0.3245" y="-0.1000" width="2.1171" height="0.1000" ry="0.0000" fill="currentColor"/>
<rect transform="translate(45.0095, 146.6785)" x="0" y="-1.5561" width="0.1000" height="1.8147" ry="0.0000" fill="currentColor"/>
<rect transform="translate(47.0267, 146.6785)" x="0" y="-1.5561" width="0.1000" height="1.8147" ry="0.0000" fill="currentColor"/>
<text transform="translate(45.3340, 146.6785)" font-family="serif" font-size="2.4696" text-anchor="start" fill="currentColor">
<tspan>a</tspan>
</text>
<text transform="translate(45.3660, 138.3058)" font-family="serif" font-size="1.9600" text-anchor="start" fill="currentColor">
<tspan>I</tspan>
</text>
<text transform="translate(45.0267, 121.3597)" font-family="serif" font-size="2.4696" text-anchor="start" fill="currentColor">
<tspan>→</tspan>
</text>
<text transform="translate(36.7628, 133.9358)" font-family="serif" font-size="2.4696" text-anchor="start" fill="currentColor">
<tspan>→</tspan>
</text>
<rect transform="translate(37.1042, 108.4117)" x="-0.3245" y="-0.1000" width="2.0489" height="0.1000" ry="0.0000" fill="currentColor"/>
<rect transform="translate(37.1042, 106.4970)" x="-0.3245" y="-0.1000" width="2.0489" height="0.1000" ry="0.0000" fill="currentColor"/>
<rect transform="translate(36.7797, 108.0530)" x="0" y="-1.5561" width="0.1000" height="1.8147" ry="0.0000" fill="currentColor"/>
<rect transform="translate(38.7286, 108.0530)" x="0" y="-1.5561" width="0.1000" height="1.8147" ry="0.0000" fill="currentColor"/>
<text transform="translate(37.1042, 108.0530)" font-family="serif" font-size="2.4696" text-anchor="start" fill="currentColor">
<tspan>ɔ</tspan>
</text>
<text transform="translate(37.2021, 99.6803)" font-family="serif" font-size="1.9600" text-anchor="start" fill="currentColor">
<tspan>II</tspan>
</text>
<path transform="translate(37.2021, 102.7303) scale(0.0040, -0.0040)" d="M218 136c55 0 108 -28 108 -89c0 -71 -55 -121 -102 -149c-35 -21 -75 -34 -116 -34c-55 0 -108 28 -108 89c0 71 55 121 102 149c35 21 75 34 116 34z" fill="currentColor"/>
<path transform="translate(45.3660, 140.8558) scale(0.0040, -0.0040)" d="M218 136c55 0 108 -28 108 -89c0 -71 -55 -121 -102 -149c-35 -21 -75 -34 -116 -34c-55 0 -108 28 -108 89c0 71 55 121 102 149c35 21 75 34 116 34z" fill="currentColor"/>
<polygon transform="translate(6.2270, 81.8171)" stroke-linejoin="round" stroke-linecap="round" stroke-width="0.0800" fill="currentColor" stroke="currentColor" points="0 0.2400 2.0000 -0.7600 2.0000 -1.2400 0 -0.2400"/>
<polygon transform="translate(6.2270, 81.1171)" stroke-linejoin="round" stroke-linecap="round" stroke-width="0.0800" fill="currentColor" stroke="currentColor" points="0 0.2400 2.0000 -0.7600 2.0000 -1.2400 0 -0.2400"/>
</svg>
