<svg xmlns="http://www.w3.org/2000/svg" xmlns:xlink="http://www.w3.org/1999/xlink" version="1.2" width="215.90mm" height="279.40mm" viewBox="0 0 122.8590 158.9940">
<style text="style/css">
<![CDATA[
tspan { white-space: pre; }
]]>
</style>
<!-- Page: 6/19 -->
<text transform="translate(7.2270, 8.8659)" font-family="serif" font-size="2.2001" text-anchor="start" fill="currentColor">
<tspan>6</tspan>
</text>
<text transform="translate(115.6320, 8.8659)" font-family="serif" font-size="2.2001" text-anchor="start" fill="currentColor">
<tspan/>
</text>
<line transform="translate(115.6320, 130.3547)" stroke-linejoin="round" stroke-linecap="round" stroke-width="0.1000" stroke="currentColor" x1="108.4550" y1="-0.0000" x2="108.3550" y2="-0.0000"/>
<line transform="translate(115.6320, 129.3547)" stroke-linejoin="round" stroke-linecap="round" stroke-width="0.1000" stroke="currentColor" x1="108.4550" y1="-0.0000" x2="108.3550" y2="-0.0000"/>
<line transform="translate(115.6320, 128.3547)" stroke-linejoin="round" stroke-linecap="round" stroke-width="0.1000" stroke="currentColor" x1="108.4550" y1="-0.0000" x2="108.3550" y2="-0.0000"/>
<line transform="translate(115.6320, 127.3547)" stroke-linejoin="round" stroke-linecap="round" stroke-width="0.1000" stroke="currentColor" x1="108.4550" y1="-0.0000" x2="108.3550" y2="-0.0000"/>
<line transform="translate(115.6320, 126.3547)" stroke-linejoin="round" stroke-linecap="round" stroke-width="0.1000" stroke="currentColor" x1="108.4550" y1="-0.0000" x2="108.3550" y2="-0.0000"/>
<line transform="translate(115.6320, 112.8840)" stroke-linejoin="round" stroke-linecap="round" stroke-width="0.1000" stroke="currentColor" x1="108.4550" y1="-0.0000" x2="108.3550" y2="-0.0000"/>
<line transform="translate(115.6320, 111.8840)" stroke-linejoin="round" stroke-linecap="round" stroke-width="0.1000" stroke="currentColor" x1="108.4550" y1="-0.0000" x2="108.3550" y2="-0.0000"/>
<line transform="translate(115.6320, 110.8840)" stroke-linejoin="round" stroke-linecap="round" stroke-width="0.1000" stroke="currentColor" x1="108.4550" y1="-0.0000" x2="108.3550" y2="-0.0000"/>
<line transform="translate(115.6320, 109.8840)" stroke-linejoin="round" stroke-linecap="round" stroke-width="0.1000" stroke="currentColor" x1="108.4550" y1="-0.0000" x2="108.3550" y2="-0.0000"/>
<line transform="translate(115.6320, 108.8840)" stroke-linejoin="round" stroke-linecap="round" stroke-width="0.1000" stroke="currentColor" x1="108.4550" y1="-0.0000" x2="108.3550" y2="-0.0000"/>
<line transform="translate(115.6320, 95.4132)" stroke-linejoin="round" stroke-linecap="round" stroke-width="0.1000" stroke="currentColor" x1="108.4550" y1="-0.0000" x2="108.3550" y2="-0.0000"/>
<line transform="translate(115.6320, 94.4132)" stroke-linejoin="round" stroke-linecap="round" stroke-width="0.1000" stroke="currentColor" x1="108.4550" y1="-0.0000" x2="108.3550" y2="-0.0000"/>
<line transform="translate(115.6320, 93.4132)" stroke-linejoin="round" stroke-linecap="round" stroke-width="0.1000" stroke="currentColor" x1="108.4550" y1="-0.0000" x2="108.3550" y2="-0.0000"/>
<line transform="translate(115.6320, 92.4132)" stroke-linejoin="round" stroke-linecap="round" stroke-width="0.1000" stroke="currentColor" x1="108.4550" y1="-0.0000" x2="108.3550" y2="-0.0000"/>
<line transform="translate(115.6320, 91.4132)" stroke-linejoin="round" stroke-linecap="round" stroke-width="0.1000" stroke="currentColor" x1="108.4550" y1="-0.0000" x2="108.3550" y2="-0.0000"/>
<line transform="translate(115.6320, 77.9425)" stroke-linejoin="round" stroke-linecap="round" stroke-width="0.1000" stroke="currentColor" x1="108.4550" y1="-0.0000" x2="108.3550" y2="-0.0000"/>
<line transform="translate(115.6320, 76.9425)" stroke-linejoin="round" stroke-linecap="round" stroke-width="0.1000" stroke="currentColor" x1="108.4550" y1="-0.0000" x2="108.3550" y2="-0.0000"/>
<line transform="translate(115.6320, 75.9425)" stroke-linejoin="round" stroke-linecap="round" stroke-width="0.1000" stroke="currentColor" x1="108.4550" y1="-0.0000" x2="108.3550" y2="-0.0000"/>
<line transform="translate(115.6320, 74.9425)" stroke-linejoin="round" stroke-linecap="round" stroke-width="0.1000" stroke="currentColor" x1="108.4550" y1="-0.0000" x2="108.3550" y2="-0.0000"/>
<line transform="translate(115.6320, 73.9425)" stroke-linejoin="round" stroke-linecap="round" stroke-width="0.1000" stroke="currentColor" x1="108.4550" y1="-0.0000" x2="108.3550" y2="-0.0000"/>
<line transform="translate(115.6320, 60.4717)" stroke-linejoin="round" stroke-linecap="round" stroke-width="0.1000" stroke="currentColor" x1="108.4550" y1="-0.0000" x2="108.3550" y2="-0.0000"/>
<line transform="translate(115.6320, 59.4717)" stroke-linejoin="round" stroke-linecap="round" stroke-width="0.1000" stroke="currentColor" x1="108.4550" y1="-0.0000" x2="108.3550" y2="-0.0000"/>
<line transform="translate(115.6320, 58.4717)" stroke-linejoin="round" stroke-linecap="round" stroke-width="0.1000" stroke="currentColor" x1="108.4550" y1="-0.0000" x2="108.3550" y2="-0.0000"/>
<line transform="translate(115.6320, 57.4717)" stroke-linejoin="round" stroke-linecap="round" stroke-width="0.1000" stroke="currentColor" x1="108.4550" y1="-0.0000" x2="108.3550" y2="-0.0000"/>
<line transform="translate(115.6320, 56.4717)" stroke-linejoin="round" stroke-linecap="round" stroke-width="0.1000" stroke="currentColor" x1="108.4550" y1="-0.0000" x2="108.3550" y2="-0.0000"/>
<line transform="translate(28.9028, 23.3302)" stroke-linejoin="round" stroke-linecap="round" stroke-width="0.1000" stroke="currentColor" x1="0.0500" y1="-0.0000" x2="49.8066" y2="-0.0000"/>
<line transform="translate(28.9028, 23.4302)" stroke-linejoin="round" stroke-linecap="round" stroke-width="0.1000" stroke="currentColor" x1="0.0500" y1="-0.0000" x2="49.8066" y2="-0.0000"/>
<line transform="translate(28.9028, 23.5302)" stroke-linejoin="round" stroke-linecap="round" stroke-width="0.1000" stroke="currentColor" x1="0.0500" y1="-0.0000" x2="49.8066" y2="-0.0000"/>
<line transform="translate(28.9028, 23.6302)" stroke-linejoin="round" stroke-linecap="round" stroke-width="0.1000" stroke="currentColor" x1="0.0500" y1="-0.0000" x2="49.8066" y2="-0.0000"/>
<line transform="translate(28.9028, 23.7302)" stroke-linejoin="round" stroke-linecap="round" stroke-width="0.1000" stroke="currentColor" x1="0.0500" y1="-0.0000" x2="49.8066" y2="-0.0000"/>
<line transform="translate(7.2270, 58.2717)" stroke-linejoin="round" stroke-linecap="round" stroke-width="0.1000" stroke="currentColor" x1="0.0500" y1="-0.0000" x2="108.3550" y2="-0.0000"/>
<line transform="translate(7.2270, 58.3717)" stroke-linejoin="round" stroke-linecap="round" stroke-width="0.1000" stroke="currentColor" x1="0.0500" y1="-0.0000" x2="108.3550" y2="-0.0000"/>
<line transform="translate(7.2270, 58.4717)" stroke-linejoin="round" stroke-linecap="round" stroke-width="0.1000" stroke="currentColor" x1="0.0500" y1="-0.0000" x2="108.3550" y2="-0.0000"/>
<line transform="translate(7.2270, 58.5717)" stroke-linejoin="round" stroke-linecap="round" stroke-width="0.1000" stroke="currentColor" x1="0.0500" y1="-0.0000" x2="108.3550" y2="-0.0000"/>
<line transform="translate(7.2270, 58.6717)" stroke-linejoin="round" stroke-linecap="round" stroke-width="0.1000" stroke="currentColor" x1="0.0500" y1="-0.0000" x2="108.3550" y2="-0.0000"/>
<line transform="translate(7.2270, 110.6840)" stroke-linejoin="round" stroke-linecap="round" stroke-width="0.1000" stroke="currentColor" x1="0.0500" y1="-0.0000" x2="108.3550" y2="-0.0000"/>
<line transform="translate(7.2270, 110.7840)" stroke-linejoin="round" stroke-linecap="round" stroke-width="0.1000" stroke="currentColor" x1="0.0500" y1="-0.0000" x2="108.3550" y2="-0.0000"/>
<line transform="translate(7.2270, 110.8840)" stroke-linejoin="round" stroke-linecap="round" stroke-width="0.1000" stroke="currentColor" x1="0.0500" y1="-0.0000" x2="108.3550" y2="-0.0000"/>
<line transform="translate(7.2270, 110.9840)" stroke-linejoin="round" stroke-linecap="round" stroke-width="0.1000" stroke="currentColor" x1="0.0500" y1="-0.0000" x2="108.3550" y2="-0.0000"/>
<line transform="translate(7.2270, 111.0840)" stroke-linejoin="round" stroke-linecap="round" stroke-width="0.1000" stroke="currentColor" x1="0.0500" y1="-0.0000" x2="108.3550" y2="-0.0000"/>
<line transform="translate(7.2270, 128.1547)" stroke-linejoin="round" stroke-linecap="round" stroke-width="0.1000" stroke="currentColor" x1="0.0500" y1="-0.0000" x2="108.3550" y2="-0.0000"/>
<line transform="translate(7.2270, 128.2547)" stroke-linejoin="round" stroke-linecap="round" stroke-width="0.1000" stroke="currentColor" x1="0.0500" y1="-0.0000" x2="108.3550" y2="-0.0000"/>
<line transform="translate(7.2270, 128.3547)" stroke-linejoin="round" stroke-linecap="round" stroke-width="0.1000" stroke="currentColor" x1="0.0500" y1="-0.0000" x2="108.3550" y2="-0.0000"/>
<line transform="translate(7.2270, 128.4547)" stroke-linejoin="round" stroke-linecap="round" stroke-width="0.1000" stroke="currentColor" x1="0.0500" y1="-0.0000" x2="108.3550" y2="-0.0000"/>
<line transform="translate(7.2270, 128.5547)" stroke-linejoin="round" stroke-linecap="round" stroke-width="0.1000" stroke="currentColor" x1="0.0500" y1="-0.0000" x2="108.3550" y2="-0.0000"/>
<line transform="translate(7.2270, 93.2132)" stroke-linejoin="round" stroke-linecap="round" stroke-width="0.1000" stroke="currentColor" x1="0.0500" y1="-0.0000" x2="108.3550" y2="-0.0000"/>
<line transform="translate(7.2270, 93.3132)" stroke-linejoin="round" stroke-linecap="round" stroke-width="0.1000" stroke="currentColor" x1="0.0500" y1="-0.0000" x2="108.3550" y2="-0.0000"/>
<line transform="translate(7.2270, 93.4132)" stroke-linejoin="round" stroke-linecap="round" stroke-width="0.1000" stroke="currentColor" x1="0.0500" y1="-0.0000" x2="108.3550" y2="-0.0000"/>
<line transform="translate(7.2270, 93.5132)" stroke-linejoin="round" stroke-linecap="round" stroke-width="0.1000" stroke="currentColor" x1="0.0500" y1="-0.0000" x2="108.3550" y2="-0.0000"/>
<line transform="translate(7.2270, 93.6132)" stroke-linejoin="round" stroke-linecap="round" stroke-width="0.1000" stroke="currentColor" x1="0.0500" y1="-0.0000" x2="108.3550" y2="-0.0000"/>
<line transform="translate(7.2270, 40.8009)" stroke-linejoin="round" stroke-linecap="round" stroke-width="0.1000" stroke="currentColor" x1="0.0500" y1="-0.0000" x2="108.3550" y2="-0.0000"/>
<line transform="translate(7.2270, 40.9009)" stroke-linejoin="round" stroke-linecap="round" stroke-width="0.1000" stroke="currentColor" x1="0.0500" y1="-0.0000" x2="108.3550" y2="-0.0000"/>
<line transform="translate(7.2270, 41.0009)" stroke-linejoin="round" stroke-linecap="round" stroke-width="0.1000" stroke="currentColor" x1="0.0500" y1="-0.0000" x2="108.3550" y2="-0.0000"/>
<line transform="translate(7.2270, 41.1009)" stroke-linejoin="round" stroke-linecap="round" stroke-width="0.1000" stroke="currentColor" x1="0.0500" y1="-0.0000" x2="108.3550" y2="-0.0000"/>
<line transform="translate(7.2270, 41.2009)" stroke-linejoin="round" stroke-linecap="round" stroke-width="0.1000" stroke="currentColor" x1="0.0500" y1="-0.0000" x2="108.3550" y2="-0.0000"/>
<line transform="translate(7.2270, 145.6255)" stroke-linejoin="round" stroke-linecap="round" stroke-width="0.1000" stroke="currentColor" x1="0.0500" y1="-0.0000" x2="71.4823" y2="-0.0000"/>
<line transform="translate(7.2270, 145.7255)" stroke-linejoin="round" stroke-linecap="round" stroke-width="0.1000" stroke="currentColor" x1="0.0500" y1="-0.0000" x2="71.4823" y2="-0.0000"/>
<line transform="translate(7.2270, 145.8255)" stroke-linejoin="round" stroke-linecap="round" stroke-width="0.1000" stroke="currentColor" x1="0.0500" y1="-0.0000" x2="71.4823" y2="-0.0000"/>
<line transform="translate(7.2270, 145.9255)" stroke-linejoin="round" stroke-linecap="round" stroke-width="0.1000" stroke="currentColor" x1="0.0500" y1="-0.0000" x2="71.4823" y2="-0.0000"/>
<line transform="translate(7.2270, 146.0255)" stroke-linejoin="round" stroke-linecap="round" stroke-width="0.1000" stroke="currentColor" x1="0.0500" y1="-0.0000" x2="71.4823" y2="-0.0000"/>
<line transform="translate(7.2270, 23.3302)" stroke-linejoin="round" stroke-linecap="round" stroke-width="0.1000" stroke="currentColor" x1="0.0500" y1="-0.0000" x2="21.6258" y2="-0.0000"/>
<line transform="translate(7.2270, 23.4302)" stroke-linejoin="round" stroke-linecap="round" stroke-width="0.1000" stroke="currentColor" x1="0.0500" y1="-0.0000" x2="21.6258" y2="-0.0000"/>
<line transform="translate(7.2270, 23.5302)" stroke-linejoin="round" stroke-linecap="round" stroke-width="0.1000" stroke="currentColor" x1="0.0500" y1="-0.0000" x2="21.6258" y2="-0.0000"/>
<line transform="translate(7.2270, 23.6302)" stroke-linejoin="round" stroke-linecap="round" stroke-width="0.1000" stroke="currentColor" x1="0.0500" y1="-0.0000" x2="21.6258" y2="-0.0000"/>
<line transform="translate(7.2270, 23.7302)" stroke-linejoin="round" stroke-linecap="round" stroke-width="0.1000" stroke="currentColor" x1="0.0500" y1="-0.0000" x2="21.6258" y2="-0.0000"/>
<line transform="translate(7.2270, 75.7425)" stroke-linejoin="round" stroke-linecap="round" stroke-width="0.1000" stroke="currentColor" x1="0.0500" y1="-0.0000" x2="108.3550" y2="-0.0000"/>
<line transform="translate(7.2270, 75.8425)" stroke-linejoin="round" stroke-linecap="round" stroke-width="0.1000" stroke="currentColor" x1="0.0500" y1="-0.0000" x2="108.3550" y2="-0.0000"/>
<line transform="translate(7.2270, 75.9425)" stroke-linejoin="round" stroke-linecap="round" stroke-width="0.1000" stroke="currentColor" x1="0.0500" y1="-0.0000" x2="108.3550" y2="-0.0000"/>
<line transform="translate(7.2270, 76.0425)" stroke-linejoin="round" stroke-linecap="round" stroke-width="0.1000" stroke="currentColor" x1="0.0500" y1="-0.0000" x2="108.3550" y2="-0.0000"/>
<line transform="translate(7.2270, 76.1425)" stroke-linejoin="round" stroke-linecap="round" stroke-width="0.1000" stroke="currentColor" x1="0.0500" y1="-0.0000" x2="108.3550" y2="-0.0000"/>
<line transform="translate(115.6320, 43.0009)" stroke-linejoin="round" stroke-linecap="round" stroke-width="0.1000" stroke="currentColor" x1="108.4550" y1="-0.0000" x2="108.3550" y2="-0.0000"/>
<line transform="translate(115.6320, 42.0009)" stroke-linejoin="round" stroke-linecap="round" stroke-width="0.1000" stroke="currentColor" x1="108.4550" y1="-0.0000" x2="108.3550" y2="-0.0000"/>
<line transform="translate(115.6320, 41.0009)" stroke-linejoin="round" stroke-linecap="round" stroke-width="0.1000" stroke="currentColor" x1="108.4550" y1="-0.0000" x2="108.3550" y2="-0.0000"/>
<line transform="translate(115.6320, 40.0009)" stroke-linejoin="round" stroke-linecap="round" stroke-width="0.1000" stroke="currentColor" x1="108.4550" y1="-0.0000" x2="108.3550" y2="-0.0000"/>
<line transform="translate(115.6320, 39.0009)" stroke-linejoin="round" stroke-linecap="round" stroke-width="0.1000" stroke="currentColor" x1="108.4550" y1="-0.0000" x2="108.3550" y2="-0.0000"/>
<line transform="translate(76.0760, 147.8255)" stroke-linejoin="round" stroke-linecap="round" stroke-width="0.1000" stroke="currentColor" x1="0.0500" y1="-0.0000" x2="39.5060" y2="-0.0000"/>
<line transform="translate(76.0760, 146.8255)" stroke-linejoin="round" stroke-linecap="round" stroke-width="0.1000" stroke="currentColor" x1="0.0500" y1="-0.0000" x2="39.5060" y2="-0.0000"/>
<line transform="translate(76.0760, 145.8255)" stroke-linejoin="round" stroke-linecap="round" stroke-width="0.1000" stroke="currentColor" x1="0.0500" y1="-0.0000" x2="39.5060" y2="-0.0000"/>
<line transform="translate(76.0760, 144.8255)" stroke-linejoin="round" stroke-linecap="round" stroke-width="0.1000" stroke="currentColor" x1="0.0500" y1="-0.0000" x2="39.5060" y2="-0.0000"/>
<line transform="translate(76.0760, 143.8255)" stroke-linejoin="round" stroke-linecap="round" stroke-width="0.1000" stroke="currentColor" x1="0.0500" y1="-0.0000" x2="39.5060" y2="-0.0000"/>
<line transform="translate(76.0760, 25.5302)" stroke-linejoin="round" stroke-linecap="round" stroke-width="0.1000" stroke="currentColor" x1="0.0500" y1="-0.0000" x2="39.5060" y2="-0.0000"/>
<line transform="translate(76.0760, 24.5302)" stroke-linejoin="round" stroke-linecap="round" stroke-width="0.1000" stroke="currentColor" x1="0.0500" y1="-0.0000" x2="39.5060" y2="-0.0000"/>
<line transform="translate(76.0760, 23.5302)" stroke-linejoin="round" stroke-linecap="round" stroke-width="0.1000" stroke="currentColor" x1="0.0500" y1="-0.0000" x2="39.5060" y2="-0.0000"/>
<line transform="translate(76.0760, 22.5302)" stroke-linejoin="round" stroke-linecap="round" stroke-width="0.1000" stroke="currentColor" x1="0.0500" y1="-0.0000" x2="39.5060" y2="-0.0000"/>
<line transform="translate(76.0760, 21.5302)" stroke-linejoin="round" stroke-linecap="round" stroke-width="0.1000" stroke="currentColor" x1="0.0500" y1="-0.0000" x2="39.5060" y2="-0.0000"/>
<path transform="translate(79.6100, 145.3255) scale(0.0040, -0.0040)" d="M213 112c-50 0 -69 -43 -69 -88c0 -77 57 -136 134 -136c50 0 69 43 69 88c0 77 -57 136 -134 136zM491 0c0 -43 -34 -75 -72 -96c-53 -29 -114 -40 -174 -40s-120 11 -173 40c-38 21 -72 53 -72 96s34 75 72 96c53 29 113 40 173 40s121 -11 174 -40
c38 -21 72 -53 72 -96z" fill="currentColor"/>
<rect transform="translate(79.9594, 135.5108)" x="-0.3245" y="-0.1000" width="1.9123" height="0.1000" ry="0.0000" fill="currentColor"/>
<rect transform="translate(79.9594, 133.5961)" x="-0.3245" y="-0.1000" width="1.9123" height="0.1000" ry="0.0000" fill="currentColor"/>
<rect transform="translate(79.6349, 135.1522)" x="0" y="-1.5561" width="0.1000" height="1.8147" ry="0.0000" fill="currentColor"/>
<rect transform="translate(81.4472, 135.1522)" x="0" y="-1.5561" width="0.1000" height="1.8147" ry="0.0000" fill="currentColor"/>
<text transform="translate(79.9594, 135.1522)" font-family="serif" font-size="2.4696" text-anchor="start" fill="currentColor">
<tspan>s</tspan>
</text>
<path transform="translate(79.8569, 140.9850) scale(0.0040, -0.0040)" d="M233 243c-56 0 -102 -107 -102 -173c0 -22 8 -38 30 -38c64 0 97 126 97 178c0 18 -7 33 -25 33zM112 -146c-38 0 -78 5 -116 5c-39 0 -78 -5 -115 -5c-9 0 -14 7 -14 14c0 18 31 15 48 16c22 1 47 5 54 25l102 300c2 7 4 14 4 20c0 8 -2 14 -11 14
c-33 0 -63 -60 -79 -97c-5 -12 -15 -17 -24 -17c-8 0 -14 4 -14 12c0 2 1 5 2 8c30 68 72 143 132 143c35 0 59 -21 66 -52c29 31 67 52 103 52c69 0 107 -49 107 -114c0 -21 -4 -44 -12 -67c-20 -58 -91 -119 -147 -119c-27 0 -52 5 -73 17c-4 2 -7 3 -11 3
c-7 0 -14 -3 -16 -9l-29 -86c-1 -2 -1 -5 -1 -7c0 -20 21 -26 44 -28c9 -1 13 -8 13 -14c0 -7 -4 -14 -13 -14z" fill="currentColor"/>
<path transform="translate(80.5910, 143.5255) scale(0.0040, -0.0040)" d="M-67 67c0 37 30 66 67 66s67 -29 67 -66s-30 -67 -67 -67s-67 30 -67 67zM-302 375h605c6 0 10 -4 10 -10v-346c0 -10 -9 -19 -19 -19s-19 9 -19 19v256h-550v-256c0 -10 -9 -19 -19 -19s-18 9 -18 19v346c0 6 4 10 10 10z" fill="currentColor"/>
<path transform="translate(80.5910, 21.2302) scale(0.0040, -0.0040)" d="M-67 67c0 37 30 66 67 66s67 -29 67 -66s-30 -67 -67 -67s-67 30 -67 67zM-302 375h605c6 0 10 -4 10 -10v-346c0 -10 -9 -19 -19 -19s-19 9 -19 19v256h-550v-256c0 -10 -9 -19 -19 -19s-18 9 -18 19v346c0 6 4 10 10 10z" fill="currentColor"/>
<g transform="translate(79.1229, 126.9243)" >
<path transform="scale(0.0040, -0.0040)" d="M233 243c-56 0 -102 -107 -102 -173c0 -22 8 -38 30 -38c64 0 97 126 97 178c0 18 -7 33 -25 33zM112 -146c-38 0 -78 5 -116 5c-39 0 -78 -5 -115 -5c-9 0 -14 7 -14 14c0 18 31 15 48 16c22 1 47 5 54 25l102 300c2 7 4 14 4 20c0 8 -2 14 -11 14
c-33 0 -63 -60 -79 -97c-5 -12 -15 -17 -24 -17c-8 0 -14 4 -14 12c0 2 1 5 2 8c30 68 72 143 132 143c35 0 59 -21 66 -52c29 31 67 52 103 52c69 0 107 -49 107 -114c0 -21 -4 -44 -12 -67c-20 -58 -91 -119 -147 -119c-27 0 -52 5 -73 17c-4 2 -7 3 -11 3
c-7 0 -14 -3 -16 -9l-29 -86c-1 -2 -1 -5 -1 -7c0 -20 21 -26 44 -28c9 -1 13 -8 13 -14c0 -7 -4 -14 -13 -14z" fill="currentColor"/>

<path transform="translate(1.4682, 0.0000) scale(0.0040, -0.0040)" d="M233 243c-56 0 -102 -107 -102 -173c0 -22 8 -38 30 -38c64 0 97 126 97 178c0 18 -7 33 -25 33zM112 -146c-38 0 -78 5 -116 5c-39 0 -78 -5 -115 -5c-9 0 -14 7 -14 14c0 18 31 15 48 16c22 1 47 5 54 25l102 300c2 7 4 14 4 20c0 8 -2 14 -11 14
c-33 0 -63 -60 -79 -97c-5 -12 -15 -17 -24 -17c-8 0 -14 4 -14 12c0 2 1 5 2 8c30 68 72 143 132 143c35 0 59 -21 66 -52c29 31 67 52 103 52c69 0 107 -49 107 -114c0 -21 -4 -44 -12 -67c-20 -58 -91 -119 -147 -119c-27 0 -52 5 -73 17c-4 2 -7 3 -11 3
c-7 0 -14 -3 -16 -9l-29 -86c-1 -2 -1 -5 -1 -7c0 -20 21 -26 44 -28c9 -1 13 -8 13 -14c0 -7 -4 -14 -13 -14z" fill="currentColor"/>
</g>
<rect transform="translate(79.9594, 118.0400)" x="-0.3245" y="-0.1000" width="1.9123" height="0.1000" ry="0.0000" fill="currentColor"/>
<rect transform="translate(79.9594, 116.1253)" x="-0.3245" y="-0.1000" width="1.9123" height="0.1000" ry="0.0000" fill="currentColor"/>
<rect transform="translate(79.6349, 117.6814)" x="0" y="-1.5561" width="0.1000" height="1.8147" ry="0.0000" fill="currentColor"/>
<rect transform="translate(81.4472, 117.6814)" x="0" y="-1.5561" width="0.1000" height="1.8147" ry="0.0000" fill="currentColor"/>
<text transform="translate(79.9594, 117.6814)" font-family="serif" font-size="2.4696" text-anchor="start" fill="currentColor">
<tspan>s</tspan>
</text>
<g transform="translate(79.1229, 109.4535)" >
<path transform="scale(0.0040, -0.0040)" d="M233 243c-56 0 -102 -107 -102 -173c0 -22 8 -38 30 -38c64 0 97 126 97 178c0 18 -7 33 -25 33zM112 -146c-38 0 -78 5 -116 5c-39 0 -78 -5 -115 -5c-9 0 -14 7 -14 14c0 18 31 15 48 16c22 1 47 5 54 25l102 300c2 7 4 14 4 20c0 8 -2 14 -11 14
c-33 0 -63 -60 -79 -97c-5 -12 -15 -17 -24 -17c-8 0 -14 4 -14 12c0 2 1 5 2 8c30 68 72 143 132 143c35 0 59 -21 66 -52c29 31 67 52 103 52c69 0 107 -49 107 -114c0 -21 -4 -44 -12 -67c-20 -58 -91 -119 -147 -119c-27 0 -52 5 -73 17c-4 2 -7 3 -11 3
c-7 0 -14 -3 -16 -9l-29 -86c-1 -2 -1 -5 -1 -7c0 -20 21 -26 44 -28c9 -1 13 -8 13 -14c0 -7 -4 -14 -13 -14z" fill="currentColor"/>

<path transform="translate(1.4682, 0.0000) scale(0.0040, -0.0040)" d="M233 243c-56 0 -102 -107 -102 -173c0 -22 8 -38 30 -38c64 0 97 126 97 178c0 18 -7 33 -25 33zM112 -146c-38 0 -78 5 -116 5c-39 0 -78 -5 -115 -5c-9 0 -14 7 -14 14c0 18 31 15 48 16c22 1 47 5 54 25l102 300c2 7 4 14 4 20c0 8 -2 14 -11 14
c-33 0 -63 -60 -79 -97c-5 -12 -15 -17 -24 -17c-8 0 -14 4 -14 12c0 2 1 5 2 8c30 68 72 143 132 143c35 0 59 -21 66 -52c29 31 67 52 103 52c69 0 107 -49 107 -114c0 -21 -4 -44 -12 -67c-20 -58 -91 -119 -147 -119c-27 0 -52 5 -73 17c-4 2 -7 3 -11 3
c-7 0 -14 -3 -16 -9l-29 -86c-1 -2 -1 -5 -1 -7c0 -20 21 -26 44 -28c9 -1 13 -8 13 -14c0 -7 -4 -14 -13 -14z" fill="currentColor"/>
</g>
<rect transform="translate(79.9594, 100.5693)" x="-0.3245" y="-0.1000" width="1.9123" height="0.1000" ry="0.0000" fill="currentColor"/>
<rect transform="translate(79.9594, 98.6546)" x="-0.3245" y="-0.1000" width="1.9123" height="0.1000" ry="0.0000" fill="currentColor"/>
<rect transform="translate(79.6349, 100.2107)" x="0" y="-1.5561" width="0.1000" height="1.8147" ry="0.0000" fill="currentColor"/>
<rect transform="translate(81.4472, 100.2107)" x="0" y="-1.5561" width="0.1000" height="1.8147" ry="0.0000" fill="currentColor"/>
<text transform="translate(79.9594, 100.2107)" font-family="serif" font-size="2.4696" text-anchor="start" fill="currentColor">
<tspan>s</tspan>
</text>
<g transform="translate(79.1229, 91.9828)" >
<path transform="scale(0.0040, -0.0040)" d="M233 243c-56 0 -102 -107 -102 -173c0 -22 8 -38 30 -38c64 0 97 126 97 178c0 18 -7 33 -25 33zM112 -146c-38 0 -78 5 -116 5c-39 0 -78 -5 -115 -5c-9 0 -14 7 -14 14c0 18 31 15 48 16c22 1 47 5 54 25l102 300c2 7 4 14 4 20c0 8 -2 14 -11 14
c-33 0 -63 -60 -79 -97c-5 -12 -15 -17 -24 -17c-8 0 -14 4 -14 12c0 2 1 5 2 8c30 68 72 143 132 143c35 0 59 -21 66 -52c29 31 67 52 103 52c69 0 107 -49 107 -114c0 -21 -4 -44 -12 -67c-20 -58 -91 -119 -147 -119c-27 0 -52 5 -73 17c-4 2 -7 3 -11 3
c-7 0 -14 -3 -16 -9l-29 -86c-1 -2 -1 -5 -1 -7c0 -20 21 -26 44 -28c9 -1 13 -8 13 -14c0 -7 -4 -14 -13 -14z" fill="currentColor"/>

<path transform="translate(1.4682, 0.0000) scale(0.0040, -0.0040)" d="M233 243c-56 0 -102 -107 -102 -173c0 -22 8 -38 30 -38c64 0 97 126 97 178c0 18 -7 33 -25 33zM112 -146c-38 0 -78 5 -116 5c-39 0 -78 -5 -115 -5c-9 0 -14 7 -14 14c0 18 31 15 48 16c22 1 47 5 54 25l102 300c2 7 4 14 4 20c0 8 -2 14 -11 14
c-33 0 -63 -60 -79 -97c-5 -12 -15 -17 -24 -17c-8 0 -14 4 -14 12c0 2 1 5 2 8c30 68 72 143 132 143c35 0 59 -21 66 -52c29 31 67 52 103 52c69 0 107 -49 107 -114c0 -21 -4 -44 -12 -67c-20 -58 -91 -119 -147 -119c-27 0 -52 5 -73 17c-4 2 -7 3 -11 3
c-7 0 -14 -3 -16 -9l-29 -86c-1 -2 -1 -5 -1 -7c0 -20 21 -26 44 -28c9 -1 13 -8 13 -14c0 -7 -4 -14 -13 -14z" fill="currentColor"/>
</g>
<rect transform="translate(79.9594, 83.0985)" x="-0.3245" y="-0.1000" width="1.9123" height="0.1000" ry="0.0000" fill="currentColor"/>
<rect transform="translate(79.9594, 81.1838)" x="-0.3245" y="-0.1000" width="1.9123" height="0.1000" ry="0.0000" fill="currentColor"/>
<rect transform="translate(79.6349, 82.7399)" x="0" y="-1.5561" width="0.1000" height="1.8147" ry="0.0000" fill="currentColor"/>
<rect transform="translate(81.4472, 82.7399)" x="0" y="-1.5561" width="0.1000" height="1.8147" ry="0.0000" fill="currentColor"/>
<text transform="translate(79.9594, 82.7399)" font-family="serif" font-size="2.4696" text-anchor="start" fill="currentColor">
<tspan>s</tspan>
</text>
<g transform="translate(79.1229, 74.5120)" >
<path transform="scale(0.0040, -0.0040)" d="M233 243c-56 0 -102 -107 -102 -173c0 -22 8 -38 30 -38c64 0 97 126 97 178c0 18 -7 33 -25 33zM112 -146c-38 0 -78 5 -116 5c-39 0 -78 -5 -115 -5c-9 0 -14 7 -14 14c0 18 31 15 48 16c22 1 47 5 54 25l102 300c2 7 4 14 4 20c0 8 -2 14 -11 14
c-33 0 -63 -60 -79 -97c-5 -12 -15 -17 -24 -17c-8 0 -14 4 -14 12c0 2 1 5 2 8c30 68 72 143 132 143c35 0 59 -21 66 -52c29 31 67 52 103 52c69 0 107 -49 107 -114c0 -21 -4 -44 -12 -67c-20 -58 -91 -119 -147 -119c-27 0 -52 5 -73 17c-4 2 -7 3 -11 3
c-7 0 -14 -3 -16 -9l-29 -86c-1 -2 -1 -5 -1 -7c0 -20 21 -26 44 -28c9 -1 13 -8 13 -14c0 -7 -4 -14 -13 -14z" fill="currentColor"/>

<path transform="translate(1.4682, 0.0000) scale(0.0040, -0.0040)" d="M233 243c-56 0 -102 -107 -102 -173c0 -22 8 -38 30 -38c64 0 97 126 97 178c0 18 -7 33 -25 33zM112 -146c-38 0 -78 5 -116 5c-39 0 -78 -5 -115 -5c-9 0 -14 7 -14 14c0 18 31 15 48 16c22 1 47 5 54 25l102 300c2 7 4 14 4 20c0 8 -2 14 -11 14
c-33 0 -63 -60 -79 -97c-5 -12 -15 -17 -24 -17c-8 0 -14 4 -14 12c0 2 1 5 2 8c30 68 72 143 132 143c35 0 59 -21 66 -52c29 31 67 52 103 52c69 0 107 -49 107 -114c0 -21 -4 -44 -12 -67c-20 -58 -91 -119 -147 -119c-27 0 -52 5 -73 17c-4 2 -7 3 -11 3
c-7 0 -14 -3 -16 -9l-29 -86c-1 -2 -1 -5 -1 -7c0 -20 21 -26 44 -28c9 -1 13 -8 13 -14c0 -7 -4 -14 -13 -14z" fill="currentColor"/>
</g>
<rect transform="translate(79.9594, 65.6278)" x="-0.3245" y="-0.1000" width="1.9123" height="0.1000" ry="0.0000" fill="currentColor"/>
<rect transform="translate(79.9594, 63.7131)" x="-0.3245" y="-0.1000" width="1.9123" height="0.1000" ry="0.0000" fill="currentColor"/>
<rect transform="translate(79.6349, 65.2691)" x="0" y="-1.5561" width="0.1000" height="1.8147" ry="0.0000" fill="currentColor"/>
<rect transform="translate(81.4472, 65.2691)" x="0" y="-1.5561" width="0.1000" height="1.8147" ry="0.0000" fill="currentColor"/>
<text transform="translate(79.9594, 65.2691)" font-family="serif" font-size="2.4696" text-anchor="start" fill="currentColor">
<tspan>s</tspan>
</text>
<g transform="translate(79.1229, 57.0413)" >
<path transform="scale(0.0040, -0.0040)" d="M233 243c-56 0 -102 -107 -102 -173c0 -22 8 -38 30 -38c64 0 97 126 97 178c0 18 -7 33 -25 33zM112 -146c-38 0 -78 5 -116 5c-39 0 -78 -5 -115 -5c-9 0 -14 7 -14 14c0 18 31 15 48 16c22 1 47 5 54 25l102 300c2 7 4 14 4 20c0 8 -2 14 -11 14
c-33 0 -63 -60 -79 -97c-5 -12 -15 -17 -24 -17c-8 0 -14 4 -14 12c0 2 1 5 2 8c30 68 72 143 132 143c35 0 59 -21 66 -52c29 31 67 52 103 52c69 0 107 -49 107 -114c0 -21 -4 -44 -12 -67c-20 -58 -91 -119 -147 -119c-27 0 -52 5 -73 17c-4 2 -7 3 -11 3
c-7 0 -14 -3 -16 -9l-29 -86c-1 -2 -1 -5 -1 -7c0 -20 21 -26 44 -28c9 -1 13 -8 13 -14c0 -7 -4 -14 -13 -14z" fill="currentColor"/>

<path transform="translate(1.4682, 0.0000) scale(0.0040, -0.0040)" d="M233 243c-56 0 -102 -107 -102 -173c0 -22 8 -38 30 -38c64 0 97 126 97 178c0 18 -7 33 -25 33zM112 -146c-38 0 -78 5 -116 5c-39 0 -78 -5 -115 -5c-9 0 -14 7 -14 14c0 18 31 15 48 16c22 1 47 5 54 25l102 300c2 7 4 14 4 20c0 8 -2 14 -11 14
c-33 0 -63 -60 -79 -97c-5 -12 -15 -17 -24 -17c-8 0 -14 4 -14 12c0 2 1 5 2 8c30 68 72 143 132 143c35 0 59 -21 66 -52c29 31 67 52 103 52c69 0 107 -49 107 -114c0 -21 -4 -44 -12 -67c-20 -58 -91 -119 -147 -119c-27 0 -52 5 -73 17c-4 2 -7 3 -11 3
c-7 0 -14 -3 -16 -9l-29 -86c-1 -2 -1 -5 -1 -7c0 -20 21 -26 44 -28c9 -1 13 -8 13 -14c0 -7 -4 -14 -13 -14z" fill="currentColor"/>
</g>
<rect transform="translate(79.9594, 48.1570)" x="-0.3245" y="-0.1000" width="1.9123" height="0.1000" ry="0.0000" fill="currentColor"/>
<rect transform="translate(79.9594, 46.2423)" x="-0.3245" y="-0.1000" width="1.9123" height="0.1000" ry="0.0000" fill="currentColor"/>
<rect transform="translate(79.6349, 47.7984)" x="0" y="-1.5561" width="0.1000" height="1.8147" ry="0.0000" fill="currentColor"/>
<rect transform="translate(81.4472, 47.7984)" x="0" y="-1.5561" width="0.1000" height="1.8147" ry="0.0000" fill="currentColor"/>
<text transform="translate(79.9594, 47.7984)" font-family="serif" font-size="2.4696" text-anchor="start" fill="currentColor">
<tspan>s</tspan>
</text>
<g transform="translate(79.1229, 39.5705)" >
<path transform="scale(0.0040, -0.0040)" d="M233 243c-56 0 -102 -107 -102 -173c0 -22 8 -38 30 -38c64 0 97 126 97 178c0 18 -7 33 -25 33zM112 -146c-38 0 -78 5 -116 5c-39 0 -78 -5 -115 -5c-9 0 -14 7 -14 14c0 18 31 15 48 16c22 1 47 5 54 25l102 300c2 7 4 14 4 20c0 8 -2 14 -11 14
c-33 0 -63 -60 -79 -97c-5 -12 -15 -17 -24 -17c-8 0 -14 4 -14 12c0 2 1 5 2 8c30 68 72 143 132 143c35 0 59 -21 66 -52c29 31 67 52 103 52c69 0 107 -49 107 -114c0 -21 -4 -44 -12 -67c-20 -58 -91 -119 -147 -119c-27 0 -52 5 -73 17c-4 2 -7 3 -11 3
c-7 0 -14 -3 -16 -9l-29 -86c-1 -2 -1 -5 -1 -7c0 -20 21 -26 44 -28c9 -1 13 -8 13 -14c0 -7 -4 -14 -13 -14z" fill="currentColor"/>

<path transform="translate(1.4682, 0.0000) scale(0.0040, -0.0040)" d="M233 243c-56 0 -102 -107 -102 -173c0 -22 8 -38 30 -38c64 0 97 126 97 178c0 18 -7 33 -25 33zM112 -146c-38 0 -78 5 -116 5c-39 0 -78 -5 -115 -5c-9 0 -14 7 -14 14c0 18 31 15 48 16c22 1 47 5 54 25l102 300c2 7 4 14 4 20c0 8 -2 14 -11 14
c-33 0 -63 -60 -79 -97c-5 -12 -15 -17 -24 -17c-8 0 -14 4 -14 12c0 2 1 5 2 8c30 68 72 143 132 143c35 0 59 -21 66 -52c29 31 67 52 103 52c69 0 107 -49 107 -114c0 -21 -4 -44 -12 -67c-20 -58 -91 -119 -147 -119c-27 0 -52 5 -73 17c-4 2 -7 3 -11 3
c-7 0 -14 -3 -16 -9l-29 -86c-1 -2 -1 -5 -1 -7c0 -20 21 -26 44 -28c9 -1 13 -8 13 -14c0 -7 -4 -14 -13 -14z" fill="currentColor"/>
</g>
<rect transform="translate(79.9423, 29.0216)" x="-0.3245" y="-0.1000" width="1.9464" height="0.1000" ry="0.0000" fill="currentColor"/>
<rect transform="translate(79.9423, 27.1752)" x="-0.3245" y="-0.1000" width="1.9464" height="0.1000" ry="0.0000" fill="currentColor"/>
<rect transform="translate(79.6178, 28.6971)" x="0" y="-1.5219" width="0.1000" height="1.7464" ry="0.0000" fill="currentColor"/>
<rect transform="translate(81.4642, 28.6971)" x="0" y="-1.5219" width="0.1000" height="1.7464" ry="0.0000" fill="currentColor"/>
<text transform="translate(79.9423, 28.6971)" font-family="serif" font-size="2.4696" text-anchor="start" fill="currentColor">
<tspan>z</tspan>
</text>
<path transform="translate(76.0760, 24.5302) scale(0.0040, -0.0040)" d="M376 262c4 0 9 1 13 1c155 0 256 -128 256 -261c0 -76 -33 -154 -107 -210c-22 -17 -47 -28 -73 -36c3 -35 5 -70 5 -105c0 -19 -1 -39 -2 -58c-7 -120 -90 -228 -208 -228c-108 0 -195 88 -195 197c0 58 53 103 112 103c54 0 95 -47 95 -103c0 -52 -43 -95 -95 -95
c-11 0 -21 2 -31 6c26 -39 68 -65 117 -65c96 0 157 92 163 191c1 18 2 37 2 55c0 31 -1 61 -4 92c-29 -5 -58 -8 -89 -8c-188 0 -333 172 -333 374c0 177 131 306 248 441c-19 62 -37 125 -45 190c-6 52 -7 104 -7 156c0 115 55 224 149 292c3 2 7 3 10 3c4 0 7 0 10 -3
c71 -84 133 -245 133 -358c0 -143 -86 -255 -180 -364c21 -68 39 -138 56 -207zM461 -203c68 24 113 95 113 164c0 90 -66 179 -173 190c24 -116 46 -231 60 -354zM74 28c0 -135 129 -247 264 -247c28 0 55 2 82 6c-14 127 -37 245 -63 364c-79 -8 -124 -61 -124 -119
c0 -44 25 -91 81 -123c5 -5 7 -10 7 -15c0 -11 -10 -22 -22 -22c-3 0 -6 1 -9 2c-80 43 -117 115 -117 185c0 88 58 174 160 197c-14 58 -29 117 -46 175c-107 -121 -213 -243 -213 -403zM408 1045c-99 -48 -162 -149 -162 -259c0 -74 18 -133 36 -194
c80 97 146 198 146 324c0 55 -4 79 -20 129z" fill="currentColor"/>
<path transform="translate(76.0760, 144.8255) scale(0.0040, -0.0040)" d="M557 -125c0 28 23 51 51 51s51 -23 51 -51s-23 -51 -51 -51s-51 23 -51 51zM557 125c0 28 23 51 51 51s51 -23 51 -51s-23 -51 -51 -51s-51 23 -51 51zM232 263c172 0 293 -88 293 -251c0 -263 -263 -414 -516 -521c-3 -3 -6 -4 -9 -4c-7 0 -13 6 -13 13c0 3 1 6 4 9
c202 118 412 265 412 493c0 120 -63 235 -171 235c-74 0 -129 -54 -154 -126c11 5 22 8 34 8c55 0 100 -45 100 -100c0 -58 -44 -106 -100 -106c-60 0 -112 47 -112 106c0 133 102 244 232 244z" fill="currentColor"/>
<rect transform="translate(80.8492, 10.4500)" x="-0.0650" y="3.3139" width="0.1300" height="0.0000" ry="0.0000" fill="currentColor"/>
<rect transform="translate(79.9423, 150.3219)" x="-0.3245" y="-0.1000" width="1.9464" height="0.1000" ry="0.0000" fill="currentColor"/>
<rect transform="translate(79.9423, 148.4755)" x="-0.3245" y="-0.1000" width="1.9464" height="0.1000" ry="0.0000" fill="currentColor"/>
<rect transform="translate(79.6178, 149.9974)" x="0" y="-1.5219" width="0.1000" height="1.7464" ry="0.0000" fill="currentColor"/>
<rect transform="translate(81.4642, 149.9974)" x="0" y="-1.5219" width="0.1000" height="1.7464" ry="0.0000" fill="currentColor"/>
<text transform="translate(79.9423, 149.9974)" font-family="serif" font-size="2.4696" text-anchor="start" fill="currentColor">
<tspan>z</tspan>
</text>
<text transform="translate(5.2988, 94.2156)" font-family="serif" font-size="2.2001" text-anchor="start" fill="currentColor">
<tspan>T</tspan>
</text>
<line transform="translate(8.8193, 15.4500)" stroke-linejoin="round" stroke-linecap="round" stroke-width="0.1000" stroke="currentColor" x1="66.4140" y1="-0.0000" x2="66.9140" y2="1.0000"/>
<line transform="translate(8.8193, 15.4500)" stroke-linejoin="round" stroke-linecap="round" stroke-width="0.1000" stroke="currentColor" x1="0.5000" y1="-0.0000" x2="0.0000" y2="1.0000"/>
<line transform="translate(8.8193, 15.4500)" stroke-linejoin="round" stroke-linecap="round" stroke-width="0.1000" stroke="currentColor" x1="0.5000" y1="-0.0000" x2="66.4140" y2="-0.0000"/>
<path transform="translate(79.6100, 26.0302) scale(0.0040, -0.0040)" d="M213 112c-50 0 -69 -43 -69 -88c0 -77 57 -136 134 -136c50 0 69 43 69 88c0 77 -57 136 -134 136zM491 0c0 -43 -34 -75 -72 -96c-53 -29 -114 -40 -174 -40s-120 11 -173 40c-38 21 -72 53 -72 96s34 75 72 96c53 29 113 40 173 40s121 -11 174 -40
c38 -21 72 -53 72 -96z" fill="currentColor"/>
<rect transform="translate(75.6683, 10.4500)" x="-0.0650" y="3.3139" width="0.1300" height="0.0000" ry="0.0000" fill="currentColor"/>
<path transform="translate(79.8569, 18.6897) scale(0.0040, -0.0040)" d="M233 243c-56 0 -102 -107 -102 -173c0 -22 8 -38 30 -38c64 0 97 126 97 178c0 18 -7 33 -25 33zM112 -146c-38 0 -78 5 -116 5c-39 0 -78 -5 -115 -5c-9 0 -14 7 -14 14c0 18 31 15 48 16c22 1 47 5 54 25l102 300c2 7 4 14 4 20c0 8 -2 14 -11 14
c-33 0 -63 -60 -79 -97c-5 -12 -15 -17 -24 -17c-8 0 -14 4 -14 12c0 2 1 5 2 8c30 68 72 143 132 143c35 0 59 -21 66 -52c29 31 67 52 103 52c69 0 107 -49 107 -114c0 -21 -4 -44 -12 -67c-20 -58 -91 -119 -147 -119c-27 0 -52 5 -73 17c-4 2 -7 3 -11 3
c-7 0 -14 -3 -16 -9l-29 -86c-1 -2 -1 -5 -1 -7c0 -20 21 -26 44 -28c9 -1 13 -8 13 -14c0 -7 -4 -14 -13 -14z" fill="currentColor"/>
<text transform="translate(5.1623, 76.7448)" font-family="serif" font-size="2.2001" text-anchor="start" fill="currentColor">
<tspan>A</tspan>
</text>
<line transform="translate(79.6100, 15.4500)" stroke-linejoin="round" stroke-linecap="round" stroke-width="0.1000" stroke="currentColor" x1="27.7686" y1="-0.0000" x2="28.2686" y2="1.0000"/>
<line transform="translate(79.6100, 15.4500)" stroke-linejoin="round" stroke-linecap="round" stroke-width="0.1000" stroke="currentColor" x1="0.5000" y1="-0.0000" x2="0.0000" y2="1.0000"/>
<line transform="translate(79.6100, 15.4500)" stroke-linejoin="round" stroke-linecap="round" stroke-width="0.1000" stroke="currentColor" x1="0.5000" y1="-0.0000" x2="27.7686" y2="-0.0000"/>
<text transform="translate(92.0371, 14.8659)" font-family="serif" font-size="1.9600" text-anchor="start" fill="currentColor">
<tspan>15"</tspan>
</text>
<line transform="translate(46.8171, 35.4909)" stroke-linejoin="round" stroke-linecap="round" stroke-width="0.1000" stroke="currentColor" x1="0" y1="0" x2="18.3568" y2="-0.0000" stroke-dasharray="0.592153779549405,2.36861511819762"/>
<text transform="translate(34.7986, 35.4909)" font-family="serif" font-style="italic" font-size="2.2001" text-anchor="start" fill="currentColor">
<tspan>dim. e rall.</tspan>
</text>
<text transform="translate(40.5691, 14.8659)" font-family="serif" font-size="1.9600" text-anchor="start" fill="currentColor">
<tspan>75"</tspan>
</text>
<line transform="translate(21.0877, 122.8447)" stroke-linejoin="round" stroke-linecap="round" stroke-width="0.1000" stroke="currentColor" x1="0" y1="0" x2="44.0861" y2="-0.0000" stroke-dasharray="0.620931125114526,2.4837245004581"/>
<text transform="translate(9.0693, 122.8447)" font-family="serif" font-style="italic" font-size="2.2001" text-anchor="start" fill="currentColor">
<tspan>dim. e rall.</tspan>
</text>
<line transform="translate(26.2336, 105.3740)" stroke-linejoin="round" stroke-linecap="round" stroke-width="0.1000" stroke="currentColor" x1="0" y1="0" x2="38.9402" y2="-0.0000" stroke-dasharray="0.590003656662294,2.36001462664917"/>
<text transform="translate(14.2152, 105.3740)" font-family="serif" font-style="italic" font-size="2.2001" text-anchor="start" fill="currentColor">
<tspan>dim. e rall.</tspan>
</text>
<line transform="translate(31.3795, 87.9032)" stroke-linejoin="round" stroke-linecap="round" stroke-width="0.1000" stroke="currentColor" x1="0" y1="0" x2="33.7944" y2="-0.0000" stroke-dasharray="0.603470942790918,2.41388377116367"/>
<text transform="translate(19.3610, 87.9032)" font-family="serif" font-style="italic" font-size="2.2001" text-anchor="start" fill="currentColor">
<tspan>dim. e rall.</tspan>
</text>
<line transform="translate(32.6086, 143.3155)" stroke-linejoin="round" stroke-linecap="round" stroke-width="0.1000" stroke="currentColor" x1="0" y1="0" x2="37.7111" y2="-0.0000" stroke-dasharray="0.618214463681857,2.47285785472743"/>
<text transform="translate(19.3610, 143.3155)" font-family="serif" font-style="italic" font-size="2.2001" text-anchor="start" fill="currentColor">
<tspan>diminuendo</tspan>
</text>
<line transform="translate(36.5253, 70.4325)" stroke-linejoin="round" stroke-linecap="round" stroke-width="0.1000" stroke="currentColor" x1="0" y1="0" x2="28.6485" y2="-0.0000" stroke-dasharray="0.622793570714597,2.49117428285839"/>
<text transform="translate(24.5069, 70.4325)" font-family="serif" font-style="italic" font-size="2.2001" text-anchor="start" fill="currentColor">
<tspan>dim. e rall.</tspan>
</text>
<line transform="translate(42.9004, 21.0202)" stroke-linejoin="round" stroke-linecap="round" stroke-width="0.1000" stroke="currentColor" x1="0" y1="0" x2="27.4193" y2="-0.0000" stroke-dasharray="0.59607272169029,2.38429088676116"/>
<text transform="translate(29.6528, 21.0202)" font-family="serif" font-style="italic" font-size="2.2001" text-anchor="start" fill="currentColor">
<tspan>diminuendo</tspan>
</text>
<line transform="translate(41.6712, 52.9617)" stroke-linejoin="round" stroke-linecap="round" stroke-width="0.1000" stroke="currentColor" x1="0" y1="0" x2="23.5026" y2="-0.0000" stroke-dasharray="0.573235017303695,2.29294006921478"/>
<text transform="translate(29.6528, 52.9617)" font-family="serif" font-style="italic" font-size="2.2001" text-anchor="start" fill="currentColor">
<tspan>dim. e rall.</tspan>
</text>
<text transform="translate(5.1623, 59.2741)" font-family="serif" font-size="2.2001" text-anchor="start" fill="currentColor">
<tspan>A</tspan>
</text>
<text transform="translate(5.2647, 24.3325)" font-family="serif" font-size="2.2001" text-anchor="start" fill="currentColor">
<tspan>S</tspan>
</text>
<rect transform="translate(107.8136, 10.4500)" x="-0.0650" y="3.3139" width="0.1300" height="0.0000" ry="0.0000" fill="currentColor"/>
<text transform="translate(5.2647, 41.8033)" font-family="serif" font-size="2.2001" text-anchor="start" fill="currentColor">
<tspan>S</tspan>
</text>
<text transform="translate(5.1623, 129.1571)" font-family="serif" font-size="2.2001" text-anchor="start" fill="currentColor">
<tspan>B</tspan>
</text>
<text transform="translate(49.8984, 47.7984)" font-family="serif" font-size="1.9600" text-anchor="start" fill="currentColor">
<tspan>to</tspan>
</text>
<text transform="translate(52.4787, 47.7984)" font-family="serif" font-size="1.9600" text-anchor="start" fill="currentColor">
<tspan>whisper</tspan>
</text>
<text transform="translate(64.3825, 47.7984)" font-family="serif" font-size="2.4696" text-anchor="start" fill="currentColor">
<tspan>→</tspan>
</text>
<text transform="translate(64.3825, 65.2691)" font-family="serif" font-size="2.4696" text-anchor="start" fill="currentColor">
<tspan>→</tspan>
</text>
<text transform="translate(64.3825, 82.7399)" font-family="serif" font-size="2.4696" text-anchor="start" fill="currentColor">
<tspan>→</tspan>
</text>
<text transform="translate(49.8984, 135.1522)" font-family="serif" font-size="1.9600" text-anchor="start" fill="currentColor">
<tspan>to</tspan>
</text>
<text transform="translate(52.4787, 135.1522)" font-family="serif" font-size="1.9600" text-anchor="start" fill="currentColor">
<tspan>whisper</tspan>
</text>
<text transform="translate(49.8984, 117.6814)" font-family="serif" font-size="1.9600" text-anchor="start" fill="currentColor">
<tspan>to</tspan>
</text>
<text transform="translate(52.4787, 117.6814)" font-family="serif" font-size="1.9600" text-anchor="start" fill="currentColor">
<tspan>whisper</tspan>
</text>
<text transform="translate(49.8984, 100.2107)" font-family="serif" font-size="1.9600" text-anchor="start" fill="currentColor">
<tspan>to</tspan>
</text>
<text transform="translate(52.4787, 100.2107)" font-family="serif" font-size="1.9600" text-anchor="start" fill="currentColor">
<tspan>whisper</tspan>
</text>
<text transform="translate(49.8984, 82.7399)" font-family="serif" font-size="1.9600" text-anchor="start" fill="currentColor">
<tspan>to</tspan>
</text>
<text transform="translate(52.4787, 82.7399)" font-family="serif" font-size="1.9600" text-anchor="start" fill="currentColor">
<tspan>whisper</tspan>
</text>
<text transform="translate(49.8984, 65.2691)" font-family="serif" font-size="1.9600" text-anchor="start" fill="currentColor">
<tspan>to</tspan>
</text>
<text transform="translate(52.4787, 65.2691)" font-family="serif" font-size="1.9600" text-anchor="start" fill="currentColor">
<tspan>whisper</tspan>
</text>
<text transform="translate(64.3825, 100.2107)" font-family="serif" font-size="2.4696" text-anchor="start" fill="currentColor">
<tspan>→</tspan>
</text>
<text transform="translate(64.3825, 117.6814)" font-family="serif" font-size="2.4696" text-anchor="start" fill="currentColor">
<tspan>→</tspan>
</text>
<text transform="translate(64.3825, 135.1522)" font-family="serif" font-size="2.4696" text-anchor="start" fill="currentColor">
<tspan>→</tspan>
</text>
<rect transform="translate(7.1670, 84.6778)" x="0.0000" y="-61.3977" width="0.1600" height="122.7953" ry="0.0500" fill="currentColor"/>
<text transform="translate(5.2988, 111.6863)" font-family="serif" font-size="2.2001" text-anchor="start" fill="currentColor">
<tspan>T</tspan>
</text>
<text transform="translate(5.1623, 146.6279)" font-family="serif" font-size="2.2001" text-anchor="start" fill="currentColor">
<tspan>B</tspan>
</text>
</svg>
