<?xml version="1.0" encoding="UTF-8" standalone="no"?>
<svg
   xmlns:dc="http://purl.org/dc/elements/1.1/"
   xmlns:cc="http://creativecommons.org/ns#"
   xmlns:rdf="http://www.w3.org/1999/02/22-rdf-syntax-ns#"
   xmlns:svg="http://www.w3.org/2000/svg"
   xmlns="http://www.w3.org/2000/svg"
   xmlns:sodipodi="http://sodipodi.sourceforge.net/DTD/sodipodi-0.dtd"
   xmlns:inkscape="http://www.inkscape.org/namespaces/inkscape"
   version="1.2"
   width="215.90mm"
   height="279.40mm"
   viewBox="0 0 122.8590 158.9940"
   id="svg8729"
   sodipodi:docname="book-9.svg"
   inkscape:version="0.92.3 (2405546, 2018-03-11)">
  <metadata
     id="metadata8735">
    <rdf:RDF>
      <cc:Work
         rdf:about="">
        <dc:format>image/svg+xml</dc:format>
        <dc:type
           rdf:resource="http://purl.org/dc/dcmitype/StillImage" />
      </cc:Work>
    </rdf:RDF>
  </metadata>
  <defs
     id="defs8733" />
  <sodipodi:namedview
     pagecolor="#ffffff"
     bordercolor="#666666"
     borderopacity="1"
     objecttolerance="10"
     gridtolerance="10"
     guidetolerance="10"
     inkscape:pageopacity="0"
     inkscape:pageshadow="2"
     inkscape:window-width="1080"
     inkscape:window-height="1920"
     id="namedview8731"
     showgrid="false"
     inkscape:zoom="0.80762689"
     inkscape:cx="456.55132"
     inkscape:cy="439.12174"
     inkscape:window-x="0"
     inkscape:window-y="0"
     inkscape:window-maximized="1"
     inkscape:current-layer="svg8729" />
  <style
     text="style/css"
     id="style8043"><![CDATA[
tspan { white-space: pre; }
]]></style>
  <!-- Page: 9/19 -->
  <text
     transform="translate(7.2270, 8.8659)"
     font-family="serif"
     font-size="2.2001"
     text-anchor="start"
     fill="currentColor"
     id="text8047">
    <tspan
       id="tspan8045" />
  </text>
  <text
     transform="translate(114.2321, 8.8659)"
     font-family="serif"
     font-size="2.2001"
     text-anchor="start"
     fill="currentColor"
     id="text8051">
    <tspan
       id="tspan8049">9</tspan>
  </text>
  <path
     transform="translate(59.4254, 75.9384) scale(0.0040, -0.0040)"
     d="M0 0c0 31 25 56 56 56s56 -25 56 -56s-25 -56 -56 -56s-56 25 -56 56z"
     fill="currentColor"
     id="path8061" />
  <path
     transform="translate(59.4254, 76.9384) scale(0.0040, -0.0040)"
     d="M0 0c0 31 25 56 56 56s56 -25 56 -56s-25 -56 -56 -56s-56 25 -56 56z"
     fill="currentColor"
     id="path8063" />
  <rect
     transform="translate(58.9354, 76.4384)"
     x="0.0000"
     y="-2.0000"
     width="0.1900"
     height="4.0000"
     ry="0.0000"
     fill="currentColor"
     id="rect8065" />
  <rect
     transform="translate(58.0354, 76.4384)"
     x="0.0000"
     y="-2.0000"
     width="0.6000"
     height="4.0000"
     ry="0.0000"
     fill="currentColor"
     id="rect8067" />
  <g
     id="g8759">
    <path
       id="path8069"
       fill="currentColor"
       d="M0 0c0 31 25 56 56 56s56 -25 56 -56s-25 -56 -56 -56s-56 25 -56 56z"
       transform="translate(69.3004, 110.0703) scale(0.0040, -0.0040)" />
    <path
       id="path8071"
       fill="currentColor"
       d="M0 0c0 31 25 56 56 56s56 -25 56 -56s-25 -56 -56 -56s-56 25 -56 56z"
       transform="translate(69.3004, 111.3703) scale(0.0040, -0.0040)" />
    <rect
       id="rect8073"
       fill="currentColor"
       ry="0.0000"
       height="4.0000"
       width="0.6000"
       y="-2.0000"
       x="0.0000"
       transform="translate(70.5404, 110.7203)" />
    <rect
       id="rect8075"
       fill="currentColor"
       ry="0.0000"
       height="4.0000"
       width="0.1900"
       y="-2.0000"
       x="0.0000"
       transform="translate(70.0504, 110.7203)" />
  </g>
  <line
     x1="66.352997"
     y1="24.815399"
     x2="96.667366"
     y2="24.815399"
     id="line8077"
     style="stroke:currentColor;stroke-width:0.09135913;stroke-linecap:round;stroke-linejoin:round" />
  <line
     x1="66.352997"
     y1="24.9154"
     x2="96.667366"
     y2="24.9154"
     id="line8079"
     style="stroke:currentColor;stroke-width:0.09135913;stroke-linecap:round;stroke-linejoin:round" />
  <line
     x1="66.352997"
     y1="25.0154"
     x2="96.667366"
     y2="25.0154"
     id="line8081"
     style="stroke:currentColor;stroke-width:0.09135913;stroke-linecap:round;stroke-linejoin:round" />
  <line
     x1="66.352997"
     y1="25.1154"
     x2="96.667366"
     y2="25.1154"
     id="line8083"
     style="stroke:currentColor;stroke-width:0.09135913;stroke-linecap:round;stroke-linejoin:round" />
  <line
     x1="66.352997"
     y1="25.215401"
     x2="96.667366"
     y2="25.215401"
     id="line8085"
     style="stroke:currentColor;stroke-width:0.09135913;stroke-linecap:round;stroke-linejoin:round" />
  <line
     x1="59.043663"
     y1="59.097401"
     x2="97.213036"
     y2="59.097401"
     id="line8087"
     style="stroke:currentColor;stroke-width:0.09451345;stroke-linecap:round;stroke-linejoin:round" />
  <line
     x1="59.043663"
     y1="59.197399"
     x2="97.213036"
     y2="59.197399"
     id="line8089"
     style="stroke:currentColor;stroke-width:0.09451345;stroke-linecap:round;stroke-linejoin:round" />
  <line
     x1="59.043663"
     y1="59.297401"
     x2="97.213036"
     y2="59.297401"
     id="line8091"
     style="stroke:currentColor;stroke-width:0.09451345;stroke-linecap:round;stroke-linejoin:round" />
  <line
     x1="59.043663"
     y1="59.3974"
     x2="97.213036"
     y2="59.3974"
     id="line8093"
     style="stroke:currentColor;stroke-width:0.09451345;stroke-linecap:round;stroke-linejoin:round" />
  <line
     x1="59.043663"
     y1="59.497398"
     x2="97.213036"
     y2="59.497398"
     id="line8095"
     style="stroke:currentColor;stroke-width:0.09451345;stroke-linecap:round;stroke-linejoin:round" />
  <path
     transform="translate(59.4254, 127.3613) scale(0.0040, -0.0040)"
     d="M0 0c0 31 25 56 56 56s56 -25 56 -56s-25 -56 -56 -56s-56 25 -56 56z"
     fill="currentColor"
     id="path8097" />
  <path
     transform="translate(59.4254, 128.3613) scale(0.0040, -0.0040)"
     d="M0 0c0 31 25 56 56 56s56 -25 56 -56s-25 -56 -56 -56s-56 25 -56 56z"
     fill="currentColor"
     id="path8099" />
  <rect
     transform="translate(58.9354, 127.8613)"
     x="0.0000"
     y="-2.0000"
     width="0.1900"
     height="4.0000"
     ry="0.0000"
     fill="currentColor"
     id="rect8101" />
  <rect
     transform="translate(58.0354, 127.8613)"
     x="0.0000"
     y="-2.0000"
     width="0.6000"
     height="4.0000"
     ry="0.0000"
     fill="currentColor"
     id="rect8103" />
  <line
     transform="translate(97.5499, 27.0154)"
     stroke-linejoin="round"
     stroke-linecap="round"
     stroke-width="0.1000"
     stroke="currentColor"
     x1="0.0500"
     y1="-0.0000"
     x2="10.2220"
     y2="-0.0000"
     id="line8105" />
  <line
     transform="translate(97.5499, 26.0154)"
     stroke-linejoin="round"
     stroke-linecap="round"
     stroke-width="0.1000"
     stroke="currentColor"
     x1="0.0500"
     y1="-0.0000"
     x2="10.2220"
     y2="-0.0000"
     id="line8107" />
  <line
     transform="translate(97.5499, 25.0154)"
     stroke-linejoin="round"
     stroke-linecap="round"
     stroke-width="0.1000"
     stroke="currentColor"
     x1="0.0500"
     y1="-0.0000"
     x2="10.2220"
     y2="-0.0000"
     id="line8109" />
  <line
     transform="translate(97.5499, 24.0154)"
     stroke-linejoin="round"
     stroke-linecap="round"
     stroke-width="0.1000"
     stroke="currentColor"
     x1="0.0500"
     y1="-0.0000"
     x2="10.2220"
     y2="-0.0000"
     id="line8111" />
  <line
     transform="translate(97.5499, 23.0154)"
     stroke-linejoin="round"
     stroke-linecap="round"
     stroke-width="0.1000"
     stroke="currentColor"
     x1="0.0500"
     y1="-0.0000"
     x2="10.2220"
     y2="-0.0000"
     id="line8113" />
  <line
     transform="translate(97.5499, 61.2974)"
     stroke-linejoin="round"
     stroke-linecap="round"
     stroke-width="0.1000"
     stroke="currentColor"
     x1="0.0500"
     y1="-0.0000"
     x2="10.2220"
     y2="-0.0000"
     id="line8115" />
  <line
     transform="translate(97.5499, 60.2974)"
     stroke-linejoin="round"
     stroke-linecap="round"
     stroke-width="0.1000"
     stroke="currentColor"
     x1="0.0500"
     y1="-0.0000"
     x2="10.2220"
     y2="-0.0000"
     id="line8117" />
  <line
     transform="translate(97.5499, 59.2974)"
     stroke-linejoin="round"
     stroke-linecap="round"
     stroke-width="0.1000"
     stroke="currentColor"
     x1="0.0500"
     y1="-0.0000"
     x2="10.2220"
     y2="-0.0000"
     id="line8119" />
  <line
     transform="translate(97.5499, 58.2974)"
     stroke-linejoin="round"
     stroke-linecap="round"
     stroke-width="0.1000"
     stroke="currentColor"
     x1="0.0500"
     y1="-0.0000"
     x2="10.2220"
     y2="-0.0000"
     id="line8121" />
  <line
     transform="translate(97.5499, 57.2974)"
     stroke-linejoin="round"
     stroke-linecap="round"
     stroke-width="0.1000"
     stroke="currentColor"
     x1="0.0500"
     y1="-0.0000"
     x2="10.2220"
     y2="-0.0000"
     id="line8123" />
  <rect
     transform="translate(7.2270, 62.2974)"
     x="94.9629"
     y="-0.1000"
     width="1.8053"
     height="0.2000"
     ry="0.1000"
     fill="currentColor"
     id="rect8125" />
  <path
     transform="translate(39.7829, 41.6564) scale(0.0040, -0.0040)"
     d="M0 0c0 31 25 56 56 56s56 -25 56 -56s-25 -56 -56 -56s-56 25 -56 56z"
     fill="currentColor"
     id="path8127" />
  <path
     transform="translate(39.7829, 42.6564) scale(0.0040, -0.0040)"
     d="M0 0c0 31 25 56 56 56s56 -25 56 -56s-25 -56 -56 -56s-56 25 -56 56z"
     fill="currentColor"
     id="path8129" />
  <rect
     transform="translate(39.2929, 42.1564)"
     x="0.0000"
     y="-2.0000"
     width="0.1900"
     height="4.0000"
     ry="0.0000"
     fill="currentColor"
     id="rect8131" />
  <rect
     transform="translate(38.3929, 42.1564)"
     x="0.0000"
     y="-2.0000"
     width="0.6000"
     height="4.0000"
     ry="0.0000"
     fill="currentColor"
     id="rect8133" />
  <g
     id="g8753">
    <path
       id="path8135"
       fill="currentColor"
       d="M0 0c0 31 25 56 56 56s56 -25 56 -56s-25 -56 -56 -56s-56 25 -56 56z"
       transform="translate(84.7199, 92.9294) scale(0.0040, -0.0040)" />
    <path
       id="path8137"
       fill="currentColor"
       d="M0 0c0 31 25 56 56 56s56 -25 56 -56s-25 -56 -56 -56s-56 25 -56 56z"
       transform="translate(84.7199, 94.2294) scale(0.0040, -0.0040)" />
    <rect
       id="rect8139"
       fill="currentColor"
       ry="0.0000"
       height="4.0000"
       width="0.6000"
       y="-2.0000"
       x="0.0000"
       transform="translate(85.9599, 93.5794)" />
    <rect
       id="rect8141"
       fill="currentColor"
       ry="0.0000"
       height="4.0000"
       width="0.1900"
       y="-2.0000"
       x="0.0000"
       transform="translate(85.4699, 93.5794)" />
  </g>
  <g
     id="g8765"
     transform="translate(7.9230971)">
    <path
       id="path8143"
       d="M 0,0 C 0,31 25,56 56,56 87,56 112,31 112,0 112,-31 87,-56 56,-56 25,-56 0,-31 0,0 Z"
       transform="matrix(0.004,0,0,-0.004,93.5146,127.2113)"
       inkscape:connector-curvature="0"
       style="fill:currentColor" />
    <path
       id="path8145"
       d="M 0,0 C 0,31 25,56 56,56 87,56 112,31 112,0 112,-31 87,-56 56,-56 25,-56 0,-31 0,0 Z"
       transform="matrix(0.004,0,0,-0.004,93.5146,128.5113)"
       inkscape:connector-curvature="0"
       style="fill:currentColor" />
    <rect
       id="rect8147"
       ry="0.0000"
       height="4"
       width="0.60000002"
       y="-2"
       x="0"
       transform="translate(94.7546,127.8613)"
       style="fill:currentColor" />
    <rect
       id="rect8149"
       ry="0.0000"
       height="4"
       width="0.19"
       y="-2"
       x="0"
       transform="translate(94.2646,127.8613)"
       style="fill:currentColor" />
  </g>
  <path
     transform="translate(39.7829, 93.0794) scale(0.0040, -0.0040)"
     d="M0 0c0 31 25 56 56 56s56 -25 56 -56s-25 -56 -56 -56s-56 25 -56 56z"
     fill="currentColor"
     id="path8151" />
  <path
     transform="translate(39.7829, 94.0794) scale(0.0040, -0.0040)"
     d="M0 0c0 31 25 56 56 56s56 -25 56 -56s-25 -56 -56 -56s-56 25 -56 56z"
     fill="currentColor"
     id="path8153" />
  <rect
     transform="translate(39.2929, 93.5794)"
     x="0.0000"
     y="-2.0000"
     width="0.1900"
     height="4.0000"
     ry="0.0000"
     fill="currentColor"
     id="rect8155" />
  <rect
     transform="translate(38.3929, 93.5794)"
     x="0.0000"
     y="-2.0000"
     width="0.6000"
     height="4.0000"
     ry="0.0000"
     fill="currentColor"
     id="rect8157" />
  <g
     id="g8741"
     transform="translate(2.0632166,-0.02105323)">
    <path
       id="path8159"
       d="M 0,0 C 0,31 25,56 56,56 87,56 112,31 112,0 112,-31 87,-56 56,-56 25,-56 0,-31 0,0 Z"
       transform="matrix(0.004,0,0,-0.004,84.7199,41.5064)"
       inkscape:connector-curvature="0"
       style="fill:currentColor" />
    <path
       id="path8161"
       d="M 0,0 C 0,31 25,56 56,56 87,56 112,31 112,0 112,-31 87,-56 56,-56 25,-56 0,-31 0,0 Z"
       transform="matrix(0.004,0,0,-0.004,84.7199,42.8064)"
       inkscape:connector-curvature="0"
       style="fill:currentColor" />
    <rect
       id="rect8163"
       ry="0.0000"
       height="4"
       width="0.60000002"
       y="-2"
       x="0"
       transform="translate(85.9599,42.1564)"
       style="fill:currentColor" />
    <rect
       id="rect8165"
       ry="0.0000"
       height="4"
       width="0.19"
       y="-2"
       x="0"
       transform="translate(85.4699,42.1564)"
       style="fill:currentColor" />
  </g>
  <g
     id="g8747"
     transform="translate(11.254483)">
    <path
       id="path8167"
       d="M 0,0 C 0,31 25,56 56,56 87,56 112,31 112,0 112,-31 87,-56 56,-56 25,-56 0,-31 0,0 Z"
       transform="matrix(0.004,0,0,-0.004,93.5146,75.7884)"
       inkscape:connector-curvature="0"
       style="fill:currentColor" />
    <path
       id="path8169"
       d="M 0,0 C 0,31 25,56 56,56 87,56 112,31 112,0 112,-31 87,-56 56,-56 25,-56 0,-31 0,0 Z"
       transform="matrix(0.004,0,0,-0.004,93.5146,77.0884)"
       inkscape:connector-curvature="0"
       style="fill:currentColor" />
    <rect
       transform="translate(94.7546,76.4384)"
       id="rect8171"
       ry="0.0000"
       height="4"
       width="0.60000002"
       y="-2"
       x="0"
       style="fill:currentColor" />
    <rect
       id="rect8173"
       ry="0.0000"
       height="4"
       width="0.19"
       y="-2"
       x="0"
       transform="translate(94.2646,76.4384)"
       style="fill:currentColor" />
  </g>
  <path
     transform="translate(39.7829, 24.5154) scale(0.0040, -0.0040)"
     d="M0 0c0 31 25 56 56 56s56 -25 56 -56s-25 -56 -56 -56s-56 25 -56 56z"
     fill="currentColor"
     id="path8175" />
  <path
     transform="translate(39.7829, 25.5154) scale(0.0040, -0.0040)"
     d="M0 0c0 31 25 56 56 56s56 -25 56 -56s-25 -56 -56 -56s-56 25 -56 56z"
     fill="currentColor"
     id="path8177" />
  <rect
     transform="translate(39.2929, 25.0154)"
     x="0.0000"
     y="-2.0000"
     width="0.1900"
     height="4.0000"
     ry="0.0000"
     fill="currentColor"
     id="rect8179" />
  <rect
     transform="translate(38.3929, 25.0154)"
     x="0.0000"
     y="-2.0000"
     width="0.6000"
     height="4.0000"
     ry="0.0000"
     fill="currentColor"
     id="rect8181" />
  <g
     id="g8798"
     transform="matrix(0.93333572,0,0,1,3.8188901,0)">
    <path
       transform="matrix(0.004,0,0,-0.004,57.2854,58.6474)"
       id="path8183"
       d="M 0,0 C 0,31 25,56 56,56 87,56 112,31 112,0 112,-31 87,-56 56,-56 25,-56 0,-31 0,0 Z"
       inkscape:connector-curvature="0"
       style="fill:currentColor" />
    <path
       transform="matrix(0.004,0,0,-0.004,57.2854,59.9474)"
       id="path8185"
       d="M 0,0 C 0,31 25,56 56,56 87,56 112,31 112,0 112,-31 87,-56 56,-56 25,-56 0,-31 0,0 Z"
       inkscape:connector-curvature="0"
       style="fill:currentColor" />
    <rect
       id="rect8187"
       ry="0.0000"
       height="4"
       width="0.60000002"
       y="-2"
       x="0"
       transform="translate(58.5254,59.2974)"
       style="fill:currentColor" />
    <rect
       id="rect8189"
       ry="0.0000"
       height="4"
       width="0.19"
       y="-2"
       x="0"
       transform="translate(58.0354,59.2974)"
       style="fill:currentColor" />
  </g>
  <path
     transform="translate(26.3631, 58.7974) scale(0.0040, -0.0040)"
     d="M0 0c0 31 25 56 56 56s56 -25 56 -56s-25 -56 -56 -56s-56 25 -56 56z"
     fill="currentColor"
     id="path8191" />
  <path
     transform="translate(26.3631, 59.7974) scale(0.0040, -0.0040)"
     d="M0 0c0 31 25 56 56 56s56 -25 56 -56s-25 -56 -56 -56s-56 25 -56 56z"
     fill="currentColor"
     id="path8193" />
  <rect
     transform="translate(25.8731, 59.2974)"
     x="0.0000"
     y="-2.0000"
     width="0.1900"
     height="4.0000"
     ry="0.0000"
     fill="currentColor"
     id="rect8195" />
  <rect
     transform="translate(24.9731, 59.2974)"
     x="0.0000"
     y="-2.0000"
     width="0.6000"
     height="4.0000"
     ry="0.0000"
     fill="currentColor"
     id="rect8197" />
  <path
     transform="translate(49.4263, 110.2203) scale(0.0040, -0.0040)"
     d="M0 0c0 31 25 56 56 56s56 -25 56 -56s-25 -56 -56 -56s-56 25 -56 56z"
     fill="currentColor"
     id="path8199" />
  <path
     transform="translate(49.4263, 111.2203) scale(0.0040, -0.0040)"
     d="M0 0c0 31 25 56 56 56s56 -25 56 -56s-25 -56 -56 -56s-56 25 -56 56z"
     fill="currentColor"
     id="path8201" />
  <rect
     transform="translate(48.9363, 110.7203)"
     x="0.0000"
     y="-2.0000"
     width="0.1900"
     height="4.0000"
     ry="0.0000"
     fill="currentColor"
     id="rect8203" />
  <rect
     transform="translate(48.0363, 110.7203)"
     x="0.0000"
     y="-2.0000"
     width="0.6000"
     height="4.0000"
     ry="0.0000"
     fill="currentColor"
     id="rect8205" />
  <path
     transform="translate(49.4263, 144.5023) scale(0.0040, -0.0040)"
     d="M0 0c0 31 25 56 56 56s56 -25 56 -56s-25 -56 -56 -56s-56 25 -56 56z"
     fill="currentColor"
     id="path8207" />
  <path
     transform="translate(49.4263, 145.5023) scale(0.0040, -0.0040)"
     d="M0 0c0 31 25 56 56 56s56 -25 56 -56s-25 -56 -56 -56s-56 25 -56 56z"
     fill="currentColor"
     id="path8209" />
  <rect
     transform="translate(48.9363, 145.0023)"
     x="0.0000"
     y="-2.0000"
     width="0.1900"
     height="4.0000"
     ry="0.0000"
     fill="currentColor"
     id="rect8211" />
  <rect
     transform="translate(48.0363, 145.0023)"
     x="0.0000"
     y="-2.0000"
     width="0.6000"
     height="4.0000"
     ry="0.0000"
     fill="currentColor"
     id="rect8213" />
  <line
     transform="translate(14.4540, 93.3794)"
     stroke-linejoin="round"
     stroke-linecap="round"
     stroke-width="0.1000"
     stroke="currentColor"
     x1="0.0500"
     y1="-0.0000"
     x2="10.4691"
     y2="-0.0000"
     id="line8215" />
  <line
     transform="translate(14.4540, 93.4794)"
     stroke-linejoin="round"
     stroke-linecap="round"
     stroke-width="0.1000"
     stroke="currentColor"
     x1="0.0500"
     y1="-0.0000"
     x2="10.4691"
     y2="-0.0000"
     id="line8217" />
  <line
     transform="translate(14.4540, 93.5794)"
     stroke-linejoin="round"
     stroke-linecap="round"
     stroke-width="0.1000"
     stroke="currentColor"
     x1="0.0500"
     y1="-0.0000"
     x2="10.4691"
     y2="-0.0000"
     id="line8219" />
  <line
     transform="translate(14.4540, 93.6794)"
     stroke-linejoin="round"
     stroke-linecap="round"
     stroke-width="0.1000"
     stroke="currentColor"
     x1="0.0500"
     y1="-0.0000"
     x2="10.4691"
     y2="-0.0000"
     id="line8221" />
  <line
     transform="translate(14.4540, 93.7794)"
     stroke-linejoin="round"
     stroke-linecap="round"
     stroke-width="0.1000"
     stroke="currentColor"
     x1="0.0500"
     y1="-0.0000"
     x2="10.4691"
     y2="-0.0000"
     id="line8223" />
  <rect
     transform="translate(7.2270, 62.2974)"
     x="19.7321"
     y="-0.1000"
     width="2.9430"
     height="0.2000"
     ry="0.1000"
     fill="currentColor"
     id="rect8225" />
  <line
     transform="translate(107.8218, 59.0974)"
     stroke-linejoin="round"
     stroke-linecap="round"
     stroke-width="0.1000"
     stroke="currentColor"
     x1="0.0500"
     y1="-0.0000"
     x2="7.7602"
     y2="-0.0000"
     id="line8227" />
  <line
     transform="translate(107.8218, 59.1974)"
     stroke-linejoin="round"
     stroke-linecap="round"
     stroke-width="0.1000"
     stroke="currentColor"
     x1="0.0500"
     y1="-0.0000"
     x2="7.7602"
     y2="-0.0000"
     id="line8229" />
  <line
     transform="translate(107.8218, 59.2974)"
     stroke-linejoin="round"
     stroke-linecap="round"
     stroke-width="0.1000"
     stroke="currentColor"
     x1="0.0500"
     y1="-0.0000"
     x2="7.7602"
     y2="-0.0000"
     id="line8231" />
  <line
     transform="translate(107.8218, 59.3974)"
     stroke-linejoin="round"
     stroke-linecap="round"
     stroke-width="0.1000"
     stroke="currentColor"
     x1="0.0500"
     y1="-0.0000"
     x2="7.7602"
     y2="-0.0000"
     id="line8233" />
  <line
     transform="translate(107.8218, 59.4974)"
     stroke-linejoin="round"
     stroke-linecap="round"
     stroke-width="0.1000"
     stroke="currentColor"
     x1="0.0500"
     y1="-0.0000"
     x2="7.7602"
     y2="-0.0000"
     id="line8235" />
  <line
     transform="translate(14.4540, 110.5203)"
     stroke-linejoin="round"
     stroke-linecap="round"
     stroke-width="0.1000"
     stroke="currentColor"
     x1="0.0500"
     y1="-0.0000"
     x2="10.4691"
     y2="-0.0000"
     id="line8237" />
  <line
     transform="translate(14.4540, 110.6203)"
     stroke-linejoin="round"
     stroke-linecap="round"
     stroke-width="0.1000"
     stroke="currentColor"
     x1="0.0500"
     y1="-0.0000"
     x2="10.4691"
     y2="-0.0000"
     id="line8239" />
  <line
     transform="translate(14.4540, 110.7203)"
     stroke-linejoin="round"
     stroke-linecap="round"
     stroke-width="0.1000"
     stroke="currentColor"
     x1="0.0500"
     y1="-0.0000"
     x2="10.4691"
     y2="-0.0000"
     id="line8241" />
  <line
     transform="translate(14.4540, 110.8203)"
     stroke-linejoin="round"
     stroke-linecap="round"
     stroke-width="0.1000"
     stroke="currentColor"
     x1="0.0500"
     y1="-0.0000"
     x2="10.4691"
     y2="-0.0000"
     id="line8243" />
  <line
     transform="translate(14.4540, 110.9203)"
     stroke-linejoin="round"
     stroke-linecap="round"
     stroke-width="0.1000"
     stroke="currentColor"
     x1="0.0500"
     y1="-0.0000"
     x2="10.4691"
     y2="-0.0000"
     id="line8245" />
  <line
     transform="translate(14.4540, 127.6613)"
     stroke-linejoin="round"
     stroke-linecap="round"
     stroke-width="0.1000"
     stroke="currentColor"
     x1="0.0500"
     y1="-0.0000"
     x2="10.4691"
     y2="-0.0000"
     id="line8247" />
  <line
     transform="translate(14.4540, 127.7613)"
     stroke-linejoin="round"
     stroke-linecap="round"
     stroke-width="0.1000"
     stroke="currentColor"
     x1="0.0500"
     y1="-0.0000"
     x2="10.4691"
     y2="-0.0000"
     id="line8249" />
  <line
     transform="translate(14.4540, 127.8613)"
     stroke-linejoin="round"
     stroke-linecap="round"
     stroke-width="0.1000"
     stroke="currentColor"
     x1="0.0500"
     y1="-0.0000"
     x2="10.4691"
     y2="-0.0000"
     id="line8251" />
  <line
     transform="translate(14.4540, 127.9613)"
     stroke-linejoin="round"
     stroke-linecap="round"
     stroke-width="0.1000"
     stroke="currentColor"
     x1="0.0500"
     y1="-0.0000"
     x2="10.4691"
     y2="-0.0000"
     id="line8253" />
  <line
     transform="translate(14.4540, 128.0613)"
     stroke-linejoin="round"
     stroke-linecap="round"
     stroke-width="0.1000"
     stroke="currentColor"
     x1="0.0500"
     y1="-0.0000"
     x2="10.4691"
     y2="-0.0000"
     id="line8255" />
  <g
     id="g8828"
     transform="matrix(0.87542015,0,0,1,9.0685363,0)">
    <path
       id="path8257"
       d="M 0,0 C 0,31 25,56 56,56 87,56 112,31 112,0 112,-31 87,-56 56,-56 25,-56 0,-31 0,0 Z"
       transform="matrix(0.004,0,0,-0.004,63.695,24.3654)"
       inkscape:connector-curvature="0"
       style="fill:currentColor" />
    <path
       id="path8259"
       d="M 0,0 C 0,31 25,56 56,56 87,56 112,31 112,0 112,-31 87,-56 56,-56 25,-56 0,-31 0,0 Z"
       transform="matrix(0.004,0,0,-0.004,63.695,25.6654)"
       inkscape:connector-curvature="0"
       style="fill:currentColor" />
    <rect
       id="rect8261"
       ry="0.0000"
       height="4"
       width="0.60000002"
       y="-2"
       x="0"
       transform="translate(64.9349,25.0154)"
       style="fill:currentColor" />
    <rect
       id="rect8263"
       ry="0.0000"
       height="4"
       width="0.19"
       y="-2"
       x="0"
       transform="translate(64.4449,25.0154)"
       style="fill:currentColor" />
  </g>
  <line
     transform="translate(35.1279, 27.0154)"
     stroke-linejoin="round"
     stroke-linecap="round"
     stroke-width="0.1000"
     stroke="currentColor"
     x1="0.0500"
     y1="-0.0000"
     x2="30.3570"
     y2="-0.0000"
     id="line8265" />
  <line
     transform="translate(35.1279, 26.0154)"
     stroke-linejoin="round"
     stroke-linecap="round"
     stroke-width="0.1000"
     stroke="currentColor"
     x1="0.0500"
     y1="-0.0000"
     x2="30.3570"
     y2="-0.0000"
     id="line8267" />
  <line
     transform="translate(35.1279, 25.0154)"
     stroke-linejoin="round"
     stroke-linecap="round"
     stroke-width="0.1000"
     stroke="currentColor"
     x1="0.0500"
     y1="-0.0000"
     x2="30.3570"
     y2="-0.0000"
     id="line8269" />
  <line
     transform="translate(35.1279, 24.0154)"
     stroke-linejoin="round"
     stroke-linecap="round"
     stroke-width="0.1000"
     stroke="currentColor"
     x1="0.0500"
     y1="-0.0000"
     x2="30.3570"
     y2="-0.0000"
     id="line8271" />
  <line
     transform="translate(35.1279, 23.0154)"
     stroke-linejoin="round"
     stroke-linecap="round"
     stroke-width="0.1000"
     stroke="currentColor"
     x1="0.0500"
     y1="-0.0000"
     x2="30.3570"
     y2="-0.0000"
     id="line8273" />
  <line
     transform="translate(14.4540, 144.8023)"
     stroke-linejoin="round"
     stroke-linecap="round"
     stroke-width="0.1000"
     stroke="currentColor"
     x1="0.0500"
     y1="-0.0000"
     x2="10.4691"
     y2="-0.0000"
     id="line8275" />
  <line
     transform="translate(14.4540, 144.9023)"
     stroke-linejoin="round"
     stroke-linecap="round"
     stroke-width="0.1000"
     stroke="currentColor"
     x1="0.0500"
     y1="-0.0000"
     x2="10.4691"
     y2="-0.0000"
     id="line8277" />
  <line
     transform="translate(14.4540, 145.0023)"
     stroke-linejoin="round"
     stroke-linecap="round"
     stroke-width="0.1000"
     stroke="currentColor"
     x1="0.0500"
     y1="-0.0000"
     x2="10.4691"
     y2="-0.0000"
     id="line8279" />
  <line
     transform="translate(14.4540, 145.1023)"
     stroke-linejoin="round"
     stroke-linecap="round"
     stroke-width="0.1000"
     stroke="currentColor"
     x1="0.0500"
     y1="-0.0000"
     x2="10.4691"
     y2="-0.0000"
     id="line8281" />
  <line
     transform="translate(14.4540, 145.2023)"
     stroke-linejoin="round"
     stroke-linecap="round"
     stroke-width="0.1000"
     stroke="currentColor"
     x1="0.0500"
     y1="-0.0000"
     x2="10.4691"
     y2="-0.0000"
     id="line8283" />
  <line
     transform="translate(14.4540, 24.8154)"
     stroke-linejoin="round"
     stroke-linecap="round"
     stroke-width="0.1000"
     stroke="currentColor"
     x1="0.0500"
     y1="-0.0000"
     x2="10.4691"
     y2="-0.0000"
     id="line8285" />
  <line
     transform="translate(14.4540, 24.9154)"
     stroke-linejoin="round"
     stroke-linecap="round"
     stroke-width="0.1000"
     stroke="currentColor"
     x1="0.0500"
     y1="-0.0000"
     x2="10.4691"
     y2="-0.0000"
     id="line8287" />
  <line
     transform="translate(14.4540, 25.0154)"
     stroke-linejoin="round"
     stroke-linecap="round"
     stroke-width="0.1000"
     stroke="currentColor"
     x1="0.0500"
     y1="-0.0000"
     x2="10.4691"
     y2="-0.0000"
     id="line8289" />
  <line
     transform="translate(14.4540, 25.1154)"
     stroke-linejoin="round"
     stroke-linecap="round"
     stroke-width="0.1000"
     stroke="currentColor"
     x1="0.0500"
     y1="-0.0000"
     x2="10.4691"
     y2="-0.0000"
     id="line8291" />
  <line
     transform="translate(14.4540, 25.2154)"
     stroke-linejoin="round"
     stroke-linecap="round"
     stroke-width="0.1000"
     stroke="currentColor"
     x1="0.0500"
     y1="-0.0000"
     x2="10.4691"
     y2="-0.0000"
     id="line8293" />
  <line
     transform="translate(14.4540, 41.9564)"
     stroke-linejoin="round"
     stroke-linecap="round"
     stroke-width="0.1000"
     stroke="currentColor"
     x1="0.0500"
     y1="-0.0000"
     x2="10.4691"
     y2="-0.0000"
     id="line8295" />
  <line
     transform="translate(14.4540, 42.0564)"
     stroke-linejoin="round"
     stroke-linecap="round"
     stroke-width="0.1000"
     stroke="currentColor"
     x1="0.0500"
     y1="-0.0000"
     x2="10.4691"
     y2="-0.0000"
     id="line8297" />
  <line
     transform="translate(14.4540, 42.1564)"
     stroke-linejoin="round"
     stroke-linecap="round"
     stroke-width="0.1000"
     stroke="currentColor"
     x1="0.0500"
     y1="-0.0000"
     x2="10.4691"
     y2="-0.0000"
     id="line8299" />
  <line
     transform="translate(14.4540, 42.2564)"
     stroke-linejoin="round"
     stroke-linecap="round"
     stroke-width="0.1000"
     stroke="currentColor"
     x1="0.0500"
     y1="-0.0000"
     x2="10.4691"
     y2="-0.0000"
     id="line8301" />
  <line
     transform="translate(14.4540, 42.3564)"
     stroke-linejoin="round"
     stroke-linecap="round"
     stroke-width="0.1000"
     stroke="currentColor"
     x1="0.0500"
     y1="-0.0000"
     x2="10.4691"
     y2="-0.0000"
     id="line8303" />
  <line
     transform="translate(21.7081, 61.2974)"
     stroke-linejoin="round"
     stroke-linecap="round"
     stroke-width="0.1000"
     stroke="currentColor"
     x1="0.0500"
     y1="-0.0000"
     x2="36.2773"
     y2="-0.0000"
     id="line8305" />
  <line
     transform="translate(21.7081, 60.2974)"
     stroke-linejoin="round"
     stroke-linecap="round"
     stroke-width="0.1000"
     stroke="currentColor"
     x1="0.0500"
     y1="-0.0000"
     x2="36.2773"
     y2="-0.0000"
     id="line8307" />
  <line
     transform="translate(21.7081, 59.2974)"
     stroke-linejoin="round"
     stroke-linecap="round"
     stroke-width="0.1000"
     stroke="currentColor"
     x1="0.0500"
     y1="-0.0000"
     x2="36.2773"
     y2="-0.0000"
     id="line8309" />
  <line
     transform="translate(21.7081, 58.2974)"
     stroke-linejoin="round"
     stroke-linecap="round"
     stroke-width="0.1000"
     stroke="currentColor"
     x1="0.0500"
     y1="-0.0000"
     x2="36.2773"
     y2="-0.0000"
     id="line8311" />
  <line
     x1="0.0500"
     y1="-0.0000"
     x2="36.2773"
     y2="-0.0000"
     id="line8313"
     stroke-linejoin="round"
     stroke-linecap="round"
     stroke-width="0.1000"
     stroke="currentColor"
     transform="translate(21.7081, 57.2974)" />
  <line
     transform="translate(14.4540, 59.0974)"
     stroke-linejoin="round"
     stroke-linecap="round"
     stroke-width="0.1000"
     stroke="currentColor"
     x1="0.0500"
     y1="-0.0000"
     x2="10.4691"
     y2="-0.0000"
     id="line8315" />
  <line
     transform="translate(14.4540, 59.1974)"
     stroke-linejoin="round"
     stroke-linecap="round"
     stroke-width="0.1000"
     stroke="currentColor"
     x1="0.0500"
     y1="-0.0000"
     x2="10.4691"
     y2="-0.0000"
     id="line8317" />
  <line
     transform="translate(14.4540, 59.2974)"
     stroke-linejoin="round"
     stroke-linecap="round"
     stroke-width="0.1000"
     stroke="currentColor"
     x1="0.0500"
     y1="-0.0000"
     x2="10.4691"
     y2="-0.0000"
     id="line8319" />
  <line
     transform="translate(14.4540, 59.3974)"
     stroke-linejoin="round"
     stroke-linecap="round"
     stroke-width="0.1000"
     stroke="currentColor"
     x1="0.0500"
     y1="-0.0000"
     x2="10.4691"
     y2="-0.0000"
     id="line8321" />
  <line
     transform="translate(14.4540, 59.4974)"
     stroke-linejoin="round"
     stroke-linecap="round"
     stroke-width="0.1000"
     stroke="currentColor"
     x1="0.0500"
     y1="-0.0000"
     x2="10.4691"
     y2="-0.0000"
     id="line8323" />
  <line
     transform="translate(14.4540, 76.2384)"
     stroke-linejoin="round"
     stroke-linecap="round"
     stroke-width="0.1000"
     stroke="currentColor"
     x1="0.0500"
     y1="-0.0000"
     x2="10.4691"
     y2="-0.0000"
     id="line8325" />
  <line
     transform="translate(14.4540, 76.3384)"
     stroke-linejoin="round"
     stroke-linecap="round"
     stroke-width="0.1000"
     stroke="currentColor"
     x1="0.0500"
     y1="-0.0000"
     x2="10.4691"
     y2="-0.0000"
     id="line8327" />
  <line
     transform="translate(14.4540, 76.4384)"
     stroke-linejoin="round"
     stroke-linecap="round"
     stroke-width="0.1000"
     stroke="currentColor"
     x1="0.0500"
     y1="-0.0000"
     x2="10.4691"
     y2="-0.0000"
     id="line8329" />
  <line
     transform="translate(14.4540, 76.5384)"
     stroke-linejoin="round"
     stroke-linecap="round"
     stroke-width="0.1000"
     stroke="currentColor"
     x1="0.0500"
     y1="-0.0000"
     x2="10.4691"
     y2="-0.0000"
     id="line8331" />
  <line
     transform="translate(14.4540, 76.6384)"
     stroke-linejoin="round"
     stroke-linecap="round"
     stroke-width="0.1000"
     stroke="currentColor"
     x1="0.0500"
     y1="-0.0000"
     x2="10.4691"
     y2="-0.0000"
     id="line8333" />
  <line
     transform="translate(107.8218, 24.8154)"
     stroke-linejoin="round"
     stroke-linecap="round"
     stroke-width="0.1000"
     stroke="currentColor"
     x1="0.0500"
     y1="-0.0000"
     x2="7.7602"
     y2="-0.0000"
     id="line8335" />
  <line
     transform="translate(107.8218, 24.9154)"
     stroke-linejoin="round"
     stroke-linecap="round"
     stroke-width="0.1000"
     stroke="currentColor"
     x1="0.0500"
     y1="-0.0000"
     x2="7.7602"
     y2="-0.0000"
     id="line8337" />
  <line
     transform="translate(107.8218, 25.0154)"
     stroke-linejoin="round"
     stroke-linecap="round"
     stroke-width="0.1000"
     stroke="currentColor"
     x1="0.0500"
     y1="-0.0000"
     x2="7.7602"
     y2="-0.0000"
     id="line8339" />
  <line
     transform="translate(107.8218, 25.1154)"
     stroke-linejoin="round"
     stroke-linecap="round"
     stroke-width="0.1000"
     stroke="currentColor"
     x1="0.0500"
     y1="-0.0000"
     x2="7.7602"
     y2="-0.0000"
     id="line8341" />
  <line
     transform="translate(107.8218, 25.2154)"
     stroke-linejoin="round"
     stroke-linecap="round"
     stroke-width="0.1000"
     stroke="currentColor"
     x1="0.0500"
     y1="-0.0000"
     x2="7.7602"
     y2="-0.0000"
     id="line8343" />
  <line
     transform="translate(44.6530, 147.0023)"
     stroke-linejoin="round"
     stroke-linecap="round"
     stroke-width="0.1000"
     stroke="currentColor"
     x1="0.0500"
     y1="-0.0000"
     x2="26.4374"
     y2="-0.0000"
     id="line8345" />
  <line
     transform="translate(44.6530, 146.0023)"
     stroke-linejoin="round"
     stroke-linecap="round"
     stroke-width="0.1000"
     stroke="currentColor"
     x1="0.0500"
     y1="-0.0000"
     x2="26.4374"
     y2="-0.0000"
     id="line8347" />
  <line
     transform="translate(44.6530, 145.0023)"
     stroke-linejoin="round"
     stroke-linecap="round"
     stroke-width="0.1000"
     stroke="currentColor"
     x1="0.0500"
     y1="-0.0000"
     x2="26.4374"
     y2="-0.0000"
     id="line8349" />
  <line
     transform="translate(44.6530, 144.0023)"
     stroke-linejoin="round"
     stroke-linecap="round"
     stroke-width="0.1000"
     stroke="currentColor"
     x1="0.0500"
     y1="-0.0000"
     x2="26.4374"
     y2="-0.0000"
     id="line8351" />
  <line
     transform="translate(44.6530, 143.0023)"
     stroke-linejoin="round"
     stroke-linecap="round"
     stroke-width="0.1000"
     stroke="currentColor"
     x1="0.0500"
     y1="-0.0000"
     x2="26.4374"
     y2="-0.0000"
     id="line8353" />
  <line
     x1="88.68898"
     y1="41.956402"
     x2="115.582"
     y2="41.956402"
     id="line8355"
     style="stroke:currentColor;stroke-width:0.09342415;stroke-linecap:round;stroke-linejoin:round" />
  <line
     x1="88.68898"
     y1="42.0564"
     x2="115.582"
     y2="42.0564"
     id="line8357"
     style="stroke:currentColor;stroke-width:0.09342415;stroke-linecap:round;stroke-linejoin:round" />
  <line
     x1="88.68898"
     y1="42.156399"
     x2="115.582"
     y2="42.156399"
     id="line8359"
     style="stroke:currentColor;stroke-width:0.09342415;stroke-linecap:round;stroke-linejoin:round" />
  <line
     x1="88.68898"
     y1="42.256401"
     x2="115.582"
     y2="42.256401"
     id="line8361"
     style="stroke:currentColor;stroke-width:0.09342415;stroke-linecap:round;stroke-linejoin:round" />
  <line
     x1="88.68898"
     y1="42.3564"
     x2="115.582"
     y2="42.3564"
     id="line8363"
     style="stroke:currentColor;stroke-width:0.09342415;stroke-linecap:round;stroke-linejoin:round" />
  <g
     id="g8862">
    <g
       id="g8771">
      <path
         style="fill:currentColor"
         inkscape:connector-curvature="0"
         transform="matrix(0.004,0,0,-0.004,69.3004,144.3523)"
         d="M 0,0 C 0,31 25,56 56,56 87,56 112,31 112,0 112,-31 87,-56 56,-56 25,-56 0,-31 0,0 Z"
         id="path8053" />
      <path
         style="fill:currentColor"
         inkscape:connector-curvature="0"
         transform="matrix(0.004,0,0,-0.004,69.3004,145.6523)"
         d="M 0,0 C 0,31 25,56 56,56 87,56 112,31 112,0 112,-31 87,-56 56,-56 25,-56 0,-31 0,0 Z"
         id="path8055" />
      <rect
         style="fill:currentColor"
         transform="translate(70.5404,145.0023)"
         x="0"
         y="-2"
         width="0.60000002"
         height="4"
         ry="0.0000"
         id="rect8057" />
      <rect
         style="fill:currentColor"
         transform="translate(70.0504,145.0023)"
         x="0"
         y="-2"
         width="0.19"
         height="4"
         ry="0.0000"
         id="rect8059" />
    </g>
  </g>
  <line
     style="stroke:currentColor;stroke-width:0.09842677;stroke-linecap:round;stroke-linejoin:round"
     x1="70.793625"
     y1="144.80231"
     x2="115.582"
     y2="144.80231"
     id="line8365" />
  <line
     style="stroke:currentColor;stroke-width:0.09842677;stroke-linecap:round;stroke-linejoin:round"
     x1="70.793625"
     y1="144.9023"
     x2="115.582"
     y2="144.9023"
     id="line8367" />
  <line
     style="stroke:currentColor;stroke-width:0.09842677;stroke-linecap:round;stroke-linejoin:round"
     x1="70.793625"
     y1="145.0023"
     x2="115.582"
     y2="145.0023"
     id="line8369" />
  <line
     style="stroke:currentColor;stroke-width:0.09842677;stroke-linecap:round;stroke-linejoin:round"
     x1="70.793625"
     y1="145.10229"
     x2="115.582"
     y2="145.10229"
     id="line8371" />
  <line
     style="stroke:currentColor;stroke-width:0.09842677;stroke-linecap:round;stroke-linejoin:round"
     x1="70.793625"
     y1="145.2023"
     x2="115.582"
     y2="145.2023"
     id="line8373" />
  <line
     x1="86.408974"
     y1="93.379402"
     x2="115.582"
     y2="93.379402"
     id="line8375"
     style="stroke:currentColor;stroke-width:0.09730387;stroke-linecap:round;stroke-linejoin:round" />
  <line
     x1="86.408974"
     y1="93.479401"
     x2="115.582"
     y2="93.479401"
     id="line8377"
     style="stroke:currentColor;stroke-width:0.09730387;stroke-linecap:round;stroke-linejoin:round" />
  <line
     x1="86.408974"
     y1="93.579399"
     x2="115.582"
     y2="93.579399"
     id="line8379"
     style="stroke:currentColor;stroke-width:0.09730387;stroke-linecap:round;stroke-linejoin:round" />
  <line
     x1="86.408974"
     y1="93.679398"
     x2="115.582"
     y2="93.679398"
     id="line8381"
     style="stroke:currentColor;stroke-width:0.09730387;stroke-linecap:round;stroke-linejoin:round" />
  <line
     x1="86.408974"
     y1="93.779404"
     x2="115.582"
     y2="93.779404"
     id="line8383"
     style="stroke:currentColor;stroke-width:0.09730387;stroke-linecap:round;stroke-linejoin:round" />
  <line
     transform="translate(44.6530, 112.7203)"
     stroke-linejoin="round"
     stroke-linecap="round"
     stroke-width="0.1000"
     stroke="currentColor"
     x1="0.0500"
     y1="-0.0000"
     x2="26.4374"
     y2="-0.0000"
     id="line8385" />
  <line
     transform="translate(44.6530, 111.7203)"
     stroke-linejoin="round"
     stroke-linecap="round"
     stroke-width="0.1000"
     stroke="currentColor"
     x1="0.0500"
     y1="-0.0000"
     x2="26.4374"
     y2="-0.0000"
     id="line8387" />
  <line
     transform="translate(44.6530, 110.7203)"
     stroke-linejoin="round"
     stroke-linecap="round"
     stroke-width="0.1000"
     stroke="currentColor"
     x1="0.0500"
     y1="-0.0000"
     x2="26.4374"
     y2="-0.0000"
     id="line8389" />
  <line
     transform="translate(44.6530, 109.7203)"
     stroke-linejoin="round"
     stroke-linecap="round"
     stroke-width="0.1000"
     stroke="currentColor"
     x1="0.0500"
     y1="-0.0000"
     x2="26.4374"
     y2="-0.0000"
     id="line8391" />
  <line
     transform="translate(44.6530, 108.7203)"
     stroke-linejoin="round"
     stroke-linecap="round"
     stroke-width="0.1000"
     stroke="currentColor"
     x1="0.0500"
     y1="-0.0000"
     x2="26.4374"
     y2="-0.0000"
     id="line8393" />
  <line
     x1="71.090401"
     y1="110.5203"
     x2="115.582"
     y2="110.5203"
     id="line8395"
     style="stroke:currentColor;stroke-width:0.09810013;stroke-linecap:round;stroke-linejoin:round" />
  <line
     x1="71.090401"
     y1="110.6203"
     x2="115.582"
     y2="110.6203"
     id="line8397"
     style="stroke:currentColor;stroke-width:0.09810013;stroke-linecap:round;stroke-linejoin:round" />
  <line
     x1="71.090401"
     y1="110.7203"
     x2="115.582"
     y2="110.7203"
     id="line8399"
     style="stroke:currentColor;stroke-width:0.09810013;stroke-linecap:round;stroke-linejoin:round" />
  <line
     x1="71.090401"
     y1="110.8203"
     x2="115.582"
     y2="110.8203"
     id="line8401"
     style="stroke:currentColor;stroke-width:0.09810013;stroke-linecap:round;stroke-linejoin:round" />
  <line
     x1="71.090401"
     y1="110.9203"
     x2="115.582"
     y2="110.9203"
     id="line8403"
     style="stroke:currentColor;stroke-width:0.09810013;stroke-linecap:round;stroke-linejoin:round" />
  <line
     x1="106.51789"
     y1="76.238403"
     x2="115.582"
     y2="76.238403"
     id="line8405"
     style="stroke:currentColor;stroke-width:0.06416225;stroke-linecap:round;stroke-linejoin:round" />
  <line
     x1="106.51789"
     y1="76.338402"
     x2="115.582"
     y2="76.338402"
     id="line8407"
     style="stroke:currentColor;stroke-width:0.06416225;stroke-linecap:round;stroke-linejoin:round" />
  <line
     x1="106.51789"
     y1="76.4384"
     x2="115.582"
     y2="76.4384"
     id="line8409"
     style="stroke:currentColor;stroke-width:0.06416225;stroke-linecap:round;stroke-linejoin:round" />
  <line
     x1="106.51789"
     y1="76.538399"
     x2="115.582"
     y2="76.538399"
     id="line8411"
     style="stroke:currentColor;stroke-width:0.06416225;stroke-linecap:round;stroke-linejoin:round" />
  <line
     x1="106.51789"
     y1="76.638397"
     x2="115.582"
     y2="76.638397"
     id="line8413"
     style="stroke:currentColor;stroke-width:0.06416225;stroke-linecap:round;stroke-linejoin:round" />
  <line
     x1="103.1302"
     y1="127.6613"
     x2="115.582"
     y2="127.6613"
     id="line8415"
     style="stroke:currentColor;stroke-width:0.07520264;stroke-linecap:round;stroke-linejoin:round" />
  <line
     x1="103.1302"
     y1="127.7613"
     x2="115.582"
     y2="127.7613"
     id="line8417"
     style="stroke:currentColor;stroke-width:0.07520264;stroke-linecap:round;stroke-linejoin:round" />
  <line
     x1="103.1302"
     y1="127.8613"
     x2="115.582"
     y2="127.8613"
     id="line8419"
     style="stroke:currentColor;stroke-width:0.07520264;stroke-linecap:round;stroke-linejoin:round" />
  <line
     x1="103.1302"
     y1="127.9613"
     x2="115.582"
     y2="127.9613"
     id="line8421"
     style="stroke:currentColor;stroke-width:0.07520264;stroke-linecap:round;stroke-linejoin:round" />
  <line
     x1="103.1302"
     y1="128.06129"
     x2="115.582"
     y2="128.06129"
     id="line8423"
     style="stroke:currentColor;stroke-width:0.07520264;stroke-linecap:round;stroke-linejoin:round" />
  <line
     transform="translate(27.4496, 18.4184)"
     stroke-linejoin="round"
     stroke-linecap="round"
     stroke-width="0.1000"
     stroke="currentColor"
     x1="64.8960"
     y1="-0.0000"
     x2="65.3960"
     y2="1.0000"
     id="line8425" />
  <line
     transform="translate(27.4496, 18.4184)"
     stroke-linejoin="round"
     stroke-linecap="round"
     stroke-width="0.1000"
     stroke="currentColor"
     x1="0.5000"
     y1="-0.0000"
     x2="0.0000"
     y2="1.0000"
     id="line8427" />
  <line
     transform="translate(27.4496, 18.4184)"
     stroke-linejoin="round"
     stroke-linecap="round"
     stroke-width="0.1000"
     stroke="currentColor"
     x1="0.5000"
     y1="-0.0000"
     x2="64.8960"
     y2="-0.0000"
     id="line8429" />
  <rect
     transform="translate(96.8013, 13.4184)"
     x="-0.0650"
     y="3.2410"
     width="0.1300"
     height="0.0000"
     ry="0.0000"
     fill="currentColor"
     id="rect8431" />
  <rect
     transform="translate(92.7807, 13.4184)"
     x="-0.0650"
     y="3.3139"
     width="0.1300"
     height="0.0000"
     ry="0.0000"
     fill="currentColor"
     id="rect8433" />
  <rect
     transform="translate(114.1480, 13.4184)"
     x="-0.0650"
     y="3.3139"
     width="0.1300"
     height="0.0000"
     ry="0.0000"
     fill="currentColor"
     id="rect8443" />
  <path
     d="m 97.213036,59.3974 c 0,1.0922 0.1524,2.2098 0.7747,3.0988 0.0254,0.0254 0.0254,0.0508 0.0254,0.0762 0,0.0762 -0.0635,0.1397 -0.1397,0.1397 -0.0381,0 -0.0889,-0.0254 -0.1143,-0.0635 -0.6731,-0.9652 -1.1303,-2.0701 -1.1303,-3.2512 0,-1.1811 0.4572,-2.286 1.1303,-3.2512 0.0254,-0.0381 0.0762,-0.0635 0.1143,-0.0635 0.0762,0 0.1397,0.0635 0.1397,0.1397 0,0.0254 0,0.0508 -0.0254,0.0762 -0.6223,0.889 -0.7747,2.0066 -0.7747,3.0988 z"
     id="path8445"
     inkscape:connector-curvature="0"
     style="fill:currentColor;stroke-width:0.0127" />
  <path
     d="m 107.8718,59.4974 c 0,-1.0922 -0.1524,-2.2098 -0.7747,-3.0988 -0.0254,-0.0254 -0.0254,-0.0508 -0.0254,-0.0762 0,-0.0762 0.0635,-0.1397 0.1397,-0.1397 0.0381,0 0.0889,0.0254 0.1143,0.0635 0.6731,0.9652 1.1303,2.0701 1.1303,3.2512 0,1.1811 -0.4572,2.286 -1.1303,3.2512 -0.0254,0.0381 -0.0762,0.0635 -0.1143,0.0635 -0.0762,0 -0.1397,-0.0635 -0.1397,-0.1397 0,-0.0254 0,-0.0508 0.0254,-0.0762 0.6223,-0.889 0.7747,-2.0066 0.7747,-3.0988 z"
     id="path8447"
     inkscape:connector-curvature="0"
     style="fill:currentColor;stroke-width:0.0127" />
  <text
     transform="translate(58.4405, 17.8343)"
     font-family="serif"
     font-size="1.9600"
     text-anchor="start"
     fill="currentColor"
     id="text8451">
    <tspan
       id="tspan8449">60&quot;</tspan>
  </text>
  <circle
     r="0.3500"
     id="circle8453"
     stroke-linejoin="round"
     stroke-linecap="round"
     stroke-width="0.1000"
     stroke="currentColor"
     fill="none"
     transform="translate(55.6212, 55.4670)" />
  <line
     transform="translate(31.0354, 55.4670)"
     stroke-linejoin="round"
     stroke-linecap="round"
     stroke-width="0.1000"
     stroke="currentColor"
     x1="0.0000"
     y1="0.6666"
     x2="24.1859"
     y2="0.0000"
     id="line8455" />
  <line
     transform="translate(31.0354, 55.4670)"
     stroke-linejoin="round"
     stroke-linecap="round"
     stroke-width="0.1000"
     stroke="currentColor"
     x1="0.0000"
     y1="-0.6666"
     x2="24.1859"
     y2="-0.0000"
     id="line8457" />
  <circle
     r="0.3500"
     id="circle8459"
     stroke-linejoin="round"
     stroke-linecap="round"
     stroke-width="0.1000"
     stroke="currentColor"
     fill="none"
     transform="translate(62.8766, 21.1850)" />
  <line
     transform="translate(44.8008, 21.1850)"
     stroke-linejoin="round"
     stroke-linecap="round"
     stroke-width="0.1000"
     stroke="currentColor"
     x1="0.0000"
     y1="0.6666"
     x2="17.6758"
     y2="0.0000"
     id="line8461" />
  <line
     transform="translate(44.8008, 21.1850)"
     stroke-linejoin="round"
     stroke-linecap="round"
     stroke-width="0.1000"
     stroke="currentColor"
     x1="0.0000"
     y1="-0.6666"
     x2="17.6758"
     y2="-0.0000"
     id="line8463" />
  <circle
     transform="translate(68.4820, 106.8899)"
     stroke-linejoin="round"
     stroke-linecap="round"
     fill="none"
     stroke="currentColor"
     stroke-width="0.1000"
     r="0.3500"
     id="circle8465" />
  <line
     transform="translate(55.4142, 106.8899)"
     stroke-linejoin="round"
     stroke-linecap="round"
     stroke-width="0.1000"
     stroke="currentColor"
     x1="0.0000"
     y1="0.6666"
     x2="12.6678"
     y2="0.0000"
     id="line8467" />
  <line
     transform="translate(55.4142, 106.8899)"
     stroke-linejoin="round"
     stroke-linecap="round"
     stroke-width="0.1000"
     stroke="currentColor"
     x1="0.0000"
     y1="-0.6666"
     x2="12.6678"
     y2="-0.0000"
     id="line8469" />
  <circle
     transform="translate(68.4820, 141.1718)"
     stroke-linejoin="round"
     stroke-linecap="round"
     fill="none"
     stroke="currentColor"
     stroke-width="0.1000"
     r="0.3500"
     id="circle8471" />
  <line
     transform="translate(55.4142, 141.1718)"
     stroke-linejoin="round"
     stroke-linecap="round"
     stroke-width="0.1000"
     stroke="currentColor"
     x1="0.0000"
     y1="0.6666"
     x2="12.6678"
     y2="0.0000"
     id="line8473" />
  <line
     transform="translate(55.4142, 141.1718)"
     stroke-linejoin="round"
     stroke-linecap="round"
     stroke-width="0.1000"
     stroke="currentColor"
     x1="0.0000"
     y1="-0.6666"
     x2="12.6678"
     y2="-0.0000"
     id="line8475" />
  <line
     transform="translate(95.4890, 18.4184)"
     stroke-linejoin="round"
     stroke-linecap="round"
     stroke-width="0.1000"
     stroke="currentColor"
     x1="18.2240"
     y1="-0.0000"
     x2="18.7240"
     y2="1.0000"
     id="line8477" />
  <line
     transform="translate(95.4890, 18.4184)"
     stroke-linejoin="round"
     stroke-linecap="round"
     stroke-width="0.1000"
     stroke="currentColor"
     x1="0.5000"
     y1="-0.0000"
     x2="0.0000"
     y2="1.0000"
     id="line8479" />
  <line
     transform="translate(95.4890, 18.4184)"
     stroke-linejoin="round"
     stroke-linecap="round"
     stroke-width="0.1000"
     stroke="currentColor"
     x1="0.5000"
     y1="-0.0000"
     x2="18.2240"
     y2="-0.0000"
     id="line8481" />
  <text
     transform="translate(103.1438, 17.8343)"
     font-family="serif"
     font-size="1.9600"
     text-anchor="start"
     fill="currentColor"
     id="text8485">
    <tspan
       id="tspan8483">25&quot;</tspan>
  </text>
  <path
     d="m 96.667366,24.815399 c 0,1.0922 0.1524,2.2098 0.7747,3.0988 0.0254,0.0254 0.0254,0.0508 0.0254,0.0762 0,0.0762 -0.0635,0.1397 -0.1397,0.1397 -0.0381,0 -0.0889,-0.0254 -0.1143,-0.0635 -0.6731,-0.9652 -1.1303,-2.0701 -1.1303,-3.2512 0,-1.1811 0.4572,-2.286 1.1303,-3.2512 0.0254,-0.0381 0.0762,-0.0635 0.1143,-0.0635 0.0762,0 0.1397,0.0635 0.1397,0.1397 0,0.0254 0,0.0508 -0.0254,0.0762 -0.6223,0.889 -0.7747,2.0066 -0.7747,3.0988 z"
     id="path8487"
     inkscape:connector-curvature="0"
     style="fill:currentColor;stroke-width:0.0127" />
  <path
     d="m 107.8718,24.9154 c 0,-1.0922 -0.1524,-2.2098 -0.7747,-3.0988 -0.0254,-0.0254 -0.0254,-0.0508 -0.0254,-0.0762 0,-0.0762 0.0635,-0.1397 0.1397,-0.1397 0.0381,0 0.0889,0.0254 0.1143,0.0635 0.6731,0.9652 1.1303,2.0701 1.1303,3.2512 0,1.1811 -0.4572,2.286 -1.1303,3.2512 -0.0254,0.0381 -0.0762,0.0635 -0.1143,0.0635 -0.0762,0 -0.1397,-0.0635 -0.1397,-0.1397 0,-0.0254 0,-0.0508 0.0254,-0.0762 0.6223,-0.889 0.7747,-2.0066 0.7747,-3.0988 z"
     id="path8489"
     inkscape:connector-curvature="0"
     style="fill:currentColor;stroke-width:0.0127" />
  <path
     transform="translate(100.9149, 62.2974) scale(0.0040, -0.0040)"
     d="M216 -312c0 -10 -8 -19 -18 -19s-19 9 -19 19v145l-83 -31v-158c0 -10 -9 -19 -19 -19s-18 9 -18 19v145l-32 -12c-2 -1 -5 -1 -7 -1c-11 0 -20 9 -20 20v60c0 8 5 16 13 19l46 16v160l-32 -11c-2 -1 -5 -1 -7 -1c-11 0 -20 9 -20 20v60c0 8 5 15 13 18l46 17v158 c0 10 8 19 18 19s19 -9 19 -19v-145l83 31v158c0 10 9 19 19 19s18 -9 18 -19v-145l32 12c2 1 5 1 7 1c11 0 20 -9 20 -20v-60c0 -8 -5 -16 -13 -19l-46 -16v-160l32 11c2 1 5 1 7 1c11 0 20 -9 20 -20v-60c0 -8 -5 -15 -13 -18l-46 -17v-158zM96 65v-160l83 30v160z"
     fill="currentColor"
     id="path8491" />
  <path
     transform="translate(100.9149, 26.5154) scale(0.0040, -0.0040)"
     d="M216 -312c0 -10 -8 -19 -18 -19s-19 9 -19 19v145l-83 -31v-158c0 -10 -9 -19 -19 -19s-18 9 -18 19v145l-32 -12c-2 -1 -5 -1 -7 -1c-11 0 -20 9 -20 20v60c0 8 5 16 13 19l46 16v160l-32 -11c-2 -1 -5 -1 -7 -1c-11 0 -20 9 -20 20v60c0 8 5 15 13 18l46 17v158 c0 10 8 19 18 19s19 -9 19 -19v-145l83 31v158c0 10 9 19 19 19s18 -9 18 -19v-145l32 12c2 1 5 1 7 1c11 0 20 -9 20 -20v-60c0 -8 -5 -16 -13 -19l-46 -16v-160l32 11c2 1 5 1 7 1c11 0 20 -9 20 -20v-60c0 -8 -5 -15 -13 -18l-46 -17v-158zM96 65v-160l83 30v160z"
     fill="currentColor"
     id="path8493" />
  <path
     d="M376 262c4 0 9 1 13 1c155 0 256 -128 256 -261c0 -76 -33 -154 -107 -210c-22 -17 -47 -28 -73 -36c3 -35 5 -70 5 -105c0 -19 -1 -39 -2 -58c-7 -120 -90 -228 -208 -228c-108 0 -195 88 -195 197c0 58 53 103 112 103c54 0 95 -47 95 -103c0 -52 -43 -95 -95 -95 c-11 0 -21 2 -31 6c26 -39 68 -65 117 -65c96 0 157 92 163 191c1 18 2 37 2 55c0 31 -1 61 -4 92c-29 -5 -58 -8 -89 -8c-188 0 -333 172 -333 374c0 177 131 306 248 441c-19 62 -37 125 -45 190c-6 52 -7 104 -7 156c0 115 55 224 149 292c3 2 7 3 10 3c4 0 7 0 10 -3 c71 -84 133 -245 133 -358c0 -143 -86 -255 -180 -364c21 -68 39 -138 56 -207zM461 -203c68 24 113 95 113 164c0 90 -66 179 -173 190c24 -116 46 -231 60 -354zM74 28c0 -135 129 -247 264 -247c28 0 55 2 82 6c-14 127 -37 245 -63 364c-79 -8 -124 -61 -124 -119 c0 -44 25 -91 81 -123c5 -5 7 -10 7 -15c0 -11 -10 -22 -22 -22c-3 0 -6 1 -9 2c-80 43 -117 115 -117 185c0 88 58 174 160 197c-14 58 -29 117 -46 175c-107 -121 -213 -243 -213 -403zM408 1045c-99 -48 -162 -149 -162 -259c0 -74 18 -133 36 -194 c80 97 146 198 146 324c0 55 -4 79 -20 129z"
     id="path8495"
     transform="translate(97.5499, 60.2974) scale(0.0040, -0.0040)"
     fill="currentColor" />
  <path
     transform="translate(102.3649, 62.2974) scale(0.0040, -0.0040)"
     d="M218 136c55 0 108 -28 108 -89c0 -71 -55 -121 -102 -149c-35 -21 -75 -34 -116 -34c-55 0 -108 28 -108 89c0 71 55 121 102 149c35 21 75 34 116 34z"
     fill="currentColor"
     id="path8497" />
  <path
     d="M376 262c4 0 9 1 13 1c155 0 256 -128 256 -261c0 -76 -33 -154 -107 -210c-22 -17 -47 -28 -73 -36c3 -35 5 -70 5 -105c0 -19 -1 -39 -2 -58c-7 -120 -90 -228 -208 -228c-108 0 -195 88 -195 197c0 58 53 103 112 103c54 0 95 -47 95 -103c0 -52 -43 -95 -95 -95 c-11 0 -21 2 -31 6c26 -39 68 -65 117 -65c96 0 157 92 163 191c1 18 2 37 2 55c0 31 -1 61 -4 92c-29 -5 -58 -8 -89 -8c-188 0 -333 172 -333 374c0 177 131 306 248 441c-19 62 -37 125 -45 190c-6 52 -7 104 -7 156c0 115 55 224 149 292c3 2 7 3 10 3c4 0 7 0 10 -3 c71 -84 133 -245 133 -358c0 -143 -86 -255 -180 -364c21 -68 39 -138 56 -207zM461 -203c68 24 113 95 113 164c0 90 -66 179 -173 190c24 -116 46 -231 60 -354zM74 28c0 -135 129 -247 264 -247c28 0 55 2 82 6c-14 127 -37 245 -63 364c-79 -8 -124 -61 -124 -119 c0 -44 25 -91 81 -123c5 -5 7 -10 7 -15c0 -11 -10 -22 -22 -22c-3 0 -6 1 -9 2c-80 43 -117 115 -117 185c0 88 58 174 160 197c-14 58 -29 117 -46 175c-107 -121 -213 -243 -213 -403zM408 1045c-99 -48 -162 -149 -162 -259c0 -74 18 -133 36 -194 c80 97 146 198 146 324c0 55 -4 79 -20 129z"
     id="path8499"
     transform="translate(97.5499, 26.0154) scale(0.0040, -0.0040)"
     fill="currentColor" />
  <path
     transform="translate(102.3649, 26.5154) scale(0.0040, -0.0040)"
     d="M218 136c55 0 108 -28 108 -89c0 -71 -55 -121 -102 -149c-35 -21 -75 -34 -116 -34c-55 0 -108 28 -108 89c0 71 55 121 102 149c35 21 75 34 116 34z"
     fill="currentColor"
     id="path8501" />
  <path
     transform="translate(27.4496, 93.5794) scale(0.0040, -0.0040)"
     d="M163 36l119 97c3 2 6 3 9 3s7 -1 10 -3l20 -16c3 -3 5 -8 5 -12s-2 -9 -5 -12l-115 -93l115 -93c3 -3 5 -8 5 -12s-2 -9 -5 -12l-20 -16c-3 -2 -7 -3 -10 -3s-6 1 -9 3l-119 97l-119 -97c-3 -2 -6 -3 -9 -3s-7 1 -10 3l-20 16c-3 3 -5 8 -5 12s2 9 5 12l115 93l-115 93 c-3 3 -5 8 -5 12s2 9 5 12l20 16c3 2 7 3 10 3s6 -1 9 -3z"
     fill="currentColor"
     id="path8503" />
  <path
     transform="translate(27.4496, 110.7203) scale(0.0040, -0.0040)"
     d="M163 36l119 97c3 2 6 3 9 3s7 -1 10 -3l20 -16c3 -3 5 -8 5 -12s-2 -9 -5 -12l-115 -93l115 -93c3 -3 5 -8 5 -12s-2 -9 -5 -12l-20 -16c-3 -2 -7 -3 -10 -3s-6 1 -9 3l-119 97l-119 -97c-3 -2 -6 -3 -9 -3s-7 1 -10 3l-20 16c-3 3 -5 8 -5 12s2 9 5 12l115 93l-115 93 c-3 3 -5 8 -5 12s2 9 5 12l20 16c3 2 7 3 10 3s6 -1 9 -3z"
     fill="currentColor"
     id="path8505" />
  <path
     transform="translate(27.4496, 127.8613) scale(0.0040, -0.0040)"
     d="M163 36l119 97c3 2 6 3 9 3s7 -1 10 -3l20 -16c3 -3 5 -8 5 -12s-2 -9 -5 -12l-115 -93l115 -93c3 -3 5 -8 5 -12s-2 -9 -5 -12l-20 -16c-3 -2 -7 -3 -10 -3s-6 1 -9 3l-119 97l-119 -97c-3 -2 -6 -3 -9 -3s-7 1 -10 3l-20 16c-3 3 -5 8 -5 12s2 9 5 12l115 93l-115 93 c-3 3 -5 8 -5 12s2 9 5 12l20 16c3 2 7 3 10 3s6 -1 9 -3z"
     fill="currentColor"
     id="path8507" />
  <path
     transform="translate(27.4496, 145.0023) scale(0.0040, -0.0040)"
     d="M163 36l119 97c3 2 6 3 9 3s7 -1 10 -3l20 -16c3 -3 5 -8 5 -12s-2 -9 -5 -12l-115 -93l115 -93c3 -3 5 -8 5 -12s-2 -9 -5 -12l-20 -16c-3 -2 -7 -3 -10 -3s-6 1 -9 3l-119 97l-119 -97c-3 -2 -6 -3 -9 -3s-7 1 -10 3l-20 16c-3 3 -5 8 -5 12s2 9 5 12l115 93l-115 93 c-3 3 -5 8 -5 12s2 9 5 12l20 16c3 2 7 3 10 3s6 -1 9 -3z"
     fill="currentColor"
     id="path8509" />
  <path
     transform="translate(27.4496, 76.4384) scale(0.0040, -0.0040)"
     d="M163 36l119 97c3 2 6 3 9 3s7 -1 10 -3l20 -16c3 -3 5 -8 5 -12s-2 -9 -5 -12l-115 -93l115 -93c3 -3 5 -8 5 -12s-2 -9 -5 -12l-20 -16c-3 -2 -7 -3 -10 -3s-6 1 -9 3l-119 97l-119 -97c-3 -2 -6 -3 -9 -3s-7 1 -10 3l-20 16c-3 3 -5 8 -5 12s2 9 5 12l115 93l-115 93 c-3 3 -5 8 -5 12s2 9 5 12l20 16c3 2 7 3 10 3s6 -1 9 -3z"
     fill="currentColor"
     id="path8511" />
  <path
     transform="translate(27.4496, 25.0154) scale(0.0040, -0.0040)"
     d="M163 36l119 97c3 2 6 3 9 3s7 -1 10 -3l20 -16c3 -3 5 -8 5 -12s-2 -9 -5 -12l-115 -93l115 -93c3 -3 5 -8 5 -12s-2 -9 -5 -12l-20 -16c-3 -2 -7 -3 -10 -3s-6 1 -9 3l-119 97l-119 -97c-3 -2 -6 -3 -9 -3s-7 1 -10 3l-20 16c-3 3 -5 8 -5 12s2 9 5 12l115 93l-115 93 c-3 3 -5 8 -5 12s2 9 5 12l20 16c3 2 7 3 10 3s6 -1 9 -3z"
     fill="currentColor"
     id="path8513" />
  <path
     transform="translate(27.4496, 42.1564) scale(0.0040, -0.0040)"
     d="M163 36l119 97c3 2 6 3 9 3s7 -1 10 -3l20 -16c3 -3 5 -8 5 -12s-2 -9 -5 -12l-115 -93l115 -93c3 -3 5 -8 5 -12s-2 -9 -5 -12l-20 -16c-3 -2 -7 -3 -10 -3s-6 1 -9 3l-119 97l-119 -97c-3 -2 -6 -3 -9 -3s-7 1 -10 3l-20 16c-3 3 -5 8 -5 12s2 9 5 12l115 93l-115 93 c-3 3 -5 8 -5 12s2 9 5 12l20 16c3 2 7 3 10 3s6 -1 9 -3z"
     fill="currentColor"
     id="path8515" />
  <path
     transform="translate(27.4496, 62.2974) scale(0.0040, -0.0040)"
     d="M213 112c-50 0 -69 -43 -69 -88c0 -77 57 -136 134 -136c50 0 69 43 69 88c0 77 -57 136 -134 136zM491 0c0 -43 -34 -75 -72 -96c-53 -29 -114 -40 -174 -40s-120 11 -173 40c-38 21 -72 53 -72 96s34 75 72 96c53 29 113 40 173 40s121 -11 174 -40 c38 -21 72 -53 72 -96z"
     fill="currentColor"
     id="path8517" />
  <g
     transform="translate(26.8259, 56.0670)"
     id="g8523">
    <path
       transform="scale(0.0040, -0.0040)"
       d="M-41 146c26 76 82 153 149 153c22 0 36 -20 41 -45c22 26 51 45 81 45c23 0 38 -21 44 -46c22 27 51 46 80 46c33 0 59 -35 59 -69c0 -5 -1 -10 -2 -15l-35 -149c0 -2 -1 -4 -1 -5c0 -5 2 -8 7 -8c9 0 27 11 48 31c4 4 9 6 13 6c6 0 11 -4 11 -10c0 -4 -3 -8 -7 -12 c-40 -38 -85 -75 -131 -75c-20 0 -32 13 -32 32c0 4 0 7 1 11l39 165c1 5 2 9 2 14c0 10 -4 18 -14 18c-16 0 -33 -16 -39 -32l-53 -183c-3 -10 -12 -18 -22 -18h-41c-10 0 -16 8 -13 18l52 183c2 6 3 11 3 16c0 9 -4 16 -13 16c-16 0 -35 -15 -41 -32l-62 -183 c-3 -10 -14 -18 -24 -18h-41c-10 0 -15 8 -12 18l63 183c2 5 2 10 2 15c0 10 -3 17 -13 17c-29 0 -54 -53 -66 -87c-4 -11 -15 -17 -23 -17c-7 0 -12 4 -12 11c0 2 1 4 2 6z"
       fill="currentColor"
       id="path8519" />
    <path
       transform="translate(1.7413, 0.0000) scale(0.0040, -0.0040)"
       d="M233 243c-56 0 -102 -107 -102 -173c0 -22 8 -38 30 -38c64 0 97 126 97 178c0 18 -7 33 -25 33zM112 -146c-38 0 -78 5 -116 5c-39 0 -78 -5 -115 -5c-9 0 -14 7 -14 14c0 18 31 15 48 16c22 1 47 5 54 25l102 300c2 7 4 14 4 20c0 8 -2 14 -11 14 c-33 0 -63 -60 -79 -97c-5 -12 -15 -17 -24 -17c-8 0 -14 4 -14 12c0 2 1 5 2 8c30 68 72 143 132 143c35 0 59 -21 66 -52c29 31 67 52 103 52c69 0 107 -49 107 -114c0 -21 -4 -44 -12 -67c-20 -58 -91 -119 -147 -119c-27 0 -52 5 -73 17c-4 2 -7 3 -11 3 c-7 0 -14 -3 -16 -9l-29 -86c-1 -2 -1 -5 -1 -7c0 -20 21 -26 44 -28c9 -1 13 -8 13 -14c0 -7 -4 -14 -13 -14z"
       fill="currentColor"
       id="path8521" />
  </g>
  <path
     transform="translate(28.4306, 63.5424) scale(0.0040, -0.0040)"
     d="M-211 88c-8 2 -14 9 -14 18c0 10 9 19 19 19c2 0 3 -1 4 -1l408 -105c13 0 19 -6 19 -19s-6 -19 -19 -19l-408 -105c-1 0 -2 -1 -4 -1c-10 0 -19 9 -19 19c0 9 6 16 14 18l251 65l140 23l-140 23z"
     fill="currentColor"
     id="path8525" />
  <path
     transform="translate(21.7081, 60.2974) scale(0.0040, -0.0040)"
     d="M376 262c4 0 9 1 13 1c155 0 256 -128 256 -261c0 -76 -33 -154 -107 -210c-22 -17 -47 -28 -73 -36c3 -35 5 -70 5 -105c0 -19 -1 -39 -2 -58c-7 -120 -90 -228 -208 -228c-108 0 -195 88 -195 197c0 58 53 103 112 103c54 0 95 -47 95 -103c0 -52 -43 -95 -95 -95 c-11 0 -21 2 -31 6c26 -39 68 -65 117 -65c96 0 157 92 163 191c1 18 2 37 2 55c0 31 -1 61 -4 92c-29 -5 -58 -8 -89 -8c-188 0 -333 172 -333 374c0 177 131 306 248 441c-19 62 -37 125 -45 190c-6 52 -7 104 -7 156c0 115 55 224 149 292c3 2 7 3 10 3c4 0 7 0 10 -3 c71 -84 133 -245 133 -358c0 -143 -86 -255 -180 -364c21 -68 39 -138 56 -207zM461 -203c68 24 113 95 113 164c0 90 -66 179 -173 190c24 -116 46 -231 60 -354zM74 28c0 -135 129 -247 264 -247c28 0 55 2 82 6c-14 127 -37 245 -63 364c-79 -8 -124 -61 -124 -119 c0 -44 25 -91 81 -123c5 -5 7 -10 7 -15c0 -11 -10 -22 -22 -22c-3 0 -6 1 -9 2c-80 43 -117 115 -117 185c0 88 58 174 160 197c-14 58 -29 117 -46 175c-107 -121 -213 -243 -213 -403zM408 1045c-99 -48 -162 -149 -162 -259c0 -74 18 -133 36 -194 c80 97 146 198 146 324c0 55 -4 79 -20 129z"
     fill="currentColor"
     id="path8527" />
  <rect
     transform="translate(27.6465, 66.5571)"
     x="-0.3245"
     y="-0.1000"
     width="2.1171"
     height="0.1000"
     ry="0.0000"
     fill="currentColor"
     id="rect8529" />
  <rect
     transform="translate(27.6465, 64.6424)"
     x="-0.3245"
     y="-0.1000"
     width="2.1171"
     height="0.1000"
     ry="0.0000"
     fill="currentColor"
     id="rect8531" />
  <rect
     transform="translate(27.3221, 66.1985)"
     x="0"
     y="-1.5561"
     width="0.1000"
     height="1.8147"
     ry="0.0000"
     fill="currentColor"
     id="rect8533" />
  <rect
     transform="translate(29.3392, 66.1985)"
     x="0"
     y="-1.5561"
     width="0.1000"
     height="1.8147"
     ry="0.0000"
     fill="currentColor"
     id="rect8535" />
  <text
     transform="translate(27.6465, 66.1985)"
     font-family="serif"
     font-size="2.4696"
     text-anchor="start"
     fill="currentColor"
     id="text8539">
    <tspan
       id="tspan8537">a</tspan>
  </text>
  <rect
     transform="translate(14.3940, 85.0089)"
     x="0.0000"
     y="-60.2434"
     width="0.1600"
     height="120.4868"
     ry="0.0500"
     fill="currentColor"
     id="rect8541" />
  <text
     transform="translate(9.5781, 128.6637)"
     font-family="serif"
     font-size="2.2001"
     text-anchor="start"
     fill="currentColor"
     id="text8545">
    <tspan
       id="tspan8543">B</tspan>
  </text>
  <text
     transform="translate(9.5781, 145.8047)"
     font-family="serif"
     font-size="2.2001"
     text-anchor="start"
     fill="currentColor"
     id="text8549">
    <tspan
       id="tspan8547">B</tspan>
  </text>
  <text
     transform="translate(9.6464, 111.5227)"
     font-family="serif"
     font-size="2.2001"
     text-anchor="start"
     fill="currentColor"
     id="text8553">
    <tspan
       id="tspan8551">T</tspan>
  </text>
  <text
     transform="translate(9.6293, 25.8178)"
     font-family="serif"
     font-size="2.2001"
     text-anchor="start"
     fill="currentColor"
     id="text8557">
    <tspan
       id="tspan8555">S</tspan>
  </text>
  <text
     transform="translate(9.6293, 42.9588)"
     font-family="serif"
     font-size="2.2001"
     text-anchor="start"
     fill="currentColor"
     id="text8561">
    <tspan
       id="tspan8559">S</tspan>
  </text>
  <text
     transform="translate(9.5781, 60.0998)"
     font-family="serif"
     font-size="2.2001"
     text-anchor="start"
     fill="currentColor"
     id="text8565">
    <tspan
       id="tspan8563">A</tspan>
  </text>
  <text
     transform="translate(9.5781, 77.2407)"
     font-family="serif"
     font-size="2.2001"
     text-anchor="start"
     fill="currentColor"
     id="text8569">
    <tspan
       id="tspan8567">A</tspan>
  </text>
  <text
     transform="translate(9.6464, 94.3817)"
     font-family="serif"
     font-size="2.2001"
     text-anchor="start"
     fill="currentColor"
     id="text8573">
    <tspan
       id="tspan8571">T</tspan>
  </text>
  <rect
     transform="translate(13.2590, 12.6184)"
     x="-0.3520"
     y="-0.1000"
     width="3.0940"
     height="0.1000"
     ry="0.0000"
     fill="currentColor"
     id="rect8575" />
  <rect
     transform="translate(13.2590, 10.0000)"
     x="-0.3520"
     y="-0.1000"
     width="3.0940"
     height="0.1000"
     ry="0.0000"
     fill="currentColor"
     id="rect8577" />
  <rect
     transform="translate(12.9070, 12.2665)"
     x="0"
     y="-2.2664"
     width="0.1000"
     height="2.5184"
     ry="0.0000"
     fill="currentColor"
     id="rect8579" />
  <rect
     transform="translate(15.9010, 12.2665)"
     x="0"
     y="-2.2664"
     width="0.1000"
     height="2.5184"
     ry="0.0000"
     fill="currentColor"
     id="rect8581" />
  <text
     transform="translate(13.2590, 12.2665)"
     font-family="serif"
     font-weight="bold"
     font-size="2.7719"
     text-anchor="start"
     fill="currentColor"
     id="text8585">
    <tspan
       id="tspan8583">D</tspan>
  </text>
  <path
     transform="translate(50.6785, 146.0023) scale(0.0040, -0.0040)"
     d="M27 41l-1 -66v-11c0 -22 1 -44 4 -66c45 38 93 80 93 139c0 33 -14 67 -43 67c-31 0 -52 -30 -53 -63zM-15 -138l-12 595c8 5 18 8 27 8s19 -3 27 -8l-7 -345c25 21 58 34 91 34c52 0 89 -48 89 -102c0 -80 -86 -117 -147 -169c-15 -13 -24 -38 -45 -38 c-13 0 -23 11 -23 25z"
     fill="currentColor"
     id="path8587" />
  <text
     font-weight="bold"
     font-size="1.9600"
     id="text8591"
     x="59.866352"
     y="70.3899"
     style="font-weight:bold;font-size:1.96000004px;font-family:serif;text-anchor:start;fill:currentColor">
    <tspan
       id="tspan8589"
       style="white-space:pre"> as if reciting Shakespeare</tspan>
  </text>
  <text
     font-size="1.9600"
     id="text8595"
     x="60.389626"
     y="73.956192"
     style="font-size:1.96000004px;font-family:serif;text-anchor:start;fill:currentColor">
    <tspan
       id="tspan8593"
       style="white-space:pre">Nor the tortured line, distorted, humiliating</tspan>
  </text>
  <text
     font-size="1.9600"
     id="text8599"
     x="60.389626"
     y="76.956192"
     style="font-size:1.96000004px;font-family:serif;text-anchor:start;fill:currentColor">
    <tspan
       id="tspan8597"
       style="white-space:pre">Not the accurate eye, all fingers</tspan>
  </text>
  <text
     font-size="1.9600"
     id="text8603"
     x="60.389626"
     y="79.956192"
     style="font-size:1.96000004px;font-family:serif;text-anchor:start;fill:currentColor">
    <tspan
       id="tspan8601"
       style="white-space:pre">Nor the wild eye of dream, winking</tspan>
  </text>
  <path
     transform="translate(44.6530, 144.0023) scale(0.0040, -0.0040)"
     d="M557 -125c0 28 23 51 51 51s51 -23 51 -51s-23 -51 -51 -51s-51 23 -51 51zM557 125c0 28 23 51 51 51s51 -23 51 -51s-23 -51 -51 -51s-51 23 -51 51zM232 263c172 0 293 -88 293 -251c0 -263 -263 -414 -516 -521c-3 -3 -6 -4 -9 -4c-7 0 -13 6 -13 13c0 3 1 6 4 9 c202 118 412 265 412 493c0 120 -63 235 -171 235c-74 0 -129 -54 -154 -126c11 5 22 8 34 8c55 0 100 -45 100 -100c0 -58 -44 -106 -100 -106c-60 0 -112 47 -112 106c0 133 102 244 232 244z"
     fill="currentColor"
     id="path8605" />
  <g
     transform="translate(51.2047, 107.4899)"
     id="g8611">
    <path
       transform="scale(0.0040, -0.0040)"
       d="M-41 146c26 76 82 153 149 153c22 0 36 -20 41 -45c22 26 51 45 81 45c23 0 38 -21 44 -46c22 27 51 46 80 46c33 0 59 -35 59 -69c0 -5 -1 -10 -2 -15l-35 -149c0 -2 -1 -4 -1 -5c0 -5 2 -8 7 -8c9 0 27 11 48 31c4 4 9 6 13 6c6 0 11 -4 11 -10c0 -4 -3 -8 -7 -12 c-40 -38 -85 -75 -131 -75c-20 0 -32 13 -32 32c0 4 0 7 1 11l39 165c1 5 2 9 2 14c0 10 -4 18 -14 18c-16 0 -33 -16 -39 -32l-53 -183c-3 -10 -12 -18 -22 -18h-41c-10 0 -16 8 -13 18l52 183c2 6 3 11 3 16c0 9 -4 16 -13 16c-16 0 -35 -15 -41 -32l-62 -183 c-3 -10 -14 -18 -24 -18h-41c-10 0 -15 8 -12 18l63 183c2 5 2 10 2 15c0 10 -3 17 -13 17c-29 0 -54 -53 -66 -87c-4 -11 -15 -17 -23 -17c-7 0 -12 4 -12 11c0 2 1 4 2 6z"
       fill="currentColor"
       id="path8607" />
    <path
       transform="translate(1.7413, 0.0000) scale(0.0040, -0.0040)"
       d="M233 243c-56 0 -102 -107 -102 -173c0 -22 8 -38 30 -38c64 0 97 126 97 178c0 18 -7 33 -25 33zM112 -146c-38 0 -78 5 -116 5c-39 0 -78 -5 -115 -5c-9 0 -14 7 -14 14c0 18 31 15 48 16c22 1 47 5 54 25l102 300c2 7 4 14 4 20c0 8 -2 14 -11 14 c-33 0 -63 -60 -79 -97c-5 -12 -15 -17 -24 -17c-8 0 -14 4 -14 12c0 2 1 5 2 8c30 68 72 143 132 143c35 0 59 -21 66 -52c29 31 67 52 103 52c69 0 107 -49 107 -114c0 -21 -4 -44 -12 -67c-20 -58 -91 -119 -147 -119c-27 0 -52 5 -73 17c-4 2 -7 3 -11 3 c-7 0 -14 -3 -16 -9l-29 -86c-1 -2 -1 -5 -1 -7c0 -20 21 -26 44 -28c9 -1 13 -8 13 -14c0 -7 -4 -14 -13 -14z"
       fill="currentColor"
       id="path8609" />
  </g>
  <path
     transform="translate(52.8095, 113.4703) scale(0.0040, -0.0040)"
     d="M-211 88c-8 2 -14 9 -14 18c0 10 9 19 19 19c2 0 3 -1 4 -1l408 -105c13 0 19 -6 19 -19s-6 -19 -19 -19l-408 -105c-1 0 -2 -1 -4 -1c-10 0 -19 9 -19 19c0 9 6 16 14 18l251 65l140 23l-140 23z"
     fill="currentColor"
     id="path8613" />
  <path
     transform="translate(44.6530, 111.7203) scale(0.0040, -0.0040)"
     d="M376 262c4 0 9 1 13 1c155 0 256 -128 256 -261c0 -76 -33 -154 -107 -210c-22 -17 -47 -28 -73 -36c3 -35 5 -70 5 -105c0 -19 -1 -39 -2 -58c-7 -120 -90 -228 -208 -228c-108 0 -195 88 -195 197c0 58 53 103 112 103c54 0 95 -47 95 -103c0 -52 -43 -95 -95 -95 c-11 0 -21 2 -31 6c26 -39 68 -65 117 -65c96 0 157 92 163 191c1 18 2 37 2 55c0 31 -1 61 -4 92c-29 -5 -58 -8 -89 -8c-188 0 -333 172 -333 374c0 177 131 306 248 441c-19 62 -37 125 -45 190c-6 52 -7 104 -7 156c0 115 55 224 149 292c3 2 7 3 10 3c4 0 7 0 10 -3 c71 -84 133 -245 133 -358c0 -143 -86 -255 -180 -364c21 -68 39 -138 56 -207zM461 -203c68 24 113 95 113 164c0 90 -66 179 -173 190c24 -116 46 -231 60 -354zM74 28c0 -135 129 -247 264 -247c28 0 55 2 82 6c-14 127 -37 245 -63 364c-79 -8 -124 -61 -124 -119 c0 -44 25 -91 81 -123c5 -5 7 -10 7 -15c0 -11 -10 -22 -22 -22c-3 0 -6 1 -9 2c-80 43 -117 115 -117 185c0 88 58 174 160 197c-14 58 -29 117 -46 175c-107 -121 -213 -243 -213 -403zM408 1045c-99 -48 -162 -149 -162 -259c0 -74 18 -133 36 -194 c80 97 146 198 146 324c0 55 -4 79 -20 129z"
     fill="currentColor"
     id="path8615" />
  <text
     transform="translate(45.2351, 115.3188)"
     font-family="serif"
     font-style="italic"
     font-size="1.3860"
     text-anchor="start"
     fill="currentColor"
     id="text8619">
    <tspan
       id="tspan8617">8</tspan>
  </text>
  <path
     transform="translate(51.8285, 146.0023) scale(0.0040, -0.0040)"
     d="M213 112c-50 0 -69 -43 -69 -88c0 -77 57 -136 134 -136c50 0 69 43 69 88c0 77 -57 136 -134 136zM491 0c0 -43 -34 -75 -72 -96c-53 -29 -114 -40 -174 -40s-120 11 -173 40c-38 21 -72 53 -72 96s34 75 72 96c53 29 113 40 173 40s121 -11 174 -40 c38 -21 72 -53 72 -96z"
     fill="currentColor"
     id="path8621" />
  <g
     transform="translate(51.2047, 141.7718)"
     id="g8627">
    <path
       transform="scale(0.0040, -0.0040)"
       d="M-41 146c26 76 82 153 149 153c22 0 36 -20 41 -45c22 26 51 45 81 45c23 0 38 -21 44 -46c22 27 51 46 80 46c33 0 59 -35 59 -69c0 -5 -1 -10 -2 -15l-35 -149c0 -2 -1 -4 -1 -5c0 -5 2 -8 7 -8c9 0 27 11 48 31c4 4 9 6 13 6c6 0 11 -4 11 -10c0 -4 -3 -8 -7 -12 c-40 -38 -85 -75 -131 -75c-20 0 -32 13 -32 32c0 4 0 7 1 11l39 165c1 5 2 9 2 14c0 10 -4 18 -14 18c-16 0 -33 -16 -39 -32l-53 -183c-3 -10 -12 -18 -22 -18h-41c-10 0 -16 8 -13 18l52 183c2 6 3 11 3 16c0 9 -4 16 -13 16c-16 0 -35 -15 -41 -32l-62 -183 c-3 -10 -14 -18 -24 -18h-41c-10 0 -15 8 -12 18l63 183c2 5 2 10 2 15c0 10 -3 17 -13 17c-29 0 -54 -53 -66 -87c-4 -11 -15 -17 -23 -17c-7 0 -12 4 -12 11c0 2 1 4 2 6z"
       fill="currentColor"
       id="path8623" />
    <path
       transform="translate(1.7413, 0.0000) scale(0.0040, -0.0040)"
       d="M233 243c-56 0 -102 -107 -102 -173c0 -22 8 -38 30 -38c64 0 97 126 97 178c0 18 -7 33 -25 33zM112 -146c-38 0 -78 5 -116 5c-39 0 -78 -5 -115 -5c-9 0 -14 7 -14 14c0 18 31 15 48 16c22 1 47 5 54 25l102 300c2 7 4 14 4 20c0 8 -2 14 -11 14 c-33 0 -63 -60 -79 -97c-5 -12 -15 -17 -24 -17c-8 0 -14 4 -14 12c0 2 1 5 2 8c30 68 72 143 132 143c35 0 59 -21 66 -52c29 31 67 52 103 52c69 0 107 -49 107 -114c0 -21 -4 -44 -12 -67c-20 -58 -91 -119 -147 -119c-27 0 -52 5 -73 17c-4 2 -7 3 -11 3 c-7 0 -14 -3 -16 -9l-29 -86c-1 -2 -1 -5 -1 -7c0 -20 21 -26 44 -28c9 -1 13 -8 13 -14c0 -7 -4 -14 -13 -14z"
       fill="currentColor"
       id="path8625" />
  </g>
  <path
     transform="translate(52.8095, 147.7523) scale(0.0040, -0.0040)"
     d="M-211 88c-8 2 -14 9 -14 18c0 10 9 19 19 19c2 0 3 -1 4 -1l408 -105c13 0 19 -6 19 -19s-6 -19 -19 -19l-408 -105c-1 0 -2 -1 -4 -1c-10 0 -19 9 -19 19c0 9 6 16 14 18l251 65l140 23l-140 23z"
     fill="currentColor"
     id="path8629" />
  <text
     font-weight="bold"
     font-size="1.9600"
     id="text8633"
     x="60.332417"
     y="122.09244"
     style="font-weight:bold;font-size:1.96000004px;font-family:serif;text-anchor:start;fill:currentColor">
    <tspan
       id="tspan8631"
       style="white-space:pre"> as if reciting Shakespeare</tspan>
  </text>
  <rect
     transform="translate(52.0754, 150.7670)"
     x="-0.3245"
     y="-0.1000"
     width="2.1171"
     height="0.1000"
     ry="0.0000"
     fill="currentColor"
     id="rect8635" />
  <rect
     transform="translate(52.0754, 148.8523)"
     x="-0.3245"
     y="-0.1000"
     width="2.1171"
     height="0.1000"
     ry="0.0000"
     fill="currentColor"
     id="rect8637" />
  <rect
     transform="translate(51.7509, 150.4084)"
     x="0"
     y="-1.5561"
     width="0.1000"
     height="1.8147"
     ry="0.0000"
     fill="currentColor"
     id="rect8639" />
  <rect
     transform="translate(53.7680, 150.4084)"
     x="0"
     y="-1.5561"
     width="0.1000"
     height="1.8147"
     ry="0.0000"
     fill="currentColor"
     id="rect8641" />
  <text
     transform="translate(52.0754, 150.4084)"
     font-family="serif"
     font-size="2.4696"
     text-anchor="start"
     fill="currentColor"
     id="text8645">
    <tspan
       id="tspan8643">a</tspan>
  </text>
  <rect
     transform="translate(52.0754, 116.4850)"
     x="-0.3245"
     y="-0.1000"
     width="2.1171"
     height="0.1000"
     ry="0.0000"
     fill="currentColor"
     id="rect8647" />
  <rect
     transform="translate(52.0754, 114.5703)"
     x="-0.3245"
     y="-0.1000"
     width="2.1171"
     height="0.1000"
     ry="0.0000"
     fill="currentColor"
     id="rect8649" />
  <rect
     transform="translate(51.7509, 116.1264)"
     x="0"
     y="-1.5561"
     width="0.1000"
     height="1.8147"
     ry="0.0000"
     fill="currentColor"
     id="rect8651" />
  <rect
     transform="translate(53.7680, 116.1264)"
     x="0"
     y="-1.5561"
     width="0.1000"
     height="1.8147"
     ry="0.0000"
     fill="currentColor"
     id="rect8653" />
  <text
     transform="translate(52.0754, 116.1264)"
     font-family="serif"
     font-size="2.4696"
     text-anchor="start"
     fill="currentColor"
     id="text8657">
    <tspan
       id="tspan8655">a</tspan>
  </text>
  <text
     font-size="1.9600"
     id="text8661"
     x="60.389626"
     y="125.3792"
     style="font-size:1.96000004px;font-family:serif;text-anchor:start;fill:currentColor">
    <tspan
       id="tspan8659"
       style="white-space:pre">Not space cutting nor space building</tspan>
  </text>
  <text
     font-size="1.9600"
     id="text8665"
     x="60.389626"
     y="128.37918"
     style="font-size:1.96000004px;font-family:serif;text-anchor:start;fill:currentColor">
    <tspan
       id="tspan8663"
       style="white-space:pre">Not construction nor fauvist destruction</tspan>
  </text>
  <text
     font-size="1.9600"
     id="text8669"
     x="60.389626"
     y="131.37918"
     style="font-size:1.96000004px;font-family:serif;text-anchor:start;fill:currentColor">
    <tspan
       id="tspan8667"
       style="white-space:pre">Not the pure line, straight and narrow</tspan>
  </text>
  <text
     font-weight="bold"
     font-size="1.9600"
     id="text8673"
     x="41.813488"
     y="87.064835"
     style="font-weight:bold;font-size:1.96000004px;font-family:serif;text-anchor:start;fill:currentColor">
    <tspan
       id="tspan8671"
       style="white-space:pre"> as if reciting Shakespeare</tspan>
  </text>
  <text
     font-size="1.9600"
     id="text8677"
     x="42.057129"
     y="40.51569"
     style="font-size:1.96000004px;font-family:serif;text-anchor:start;fill:currentColor">
    <tspan
       id="tspan8675"
       style="white-space:pre">Nor the tortured line, distorted, humiliating</tspan>
  </text>
  <text
     font-size="1.9600"
     id="text8681"
     x="42.057129"
     y="43.51569"
     style="font-size:1.96000004px;font-family:serif;text-anchor:start;fill:currentColor">
    <tspan
       id="tspan8679"
       style="white-space:pre">Not the accurate eye, all fingers</tspan>
  </text>
  <text
     font-size="1.9600"
     id="text8685"
     x="42.057129"
     y="46.51569"
     style="font-size:1.96000004px;font-family:serif;text-anchor:start;fill:currentColor">
    <tspan
       id="tspan8683"
       style="white-space:pre">Nor the wild eye of dream, winking</tspan>
  </text>
  <text
     font-weight="bold"
     font-size="1.9600"
     id="text8689"
     x="41.9067"
     y="36.667278"
     style="font-weight:bold;font-size:1.96000004px;font-family:serif;text-anchor:start;fill:currentColor">
    <tspan
       id="tspan8687"
       style="white-space:pre"> as if reciting Shakespeare</tspan>
  </text>
  <path
     transform="translate(51.8285, 112.2203) scale(0.0040, -0.0040)"
     d="M213 112c-50 0 -69 -43 -69 -88c0 -77 57 -136 134 -136c50 0 69 43 69 88c0 77 -57 136 -134 136zM491 0c0 -43 -34 -75 -72 -96c-53 -29 -114 -40 -174 -40s-120 11 -173 40c-38 21 -72 53 -72 96s34 75 72 96c53 29 113 40 173 40s121 -11 174 -40 c38 -21 72 -53 72 -96z"
     fill="currentColor"
     id="path8691" />
  <path
     transform="translate(35.1279, 26.0154) scale(0.0040, -0.0040)"
     d="M376 262c4 0 9 1 13 1c155 0 256 -128 256 -261c0 -76 -33 -154 -107 -210c-22 -17 -47 -28 -73 -36c3 -35 5 -70 5 -105c0 -19 -1 -39 -2 -58c-7 -120 -90 -228 -208 -228c-108 0 -195 88 -195 197c0 58 53 103 112 103c54 0 95 -47 95 -103c0 -52 -43 -95 -95 -95 c-11 0 -21 2 -31 6c26 -39 68 -65 117 -65c96 0 157 92 163 191c1 18 2 37 2 55c0 31 -1 61 -4 92c-29 -5 -58 -8 -89 -8c-188 0 -333 172 -333 374c0 177 131 306 248 441c-19 62 -37 125 -45 190c-6 52 -7 104 -7 156c0 115 55 224 149 292c3 2 7 3 10 3c4 0 7 0 10 -3 c71 -84 133 -245 133 -358c0 -143 -86 -255 -180 -364c21 -68 39 -138 56 -207zM461 -203c68 24 113 95 113 164c0 90 -66 179 -173 190c24 -116 46 -231 60 -354zM74 28c0 -135 129 -247 264 -247c28 0 55 2 82 6c-14 127 -37 245 -63 364c-79 -8 -124 -61 -124 -119 c0 -44 25 -91 81 -123c5 -5 7 -10 7 -15c0 -11 -10 -22 -22 -22c-3 0 -6 1 -9 2c-80 43 -117 115 -117 185c0 88 58 174 160 197c-14 58 -29 117 -46 175c-107 -121 -213 -243 -213 -403zM408 1045c-99 -48 -162 -149 -162 -259c0 -74 18 -133 36 -194 c80 97 146 198 146 324c0 55 -4 79 -20 129z"
     fill="currentColor"
     id="path8693" />
  <path
     transform="translate(42.1960, 27.7654) scale(0.0040, -0.0040)"
     d="M-211 88c-8 2 -14 9 -14 18c0 10 9 19 19 19c2 0 3 -1 4 -1l408 -105c13 0 19 -6 19 -19s-6 -19 -19 -19l-408 -105c-1 0 -2 -1 -4 -1c-10 0 -19 9 -19 19c0 9 6 16 14 18l251 65l140 23l-140 23z"
     fill="currentColor"
     id="path8695" />
  <g
     transform="translate(40.5913, 21.7850)"
     id="g8701">
    <path
       transform="scale(0.0040, -0.0040)"
       d="M-41 146c26 76 82 153 149 153c22 0 36 -20 41 -45c22 26 51 45 81 45c23 0 38 -21 44 -46c22 27 51 46 80 46c33 0 59 -35 59 -69c0 -5 -1 -10 -2 -15l-35 -149c0 -2 -1 -4 -1 -5c0 -5 2 -8 7 -8c9 0 27 11 48 31c4 4 9 6 13 6c6 0 11 -4 11 -10c0 -4 -3 -8 -7 -12 c-40 -38 -85 -75 -131 -75c-20 0 -32 13 -32 32c0 4 0 7 1 11l39 165c1 5 2 9 2 14c0 10 -4 18 -14 18c-16 0 -33 -16 -39 -32l-53 -183c-3 -10 -12 -18 -22 -18h-41c-10 0 -16 8 -13 18l52 183c2 6 3 11 3 16c0 9 -4 16 -13 16c-16 0 -35 -15 -41 -32l-62 -183 c-3 -10 -14 -18 -24 -18h-41c-10 0 -15 8 -12 18l63 183c2 5 2 10 2 15c0 10 -3 17 -13 17c-29 0 -54 -53 -66 -87c-4 -11 -15 -17 -23 -17c-7 0 -12 4 -12 11c0 2 1 4 2 6z"
       fill="currentColor"
       id="path8697" />
    <path
       transform="translate(1.7413, 0.0000) scale(0.0040, -0.0040)"
       d="M233 243c-56 0 -102 -107 -102 -173c0 -22 8 -38 30 -38c64 0 97 126 97 178c0 18 -7 33 -25 33zM112 -146c-38 0 -78 5 -116 5c-39 0 -78 -5 -115 -5c-9 0 -14 7 -14 14c0 18 31 15 48 16c22 1 47 5 54 25l102 300c2 7 4 14 4 20c0 8 -2 14 -11 14 c-33 0 -63 -60 -79 -97c-5 -12 -15 -17 -24 -17c-8 0 -14 4 -14 12c0 2 1 5 2 8c30 68 72 143 132 143c35 0 59 -21 66 -52c29 31 67 52 103 52c69 0 107 -49 107 -114c0 -21 -4 -44 -12 -67c-20 -58 -91 -119 -147 -119c-27 0 -52 5 -73 17c-4 2 -7 3 -11 3 c-7 0 -14 -3 -16 -9l-29 -86c-1 -2 -1 -5 -1 -7c0 -20 21 -26 44 -28c9 -1 13 -8 13 -14c0 -7 -4 -14 -13 -14z"
       fill="currentColor"
       id="path8699" />
  </g>
  <path
     transform="translate(41.2150, 26.0154) scale(0.0040, -0.0040)"
     d="M213 112c-50 0 -69 -43 -69 -88c0 -77 57 -136 134 -136c50 0 69 43 69 88c0 77 -57 136 -134 136zM491 0c0 -43 -34 -75 -72 -96c-53 -29 -114 -40 -174 -40s-120 11 -173 40c-38 21 -72 53 -72 96s34 75 72 96c53 29 113 40 173 40s121 -11 174 -40 c38 -21 72 -53 72 -96z"
     fill="currentColor"
     id="path8703" />
  <rect
     transform="translate(41.4620, 30.7802)"
     x="-0.3245"
     y="-0.1000"
     width="2.1171"
     height="0.1000"
     ry="0.0000"
     fill="currentColor"
     id="rect8705" />
  <rect
     transform="translate(41.4620, 28.8654)"
     x="-0.3245"
     y="-0.1000"
     width="2.1171"
     height="0.1000"
     ry="0.0000"
     fill="currentColor"
     id="rect8707" />
  <rect
     transform="translate(41.1375, 30.4215)"
     x="0"
     y="-1.5561"
     width="0.1000"
     height="1.8147"
     ry="0.0000"
     fill="currentColor"
     id="rect8709" />
  <rect
     transform="translate(43.1546, 30.4215)"
     x="0"
     y="-1.5561"
     width="0.1000"
     height="1.8147"
     ry="0.0000"
     fill="currentColor"
     id="rect8711" />
  <text
     transform="translate(41.4620, 30.4215)"
     font-family="serif"
     font-size="2.4696"
     text-anchor="start"
     fill="currentColor"
     id="text8715">
    <tspan
       id="tspan8713">a</tspan>
  </text>
  <text
     font-size="1.9600"
     id="text8719"
     x="42.057129"
     y="91.097198"
     style="font-size:1.96000004px;font-family:serif;text-anchor:start;fill:currentColor">
    <tspan
       id="tspan8717"
       style="white-space:pre">Not space cutting nor space building</tspan>
  </text>
  <text
     font-size="1.9600"
     id="text8723"
     x="42.057129"
     y="94.097198"
     style="font-size:1.96000004px;font-family:serif;text-anchor:start;fill:currentColor">
    <tspan
       id="tspan8721"
       style="white-space:pre">Not construction nor fauvist destruction</tspan>
  </text>
  <text
     font-size="1.9600"
     id="text8727"
     x="42.057129"
     y="97.097198"
     style="font-size:1.96000004px;font-family:serif;text-anchor:start;fill:currentColor">
    <tspan
       id="tspan8725"
       style="white-space:pre">Not the pure line, straight and narrow</tspan>
  </text>
  <circle
     cy="55.480019"
     cx="55.629288"
     style="fill:none;stroke:currentColor;stroke-width:0.10000001;stroke-linecap:round;stroke-linejoin:round"
     r="0.34999999"
     id="circle8459-2" />
  <circle
     cy="21.173096"
     cx="62.945461"
     style="fill:none;stroke:currentColor;stroke-width:0.10000001;stroke-linecap:round;stroke-linejoin:round"
     r="0.34999999"
     id="circle8459-2-8" />
</svg>
