<?xml version="1.0" encoding="UTF-8" standalone="no"?>
<svg
   xmlns:dc="http://purl.org/dc/elements/1.1/"
   xmlns:cc="http://creativecommons.org/ns#"
   xmlns:rdf="http://www.w3.org/1999/02/22-rdf-syntax-ns#"
   xmlns:svg="http://www.w3.org/2000/svg"
   xmlns="http://www.w3.org/2000/svg"
   xmlns:sodipodi="http://sodipodi.sourceforge.net/DTD/sodipodi-0.dtd"
   xmlns:inkscape="http://www.inkscape.org/namespaces/inkscape"
   version="1.2"
   width="215.90mm"
   height="279.40mm"
   viewBox="0 0 122.8590 158.9940"
   id="svg11884"
   sodipodi:docname="book-5.svg"
   inkscape:version="0.92.3 (2405546, 2018-03-11)">
  <metadata
     id="metadata11890">
    <rdf:RDF>
      <cc:Work
         rdf:about="">
        <dc:format>image/svg+xml</dc:format>
        <dc:type
           rdf:resource="http://purl.org/dc/dcmitype/StillImage" />
        <dc:title></dc:title>
      </cc:Work>
    </rdf:RDF>
  </metadata>
  <defs
     id="defs11888" />
  <sodipodi:namedview
     pagecolor="#ffffff"
     bordercolor="#666666"
     borderopacity="1"
     objecttolerance="10"
     gridtolerance="10"
     guidetolerance="10"
     inkscape:pageopacity="0"
     inkscape:pageshadow="2"
     inkscape:window-width="1080"
     inkscape:window-height="1920"
     id="namedview11886"
     showgrid="false"
     inkscape:zoom="0.89393941"
     inkscape:cx="180.81687"
     inkscape:cy="836.27778"
     inkscape:window-x="0"
     inkscape:window-y="0"
     inkscape:window-maximized="1"
     inkscape:current-layer="svg11884" />
  <style
     text="style/css"
     id="style11290"><![CDATA[
tspan { white-space: pre; }
]]></style>
  <!-- Page: 5/19 -->
  <text
     transform="translate(7.2270, 8.8317)"
     font-family="serif"
     font-size="2.2001"
     text-anchor="start"
     fill="currentColor"
     id="text11294">
    <tspan
       id="tspan11292" />
  </text>
  <text
     transform="translate(114.2321, 8.8317)"
     font-family="serif"
     font-size="2.2001"
     text-anchor="start"
     fill="currentColor"
     id="text11298">
    <tspan
       id="tspan11296">5</tspan>
  </text>
  <path
     transform="translate(102.9575, 23.9910) scale(0.0040, -0.0040)"
     d="M0 0c0 31 25 56 56 56s56 -25 56 -56s-25 -56 -56 -56s-56 25 -56 56z"
     fill="currentColor"
     id="path11300" />
  <path
     transform="translate(102.9575, 24.9910) scale(0.0040, -0.0040)"
     d="M0 0c0 31 25 56 56 56s56 -25 56 -56s-25 -56 -56 -56s-56 25 -56 56z"
     fill="currentColor"
     id="path11302" />
  <rect
     transform="translate(102.4675, 24.4910)"
     x="0.0000"
     y="-2.0000"
     width="0.1900"
     height="4.0000"
     ry="0.0000"
     fill="currentColor"
     id="rect11304" />
  <rect
     transform="translate(101.5675, 24.4910)"
     x="0.0000"
     y="-2.0000"
     width="0.6000"
     height="4.0000"
     ry="0.0000"
     fill="currentColor"
     id="rect11306" />
  <path
     transform="translate(100.8175, 147.4347) scale(0.0040, -0.0040)"
     d="M0 0c0 31 25 56 56 56s56 -25 56 -56s-25 -56 -56 -56s-56 25 -56 56z"
     fill="currentColor"
     id="path11308" />
  <path
     transform="translate(100.8175, 148.7347) scale(0.0040, -0.0040)"
     d="M0 0c0 31 25 56 56 56s56 -25 56 -56s-25 -56 -56 -56s-56 25 -56 56z"
     fill="currentColor"
     id="path11310" />
  <rect
     transform="translate(102.0575, 148.0847)"
     x="0.0000"
     y="-2.0000"
     width="0.6000"
     height="4.0000"
     ry="0.0000"
     fill="currentColor"
     id="rect11312" />
  <rect
     transform="translate(101.5675, 148.0847)"
     x="0.0000"
     y="-2.0000"
     width="0.1900"
     height="4.0000"
     ry="0.0000"
     fill="currentColor"
     id="rect11314" />
  <path
     transform="translate(113.7920, 23.8410) scale(0.0040, -0.0040)"
     d="M0 0c0 31 25 56 56 56s56 -25 56 -56s-25 -56 -56 -56s-56 25 -56 56z"
     fill="currentColor"
     id="path11316" />
  <path
     transform="translate(113.7920, 25.1410) scale(0.0040, -0.0040)"
     d="M0 0c0 31 25 56 56 56s56 -25 56 -56s-25 -56 -56 -56s-56 25 -56 56z"
     fill="currentColor"
     id="path11318" />
  <rect
     transform="translate(115.0320, 24.4910)"
     x="0.0000"
     y="-2.0000"
     width="0.6000"
     height="4.0000"
     ry="0.0000"
     fill="currentColor"
     id="rect11320" />
  <rect
     transform="translate(114.5420, 24.4910)"
     x="0.0000"
     y="-2.0000"
     width="0.1900"
     height="4.0000"
     ry="0.0000"
     fill="currentColor"
     id="rect11322" />
  <line
     x1="102.37276"
     y1="147.8847"
     x2="114.492"
     y2="147.8847"
     id="line11324"
     style="stroke:currentColor;stroke-width:0.09431429;stroke-linecap:round;stroke-linejoin:round" />
  <line
     x1="102.37276"
     y1="147.9847"
     x2="114.492"
     y2="147.9847"
     id="line11326"
     style="stroke:currentColor;stroke-width:0.09431429;stroke-linecap:round;stroke-linejoin:round" />
  <line
     x1="102.37276"
     y1="148.0847"
     x2="114.492"
     y2="148.0847"
     id="line11328"
     style="stroke:currentColor;stroke-width:0.09431429;stroke-linecap:round;stroke-linejoin:round" />
  <line
     x1="102.37276"
     y1="148.18469"
     x2="114.492"
     y2="148.18469"
     id="line11330"
     style="stroke:currentColor;stroke-width:0.09431429;stroke-linecap:round;stroke-linejoin:round" />
  <line
     x1="102.37276"
     y1="148.2847"
     x2="114.492"
     y2="148.2847"
     id="line11332"
     style="stroke:currentColor;stroke-width:0.09431429;stroke-linecap:round;stroke-linejoin:round" />
  <line
     x1="101.6225"
     y1="26.489302"
     x2="115.41326"
     y2="26.489302"
     id="line11334"
     style="stroke:currentColor;stroke-width:0.10056563;stroke-linecap:round;stroke-linejoin:round" />
  <line
     x1="101.6225"
     y1="25.49015"
     x2="115.41326"
     y2="25.49015"
     id="line11336"
     style="stroke:currentColor;stroke-width:0.10056563;stroke-linecap:round;stroke-linejoin:round" />
  <line
     x1="101.6225"
     y1="24.490999"
     x2="115.41326"
     y2="24.490999"
     id="line11338"
     style="stroke:currentColor;stroke-width:0.10056563;stroke-linecap:round;stroke-linejoin:round" />
  <line
     x1="101.6225"
     y1="23.491848"
     x2="115.41326"
     y2="23.491848"
     id="line11340"
     style="stroke:currentColor;stroke-width:0.10056563;stroke-linecap:round;stroke-linejoin:round" />
  <line
     x1="101.6225"
     y1="22.492697"
     x2="115.41326"
     y2="22.492697"
     id="line11342"
     style="stroke:currentColor;stroke-width:0.10056563;stroke-linecap:round;stroke-linejoin:round" />
  <line
     x1="70.963165"
     y1="36.86647"
     x2="114.492"
     y2="36.86647"
     id="line11344"
     style="stroke:currentColor;stroke-width:0.11534933;stroke-linecap:round;stroke-linejoin:round" />
  <line
     x1="70.963165"
     y1="36.966469"
     x2="114.492"
     y2="36.966469"
     id="line11346"
     style="stroke:currentColor;stroke-width:0.11534933;stroke-linecap:round;stroke-linejoin:round" />
  <line
     x1="70.963165"
     y1="37.066467"
     x2="114.492"
     y2="37.066467"
     id="line11348"
     style="stroke:currentColor;stroke-width:0.11534933;stroke-linecap:round;stroke-linejoin:round" />
  <line
     x1="70.963165"
     y1="37.16647"
     x2="114.492"
     y2="37.16647"
     id="line11350"
     style="stroke:currentColor;stroke-width:0.11534933;stroke-linecap:round;stroke-linejoin:round" />
  <line
     x1="70.963165"
     y1="37.266468"
     x2="114.492"
     y2="37.266468"
     id="line11352"
     style="stroke:currentColor;stroke-width:0.11534933;stroke-linecap:round;stroke-linejoin:round" />
  <line
     x1="65.98111"
     y1="95.26487"
     x2="114.492"
     y2="95.26487"
     id="line11354"
     style="stroke:currentColor;stroke-width:0.11529394;stroke-linecap:round;stroke-linejoin:round" />
  <line
     x1="65.98111"
     y1="95.364868"
     x2="114.492"
     y2="95.364868"
     id="line11356"
     style="stroke:currentColor;stroke-width:0.11529394;stroke-linecap:round;stroke-linejoin:round" />
  <line
     x1="65.98111"
     y1="95.464867"
     x2="114.492"
     y2="95.464867"
     id="line11358"
     style="stroke:currentColor;stroke-width:0.11529394;stroke-linecap:round;stroke-linejoin:round" />
  <line
     x1="65.98111"
     y1="95.564873"
     x2="114.492"
     y2="95.564873"
     id="line11360"
     style="stroke:currentColor;stroke-width:0.11529394;stroke-linecap:round;stroke-linejoin:round" />
  <line
     x1="65.98111"
     y1="95.664871"
     x2="114.492"
     y2="95.664871"
     id="line11362"
     style="stroke:currentColor;stroke-width:0.11529394;stroke-linecap:round;stroke-linejoin:round" />
  <line
     x1="69.024651"
     y1="56.321171"
     x2="114.492"
     y2="56.321171"
     id="line11364"
     style="stroke:currentColor;stroke-width:0.10625222;stroke-linecap:round;stroke-linejoin:round" />
  <line
     x1="69.024651"
     y1="56.421169"
     x2="114.492"
     y2="56.421169"
     id="line11366"
     style="stroke:currentColor;stroke-width:0.10625222;stroke-linecap:round;stroke-linejoin:round" />
  <line
     x1="69.024651"
     y1="56.521168"
     x2="114.492"
     y2="56.521168"
     id="line11368"
     style="stroke:currentColor;stroke-width:0.10625222;stroke-linecap:round;stroke-linejoin:round" />
  <line
     x1="69.024651"
     y1="56.62117"
     x2="114.492"
     y2="56.62117"
     id="line11370"
     style="stroke:currentColor;stroke-width:0.10625222;stroke-linecap:round;stroke-linejoin:round" />
  <line
     x1="69.024651"
     y1="56.721169"
     x2="114.492"
     y2="56.721169"
     id="line11372"
     style="stroke:currentColor;stroke-width:0.10625222;stroke-linecap:round;stroke-linejoin:round" />
  <path
     d="m 57.730175,75.325975 c 0,-0.124 0.1,-0.224 0.224,-0.224 0.124,0 0.224,0.1 0.224,0.224 0,0.124 -0.1,0.224 -0.224,0.224 -0.124,0 -0.224,-0.1 -0.224,-0.224 z"
     id="path11374"
     inkscape:connector-curvature="0"
     style="fill:currentColor;stroke-width:0.004" />
  <path
     d="m 57.730175,76.625975 c 0,-0.124 0.1,-0.224 0.224,-0.224 0.124,0 0.224,0.1 0.224,0.224 0,0.124 -0.1,0.224 -0.224,0.224 -0.124,0 -0.224,-0.1 -0.224,-0.224 z"
     id="path11376"
     inkscape:connector-curvature="0"
     style="fill:currentColor;stroke-width:0.004" />
  <rect
     x="58.970093"
     y="70.975967"
     width="0.60000002"
     height="10"
     ry="0.0000"
     id="rect11378"
     style="fill:currentColor" />
  <rect
     x="58.480087"
     y="70.975967"
     width="0.19"
     height="10"
     ry="0.0000"
     id="rect11380"
     style="fill:currentColor" />
  <path
     d="m 50.503175,114.30359 c 0,-0.124 0.1,-0.224 0.224,-0.224 0.124,0 0.224,0.1 0.224,0.224 0,0.124 -0.1,0.224 -0.224,0.224 -0.124,0 -0.224,-0.1 -0.224,-0.224 z"
     id="path11382"
     inkscape:connector-curvature="0"
     style="fill:currentColor;stroke-width:0.004" />
  <path
     d="m 50.503175,115.60359 c 0,-0.12399 0.1,-0.224 0.224,-0.224 0.124,0 0.224,0.10001 0.224,0.224 0,0.124 -0.1,0.22402 -0.224,0.22402 -0.124,0 -0.224,-0.1 -0.224,-0.22402 z"
     id="path11384"
     inkscape:connector-curvature="0"
     style="fill:currentColor;stroke-width:0.004" />
  <rect
     x="51.743103"
     y="109.95368"
     width="0.60000002"
     height="10"
     ry="0.0000"
     id="rect11386"
     style="fill:currentColor" />
  <rect
     x="51.253098"
     y="109.95368"
     width="0.19"
     height="10"
     ry="0.0000"
     id="rect11388"
     style="fill:currentColor" />
  <path
     d="m 50.6383,133.65599 c 0,-0.124 0.1,-0.224 0.224,-0.224 0.124,0 0.224,0.1 0.224,0.224 0,0.124 -0.1,0.224 -0.224,0.224 -0.124,0 -0.224,-0.1 -0.224,-0.224 z"
     id="path11390"
     inkscape:connector-curvature="0"
     style="fill:currentColor;stroke-width:0.004" />
  <path
     d="m 50.6383,134.95599 c 0,-0.124 0.1,-0.224 0.224,-0.224 0.124,0 0.224,0.1 0.224,0.224 0,0.124 -0.1,0.224 -0.224,0.224 -0.124,0 -0.224,-0.1 -0.224,-0.224 z"
     id="path11392"
     inkscape:connector-curvature="0"
     style="fill:currentColor;stroke-width:0.004" />
  <rect
     x="51.878319"
     y="129.30611"
     width="0.60000002"
     height="10"
     ry="0.0000"
     id="rect11394"
     style="fill:currentColor" />
  <rect
     x="51.388321"
     y="129.30611"
     width="0.19"
     height="10"
     ry="0.0000"
     id="rect11396"
     style="fill:currentColor" />
  <path
     transform="translate(74.1681, 23.8410) scale(0.0040, -0.0040)"
     d="M0 0c0 31 25 56 56 56s56 -25 56 -56s-25 -56 -56 -56s-56 25 -56 56z"
     fill="currentColor"
     id="path11398" />
  <path
     transform="translate(74.1681, 25.1410) scale(0.0040, -0.0040)"
     d="M0 0c0 31 25 56 56 56s56 -25 56 -56s-25 -56 -56 -56s-56 25 -56 56z"
     fill="currentColor"
     id="path11400" />
  <rect
     transform="translate(75.4081, 24.4910)"
     x="0.0000"
     y="-2.0000"
     width="0.6000"
     height="4.0000"
     ry="0.0000"
     fill="currentColor"
     id="rect11402" />
  <rect
     transform="translate(74.9181, 24.4910)"
     x="0.0000"
     y="-2.0000"
     width="0.1900"
     height="4.0000"
     ry="0.0000"
     fill="currentColor"
     id="rect11404" />
  <path
     d="m 67.242225,55.871175 c 0,-0.124 0.1,-0.224 0.224,-0.224 0.124,0 0.224,0.1 0.224,0.224 0,0.124 -0.1,0.224 -0.224,0.224 -0.124,0 -0.224,-0.1 -0.224,-0.224 z"
     id="path11406"
     inkscape:connector-curvature="0"
     style="fill:currentColor;stroke-width:0.004" />
  <path
     d="m 67.242225,57.171175 c 0,-0.124 0.1,-0.224 0.224,-0.224 0.124,0 0.224,0.1 0.224,0.224 0,0.124 -0.1,0.224 -0.224,0.224 -0.124,0 -0.224,-0.1 -0.224,-0.224 z"
     id="path11408"
     inkscape:connector-curvature="0"
     style="fill:currentColor;stroke-width:0.004" />
  <rect
     x="68.482231"
     y="51.521168"
     width="0.60000002"
     height="10"
     ry="0.0000"
     id="rect11410"
     style="fill:currentColor" />
  <rect
     x="67.992233"
     y="51.521168"
     width="0.19"
     height="10"
     ry="0.0000"
     id="rect11412"
     style="fill:currentColor" />
  <path
     transform="translate(60.3587, 147.4347) scale(0.0040, -0.0040)"
     d="M0 0c0 31 25 56 56 56s56 -25 56 -56s-25 -56 -56 -56s-56 25 -56 56z"
     fill="currentColor"
     id="path11414" />
  <path
     transform="translate(60.3587, 148.7347) scale(0.0040, -0.0040)"
     d="M0 0c0 31 25 56 56 56s56 -25 56 -56s-25 -56 -56 -56s-56 25 -56 56z"
     fill="currentColor"
     id="path11416" />
  <rect
     transform="translate(61.5987, 148.0847)"
     x="0.0000"
     y="-2.0000"
     width="0.6000"
     height="4.0000"
     ry="0.0000"
     fill="currentColor"
     id="rect11418" />
  <rect
     transform="translate(61.1087, 148.0847)"
     x="0.0000"
     y="-2.0000"
     width="0.1900"
     height="4.0000"
     ry="0.0000"
     fill="currentColor"
     id="rect11420" />
  <path
     d="m 64.396975,94.814875 c 0,-0.124 0.1,-0.224 0.224,-0.224 0.124,0 0.224,0.1 0.224,0.224 0,0.124 -0.1,0.224 -0.224,0.224 -0.124,0 -0.224,-0.1 -0.224,-0.224 z"
     id="path11422"
     inkscape:connector-curvature="0"
     style="fill:currentColor;stroke-width:0.004" />
  <path
     d="m 64.396975,96.114875 c 0,-0.124 0.1,-0.224 0.224,-0.224 0.124,0 0.224,0.1 0.224,0.224 0,0.124 -0.1,0.224 -0.224,0.224 -0.124,0 -0.224,-0.1 -0.224,-0.224 z"
     id="path11424"
     inkscape:connector-curvature="0"
     style="fill:currentColor;stroke-width:0.004" />
  <rect
     x="65.636993"
     y="90.464867"
     width="0.60000002"
     height="10"
     ry="0.0000"
     id="rect11426"
     style="fill:currentColor" />
  <rect
     x="65.146996"
     y="90.464867"
     width="0.19"
     height="10"
     ry="0.0000"
     id="rect11428"
     style="fill:currentColor" />
  <path
     d="m 69.07975,36.416475 c 0,-0.124 0.1,-0.224 0.224,-0.224 0.124,0 0.224,0.1 0.224,0.224 0,0.124 -0.1,0.224 -0.224,0.224 -0.124,0 -0.224,-0.1 -0.224,-0.224 z"
     id="path11430"
     inkscape:connector-curvature="0"
     style="fill:currentColor;stroke-width:0.004" />
  <path
     d="m 69.07975,37.716475 c 0,-0.124 0.1,-0.224 0.224,-0.224 0.124,0 0.224,0.1 0.224,0.224 0,0.124 -0.1,0.224 -0.224,0.224 -0.124,0 -0.224,-0.1 -0.224,-0.224 z"
     id="path11432"
     inkscape:connector-curvature="0"
     style="fill:currentColor;stroke-width:0.004" />
  <rect
     x="70.319771"
     y="32.066471"
     width="0.60000002"
     height="10"
     ry="0.0000"
     id="rect11434"
     style="fill:currentColor" />
  <rect
     x="69.829765"
     y="32.066471"
     width="0.19"
     height="10"
     ry="0.0000"
     id="rect11436"
     style="fill:currentColor" />
  <path
     transform="translate(62.4987, 23.9910) scale(0.0040, -0.0040)"
     d="M0 0c0 31 25 56 56 56s56 -25 56 -56s-25 -56 -56 -56s-56 25 -56 56z"
     fill="currentColor"
     id="path11438" />
  <path
     transform="translate(62.4987, 24.9910) scale(0.0040, -0.0040)"
     d="M0 0c0 31 25 56 56 56s56 -25 56 -56s-25 -56 -56 -56s-56 25 -56 56z"
     fill="currentColor"
     id="path11440" />
  <rect
     transform="translate(62.0087, 24.4910)"
     x="0.0000"
     y="-2.0000"
     width="0.1900"
     height="4.0000"
     ry="0.0000"
     fill="currentColor"
     id="rect11442" />
  <rect
     transform="translate(61.1087, 24.4910)"
     x="0.0000"
     y="-2.0000"
     width="0.6000"
     height="4.0000"
     ry="0.0000"
     fill="currentColor"
     id="rect11444" />
  <path
     transform="translate(47.3221, 147.5847) scale(0.0040, -0.0040)"
     d="M0 0c0 31 25 56 56 56s56 -25 56 -56s-25 -56 -56 -56s-56 25 -56 56z"
     fill="currentColor"
     id="path11446" />
  <path
     transform="translate(47.3221, 148.5847) scale(0.0040, -0.0040)"
     d="M0 0c0 31 25 56 56 56s56 -25 56 -56s-25 -56 -56 -56s-56 25 -56 56z"
     fill="currentColor"
     id="path11448" />
  <rect
     transform="translate(46.8321, 148.0847)"
     x="0.0000"
     y="-2.0000"
     width="0.1900"
     height="4.0000"
     ry="0.0000"
     fill="currentColor"
     id="rect11450" />
  <rect
     transform="translate(45.9321, 148.0847)"
     x="0.0000"
     y="-2.0000"
     width="0.6000"
     height="4.0000"
     ry="0.0000"
     fill="currentColor"
     id="rect11452" />
  <path
     transform="translate(90.2980, 147.5847) scale(0.0040, -0.0040)"
     d="M0 0c0 31 25 56 56 56s56 -25 56 -56s-25 -56 -56 -56s-56 25 -56 56z"
     fill="currentColor"
     id="path11454" />
  <path
     transform="translate(90.2980, 148.5847) scale(0.0040, -0.0040)"
     d="M0 0c0 31 25 56 56 56s56 -25 56 -56s-25 -56 -56 -56s-56 25 -56 56z"
     fill="currentColor"
     id="path11456" />
  <rect
     transform="translate(89.8080, 148.0847)"
     x="0.0000"
     y="-2.0000"
     width="0.1900"
     height="4.0000"
     ry="0.0000"
     fill="currentColor"
     id="rect11458" />
  <rect
     transform="translate(88.9080, 148.0847)"
     x="0.0000"
     y="-2.0000"
     width="0.6000"
     height="4.0000"
     ry="0.0000"
     fill="currentColor"
     id="rect11460" />
  <line
     x1="75.507317"
     y1="24.289595"
     x2="101.56413"
     y2="24.289595"
     id="line11462"
     style="stroke:currentColor;stroke-width:0.09489425;stroke-linecap:round;stroke-linejoin:round" />
  <line
     x1="75.507317"
     y1="24.390297"
     x2="101.56413"
     y2="24.390297"
     id="line11464"
     style="stroke:currentColor;stroke-width:0.09489425;stroke-linecap:round;stroke-linejoin:round" />
  <line
     x1="74.216675"
     y1="24.490999"
     x2="101.56413"
     y2="24.490999"
     id="line11466"
     style="stroke:currentColor;stroke-width:0.09721599;stroke-linecap:round;stroke-linejoin:round" />
  <line
     x1="75.507317"
     y1="24.591702"
     x2="101.56413"
     y2="24.591702"
     id="line11468"
     style="stroke:currentColor;stroke-width:0.09489425;stroke-linecap:round;stroke-linejoin:round" />
  <line
     x1="75.507317"
     y1="24.692404"
     x2="101.56413"
     y2="24.692404"
     id="line11470"
     style="stroke:currentColor;stroke-width:0.09489425;stroke-linecap:round;stroke-linejoin:round" />
  <line
     x1="61.672382"
     y1="147.8847"
     x2="88.858101"
     y2="147.8847"
     id="line11472"
     style="stroke:currentColor;stroke-width:0.09258533;stroke-linecap:round;stroke-linejoin:round" />
  <line
     x1="61.672382"
     y1="147.9847"
     x2="88.858101"
     y2="147.9847"
     id="line11474"
     style="stroke:currentColor;stroke-width:0.09258533;stroke-linecap:round;stroke-linejoin:round" />
  <line
     x1="61.768074"
     y1="148.0847"
     x2="88.858101"
     y2="148.0847"
     id="line11476"
     style="stroke:currentColor;stroke-width:0.09242223;stroke-linecap:round;stroke-linejoin:round" />
  <line
     x1="61.672382"
     y1="148.18469"
     x2="88.858101"
     y2="148.18469"
     id="line11478"
     style="stroke:currentColor;stroke-width:0.09258533;stroke-linecap:round;stroke-linejoin:round" />
  <line
     x1="61.672382"
     y1="148.2847"
     x2="88.858101"
     y2="148.2847"
     id="line11480"
     style="stroke:currentColor;stroke-width:0.09258533;stroke-linecap:round;stroke-linejoin:round" />
  <line
     transform="translate(57.0937, 26.4910)"
     stroke-linejoin="round"
     stroke-linecap="round"
     stroke-width="0.1000"
     stroke="currentColor"
     x1="0.0500"
     y1="-0.0000"
     x2="18.8644"
     y2="-0.0000"
     id="line11482" />
  <line
     transform="translate(57.0937, 25.4910)"
     stroke-linejoin="round"
     stroke-linecap="round"
     stroke-width="0.1000"
     stroke="currentColor"
     x1="0.0500"
     y1="-0.0000"
     x2="18.8644"
     y2="-0.0000"
     id="line11484" />
  <line
     transform="translate(57.0937, 24.4910)"
     stroke-linejoin="round"
     stroke-linecap="round"
     stroke-width="0.1000"
     stroke="currentColor"
     x1="0.0500"
     y1="-0.0000"
     x2="18.8644"
     y2="-0.0000"
     id="line11486" />
  <line
     transform="translate(57.0937, 23.4910)"
     stroke-linejoin="round"
     stroke-linecap="round"
     stroke-width="0.1000"
     stroke="currentColor"
     x1="0.0500"
     y1="-0.0000"
     x2="18.8644"
     y2="-0.0000"
     id="line11488" />
  <line
     transform="translate(57.0937, 22.4910)"
     stroke-linejoin="round"
     stroke-linecap="round"
     stroke-width="0.1000"
     stroke="currentColor"
     x1="0.0500"
     y1="-0.0000"
     x2="18.8644"
     y2="-0.0000"
     id="line11490" />
  <line
     x1="52.282593"
     y1="114.75369"
     x2="114.492"
     y2="114.75369"
     id="line11492"
     style="stroke:currentColor;stroke-width:0.11683893;stroke-linecap:round;stroke-linejoin:round" />
  <line
     x1="52.282593"
     y1="114.85368"
     x2="114.492"
     y2="114.85368"
     id="line11494"
     style="stroke:currentColor;stroke-width:0.11683893;stroke-linecap:round;stroke-linejoin:round" />
  <line
     x1="52.282593"
     y1="114.95368"
     x2="114.492"
     y2="114.95368"
     id="line11496"
     style="stroke:currentColor;stroke-width:0.11683893;stroke-linecap:round;stroke-linejoin:round" />
  <line
     x1="52.282593"
     y1="115.05369"
     x2="114.492"
     y2="115.05369"
     id="line11498"
     style="stroke:currentColor;stroke-width:0.11683893;stroke-linecap:round;stroke-linejoin:round" />
  <line
     x1="52.282593"
     y1="115.15369"
     x2="114.492"
     y2="115.15369"
     id="line11500"
     style="stroke:currentColor;stroke-width:0.11683893;stroke-linecap:round;stroke-linejoin:round" />
  <line
     transform="translate(42.5488, 150.0847)"
     stroke-linejoin="round"
     stroke-linecap="round"
     stroke-width="0.1000"
     stroke="currentColor"
     x1="0.0500"
     y1="-0.0000"
     x2="18.5099"
     y2="-0.0000"
     id="line11502" />
  <line
     transform="translate(42.5488, 149.0847)"
     stroke-linejoin="round"
     stroke-linecap="round"
     stroke-width="0.1000"
     stroke="currentColor"
     x1="0.0500"
     y1="-0.0000"
     x2="18.5099"
     y2="-0.0000"
     id="line11504" />
  <line
     transform="translate(42.5488, 148.0847)"
     stroke-linejoin="round"
     stroke-linecap="round"
     stroke-width="0.1000"
     stroke="currentColor"
     x1="0.0500"
     y1="-0.0000"
     x2="18.5099"
     y2="-0.0000"
     id="line11506" />
  <line
     transform="translate(42.5488, 147.0847)"
     stroke-linejoin="round"
     stroke-linecap="round"
     stroke-width="0.1000"
     stroke="currentColor"
     x1="0.0500"
     y1="-0.0000"
     x2="18.5099"
     y2="-0.0000"
     id="line11508" />
  <line
     transform="translate(42.5488, 146.0847)"
     stroke-linejoin="round"
     stroke-linecap="round"
     stroke-width="0.1000"
     stroke="currentColor"
     x1="0.0500"
     y1="-0.0000"
     x2="18.5099"
     y2="-0.0000"
     id="line11510" />
  <line
     x1="52.263622"
     y1="134.10617"
     x2="114.492"
     y2="134.10617"
     id="line11512"
     style="stroke:currentColor;stroke-width:0.11229283;stroke-linecap:round;stroke-linejoin:round" />
  <line
     x1="52.263622"
     y1="134.20618"
     x2="114.492"
     y2="134.20618"
     id="line11514"
     style="stroke:currentColor;stroke-width:0.11229283;stroke-linecap:round;stroke-linejoin:round" />
  <line
     x1="52.263622"
     y1="134.30618"
     x2="114.492"
     y2="134.30618"
     id="line11516"
     style="stroke:currentColor;stroke-width:0.11229283;stroke-linecap:round;stroke-linejoin:round" />
  <line
     x1="52.263622"
     y1="134.40617"
     x2="114.492"
     y2="134.40617"
     id="line11518"
     style="stroke:currentColor;stroke-width:0.11229283;stroke-linecap:round;stroke-linejoin:round" />
  <line
     x1="52.263622"
     y1="134.50618"
     x2="114.492"
     y2="134.50618"
     id="line11520"
     style="stroke:currentColor;stroke-width:0.11229283;stroke-linecap:round;stroke-linejoin:round" />
  <line
     x1="88.956123"
     y1="150.08655"
     x2="102.30241"
     y2="150.08655"
     id="line11522"
     style="stroke:currentColor;stroke-width:0.09631809;stroke-linecap:round;stroke-linejoin:round" />
  <line
     x1="88.956123"
     y1="149.08563"
     x2="102.30241"
     y2="149.08563"
     id="line11524"
     style="stroke:currentColor;stroke-width:0.09631809;stroke-linecap:round;stroke-linejoin:round" />
  <line
     x1="88.956123"
     y1="148.0847"
     x2="102.30241"
     y2="148.0847"
     id="line11526"
     style="stroke:currentColor;stroke-width:0.09631809;stroke-linecap:round;stroke-linejoin:round" />
  <line
     x1="88.956123"
     y1="147.08377"
     x2="102.30241"
     y2="147.08377"
     id="line11528"
     style="stroke:currentColor;stroke-width:0.09631809;stroke-linecap:round;stroke-linejoin:round" />
  <line
     x1="88.956123"
     y1="146.08284"
     x2="102.30241"
     y2="146.08284"
     id="line11530"
     style="stroke:currentColor;stroke-width:0.09631809;stroke-linecap:round;stroke-linejoin:round" />
  <line
     x1="59.500423"
     y1="75.77597"
     x2="114.492"
     y2="75.77597"
     id="line11532"
     style="stroke:currentColor;stroke-width:0.10985191;stroke-linecap:round;stroke-linejoin:round" />
  <line
     x1="59.500423"
     y1="75.875969"
     x2="114.492"
     y2="75.875969"
     id="line11534"
     style="stroke:currentColor;stroke-width:0.10985191;stroke-linecap:round;stroke-linejoin:round" />
  <line
     x1="59.500423"
     y1="75.975967"
     x2="114.492"
     y2="75.975967"
     id="line11536"
     style="stroke:currentColor;stroke-width:0.10985191;stroke-linecap:round;stroke-linejoin:round" />
  <line
     x1="59.500423"
     y1="76.075966"
     x2="114.492"
     y2="76.075966"
     id="line11538"
     style="stroke:currentColor;stroke-width:0.10985191;stroke-linecap:round;stroke-linejoin:round" />
  <line
     x1="59.500423"
     y1="76.175972"
     x2="114.492"
     y2="76.175972"
     id="line11540"
     style="stroke:currentColor;stroke-width:0.10985191;stroke-linecap:round;stroke-linejoin:round" />
  <circle
     transform="translate(48.9945, 143.0040)"
     stroke-linejoin="round"
     stroke-linecap="round"
     fill="none"
     stroke="currentColor"
     stroke-width="0.1000"
     r="0.3500"
     id="circle11542" />
  <line
     transform="translate(48.6946, 143.0040)"
     stroke-linejoin="round"
     stroke-linecap="round"
     stroke-width="0.1000"
     stroke="currentColor"
     x1="0.6999"
     y1="0.0000"
     x2="4.0370"
     y2="0.6666"
     id="line11544" />
  <line
     transform="translate(48.6946, 143.0040)"
     stroke-linejoin="round"
     stroke-linecap="round"
     stroke-width="0.1000"
     stroke="currentColor"
     x1="0.6999"
     y1="-0.0000"
     x2="4.0370"
     y2="-0.6666"
     id="line11546" />
  <rect
     transform="translate(91.6641, 152.6153)"
     x="-0.3245"
     y="-0.1000"
     width="1.9464"
     height="0.1000"
     ry="0.0000"
     fill="currentColor"
     id="rect11548" />
  <rect
     transform="translate(91.6641, 150.7689)"
     x="-0.3245"
     y="-0.1000"
     width="1.9464"
     height="0.1000"
     ry="0.0000"
     fill="currentColor"
     id="rect11550" />
  <rect
     transform="translate(91.3396, 152.2908)"
     x="0"
     y="-1.5219"
     width="0.1000"
     height="1.7464"
     ry="0.0000"
     fill="currentColor"
     id="rect11552" />
  <rect
     transform="translate(93.1860, 152.2908)"
     x="0"
     y="-1.5219"
     width="0.1000"
     height="1.7464"
     ry="0.0000"
     fill="currentColor"
     id="rect11554" />
  <text
     transform="translate(91.6641, 152.2908)"
     font-family="serif"
     font-size="2.4696"
     text-anchor="start"
     fill="currentColor"
     id="text11558">
    <tspan
       id="tspan11556">z</tspan>
  </text>
  <path
     transform="translate(92.3128, 145.7847) scale(0.0040, -0.0040)"
     d="M-91 67c0 37 29 66 66 66s67 -29 67 -66s-30 -67 -67 -67s-66 30 -66 67zM-231 0c-11 0 -19 9 -19 19c0 3 1 4 2 7l231 513c3 7 10 11 17 11s14 -4 17 -11l231 -513c1 -3 2 -4 2 -7c0 -10 -8 -19 -19 -19h-49c-7 0 -14 4 -17 11l-190 418l-189 -418 c-3 -7 -10 -11 -17 -11z"
     fill="currentColor"
     id="path11560" />
  <path
     transform="translate(91.3318, 148.5847) scale(0.0040, -0.0040)"
     d="M213 112c-50 0 -69 -43 -69 -88c0 -77 57 -136 134 -136c50 0 69 43 69 88c0 77 -57 136 -134 136zM491 0c0 -43 -34 -75 -72 -96c-53 -29 -114 -40 -174 -40s-120 11 -173 40c-38 21 -72 53 -72 96s34 75 72 96c53 29 113 40 173 40s121 -11 174 -40 c38 -21 72 -53 72 -96z"
     fill="currentColor"
     id="path11562" />
  <text
     transform="translate(33.5311, 17.8002)"
     font-family="serif"
     font-size="1.9600"
     text-anchor="start"
     fill="currentColor"
     id="text11566">
    <tspan
       id="tspan11564">20&quot;</tspan>
  </text>
  <g
     transform="translate(71.8859, 20.0457)"
     id="g11572">
    <path
       transform="scale(0.0040, -0.0040)"
       d="M-41 146c26 76 82 153 149 153c22 0 36 -20 41 -45c22 26 51 45 81 45c23 0 38 -21 44 -46c22 27 51 46 80 46c33 0 59 -35 59 -69c0 -5 -1 -10 -2 -15l-35 -149c0 -2 -1 -4 -1 -5c0 -5 2 -8 7 -8c9 0 27 11 48 31c4 4 9 6 13 6c6 0 11 -4 11 -10c0 -4 -3 -8 -7 -12 c-40 -38 -85 -75 -131 -75c-20 0 -32 13 -32 32c0 4 0 7 1 11l39 165c1 5 2 9 2 14c0 10 -4 18 -14 18c-16 0 -33 -16 -39 -32l-53 -183c-3 -10 -12 -18 -22 -18h-41c-10 0 -16 8 -13 18l52 183c2 6 3 11 3 16c0 9 -4 16 -13 16c-16 0 -35 -15 -41 -32l-62 -183 c-3 -10 -14 -18 -24 -18h-41c-10 0 -15 8 -12 18l63 183c2 5 2 10 2 15c0 10 -3 17 -13 17c-29 0 -54 -53 -66 -87c-4 -11 -15 -17 -23 -17c-7 0 -12 4 -12 11c0 2 1 4 2 6z"
       fill="currentColor"
       id="path11568" />
    <path
       transform="translate(1.7413, 0.0000) scale(0.0040, -0.0040)"
       d="M253 245l-50 -163c-30 -99 -121 -255 -218 -255c-45 0 -87 27 -87 69c0 39 17 77 52 77c24 0 44 -20 44 -44c0 -30 -38 -24 -38 -54c0 -10 11 -11 23 -11h6c48 0 61 58 73 108l68 273h-49c-11 0 -19 8 -19 19s8 19 19 19h60c32 96 118 191 213 191c45 0 87 -27 87 -69 c0 -39 -17 -77 -52 -77c-24 0 -44 19 -44 43c0 30 38 25 38 55c0 10 -10 11 -22 11h-7c-62 0 -70 -88 -86 -154h55c11 0 19 -8 19 -19s-8 -19 -19 -19h-66z"
       fill="currentColor"
       id="path11570" />
  </g>
  <circle
     transform="translate(104.4394, 19.4286)"
     stroke-linejoin="round"
     stroke-linecap="round"
     fill="none"
     stroke="currentColor"
     stroke-width="0.1000"
     r="0.3500"
     id="circle11574" />
  <line
     transform="translate(104.1395, 19.4286)"
     stroke-linejoin="round"
     stroke-linecap="round"
     stroke-width="0.1000"
     stroke="currentColor"
     x1="0.6999"
     y1="0.0000"
     x2="5.1890"
     y2="0.6666"
     id="line11576" />
  <line
     transform="translate(104.1395, 19.4286)"
     stroke-linejoin="round"
     stroke-linecap="round"
     stroke-width="0.1000"
     stroke="currentColor"
     x1="0.6999"
     y1="-0.0000"
     x2="5.1890"
     y2="-0.6666"
     id="line11578" />
  <rect
     transform="translate(113.2172, 13.3843)"
     x="-0.0650"
     y="3.3139"
     width="0.1300"
     height="0.0000"
     ry="0.0000"
     fill="currentColor"
     id="rect11580" />
  <rect
     transform="translate(110.6020, 29.5507)"
     x="-0.3245"
     y="-0.1000"
     width="2.2196"
     height="0.1000"
     ry="0.0000"
     fill="currentColor"
     id="rect11582" />
  <rect
     transform="translate(110.6020, 27.6360)"
     x="-0.3245"
     y="-0.1000"
     width="2.2196"
     height="0.1000"
     ry="0.0000"
     fill="currentColor"
     id="rect11584" />
  <rect
     transform="translate(110.2775, 29.1921)"
     x="0"
     y="-1.5561"
     width="0.1000"
     height="1.8147"
     ry="0.0000"
     fill="currentColor"
     id="rect11586" />
  <rect
     transform="translate(112.3971, 29.1921)"
     x="0"
     y="-1.5561"
     width="0.1000"
     height="1.8147"
     ry="0.0000"
     fill="currentColor"
     id="rect11588" />
  <text
     transform="translate(110.6020, 29.1921)"
     font-family="serif"
     font-size="2.4696"
     text-anchor="start"
     fill="currentColor"
     id="text11592">
    <tspan
       id="tspan11590">ɑ</tspan>
  </text>
  <path
     d="m 111.72405,21.552255 0.476,-0.388 c 0.012,-0.008 0.024,-0.012 0.036,-0.012 0.012,0 0.028,0.004 0.04,0.012 l 0.08,0.064 c 0.012,0.012 0.02,0.032 0.02,0.048 0,0.016 -0.008,0.036 -0.02,0.048 l -0.46,0.372 0.46,0.372 c 0.012,0.012 0.02,0.032 0.02,0.048 0,0.016 -0.008,0.036 -0.02,0.048 l -0.08,0.064 c -0.012,0.008 -0.028,0.012 -0.04,0.012 -0.012,0 -0.024,-0.004 -0.036,-0.012 l -0.476,-0.388 -0.476,0.388 c -0.012,0.008 -0.024,0.012 -0.036,0.012 -0.012,0 -0.028,-0.004 -0.04,-0.012 l -0.08,-0.064 c -0.012,-0.012 -0.02,-0.032 -0.02,-0.048 0,-0.016 0.008,-0.036 0.02,-0.048 l 0.46,-0.372 -0.46,-0.372 c -0.012,-0.012 -0.02,-0.032 -0.02,-0.048 0,-0.016 0.008,-0.036 0.02,-0.048 l 0.08,-0.064 c 0.012,-0.008 0.028,-0.012 0.04,-0.012 0.012,0 0.024,0.004 0.036,0.012 z"
     id="path11594"
     inkscape:connector-curvature="0"
     style="fill:currentColor;stroke-width:0.004" />
  <g
     transform="translate(110.3284, 20.0286)"
     id="g11600">
    <path
       transform="scale(0.0040, -0.0040)"
       d="M-41 146c26 76 82 153 149 153c22 0 36 -20 41 -45c22 26 51 45 81 45c23 0 38 -21 44 -46c22 27 51 46 80 46c33 0 59 -35 59 -69c0 -5 -1 -10 -2 -15l-35 -149c0 -2 -1 -4 -1 -5c0 -5 2 -8 7 -8c9 0 27 11 48 31c4 4 9 6 13 6c6 0 11 -4 11 -10c0 -4 -3 -8 -7 -12 c-40 -38 -85 -75 -131 -75c-20 0 -32 13 -32 32c0 4 0 7 1 11l39 165c1 5 2 9 2 14c0 10 -4 18 -14 18c-16 0 -33 -16 -39 -32l-53 -183c-3 -10 -12 -18 -22 -18h-41c-10 0 -16 8 -13 18l52 183c2 6 3 11 3 16c0 9 -4 16 -13 16c-16 0 -35 -15 -41 -32l-62 -183 c-3 -10 -14 -18 -24 -18h-41c-10 0 -15 8 -12 18l63 183c2 5 2 10 2 15c0 10 -3 17 -13 17c-29 0 -54 -53 -66 -87c-4 -11 -15 -17 -23 -17c-7 0 -12 4 -12 11c0 2 1 4 2 6z"
       fill="currentColor"
       id="path11596" />
    <path
       transform="translate(1.7413, 0.0000) scale(0.0040, -0.0040)"
       d="M253 245l-50 -163c-30 -99 -121 -255 -218 -255c-45 0 -87 27 -87 69c0 39 17 77 52 77c24 0 44 -20 44 -44c0 -30 -38 -24 -38 -54c0 -10 11 -11 23 -11h6c48 0 61 58 73 108l68 273h-49c-11 0 -19 8 -19 19s8 19 19 19h60c32 96 118 191 213 191c45 0 87 -27 87 -69 c0 -39 -17 -77 -52 -77c-24 0 -44 19 -44 43c0 30 38 25 38 55c0 10 -10 11 -22 11h-7c-62 0 -70 -88 -86 -154h55c11 0 19 -8 19 -19s-8 -19 -19 -19h-66z"
       fill="currentColor"
       id="path11598" />
  </g>
  <path
     transform="translate(111.1786, 26.4910) scale(0.0040, -0.0040)"
     d="M218 136c55 0 108 -28 108 -89c0 -71 -55 -121 -102 -149c-35 -21 -75 -34 -116 -34c-55 0 -108 28 -108 89c0 71 55 121 102 149c35 21 75 34 116 34z"
     fill="currentColor"
     id="path11602" />
  <circle
     transform="translate(91.6318, 142.9695)"
     stroke-linejoin="round"
     stroke-linecap="round"
     fill="none"
     stroke="currentColor"
     stroke-width="0.1000"
     r="0.3500"
     id="circle11604" />
  <line
     transform="translate(91.3318, 142.9695)"
     stroke-linejoin="round"
     stroke-linecap="round"
     stroke-width="0.1000"
     stroke="currentColor"
     x1="0.6999"
     y1="0.0000"
     x2="5.1890"
     y2="0.6666"
     id="line11606" />
  <line
     transform="translate(91.3318, 142.9695)"
     stroke-linejoin="round"
     stroke-linecap="round"
     stroke-width="0.1000"
     stroke="currentColor"
     x1="0.6999"
     y1="-0.0000"
     x2="5.1890"
     y2="-0.6666"
     id="line11608" />
  <text
     transform="translate(86.7001, 17.8002)"
     font-family="serif"
     font-size="1.9600"
     text-anchor="start"
     fill="currentColor"
     id="text11612">
    <tspan
       id="tspan11610">45&quot;</tspan>
  </text>
  <rect
     transform="translate(97.7943, 152.6495)"
     x="-0.3245"
     y="-0.1000"
     width="2.2196"
     height="0.1000"
     ry="0.0000"
     fill="currentColor"
     id="rect11614" />
  <rect
     transform="translate(97.7943, 150.7347)"
     x="-0.3245"
     y="-0.1000"
     width="2.2196"
     height="0.1000"
     ry="0.0000"
     fill="currentColor"
     id="rect11616" />
  <rect
     transform="translate(97.4698, 152.2908)"
     x="0"
     y="-1.5561"
     width="0.1000"
     height="1.8147"
     ry="0.0000"
     fill="currentColor"
     id="rect11618" />
  <rect
     transform="translate(99.5894, 152.2908)"
     x="0"
     y="-1.5561"
     width="0.1000"
     height="1.8147"
     ry="0.0000"
     fill="currentColor"
     id="rect11620" />
  <text
     transform="translate(97.7943, 152.2908)"
     font-family="serif"
     font-size="2.4696"
     text-anchor="start"
     fill="currentColor"
     id="text11624">
    <tspan
       id="tspan11622">ɑ</tspan>
  </text>
  <path
     d="m 98.916352,145.14595 0.476,-0.388 c 0.012,-0.008 0.024,-0.012 0.036,-0.012 0.012,0 0.028,0.004 0.04,0.012 l 0.08,0.064 c 0.012,0.012 0.02,0.032 0.02,0.048 0,0.016 -0.008,0.036 -0.02,0.048 l -0.46,0.372 0.46,0.372 c 0.012,0.012 0.02,0.032 0.02,0.048 0,0.016 -0.008,0.036 -0.02,0.048 l -0.08,0.064 c -0.012,0.008 -0.028,0.012 -0.04,0.012 -0.012,0 -0.024,-0.004 -0.036,-0.012 l -0.476,-0.388 -0.476,0.388 c -0.012,0.008 -0.024,0.012 -0.036,0.012 -0.012,0 -0.028,-0.004 -0.04,-0.012 l -0.08,-0.064 c -0.012,-0.012 -0.02,-0.032 -0.02,-0.048 0,-0.016 0.008,-0.036 0.02,-0.048 l 0.46,-0.372 -0.46,-0.372 c -0.012,-0.012 -0.02,-0.032 -0.02,-0.048 0,-0.016 0.008,-0.036 0.02,-0.048 l 0.08,-0.064 c 0.012,-0.008 0.028,-0.012 0.04,-0.012 0.012,0 0.024,0.004 0.036,0.012 z"
     id="path11626"
     inkscape:connector-curvature="0"
     style="fill:currentColor;stroke-width:0.004" />
  <g
     transform="translate(97.5208, 143.5695)"
     id="g11632">
    <path
       transform="scale(0.0040, -0.0040)"
       d="M-41 146c26 76 82 153 149 153c22 0 36 -20 41 -45c22 26 51 45 81 45c23 0 38 -21 44 -46c22 27 51 46 80 46c33 0 59 -35 59 -69c0 -5 -1 -10 -2 -15l-35 -149c0 -2 -1 -4 -1 -5c0 -5 2 -8 7 -8c9 0 27 11 48 31c4 4 9 6 13 6c6 0 11 -4 11 -10c0 -4 -3 -8 -7 -12 c-40 -38 -85 -75 -131 -75c-20 0 -32 13 -32 32c0 4 0 7 1 11l39 165c1 5 2 9 2 14c0 10 -4 18 -14 18c-16 0 -33 -16 -39 -32l-53 -183c-3 -10 -12 -18 -22 -18h-41c-10 0 -16 8 -13 18l52 183c2 6 3 11 3 16c0 9 -4 16 -13 16c-16 0 -35 -15 -41 -32l-62 -183 c-3 -10 -14 -18 -24 -18h-41c-10 0 -15 8 -12 18l63 183c2 5 2 10 2 15c0 10 -3 17 -13 17c-29 0 -54 -53 -66 -87c-4 -11 -15 -17 -23 -17c-7 0 -12 4 -12 11c0 2 1 4 2 6z"
       fill="currentColor"
       id="path11628" />
    <path
       transform="translate(1.7413, 0.0000) scale(0.0040, -0.0040)"
       d="M253 245l-50 -163c-30 -99 -121 -255 -218 -255c-45 0 -87 27 -87 69c0 39 17 77 52 77c24 0 44 -20 44 -44c0 -30 -38 -24 -38 -54c0 -10 11 -11 23 -11h6c48 0 61 58 73 108l68 273h-49c-11 0 -19 8 -19 19s8 19 19 19h60c32 96 118 191 213 191c45 0 87 -27 87 -69 c0 -39 -17 -77 -52 -77c-24 0 -44 19 -44 43c0 30 38 25 38 55c0 10 -10 11 -22 11h-7c-62 0 -70 -88 -86 -154h55c11 0 19 -8 19 -19s-8 -19 -19 -19h-66z"
       fill="currentColor"
       id="path11630" />
  </g>
  <path
     transform="translate(98.3710, 148.0847) scale(0.0040, -0.0040)"
     d="M218 136c55 0 108 -28 108 -89c0 -71 -55 -121 -102 -149c-35 -21 -75 -34 -116 -34c-55 0 -108 28 -108 89c0 71 55 121 102 149c35 21 75 34 116 34z"
     fill="currentColor"
     id="path11634" />
  <line
     transform="translate(63.5325, 18.3843)"
     stroke-linejoin="round"
     stroke-linecap="round"
     stroke-width="0.1000"
     stroke="currentColor"
     x1="49.2497"
     y1="-0.0000"
     x2="49.7497"
     y2="1.0000"
     id="line11636" />
  <line
     transform="translate(63.5325, 18.3843)"
     stroke-linejoin="round"
     stroke-linecap="round"
     stroke-width="0.1000"
     stroke="currentColor"
     x1="0.5000"
     y1="-0.0000"
     x2="0.0000"
     y2="1.0000"
     id="line11638" />
  <line
     transform="translate(63.5325, 18.3843)"
     stroke-linejoin="round"
     stroke-linecap="round"
     stroke-width="0.1000"
     stroke="currentColor"
     x1="0.5000"
     y1="-0.0000"
     x2="49.2497"
     y2="-0.0000"
     id="line11640" />
  <line
     transform="translate(15.7983, 18.3843)"
     stroke-linejoin="round"
     stroke-linecap="round"
     stroke-width="0.1000"
     stroke="currentColor"
     x1="38.3799"
     y1="-0.0000"
     x2="38.8799"
     y2="1.0000"
     id="line11642" />
  <line
     transform="translate(15.7983, 18.3843)"
     stroke-linejoin="round"
     stroke-linecap="round"
     stroke-width="0.1000"
     stroke="currentColor"
     x1="0.5000"
     y1="-0.0000"
     x2="0.0000"
     y2="1.0000"
     id="line11644" />
  <line
     transform="translate(15.7983, 18.3843)"
     stroke-linejoin="round"
     stroke-linecap="round"
     stroke-width="0.1000"
     stroke="currentColor"
     x1="0.5000"
     y1="-0.0000"
     x2="38.3799"
     y2="-0.0000"
     id="line11646" />
  <rect
     transform="translate(104.4717, 29.5165)"
     x="-0.3245"
     y="-0.1000"
     width="1.9464"
     height="0.1000"
     ry="0.0000"
     fill="currentColor"
     id="rect11648" />
  <rect
     transform="translate(104.4717, 27.6701)"
     x="-0.3245"
     y="-0.1000"
     width="1.9464"
     height="0.1000"
     ry="0.0000"
     fill="currentColor"
     id="rect11650" />
  <rect
     transform="translate(104.1472, 29.1921)"
     x="0"
     y="-1.5219"
     width="0.1000"
     height="1.7464"
     ry="0.0000"
     fill="currentColor"
     id="rect11652" />
  <rect
     transform="translate(105.9937, 29.1921)"
     x="0"
     y="-1.5219"
     width="0.1000"
     height="1.7464"
     ry="0.0000"
     fill="currentColor"
     id="rect11654" />
  <text
     transform="translate(104.4717, 29.1921)"
     font-family="serif"
     font-size="2.4696"
     text-anchor="start"
     fill="currentColor"
     id="text11658">
    <tspan
       id="tspan11656">z</tspan>
  </text>
  <path
     transform="translate(105.1205, 22.1910) scale(0.0040, -0.0040)"
     d="M-91 67c0 37 29 66 66 66s67 -29 67 -66s-30 -67 -67 -67s-66 30 -66 67zM-231 0c-11 0 -19 9 -19 19c0 3 1 4 2 7l231 513c3 7 10 11 17 11s14 -4 17 -11l231 -513c1 -3 2 -4 2 -7c0 -10 -8 -19 -19 -19h-49c-7 0 -14 4 -17 11l-190 418l-189 -418 c-3 -7 -10 -11 -17 -11z"
     fill="currentColor"
     id="path11660" />
  <path
     transform="translate(104.1395, 24.4910) scale(0.0040, -0.0040)"
     d="M213 112c-50 0 -69 -43 -69 -88c0 -77 57 -136 134 -136c50 0 69 43 69 88c0 77 -57 136 -134 136zM491 0c0 -43 -34 -75 -72 -96c-53 -29 -114 -40 -174 -40s-120 11 -173 40c-38 21 -72 53 -72 96s34 75 72 96c53 29 113 40 173 40s121 -11 174 -40 c38 -21 72 -53 72 -96z"
     fill="currentColor"
     id="path11662" />
  <circle
     transform="translate(63.8324, 19.4457)"
     stroke-linejoin="round"
     stroke-linecap="round"
     fill="none"
     stroke="currentColor"
     stroke-width="0.1000"
     r="0.3500"
     id="circle11664" />
  <line
     transform="translate(63.5325, 19.4457)"
     stroke-linejoin="round"
     stroke-linecap="round"
     stroke-width="0.1000"
     stroke="currentColor"
     x1="0.6999"
     y1="0.0000"
     x2="7.3534"
     y2="0.6666"
     id="line11666" />
  <line
     transform="translate(63.5325, 19.4457)"
     stroke-linejoin="round"
     stroke-linecap="round"
     stroke-width="0.1000"
     stroke="currentColor"
     x1="0.6999"
     y1="-0.0000"
     x2="7.3534"
     y2="-0.6666"
     id="line11668" />
  <rect
     transform="translate(13.2761, 12.5843)"
     x="-0.3520"
     y="-0.1000"
     width="3.0599"
     height="0.1000"
     ry="0.0000"
     fill="currentColor"
     id="rect11670" />
  <rect
     transform="translate(13.2761, 9.9659)"
     x="-0.3520"
     y="-0.1000"
     width="3.0599"
     height="0.1000"
     ry="0.0000"
     fill="currentColor"
     id="rect11672" />
  <rect
     transform="translate(12.9241, 12.2323)"
     x="0"
     y="-2.2664"
     width="0.1000"
     height="2.5184"
     ry="0.0000"
     fill="currentColor"
     id="rect11674" />
  <rect
     transform="translate(15.8839, 12.2323)"
     x="0"
     y="-2.2664"
     width="0.1000"
     height="2.5184"
     ry="0.0000"
     fill="currentColor"
     id="rect11676" />
  <text
     transform="translate(13.2761, 12.2323)"
     font-family="serif"
     font-weight="bold"
     font-size="2.7719"
     text-anchor="start"
     fill="currentColor"
     id="text11680">
    <tspan
       id="tspan11678">B</tspan>
  </text>
  <g
     transform="translate(16.258955,146.37091)"
     id="g11686">
    <path
       transform="scale(0.004,-0.004)"
       d="M 253,245 203,82 C 173,-17 82,-173 -15,-173 c -45,0 -87,27 -87,69 0,39 17,77 52,77 24,0 44,-20 44,-44 0,-30 -38,-24 -38,-54 0,-10 11,-11 23,-11 h 6 c 48,0 61,58 73,108 l 68,273 H 77 c -11,0 -19,8 -19,19 0,11 8,19 19,19 h 60 c 32,96 118,191 213,191 45,0 87,-27 87,-69 0,-39 -17,-77 -52,-77 -24,0 -44,19 -44,43 0,30 38,25 38,55 0,10 -10,11 -22,11 h -7 c -62,0 -70,-88 -86,-154 h 55 c 11,0 19,-8 19,-19 0,-11 -8,-19 -19,-19 z"
       id="path11682"
       inkscape:connector-curvature="0"
       style="fill:currentColor" />
    <path
       transform="matrix(0.004,0,0,-0.004,1.2633,0)"
       d="M 253,245 203,82 C 173,-17 82,-173 -15,-173 c -45,0 -87,27 -87,69 0,39 17,77 52,77 24,0 44,-20 44,-44 0,-30 -38,-24 -38,-54 0,-10 11,-11 23,-11 h 6 c 48,0 61,58 73,108 l 68,273 H 77 c -11,0 -19,8 -19,19 0,11 8,19 19,19 h 60 c 32,96 118,191 213,191 45,0 87,-27 87,-69 0,-39 -17,-77 -52,-77 -24,0 -44,19 -44,43 0,30 38,25 38,55 0,10 -10,11 -22,11 h -7 c -62,0 -70,-88 -86,-154 h 55 c 11,0 19,-8 19,-19 0,-11 -8,-19 -19,-19 z"
       id="path11684"
       inkscape:connector-curvature="0"
       style="fill:currentColor" />
  </g>
  <text
     font-size="2.2001"
     id="text11690"
     x="9.5781002"
     y="132.09715"
     style="font-size:2.20009995px;font-family:serif;text-anchor:start;fill:currentColor">
    <tspan
       id="tspan11688"
       style="white-space:pre">B</tspan>
  </text>
  <path
     d="m 17.283965,148.4407 0.476,-0.388 c 0.012,-0.008 0.024,-0.012 0.036,-0.012 0.012,0 0.028,0.004 0.04,0.012 l 0.08,0.064 c 0.012,0.012 0.02,0.032 0.02,0.048 0,0.016 -0.008,0.036 -0.02,0.048 l -0.46,0.372 0.46,0.372 c 0.012,0.012 0.02,0.032 0.02,0.048 0,0.016 -0.008,0.036 -0.02,0.048 l -0.08,0.064 c -0.012,0.008 -0.028,0.012 -0.04,0.012 -0.012,0 -0.024,-0.004 -0.036,-0.012 l -0.476,-0.388 -0.476,0.388 c -0.012,0.008 -0.024,0.012 -0.036,0.012 -0.012,0 -0.028,-0.004 -0.04,-0.012 l -0.08,-0.064 c -0.012,-0.012 -0.02,-0.032 -0.02,-0.048 0,-0.016 0.008,-0.036 0.02,-0.048 l 0.46,-0.372 -0.46,-0.372 c -0.012,-0.012 -0.02,-0.032 -0.02,-0.048 0,-0.016 0.008,-0.036 0.02,-0.048 l 0.08,-0.064 c 0.012,-0.008 0.028,-0.012 0.04,-0.012 0.012,0 0.024,0.004 0.036,0.012 z"
     id="path11692"
     inkscape:connector-curvature="0"
     style="fill:currentColor;stroke-width:0.004" />
  <text
     font-size="2.2001"
     id="text11708"
     x="9.6464005"
     y="112.74483"
     style="font-size:2.20009995px;font-family:serif;text-anchor:start;fill:currentColor">
    <tspan
       id="tspan11706"
       style="white-space:pre">T</tspan>
  </text>
  <g
     transform="translate(16.258955,22.443811)"
     id="g11720">
    <path
       transform="scale(0.004,-0.004)"
       d="M 253,245 203,82 C 173,-17 82,-173 -15,-173 c -45,0 -87,27 -87,69 0,39 17,77 52,77 24,0 44,-20 44,-44 0,-30 -38,-24 -38,-54 0,-10 11,-11 23,-11 h 6 c 48,0 61,58 73,108 l 68,273 H 77 c -11,0 -19,8 -19,19 0,11 8,19 19,19 h 60 c 32,96 118,191 213,191 45,0 87,-27 87,-69 0,-39 -17,-77 -52,-77 -24,0 -44,19 -44,43 0,30 38,25 38,55 0,10 -10,11 -22,11 h -7 c -62,0 -70,-88 -86,-154 h 55 c 11,0 19,-8 19,-19 0,-11 -8,-19 -19,-19 z"
       id="path11716"
       inkscape:connector-curvature="0"
       style="fill:currentColor" />
    <path
       transform="matrix(0.004,0,0,-0.004,1.2633,0)"
       d="M 253,245 203,82 C 173,-17 82,-173 -15,-173 c -45,0 -87,27 -87,69 0,39 17,77 52,77 24,0 44,-20 44,-44 0,-30 -38,-24 -38,-54 0,-10 11,-11 23,-11 h 6 c 48,0 61,58 73,108 l 68,273 H 77 c -11,0 -19,8 -19,19 0,11 8,19 19,19 h 60 c 32,96 118,191 213,191 45,0 87,-27 87,-69 0,-39 -17,-77 -52,-77 -24,0 -44,19 -44,43 0,30 38,25 38,55 0,10 -10,11 -22,11 h -7 c -62,0 -70,-88 -86,-154 h 55 c 11,0 19,-8 19,-19 0,-11 -8,-19 -19,-19 z"
       id="path11718"
       inkscape:connector-curvature="0"
       style="fill:currentColor" />
  </g>
  <path
     d="m 17.283965,24.347 0.476,-0.388 c 0.012,-0.008 0.024,-0.012 0.036,-0.012 0.012,0 0.028,0.004 0.04,0.012 l 0.08,0.064 c 0.012,0.012 0.02,0.032 0.02,0.048 0,0.016 -0.008,0.036 -0.02,0.048 l -0.46,0.372 0.46,0.372 c 0.012,0.012 0.02,0.032 0.02,0.048 0,0.016 -0.008,0.036 -0.02,0.048 l -0.08,0.064 c -0.012,0.008 -0.028,0.012 -0.04,0.012 -0.012,0 -0.024,-0.004 -0.036,-0.012 l -0.476,-0.388 -0.476,0.388 c -0.012,0.008 -0.024,0.012 -0.036,0.012 -0.012,0 -0.028,-0.004 -0.04,-0.012 l -0.08,-0.064 c -0.012,-0.012 -0.02,-0.032 -0.02,-0.048 0,-0.016 0.008,-0.036 0.02,-0.048 l 0.46,-0.372 -0.46,-0.372 c -0.012,-0.012 -0.02,-0.032 -0.02,-0.048 0,-0.016 0.008,-0.036 0.02,-0.048 l 0.08,-0.064 c 0.012,-0.008 0.028,-0.012 0.04,-0.012 0.012,0 0.024,0.004 0.036,0.012 z"
     id="path11722"
     inkscape:connector-curvature="0"
     style="fill:currentColor;stroke-width:0.004" />
  <rect
     x="0.0000"
     y="-63.8469"
     width="0.1600"
     height="127.6938"
     ry="0.0500"
     id="rect11736"
     fill="currentColor"
     transform="translate(14.3940, 86.2879)" />
  <text
     transform="translate(9.5781, 148.8871)"
     font-family="serif"
     font-size="2.2001"
     text-anchor="start"
     fill="currentColor"
     id="text11740">
    <tspan
       id="tspan11738">B</tspan>
  </text>
  <g
     id="g11967"
     transform="translate(0.28757556,-4.8693479)">
    <text
       id="text11696"
       font-size="1.9600"
       transform="translate(15.7983,136.8256)"
       style="font-size:1.96000004px;font-family:serif;text-anchor:start;fill:currentColor">
      <tspan
         id="tspan11694"
         style="white-space:pre">But the idea-complex</tspan>
    </text>
    <text
       id="text11700"
       font-size="1.9600"
       transform="translate(15.7983,139.8256)"
       style="font-size:1.96000004px;font-family:serif;text-anchor:start;fill:currentColor">
      <tspan
         id="tspan11698"
         style="white-space:pre">That makes contact with mystery</tspan>
    </text>
    <text
       id="text11704"
       font-size="1.9600"
       transform="translate(15.7983,142.8256)"
       style="font-size:1.96000004px;font-family:serif;text-anchor:start;fill:currentColor">
      <tspan
         id="tspan11702"
         style="white-space:pre">Of life, of me</tspan>
    </text>
    <text
       id="text11726"
       font-size="1.9600"
       transform="translate(15.7983,39.586)"
       style="font-size:1.96000004px;font-family:serif;text-anchor:start;fill:currentColor">
      <tspan
         id="tspan11724"
         style="white-space:pre">The basis of an aesthetic act is the pure idea</tspan>
    </text>
    <text
       id="text11730"
       font-size="1.9600"
       transform="translate(15.7983,42.586)"
       style="font-size:1.96000004px;font-family:serif;text-anchor:start;fill:currentColor">
      <tspan
         id="tspan11728"
         style="white-space:pre">But the pure idea is, of necessity, an aesthetic act</tspan>
    </text>
    <text
       id="text11734"
       font-size="1.9600"
       transform="translate(15.7983,45.586)"
       style="font-size:1.96000004px;font-family:serif;text-anchor:start;fill:currentColor">
      <tspan
         id="tspan11732"
         style="white-space:pre">Here then is the paradox that is the artist's problem</tspan>
    </text>
    <text
       id="text11750"
       font-size="1.9600"
       transform="translate(15.7983,117.4733)"
       style="font-size:1.96000004px;font-family:serif;text-anchor:start;fill:currentColor">
      <tspan
         id="tspan11748"
         style="white-space:pre">But the idea-complex</tspan>
    </text>
    <text
       id="text11754"
       font-size="1.9600"
       transform="translate(15.7983,120.4733)"
       style="font-size:1.96000004px;font-family:serif;text-anchor:start;fill:currentColor">
      <tspan
         id="tspan11752"
         style="white-space:pre">That makes contact with mystery</tspan>
    </text>
    <text
       id="text11758"
       font-size="1.9600"
       transform="translate(15.7983,123.4733)"
       style="font-size:1.96000004px;font-family:serif;text-anchor:start;fill:currentColor">
      <tspan
         id="tspan11756"
         style="white-space:pre">Of life, of me, of nature</tspan>
    </text>
    <text
       id="text11768"
       font-size="1.9600"
       transform="translate(15.7983,97.9844)"
       style="font-size:1.96000004px;font-family:serif;text-anchor:start;fill:currentColor">
      <tspan
         id="tspan11766"
         style="white-space:pre">Nor the tortured line, distorted and humiliating</tspan>
    </text>
    <text
       id="text11772"
       font-size="1.9600"
       transform="translate(15.7983,100.9844)"
       style="font-size:1.96000004px;font-family:serif;text-anchor:start;fill:currentColor">
      <tspan
         id="tspan11770"
         style="white-space:pre">Not the accurate eye, all fingers</tspan>
    </text>
    <text
       id="text11776"
       font-size="1.9600"
       transform="translate(15.7983,103.9844)"
       style="font-size:1.96000004px;font-family:serif;text-anchor:start;fill:currentColor">
      <tspan
         id="tspan11774"
         style="white-space:pre">Nor the wild eye of dream, winking</tspan>
    </text>
    <text
       id="text11786"
       font-size="1.9600"
       transform="translate(15.7983,78.4955)"
       style="font-size:1.96000004px;font-family:serif;text-anchor:start;fill:currentColor">
      <tspan
         id="tspan11784"
         style="white-space:pre">Not space cutting nor space building</tspan>
    </text>
    <text
       id="text11790"
       font-size="1.9600"
       transform="translate(15.7983,81.4955)"
       style="font-size:1.96000004px;font-family:serif;text-anchor:start;fill:currentColor">
      <tspan
         id="tspan11788"
         style="white-space:pre">Not construction nor fauvist destruction</tspan>
    </text>
    <text
       id="text11794"
       font-size="1.9600"
       transform="translate(15.7983,84.4955)"
       style="font-size:1.96000004px;font-family:serif;text-anchor:start;fill:currentColor">
      <tspan
         id="tspan11792"
         style="white-space:pre">Not the pure line, straight and narrow</tspan>
    </text>
    <text
       id="text11804"
       font-size="1.9600"
       transform="translate(15.7983,59.0408)"
       style="font-size:1.96000004px;font-family:serif;text-anchor:start;fill:currentColor">
      <tspan
         id="tspan11802"
         style="white-space:pre">The basis of an aesthetic act is the pure idea</tspan>
    </text>
    <text
       id="text11808"
       font-size="1.9600"
       transform="translate(15.7983,62.0408)"
       style="font-size:1.96000004px;font-family:serif;text-anchor:start;fill:currentColor">
      <tspan
         id="tspan11806"
         style="white-space:pre">But the pure idea is, of necessity, an aesthetic act</tspan>
    </text>
    <text
       id="text11812"
       font-size="1.9600"
       transform="translate(15.7983,65.0408)"
       style="font-size:1.96000004px;font-family:serif;text-anchor:start;fill:currentColor">
      <tspan
         id="tspan11810"
         style="white-space:pre">Here then is the paradox</tspan>
    </text>
  </g>
  <g
     id="g11929"
     transform="translate(-0.06970961,0.78427994)">
    <text
       style="font-weight:bold;font-size:1.96000004px;font-family:serif;text-anchor:start;fill:currentColor"
       y="28.535545"
       x="15.525855"
       id="text11712"
       font-size="1.9600"
       font-weight="bold">
      <tspan
         style="white-space:pre"
         id="tspan11710"> dry, mechanically</tspan>
    </text>
    <path
       style="fill:currentColor;stroke-width:0.004"
       inkscape:connector-curvature="0"
       id="path11714"
       d="m 18.049056,29.657146 c -0.224,0 -0.408,0.428 -0.408,0.692 0,0.088 0.032,0.152 0.12,0.152 0.256,0 0.388,-0.504 0.388,-0.712 0,-0.072 -0.028,-0.132 -0.1,-0.132 z m -0.484,1.556 c -0.152,0 -0.312,-0.02 -0.464,-0.02 -0.156,0 -0.312,0.02 -0.46,0.02 -0.036,0 -0.056,-0.028 -0.056,-0.056 0,-0.072 0.124,-0.06 0.192,-0.064 0.088,-0.004 0.188,-0.02 0.216,-0.1 l 0.408,-1.2 c 0.008,-0.028 0.016,-0.056 0.016,-0.08 0,-0.032 -0.008,-0.056 -0.044,-0.056 -0.132,0 -0.252,0.24 -0.316,0.388 -0.02,0.048 -0.06,0.068 -0.096,0.068 -0.032,0 -0.056,-0.016 -0.056,-0.048 0,-0.008 0.004,-0.02 0.008,-0.032 0.12,-0.272 0.288,-0.572 0.528,-0.572 0.14,0 0.236,0.084 0.264,0.208 0.116,-0.124 0.268,-0.208 0.412,-0.208 0.276,0 0.428,0.196 0.428,0.456 0,0.084 -0.016,0.176 -0.048,0.268 -0.08,0.232 -0.364,0.476 -0.588,0.476 -0.108,0 -0.208,-0.02 -0.292,-0.068 -0.016,-0.008 -0.028,-0.012 -0.044,-0.012 -0.028,0 -0.056,0.012 -0.064,0.036 l -0.116,0.344 c -0.004,0.008 -0.004,0.02 -0.004,0.028 0,0.08 0.084,0.104 0.176,0.112 0.036,0.004 0.052,0.032 0.052,0.056 0,0.028 -0.016,0.056 -0.052,0.056 z" />
    <text
       style="font-weight:bold;font-size:1.96000004px;font-family:serif;text-anchor:start;fill:currentColor"
       y="125.77525"
       x="15.525855"
       id="text11744"
       font-size="1.9600"
       font-weight="bold">
      <tspan
         style="white-space:pre"
         id="tspan11742"> dry, mechanically</tspan>
    </text>
    <path
       style="fill:currentColor;stroke-width:0.004"
       inkscape:connector-curvature="0"
       id="path11746"
       d="m 18.049056,126.89675 c -0.224,0 -0.408,0.428 -0.408,0.692 0,0.088 0.032,0.152 0.12,0.152 0.256,0 0.388,-0.504 0.388,-0.712 0,-0.072 -0.028,-0.132 -0.1,-0.132 z m -0.484,1.556 c -0.152,0 -0.312,-0.02 -0.464,-0.02 -0.156,0 -0.312,0.02 -0.46,0.02 -0.036,0 -0.056,-0.028 -0.056,-0.056 0,-0.072 0.124,-0.06 0.192,-0.064 0.088,-0.004 0.188,-0.02 0.216,-0.1 l 0.408,-1.2 c 0.008,-0.028 0.016,-0.056 0.016,-0.08 0,-0.032 -0.008,-0.056 -0.044,-0.056 -0.132,0 -0.252,0.24 -0.316,0.388 -0.02,0.048 -0.06,0.068 -0.096,0.068 -0.032,0 -0.056,-0.016 -0.056,-0.048 0,-0.008 0.004,-0.02 0.008,-0.032 0.12,-0.272 0.288,-0.572 0.528,-0.572 0.14,0 0.236,0.084 0.264,0.208 0.116,-0.124 0.268,-0.208 0.412,-0.208 0.276,0 0.428,0.196 0.428,0.456 0,0.084 -0.016,0.176 -0.048,0.268 -0.08,0.232 -0.364,0.476 -0.588,0.476 -0.108,0 -0.208,-0.02 -0.292,-0.068 -0.016,-0.008 -0.028,-0.012 -0.044,-0.012 -0.028,0 -0.056,0.012 -0.064,0.036 l -0.116,0.344 c -0.004,0.008 -0.004,0.02 -0.004,0.028 0,0.08 0.084,0.104 0.176,0.112 0.036,0.004 0.052,0.032 0.052,0.056 0,0.028 -0.016,0.056 -0.052,0.056 z" />
    <text
       style="font-weight:bold;font-size:1.96000004px;font-family:serif;text-anchor:start;fill:currentColor"
       y="106.42284"
       x="15.525855"
       id="text11762"
       font-size="1.9600"
       font-weight="bold">
      <tspan
         style="white-space:pre"
         id="tspan11760"> dry, mechanically</tspan>
    </text>
    <path
       style="fill:currentColor;stroke-width:0.004"
       inkscape:connector-curvature="0"
       id="path11764"
       d="m 18.049056,107.54445 c -0.224,0 -0.408,0.428 -0.408,0.692 0,0.088 0.032,0.152 0.12,0.152 0.256,0 0.388,-0.504 0.388,-0.712 0,-0.072 -0.028,-0.132 -0.1,-0.132 z m -0.484,1.556 c -0.152,0 -0.312,-0.02 -0.464,-0.02 -0.156,0 -0.312,0.02 -0.46,0.02 -0.036,0 -0.056,-0.028 -0.056,-0.056 0,-0.072 0.124,-0.06 0.192,-0.064 0.088,-0.004 0.188,-0.02 0.216,-0.1 l 0.408,-1.2 c 0.008,-0.028 0.016,-0.056 0.016,-0.08 0,-0.032 -0.008,-0.056 -0.044,-0.056 -0.132,0 -0.252,0.24 -0.316,0.388 -0.02,0.048 -0.06,0.068 -0.096,0.068 -0.032,0 -0.056,-0.016 -0.056,-0.048 0,-0.008 0.004,-0.02 0.008,-0.032 0.12,-0.272 0.288,-0.572 0.528,-0.572 0.14,0 0.236,0.084 0.264,0.208 0.116,-0.124 0.268,-0.208 0.412,-0.208 0.276,0 0.428,0.196 0.428,0.456 0,0.084 -0.016,0.176 -0.048,0.268 -0.08,0.232 -0.364,0.476 -0.588,0.476 -0.108,0 -0.208,-0.02 -0.292,-0.068 -0.016,-0.008 -0.028,-0.012 -0.044,-0.012 -0.028,0 -0.056,0.012 -0.064,0.036 l -0.116,0.344 c -0.004,0.008 -0.004,0.02 -0.004,0.028 0,0.08 0.084,0.104 0.176,0.112 0.036,0.004 0.052,0.032 0.052,0.056 0,0.028 -0.016,0.056 -0.052,0.056 z" />
    <text
       style="font-weight:bold;font-size:1.96000004px;font-family:serif;text-anchor:start;fill:currentColor"
       y="86.933945"
       x="15.525855"
       id="text11780"
       font-size="1.9600"
       font-weight="bold">
      <tspan
         style="white-space:pre"
         id="tspan11778"> dry, mechanically</tspan>
    </text>
    <path
       style="fill:currentColor;stroke-width:0.004"
       inkscape:connector-curvature="0"
       id="path11782"
       d="m 18.049056,88.055546 c -0.224,0 -0.408,0.428 -0.408,0.692 0,0.088 0.032,0.152 0.12,0.152 0.256,0 0.388,-0.504 0.388,-0.712 0,-0.072 -0.028,-0.132 -0.1,-0.132 z m -0.484,1.556 c -0.152,0 -0.312,-0.02 -0.464,-0.02 -0.156,0 -0.312,0.02 -0.46,0.02 -0.036,0 -0.056,-0.028 -0.056,-0.056 0,-0.072 0.124,-0.06 0.192,-0.064 0.088,-0.004 0.188,-0.02 0.216,-0.1 l 0.408,-1.2 c 0.008,-0.028 0.016,-0.056 0.016,-0.08 0,-0.032 -0.008,-0.056 -0.044,-0.056 -0.132,0 -0.252,0.24 -0.316,0.388 -0.02,0.048 -0.06,0.068 -0.096,0.068 -0.032,0 -0.056,-0.016 -0.056,-0.048 0,-0.008 0.004,-0.02 0.008,-0.032 0.12,-0.272 0.288,-0.572 0.528,-0.572 0.14,0 0.236,0.084 0.264,0.208 0.116,-0.124 0.268,-0.208 0.412,-0.208 0.276,0 0.428,0.196 0.428,0.456 0,0.084 -0.016,0.176 -0.048,0.268 -0.08,0.232 -0.364,0.476 -0.588,0.476 -0.108,0 -0.208,-0.02 -0.292,-0.068 -0.016,-0.008 -0.028,-0.012 -0.044,-0.012 -0.028,0 -0.056,0.012 -0.064,0.036 l -0.116,0.344 c -0.004,0.008 -0.004,0.02 -0.004,0.028 0,0.08 0.084,0.104 0.176,0.112 0.036,0.004 0.052,0.032 0.052,0.056 0,0.028 -0.016,0.056 -0.052,0.056 z" />
    <text
       style="font-weight:bold;font-size:1.96000004px;font-family:serif;text-anchor:start;fill:currentColor"
       y="67.445045"
       x="15.525855"
       id="text11798"
       font-size="1.9600"
       font-weight="bold">
      <tspan
         style="white-space:pre"
         id="tspan11796"> dry, mechanically</tspan>
    </text>
    <path
       style="fill:currentColor;stroke-width:0.004"
       inkscape:connector-curvature="0"
       id="path11800"
       d="m 18.049056,68.566646 c -0.224,0 -0.408,0.428 -0.408,0.692 0,0.088 0.032,0.152 0.12,0.152 0.256,0 0.388,-0.504 0.388,-0.712 0,-0.072 -0.028,-0.132 -0.1,-0.132 z m -0.484,1.556 c -0.152,0 -0.312,-0.02 -0.464,-0.02 -0.156,0 -0.312,0.02 -0.46,0.02 -0.036,0 -0.056,-0.028 -0.056,-0.056 0,-0.072 0.124,-0.06 0.192,-0.064 0.088,-0.004 0.188,-0.02 0.216,-0.1 l 0.408,-1.2 c 0.008,-0.028 0.016,-0.056 0.016,-0.08 0,-0.032 -0.008,-0.056 -0.044,-0.056 -0.132,0 -0.252,0.24 -0.316,0.388 -0.02,0.048 -0.06,0.068 -0.096,0.068 -0.032,0 -0.056,-0.016 -0.056,-0.048 0,-0.008 0.004,-0.02 0.008,-0.032 0.12,-0.272 0.288,-0.572 0.528,-0.572 0.14,0 0.236,0.084 0.264,0.208 0.116,-0.124 0.268,-0.208 0.412,-0.208 0.276,0 0.428,0.196 0.428,0.456 0,0.084 -0.016,0.176 -0.048,0.268 -0.08,0.232 -0.364,0.476 -0.588,0.476 -0.108,0 -0.208,-0.02 -0.292,-0.068 -0.016,-0.008 -0.028,-0.012 -0.044,-0.012 -0.028,0 -0.056,0.012 -0.064,0.036 l -0.116,0.344 c -0.004,0.008 -0.004,0.02 -0.004,0.028 0,0.08 0.084,0.104 0.176,0.112 0.036,0.004 0.052,0.032 0.052,0.056 0,0.028 -0.016,0.056 -0.052,0.056 z" />
    <text
       style="font-weight:bold;font-size:1.96000004px;font-family:serif;text-anchor:start;fill:currentColor"
       y="47.990345"
       x="15.525855"
       id="text11816"
       font-size="1.9600"
       font-weight="bold">
      <tspan
         style="white-space:pre"
         id="tspan11814"> dry, mechanically</tspan>
    </text>
    <path
       style="fill:currentColor;stroke-width:0.004"
       inkscape:connector-curvature="0"
       id="path11818"
       d="m 18.049056,49.111946 c -0.224,0 -0.408,0.428 -0.408,0.692 0,0.088 0.032,0.152 0.12,0.152 0.256,0 0.388,-0.504 0.388,-0.712 0,-0.072 -0.028,-0.132 -0.1,-0.132 z m -0.484,1.556 c -0.152,0 -0.312,-0.02 -0.464,-0.02 -0.156,0 -0.312,0.02 -0.46,0.02 -0.036,0 -0.056,-0.028 -0.056,-0.056 0,-0.072 0.124,-0.06 0.192,-0.064 0.088,-0.004 0.188,-0.02 0.216,-0.1 l 0.408,-1.2 c 0.008,-0.028 0.016,-0.056 0.016,-0.08 0,-0.032 -0.008,-0.056 -0.044,-0.056 -0.132,0 -0.252,0.24 -0.316,0.388 -0.02,0.048 -0.06,0.068 -0.096,0.068 -0.032,0 -0.056,-0.016 -0.056,-0.048 0,-0.008 0.004,-0.02 0.008,-0.032 0.12,-0.272 0.288,-0.572 0.528,-0.572 0.14,0 0.236,0.084 0.264,0.208 0.116,-0.124 0.268,-0.208 0.412,-0.208 0.276,0 0.428,0.196 0.428,0.456 0,0.084 -0.016,0.176 -0.048,0.268 -0.08,0.232 -0.364,0.476 -0.588,0.476 -0.108,0 -0.208,-0.02 -0.292,-0.068 -0.016,-0.008 -0.028,-0.012 -0.044,-0.012 -0.028,0 -0.056,0.012 -0.064,0.036 l -0.116,0.344 c -0.004,0.008 -0.004,0.02 -0.004,0.028 0,0.08 0.084,0.104 0.176,0.112 0.036,0.004 0.052,0.032 0.052,0.056 0,0.028 -0.016,0.056 -0.052,0.056 z" />
  </g>
  <text
     font-size="2.2001"
     id="text11822"
     x="9.6293001"
     y="34.857525"
     style="font-size:2.20009995px;font-family:serif;text-anchor:start;fill:currentColor">
    <tspan
       id="tspan11820"
       style="white-space:pre">S</tspan>
  </text>
  <text
     font-size="2.2001"
     id="text11826"
     x="9.5781002"
     y="54.312325"
     style="font-size:2.20009995px;font-family:serif;text-anchor:start;fill:currentColor">
    <tspan
       id="tspan11824"
       style="white-space:pre">A</tspan>
  </text>
  <text
     transform="translate(9.6293, 25.2933)"
     font-family="serif"
     font-size="2.2001"
     text-anchor="start"
     fill="currentColor"
     id="text11830">
    <tspan
       id="tspan11828">S</tspan>
  </text>
  <rect
     transform="translate(49.0268, 152.6153)"
     x="-0.3245"
     y="-0.1000"
     width="1.9464"
     height="0.1000"
     ry="0.0000"
     fill="currentColor"
     id="rect11832" />
  <rect
     transform="translate(49.0268, 150.7689)"
     x="-0.3245"
     y="-0.1000"
     width="1.9464"
     height="0.1000"
     ry="0.0000"
     fill="currentColor"
     id="rect11834" />
  <rect
     transform="translate(48.7023, 152.2908)"
     x="0"
     y="-1.5219"
     width="0.1000"
     height="1.7464"
     ry="0.0000"
     fill="currentColor"
     id="rect11836" />
  <rect
     transform="translate(50.5488, 152.2908)"
     x="0"
     y="-1.5219"
     width="0.1000"
     height="1.7464"
     ry="0.0000"
     fill="currentColor"
     id="rect11838" />
  <text
     transform="translate(49.0268, 152.2908)"
     font-family="serif"
     font-size="2.4696"
     text-anchor="start"
     fill="currentColor"
     id="text11842">
    <tspan
       id="tspan11840">z</tspan>
  </text>
  <path
     transform="translate(42.5488, 147.0847) scale(0.0040, -0.0040)"
     d="M557 -125c0 28 23 51 51 51s51 -23 51 -51s-23 -51 -51 -51s-51 23 -51 51zM557 125c0 28 23 51 51 51s51 -23 51 -51s-23 -51 -51 -51s-51 23 -51 51zM232 263c172 0 293 -88 293 -251c0 -263 -263 -414 -516 -521c-3 -3 -6 -4 -9 -4c-7 0 -13 6 -13 13c0 3 1 6 4 9 c202 118 412 265 412 493c0 120 -63 235 -171 235c-74 0 -129 -54 -154 -126c11 5 22 8 34 8c55 0 100 -45 100 -100c0 -58 -44 -106 -100 -106c-60 0 -112 47 -112 106c0 133 102 244 232 244z"
     fill="currentColor"
     id="path11844" />
  <path
     transform="translate(49.6756, 145.7847) scale(0.0040, -0.0040)"
     d="M-91 67c0 37 29 66 66 66s67 -29 67 -66s-30 -67 -67 -67s-66 30 -66 67zM-231 0c-11 0 -19 9 -19 19c0 3 1 4 2 7l231 513c3 7 10 11 17 11s14 -4 17 -11l231 -513c1 -3 2 -4 2 -7c0 -10 -8 -19 -19 -19h-49c-7 0 -14 4 -17 11l-190 418l-189 -418 c-3 -7 -10 -11 -17 -11z"
     fill="currentColor"
     id="path11846" />
  <path
     transform="translate(48.6946, 148.5847) scale(0.0040, -0.0040)"
     d="M213 112c-50 0 -69 -43 -69 -88c0 -77 57 -136 134 -136c50 0 69 43 69 88c0 77 -57 136 -134 136zM491 0c0 -43 -34 -75 -72 -96c-53 -29 -114 -40 -174 -40s-120 11 -173 40c-38 21 -72 53 -72 96s34 75 72 96c53 29 113 40 173 40s121 -11 174 -40 c38 -21 72 -53 72 -96z"
     fill="currentColor"
     id="path11848" />
  <text
     font-size="2.2001"
     id="text11852"
     x="9.6464005"
     y="93.25592"
     style="font-size:2.20009995px;font-family:serif;text-anchor:start;fill:currentColor">
    <tspan
       id="tspan11850"
       style="white-space:pre">T</tspan>
  </text>
  <rect
     transform="translate(63.8647, 29.5165)"
     x="-0.3245"
     y="-0.1000"
     width="1.9464"
     height="0.1000"
     ry="0.0000"
     fill="currentColor"
     id="rect11854" />
  <rect
     transform="translate(63.8647, 27.6701)"
     x="-0.3245"
     y="-0.1000"
     width="1.9464"
     height="0.1000"
     ry="0.0000"
     fill="currentColor"
     id="rect11856" />
  <rect
     transform="translate(63.5402, 29.1921)"
     x="0"
     y="-1.5219"
     width="0.1000"
     height="1.7464"
     ry="0.0000"
     fill="currentColor"
     id="rect11858" />
  <rect
     transform="translate(65.3867, 29.1921)"
     x="0"
     y="-1.5219"
     width="0.1000"
     height="1.7464"
     ry="0.0000"
     fill="currentColor"
     id="rect11860" />
  <text
     transform="translate(63.8647, 29.1921)"
     font-family="serif"
     font-size="2.4696"
     text-anchor="start"
     fill="currentColor"
     id="text11864">
    <tspan
       id="tspan11862">z</tspan>
  </text>
  <path
     transform="translate(57.0937, 25.4910) scale(0.0040, -0.0040)"
     d="M376 262c4 0 9 1 13 1c155 0 256 -128 256 -261c0 -76 -33 -154 -107 -210c-22 -17 -47 -28 -73 -36c3 -35 5 -70 5 -105c0 -19 -1 -39 -2 -58c-7 -120 -90 -228 -208 -228c-108 0 -195 88 -195 197c0 58 53 103 112 103c54 0 95 -47 95 -103c0 -52 -43 -95 -95 -95 c-11 0 -21 2 -31 6c26 -39 68 -65 117 -65c96 0 157 92 163 191c1 18 2 37 2 55c0 31 -1 61 -4 92c-29 -5 -58 -8 -89 -8c-188 0 -333 172 -333 374c0 177 131 306 248 441c-19 62 -37 125 -45 190c-6 52 -7 104 -7 156c0 115 55 224 149 292c3 2 7 3 10 3c4 0 7 0 10 -3 c71 -84 133 -245 133 -358c0 -143 -86 -255 -180 -364c21 -68 39 -138 56 -207zM461 -203c68 24 113 95 113 164c0 90 -66 179 -173 190c24 -116 46 -231 60 -354zM74 28c0 -135 129 -247 264 -247c28 0 55 2 82 6c-14 127 -37 245 -63 364c-79 -8 -124 -61 -124 -119 c0 -44 25 -91 81 -123c5 -5 7 -10 7 -15c0 -11 -10 -22 -22 -22c-3 0 -6 1 -9 2c-80 43 -117 115 -117 185c0 88 58 174 160 197c-14 58 -29 117 -46 175c-107 -121 -213 -243 -213 -403zM408 1045c-99 -48 -162 -149 -162 -259c0 -74 18 -133 36 -194 c80 97 146 198 146 324c0 55 -4 79 -20 129z"
     fill="currentColor"
     id="path11866" />
  <path
     transform="translate(64.5135, 22.1910) scale(0.0040, -0.0040)"
     d="M-91 67c0 37 29 66 66 66s67 -29 67 -66s-30 -67 -67 -67s-66 30 -66 67zM-231 0c-11 0 -19 9 -19 19c0 3 1 4 2 7l231 513c3 7 10 11 17 11s14 -4 17 -11l231 -513c1 -3 2 -4 2 -7c0 -10 -8 -19 -19 -19h-49c-7 0 -14 4 -17 11l-190 418l-189 -418 c-3 -7 -10 -11 -17 -11z"
     fill="currentColor"
     id="path11868" />
  <path
     transform="translate(63.5325, 24.4910) scale(0.0040, -0.0040)"
     d="M213 112c-50 0 -69 -43 -69 -88c0 -77 57 -136 134 -136c50 0 69 43 69 88c0 77 -57 136 -134 136zM491 0c0 -43 -34 -75 -72 -96c-53 -29 -114 -40 -174 -40s-120 11 -173 40c-38 21 -72 53 -72 96s34 75 72 96c53 29 113 40 173 40s121 -11 174 -40 c38 -21 72 -53 72 -96z"
     fill="currentColor"
     id="path11870" />
  <g
     transform="translate(53.7315, 143.6040)"
     id="g11876">
    <path
       transform="scale(0.0040, -0.0040)"
       d="M-41 146c26 76 82 153 149 153c22 0 36 -20 41 -45c22 26 51 45 81 45c23 0 38 -21 44 -46c22 27 51 46 80 46c33 0 59 -35 59 -69c0 -5 -1 -10 -2 -15l-35 -149c0 -2 -1 -4 -1 -5c0 -5 2 -8 7 -8c9 0 27 11 48 31c4 4 9 6 13 6c6 0 11 -4 11 -10c0 -4 -3 -8 -7 -12 c-40 -38 -85 -75 -131 -75c-20 0 -32 13 -32 32c0 4 0 7 1 11l39 165c1 5 2 9 2 14c0 10 -4 18 -14 18c-16 0 -33 -16 -39 -32l-53 -183c-3 -10 -12 -18 -22 -18h-41c-10 0 -16 8 -13 18l52 183c2 6 3 11 3 16c0 9 -4 16 -13 16c-16 0 -35 -15 -41 -32l-62 -183 c-3 -10 -14 -18 -24 -18h-41c-10 0 -15 8 -12 18l63 183c2 5 2 10 2 15c0 10 -3 17 -13 17c-29 0 -54 -53 -66 -87c-4 -11 -15 -17 -23 -17c-7 0 -12 4 -12 11c0 2 1 4 2 6z"
       fill="currentColor"
       id="path11872" />
    <path
       transform="translate(1.7413, 0.0000) scale(0.0040, -0.0040)"
       d="M253 245l-50 -163c-30 -99 -121 -255 -218 -255c-45 0 -87 27 -87 69c0 39 17 77 52 77c24 0 44 -20 44 -44c0 -30 -38 -24 -38 -54c0 -10 11 -11 23 -11h6c48 0 61 58 73 108l68 273h-49c-11 0 -19 8 -19 19s8 19 19 19h60c32 96 118 191 213 191c45 0 87 -27 87 -69 c0 -39 -17 -77 -52 -77c-24 0 -44 19 -44 43c0 30 38 25 38 55c0 10 -10 11 -22 11h-7c-62 0 -70 -88 -86 -154h55c11 0 19 -8 19 -19s-8 -19 -19 -19h-66z"
       fill="currentColor"
       id="path11874" />
  </g>
  <text
     font-size="2.2001"
     id="text11880"
     x="9.5781002"
     y="73.767021"
     style="font-size:2.20009995px;font-family:serif;text-anchor:start;fill:currentColor">
    <tspan
       id="tspan11878"
       style="white-space:pre">A</tspan>
  </text>
  <rect
     transform="translate(54.6132, 13.3843)"
     x="-0.0650"
     y="3.3139"
     width="0.1300"
     height="0.0000"
     ry="0.0000"
     fill="currentColor"
     id="rect11882" />
</svg>
