<svg xmlns="http://www.w3.org/2000/svg" xmlns:xlink="http://www.w3.org/1999/xlink" version="1.2" width="215.90mm" height="279.40mm" viewBox="0 0 122.8590 158.9940">
<style text="style/css">
<![CDATA[
tspan { white-space: pre; }
]]>
</style>
<!-- Page: 16/19 -->
<text transform="translate(7.2270, 8.8659)" font-family="serif" font-size="2.2001" text-anchor="start" fill="currentColor">
<tspan>16</tspan>
</text>
<text transform="translate(115.6320, 8.8659)" font-family="serif" font-size="2.2001" text-anchor="start" fill="currentColor">
<tspan/>
</text>
<path transform="translate(31.9796, 126.4806) scale(0.0040, -0.0040)" d="M0 0c0 31 25 56 56 56s56 -25 56 -56s-25 -56 -56 -56s-56 25 -56 56z" fill="currentColor"/>
<path transform="translate(31.9796, 127.4806) scale(0.0040, -0.0040)" d="M0 0c0 31 25 56 56 56s56 -25 56 -56s-25 -56 -56 -56s-56 25 -56 56z" fill="currentColor"/>
<rect transform="translate(31.4896, 126.9806)" x="0.0000" y="-2.0000" width="0.1900" height="4.0000" ry="0.0000" fill="currentColor"/>
<rect transform="translate(30.5896, 126.9806)" x="0.0000" y="-2.0000" width="0.6000" height="4.0000" ry="0.0000" fill="currentColor"/>
<path transform="translate(61.0869, 39.5410) scale(0.0040, -0.0040)" d="M0 0c0 31 25 56 56 56s56 -25 56 -56s-25 -56 -56 -56s-56 25 -56 56z" fill="currentColor"/>
<path transform="translate(61.0869, 40.8410) scale(0.0040, -0.0040)" d="M0 0c0 31 25 56 56 56s56 -25 56 -56s-25 -56 -56 -56s-56 25 -56 56z" fill="currentColor"/>
<rect transform="translate(62.3269, 40.1910)" x="0.0000" y="-1.2500" width="0.6000" height="2.5000" ry="0.0000" fill="currentColor"/>
<rect transform="translate(61.8369, 40.1910)" x="0.0000" y="-1.2500" width="0.1900" height="2.5000" ry="0.0000" fill="currentColor"/>
<path transform="translate(43.2991, 39.6910) scale(0.0040, -0.0040)" d="M0 0c0 31 25 56 56 56s56 -25 56 -56s-25 -56 -56 -56s-56 25 -56 56z" fill="currentColor"/>
<path transform="translate(43.2991, 40.6910) scale(0.0040, -0.0040)" d="M0 0c0 31 25 56 56 56s56 -25 56 -56s-25 -56 -56 -56s-56 25 -56 56z" fill="currentColor"/>
<rect transform="translate(42.8091, 40.1910)" x="0.0000" y="-2.0000" width="0.1900" height="4.0000" ry="0.0000" fill="currentColor"/>
<rect transform="translate(41.9091, 40.1910)" x="0.0000" y="-2.0000" width="0.6000" height="4.0000" ry="0.0000" fill="currentColor"/>
<path transform="translate(53.5066, 126.3306) scale(0.0040, -0.0040)" d="M0 0c0 31 25 56 56 56s56 -25 56 -56s-25 -56 -56 -56s-56 25 -56 56z" fill="currentColor"/>
<path transform="translate(53.5066, 127.6306) scale(0.0040, -0.0040)" d="M0 0c0 31 25 56 56 56s56 -25 56 -56s-25 -56 -56 -56s-56 25 -56 56z" fill="currentColor"/>
<rect transform="translate(54.7466, 126.9806)" x="0.0000" y="-1.2500" width="0.6000" height="2.5000" ry="0.0000" fill="currentColor"/>
<rect transform="translate(54.2566, 126.9806)" x="0.0000" y="-1.2500" width="0.1900" height="2.5000" ry="0.0000" fill="currentColor"/>
<line transform="translate(72.5235, 39.9910)" stroke-linejoin="round" stroke-linecap="round" stroke-width="0.1000" stroke="currentColor" x1="0.0500" y1="-0.0000" x2="43.0585" y2="-0.0000"/>
<line transform="translate(72.5235, 40.0910)" stroke-linejoin="round" stroke-linecap="round" stroke-width="0.1000" stroke="currentColor" x1="0.0500" y1="-0.0000" x2="43.0585" y2="-0.0000"/>
<line transform="translate(72.5235, 40.1910)" stroke-linejoin="round" stroke-linecap="round" stroke-width="0.1000" stroke="currentColor" x1="0.0500" y1="-0.0000" x2="43.0585" y2="-0.0000"/>
<line transform="translate(72.5235, 40.2910)" stroke-linejoin="round" stroke-linecap="round" stroke-width="0.1000" stroke="currentColor" x1="0.0500" y1="-0.0000" x2="43.0585" y2="-0.0000"/>
<line transform="translate(72.5235, 40.3910)" stroke-linejoin="round" stroke-linecap="round" stroke-width="0.1000" stroke="currentColor" x1="0.0500" y1="-0.0000" x2="43.0585" y2="-0.0000"/>
<rect transform="translate(7.2270, 122.9806)" x="25.8724" y="-0.1000" width="2.9430" height="0.2000" ry="0.1000" fill="currentColor"/>
<rect transform="translate(7.2270, 123.9806)" x="25.8724" y="-0.1000" width="2.9430" height="0.2000" ry="0.1000" fill="currentColor"/>
<rect transform="translate(7.2270, 122.9806)" x="15.4275" y="-0.1000" width="1.8967" height="0.2000" ry="0.1000" fill="currentColor"/>
<rect transform="translate(7.2270, 123.9806)" x="15.2581" y="-0.1000" width="2.0660" height="0.2000" ry="0.1000" fill="currentColor"/>
<rect transform="translate(7.2270, 123.9806)" x="4.9928" y="-0.1000" width="2.9430" height="0.2000" ry="0.1000" fill="currentColor"/>
<line transform="translate(72.5235, 24.8331)" stroke-linejoin="round" stroke-linecap="round" stroke-width="0.1000" stroke="currentColor" x1="0.0500" y1="-0.0000" x2="43.0585" y2="-0.0000"/>
<line transform="translate(72.5235, 23.8331)" stroke-linejoin="round" stroke-linecap="round" stroke-width="0.1000" stroke="currentColor" x1="0.0500" y1="-0.0000" x2="43.0585" y2="-0.0000"/>
<line transform="translate(72.5235, 22.8331)" stroke-linejoin="round" stroke-linecap="round" stroke-width="0.1000" stroke="currentColor" x1="0.0500" y1="-0.0000" x2="43.0585" y2="-0.0000"/>
<line transform="translate(72.5235, 21.8331)" stroke-linejoin="round" stroke-linecap="round" stroke-width="0.1000" stroke="currentColor" x1="0.0500" y1="-0.0000" x2="43.0585" y2="-0.0000"/>
<line transform="translate(72.5235, 20.8331)" stroke-linejoin="round" stroke-linecap="round" stroke-width="0.1000" stroke="currentColor" x1="0.0500" y1="-0.0000" x2="43.0585" y2="-0.0000"/>
<line transform="translate(72.5235, 57.3489)" stroke-linejoin="round" stroke-linecap="round" stroke-width="0.1000" stroke="currentColor" x1="0.0500" y1="-0.0000" x2="43.0585" y2="-0.0000"/>
<line transform="translate(72.5235, 57.4489)" stroke-linejoin="round" stroke-linecap="round" stroke-width="0.1000" stroke="currentColor" x1="0.0500" y1="-0.0000" x2="43.0585" y2="-0.0000"/>
<line transform="translate(72.5235, 57.5489)" stroke-linejoin="round" stroke-linecap="round" stroke-width="0.1000" stroke="currentColor" x1="0.0500" y1="-0.0000" x2="43.0585" y2="-0.0000"/>
<line transform="translate(72.5235, 57.6489)" stroke-linejoin="round" stroke-linecap="round" stroke-width="0.1000" stroke="currentColor" x1="0.0500" y1="-0.0000" x2="43.0585" y2="-0.0000"/>
<line transform="translate(72.5235, 57.7489)" stroke-linejoin="round" stroke-linecap="round" stroke-width="0.1000" stroke="currentColor" x1="0.0500" y1="-0.0000" x2="43.0585" y2="-0.0000"/>
<line transform="translate(72.5235, 74.7068)" stroke-linejoin="round" stroke-linecap="round" stroke-width="0.1000" stroke="currentColor" x1="0.0500" y1="-0.0000" x2="43.0585" y2="-0.0000"/>
<line transform="translate(72.5235, 74.8068)" stroke-linejoin="round" stroke-linecap="round" stroke-width="0.1000" stroke="currentColor" x1="0.0500" y1="-0.0000" x2="43.0585" y2="-0.0000"/>
<line transform="translate(72.5235, 74.9068)" stroke-linejoin="round" stroke-linecap="round" stroke-width="0.1000" stroke="currentColor" x1="0.0500" y1="-0.0000" x2="43.0585" y2="-0.0000"/>
<line transform="translate(72.5235, 75.0068)" stroke-linejoin="round" stroke-linecap="round" stroke-width="0.1000" stroke="currentColor" x1="0.0500" y1="-0.0000" x2="43.0585" y2="-0.0000"/>
<line transform="translate(72.5235, 75.1068)" stroke-linejoin="round" stroke-linecap="round" stroke-width="0.1000" stroke="currentColor" x1="0.0500" y1="-0.0000" x2="43.0585" y2="-0.0000"/>
<line transform="translate(72.5235, 92.0647)" stroke-linejoin="round" stroke-linecap="round" stroke-width="0.1000" stroke="currentColor" x1="0.0500" y1="-0.0000" x2="43.0585" y2="-0.0000"/>
<line transform="translate(72.5235, 92.1647)" stroke-linejoin="round" stroke-linecap="round" stroke-width="0.1000" stroke="currentColor" x1="0.0500" y1="-0.0000" x2="43.0585" y2="-0.0000"/>
<line transform="translate(72.5235, 92.2647)" stroke-linejoin="round" stroke-linecap="round" stroke-width="0.1000" stroke="currentColor" x1="0.0500" y1="-0.0000" x2="43.0585" y2="-0.0000"/>
<line transform="translate(72.5235, 92.3647)" stroke-linejoin="round" stroke-linecap="round" stroke-width="0.1000" stroke="currentColor" x1="0.0500" y1="-0.0000" x2="43.0585" y2="-0.0000"/>
<line transform="translate(72.5235, 92.4647)" stroke-linejoin="round" stroke-linecap="round" stroke-width="0.1000" stroke="currentColor" x1="0.0500" y1="-0.0000" x2="43.0585" y2="-0.0000"/>
<line transform="translate(72.5235, 109.4227)" stroke-linejoin="round" stroke-linecap="round" stroke-width="0.1000" stroke="currentColor" x1="0.0500" y1="-0.0000" x2="43.0585" y2="-0.0000"/>
<line transform="translate(72.5235, 109.5227)" stroke-linejoin="round" stroke-linecap="round" stroke-width="0.1000" stroke="currentColor" x1="0.0500" y1="-0.0000" x2="43.0585" y2="-0.0000"/>
<line transform="translate(72.5235, 109.6227)" stroke-linejoin="round" stroke-linecap="round" stroke-width="0.1000" stroke="currentColor" x1="0.0500" y1="-0.0000" x2="43.0585" y2="-0.0000"/>
<line transform="translate(72.5235, 109.7227)" stroke-linejoin="round" stroke-linecap="round" stroke-width="0.1000" stroke="currentColor" x1="0.0500" y1="-0.0000" x2="43.0585" y2="-0.0000"/>
<line transform="translate(72.5235, 109.8227)" stroke-linejoin="round" stroke-linecap="round" stroke-width="0.1000" stroke="currentColor" x1="0.0500" y1="-0.0000" x2="43.0585" y2="-0.0000"/>
<line transform="translate(72.5235, 126.7806)" stroke-linejoin="round" stroke-linecap="round" stroke-width="0.1000" stroke="currentColor" x1="0.0500" y1="-0.0000" x2="43.0585" y2="-0.0000"/>
<line transform="translate(72.5235, 126.8806)" stroke-linejoin="round" stroke-linecap="round" stroke-width="0.1000" stroke="currentColor" x1="0.0500" y1="-0.0000" x2="43.0585" y2="-0.0000"/>
<line transform="translate(72.5235, 126.9806)" stroke-linejoin="round" stroke-linecap="round" stroke-width="0.1000" stroke="currentColor" x1="0.0500" y1="-0.0000" x2="43.0585" y2="-0.0000"/>
<line transform="translate(72.5235, 127.0806)" stroke-linejoin="round" stroke-linecap="round" stroke-width="0.1000" stroke="currentColor" x1="0.0500" y1="-0.0000" x2="43.0585" y2="-0.0000"/>
<line transform="translate(72.5235, 127.1806)" stroke-linejoin="round" stroke-linecap="round" stroke-width="0.1000" stroke="currentColor" x1="0.0500" y1="-0.0000" x2="43.0585" y2="-0.0000"/>
<rect transform="translate(7.2270, 19.8331)" x="94.5444" y="-0.1000" width="2.9430" height="0.2000" ry="0.1000" fill="currentColor"/>
<rect transform="translate(7.2270, 19.8331)" x="76.7845" y="-0.1000" width="2.9430" height="0.2000" ry="0.1000" fill="currentColor"/>
<rect transform="translate(7.2270, 19.8331)" x="69.2511" y="-0.1000" width="2.9430" height="0.2000" ry="0.1000" fill="currentColor"/>
<line transform="translate(53.5066, 126.7806)" stroke-linejoin="round" stroke-linecap="round" stroke-width="0.1000" stroke="currentColor" x1="0.0500" y1="-0.0000" x2="22.3503" y2="-0.0000"/>
<line transform="translate(53.5066, 126.8806)" stroke-linejoin="round" stroke-linecap="round" stroke-width="0.1000" stroke="currentColor" x1="0.0500" y1="-0.0000" x2="22.3503" y2="-0.0000"/>
<line transform="translate(53.5066, 126.9806)" stroke-linejoin="round" stroke-linecap="round" stroke-width="0.1000" stroke="currentColor" x1="0.0500" y1="-0.0000" x2="22.3503" y2="-0.0000"/>
<line transform="translate(53.5066, 127.0806)" stroke-linejoin="round" stroke-linecap="round" stroke-width="0.1000" stroke="currentColor" x1="0.0500" y1="-0.0000" x2="22.3503" y2="-0.0000"/>
<line transform="translate(53.5066, 127.1806)" stroke-linejoin="round" stroke-linecap="round" stroke-width="0.1000" stroke="currentColor" x1="0.0500" y1="-0.0000" x2="22.3503" y2="-0.0000"/>
<line transform="translate(61.0869, 39.9910)" stroke-linejoin="round" stroke-linecap="round" stroke-width="0.1000" stroke="currentColor" x1="0.0500" y1="-0.0000" x2="14.7699" y2="-0.0000"/>
<line transform="translate(61.0869, 40.0910)" stroke-linejoin="round" stroke-linecap="round" stroke-width="0.1000" stroke="currentColor" x1="0.0500" y1="-0.0000" x2="14.7699" y2="-0.0000"/>
<line transform="translate(61.0869, 40.1910)" stroke-linejoin="round" stroke-linecap="round" stroke-width="0.1000" stroke="currentColor" x1="0.0500" y1="-0.0000" x2="14.7699" y2="-0.0000"/>
<line transform="translate(61.0869, 40.2910)" stroke-linejoin="round" stroke-linecap="round" stroke-width="0.1000" stroke="currentColor" x1="0.0500" y1="-0.0000" x2="14.7699" y2="-0.0000"/>
<line transform="translate(61.0869, 40.3910)" stroke-linejoin="round" stroke-linecap="round" stroke-width="0.1000" stroke="currentColor" x1="0.0500" y1="-0.0000" x2="14.7699" y2="-0.0000"/>
<line transform="translate(72.5235, 146.3385)" stroke-linejoin="round" stroke-linecap="round" stroke-width="0.1000" stroke="currentColor" x1="0.0500" y1="-0.0000" x2="19.8313" y2="-0.0000"/>
<line transform="translate(72.5235, 145.3385)" stroke-linejoin="round" stroke-linecap="round" stroke-width="0.1000" stroke="currentColor" x1="0.0500" y1="-0.0000" x2="19.8313" y2="-0.0000"/>
<line transform="translate(72.5235, 144.3385)" stroke-linejoin="round" stroke-linecap="round" stroke-width="0.1000" stroke="currentColor" x1="0.0500" y1="-0.0000" x2="19.8313" y2="-0.0000"/>
<line transform="translate(72.5235, 143.3385)" stroke-linejoin="round" stroke-linecap="round" stroke-width="0.1000" stroke="currentColor" x1="0.0500" y1="-0.0000" x2="19.8313" y2="-0.0000"/>
<line transform="translate(72.5235, 142.3385)" stroke-linejoin="round" stroke-linecap="round" stroke-width="0.1000" stroke="currentColor" x1="0.0500" y1="-0.0000" x2="19.8313" y2="-0.0000"/>
<line transform="translate(7.2270, 42.1910)" stroke-linejoin="round" stroke-linecap="round" stroke-width="0.1000" stroke="currentColor" x1="0.0500" y1="-0.0000" x2="54.5599" y2="-0.0000"/>
<line transform="translate(7.2270, 41.1910)" stroke-linejoin="round" stroke-linecap="round" stroke-width="0.1000" stroke="currentColor" x1="0.0500" y1="-0.0000" x2="54.5599" y2="-0.0000"/>
<line transform="translate(7.2270, 40.1910)" stroke-linejoin="round" stroke-linecap="round" stroke-width="0.1000" stroke="currentColor" x1="0.0500" y1="-0.0000" x2="54.5599" y2="-0.0000"/>
<line transform="translate(7.2270, 39.1910)" stroke-linejoin="round" stroke-linecap="round" stroke-width="0.1000" stroke="currentColor" x1="0.0500" y1="-0.0000" x2="54.5599" y2="-0.0000"/>
<line transform="translate(7.2270, 38.1910)" stroke-linejoin="round" stroke-linecap="round" stroke-width="0.1000" stroke="currentColor" x1="0.0500" y1="-0.0000" x2="54.5599" y2="-0.0000"/>
<line transform="translate(7.2270, 57.3489)" stroke-linejoin="round" stroke-linecap="round" stroke-width="0.1000" stroke="currentColor" x1="0.0500" y1="-0.0000" x2="68.6299" y2="-0.0000"/>
<line transform="translate(7.2270, 57.4489)" stroke-linejoin="round" stroke-linecap="round" stroke-width="0.1000" stroke="currentColor" x1="0.0500" y1="-0.0000" x2="68.6299" y2="-0.0000"/>
<line transform="translate(7.2270, 57.5489)" stroke-linejoin="round" stroke-linecap="round" stroke-width="0.1000" stroke="currentColor" x1="0.0500" y1="-0.0000" x2="68.6299" y2="-0.0000"/>
<line transform="translate(7.2270, 57.6489)" stroke-linejoin="round" stroke-linecap="round" stroke-width="0.1000" stroke="currentColor" x1="0.0500" y1="-0.0000" x2="68.6299" y2="-0.0000"/>
<line transform="translate(7.2270, 57.7489)" stroke-linejoin="round" stroke-linecap="round" stroke-width="0.1000" stroke="currentColor" x1="0.0500" y1="-0.0000" x2="68.6299" y2="-0.0000"/>
<line transform="translate(7.2270, 74.7068)" stroke-linejoin="round" stroke-linecap="round" stroke-width="0.1000" stroke="currentColor" x1="0.0500" y1="-0.0000" x2="68.6299" y2="-0.0000"/>
<line transform="translate(7.2270, 74.8068)" stroke-linejoin="round" stroke-linecap="round" stroke-width="0.1000" stroke="currentColor" x1="0.0500" y1="-0.0000" x2="68.6299" y2="-0.0000"/>
<line transform="translate(7.2270, 74.9068)" stroke-linejoin="round" stroke-linecap="round" stroke-width="0.1000" stroke="currentColor" x1="0.0500" y1="-0.0000" x2="68.6299" y2="-0.0000"/>
<line transform="translate(7.2270, 75.0068)" stroke-linejoin="round" stroke-linecap="round" stroke-width="0.1000" stroke="currentColor" x1="0.0500" y1="-0.0000" x2="68.6299" y2="-0.0000"/>
<line transform="translate(7.2270, 75.1068)" stroke-linejoin="round" stroke-linecap="round" stroke-width="0.1000" stroke="currentColor" x1="0.0500" y1="-0.0000" x2="68.6299" y2="-0.0000"/>
<line transform="translate(7.2270, 92.0647)" stroke-linejoin="round" stroke-linecap="round" stroke-width="0.1000" stroke="currentColor" x1="0.0500" y1="-0.0000" x2="68.6299" y2="-0.0000"/>
<line transform="translate(7.2270, 92.1647)" stroke-linejoin="round" stroke-linecap="round" stroke-width="0.1000" stroke="currentColor" x1="0.0500" y1="-0.0000" x2="68.6299" y2="-0.0000"/>
<line transform="translate(7.2270, 92.2647)" stroke-linejoin="round" stroke-linecap="round" stroke-width="0.1000" stroke="currentColor" x1="0.0500" y1="-0.0000" x2="68.6299" y2="-0.0000"/>
<line transform="translate(7.2270, 92.3647)" stroke-linejoin="round" stroke-linecap="round" stroke-width="0.1000" stroke="currentColor" x1="0.0500" y1="-0.0000" x2="68.6299" y2="-0.0000"/>
<line transform="translate(7.2270, 92.4647)" stroke-linejoin="round" stroke-linecap="round" stroke-width="0.1000" stroke="currentColor" x1="0.0500" y1="-0.0000" x2="68.6299" y2="-0.0000"/>
<line transform="translate(7.2270, 109.4227)" stroke-linejoin="round" stroke-linecap="round" stroke-width="0.1000" stroke="currentColor" x1="0.0500" y1="-0.0000" x2="68.6299" y2="-0.0000"/>
<line transform="translate(7.2270, 109.5227)" stroke-linejoin="round" stroke-linecap="round" stroke-width="0.1000" stroke="currentColor" x1="0.0500" y1="-0.0000" x2="68.6299" y2="-0.0000"/>
<line transform="translate(7.2270, 109.6227)" stroke-linejoin="round" stroke-linecap="round" stroke-width="0.1000" stroke="currentColor" x1="0.0500" y1="-0.0000" x2="68.6299" y2="-0.0000"/>
<line transform="translate(7.2270, 109.7227)" stroke-linejoin="round" stroke-linecap="round" stroke-width="0.1000" stroke="currentColor" x1="0.0500" y1="-0.0000" x2="68.6299" y2="-0.0000"/>
<line transform="translate(7.2270, 109.8227)" stroke-linejoin="round" stroke-linecap="round" stroke-width="0.1000" stroke="currentColor" x1="0.0500" y1="-0.0000" x2="68.6299" y2="-0.0000"/>
<line transform="translate(7.2270, 128.9806)" stroke-linejoin="round" stroke-linecap="round" stroke-width="0.1000" stroke="currentColor" x1="0.0500" y1="-0.0000" x2="48.0696" y2="-0.0000"/>
<line transform="translate(7.2270, 127.9806)" stroke-linejoin="round" stroke-linecap="round" stroke-width="0.1000" stroke="currentColor" x1="0.0500" y1="-0.0000" x2="48.0696" y2="-0.0000"/>
<line transform="translate(7.2270, 126.9806)" stroke-linejoin="round" stroke-linecap="round" stroke-width="0.1000" stroke="currentColor" x1="0.0500" y1="-0.0000" x2="48.0696" y2="-0.0000"/>
<line transform="translate(7.2270, 125.9806)" stroke-linejoin="round" stroke-linecap="round" stroke-width="0.1000" stroke="currentColor" x1="0.0500" y1="-0.0000" x2="48.0696" y2="-0.0000"/>
<line transform="translate(7.2270, 124.9806)" stroke-linejoin="round" stroke-linecap="round" stroke-width="0.1000" stroke="currentColor" x1="0.0500" y1="-0.0000" x2="48.0696" y2="-0.0000"/>
<line transform="translate(115.6320, 76.9068)" stroke-linejoin="round" stroke-linecap="round" stroke-width="0.1000" stroke="currentColor" x1="108.4550" y1="-0.0000" x2="108.3550" y2="-0.0000"/>
<line transform="translate(115.6320, 75.9068)" stroke-linejoin="round" stroke-linecap="round" stroke-width="0.1000" stroke="currentColor" x1="108.4550" y1="-0.0000" x2="108.3550" y2="-0.0000"/>
<line transform="translate(115.6320, 74.9068)" stroke-linejoin="round" stroke-linecap="round" stroke-width="0.1000" stroke="currentColor" x1="108.4550" y1="-0.0000" x2="108.3550" y2="-0.0000"/>
<line transform="translate(115.6320, 73.9068)" stroke-linejoin="round" stroke-linecap="round" stroke-width="0.1000" stroke="currentColor" x1="108.4550" y1="-0.0000" x2="108.3550" y2="-0.0000"/>
<line transform="translate(115.6320, 72.9068)" stroke-linejoin="round" stroke-linecap="round" stroke-width="0.1000" stroke="currentColor" x1="108.4550" y1="-0.0000" x2="108.3550" y2="-0.0000"/>
<line transform="translate(115.6320, 59.5489)" stroke-linejoin="round" stroke-linecap="round" stroke-width="0.1000" stroke="currentColor" x1="108.4550" y1="-0.0000" x2="108.3550" y2="-0.0000"/>
<line transform="translate(115.6320, 58.5489)" stroke-linejoin="round" stroke-linecap="round" stroke-width="0.1000" stroke="currentColor" x1="108.4550" y1="-0.0000" x2="108.3550" y2="-0.0000"/>
<line transform="translate(115.6320, 57.5489)" stroke-linejoin="round" stroke-linecap="round" stroke-width="0.1000" stroke="currentColor" x1="108.4550" y1="-0.0000" x2="108.3550" y2="-0.0000"/>
<line transform="translate(115.6320, 56.5489)" stroke-linejoin="round" stroke-linecap="round" stroke-width="0.1000" stroke="currentColor" x1="108.4550" y1="-0.0000" x2="108.3550" y2="-0.0000"/>
<line transform="translate(115.6320, 55.5489)" stroke-linejoin="round" stroke-linecap="round" stroke-width="0.1000" stroke="currentColor" x1="108.4550" y1="-0.0000" x2="108.3550" y2="-0.0000"/>
<line transform="translate(115.6320, 42.1910)" stroke-linejoin="round" stroke-linecap="round" stroke-width="0.1000" stroke="currentColor" x1="108.4550" y1="-0.0000" x2="108.3550" y2="-0.0000"/>
<line transform="translate(115.6320, 41.1910)" stroke-linejoin="round" stroke-linecap="round" stroke-width="0.1000" stroke="currentColor" x1="108.4550" y1="-0.0000" x2="108.3550" y2="-0.0000"/>
<line transform="translate(115.6320, 40.1910)" stroke-linejoin="round" stroke-linecap="round" stroke-width="0.1000" stroke="currentColor" x1="108.4550" y1="-0.0000" x2="108.3550" y2="-0.0000"/>
<line transform="translate(115.6320, 39.1910)" stroke-linejoin="round" stroke-linecap="round" stroke-width="0.1000" stroke="currentColor" x1="108.4550" y1="-0.0000" x2="108.3550" y2="-0.0000"/>
<line transform="translate(115.6320, 38.1910)" stroke-linejoin="round" stroke-linecap="round" stroke-width="0.1000" stroke="currentColor" x1="108.4550" y1="-0.0000" x2="108.3550" y2="-0.0000"/>
<line transform="translate(115.6320, 94.2647)" stroke-linejoin="round" stroke-linecap="round" stroke-width="0.1000" stroke="currentColor" x1="108.4550" y1="-0.0000" x2="108.3550" y2="-0.0000"/>
<line transform="translate(115.6320, 93.2647)" stroke-linejoin="round" stroke-linecap="round" stroke-width="0.1000" stroke="currentColor" x1="108.4550" y1="-0.0000" x2="108.3550" y2="-0.0000"/>
<line transform="translate(115.6320, 92.2647)" stroke-linejoin="round" stroke-linecap="round" stroke-width="0.1000" stroke="currentColor" x1="108.4550" y1="-0.0000" x2="108.3550" y2="-0.0000"/>
<line transform="translate(115.6320, 91.2647)" stroke-linejoin="round" stroke-linecap="round" stroke-width="0.1000" stroke="currentColor" x1="108.4550" y1="-0.0000" x2="108.3550" y2="-0.0000"/>
<line transform="translate(115.6320, 90.2647)" stroke-linejoin="round" stroke-linecap="round" stroke-width="0.1000" stroke="currentColor" x1="108.4550" y1="-0.0000" x2="108.3550" y2="-0.0000"/>
<line transform="translate(115.6320, 111.6227)" stroke-linejoin="round" stroke-linecap="round" stroke-width="0.1000" stroke="currentColor" x1="108.4550" y1="-0.0000" x2="108.3550" y2="-0.0000"/>
<line transform="translate(115.6320, 110.6227)" stroke-linejoin="round" stroke-linecap="round" stroke-width="0.1000" stroke="currentColor" x1="108.4550" y1="-0.0000" x2="108.3550" y2="-0.0000"/>
<line transform="translate(115.6320, 109.6227)" stroke-linejoin="round" stroke-linecap="round" stroke-width="0.1000" stroke="currentColor" x1="108.4550" y1="-0.0000" x2="108.3550" y2="-0.0000"/>
<line transform="translate(115.6320, 108.6227)" stroke-linejoin="round" stroke-linecap="round" stroke-width="0.1000" stroke="currentColor" x1="108.4550" y1="-0.0000" x2="108.3550" y2="-0.0000"/>
<line transform="translate(115.6320, 107.6227)" stroke-linejoin="round" stroke-linecap="round" stroke-width="0.1000" stroke="currentColor" x1="108.4550" y1="-0.0000" x2="108.3550" y2="-0.0000"/>
<line transform="translate(115.6320, 128.9806)" stroke-linejoin="round" stroke-linecap="round" stroke-width="0.1000" stroke="currentColor" x1="108.4550" y1="-0.0000" x2="108.3550" y2="-0.0000"/>
<line transform="translate(115.6320, 127.9806)" stroke-linejoin="round" stroke-linecap="round" stroke-width="0.1000" stroke="currentColor" x1="108.4550" y1="-0.0000" x2="108.3550" y2="-0.0000"/>
<line transform="translate(115.6320, 126.9806)" stroke-linejoin="round" stroke-linecap="round" stroke-width="0.1000" stroke="currentColor" x1="108.4550" y1="-0.0000" x2="108.3550" y2="-0.0000"/>
<line transform="translate(115.6320, 125.9806)" stroke-linejoin="round" stroke-linecap="round" stroke-width="0.1000" stroke="currentColor" x1="108.4550" y1="-0.0000" x2="108.3550" y2="-0.0000"/>
<line transform="translate(115.6320, 124.9806)" stroke-linejoin="round" stroke-linecap="round" stroke-width="0.1000" stroke="currentColor" x1="108.4550" y1="-0.0000" x2="108.3550" y2="-0.0000"/>
<line transform="translate(101.5619, 146.3385)" stroke-linejoin="round" stroke-linecap="round" stroke-width="0.1000" stroke="currentColor" x1="0.0500" y1="-0.0000" x2="14.0201" y2="-0.0000"/>
<line transform="translate(101.5619, 145.3385)" stroke-linejoin="round" stroke-linecap="round" stroke-width="0.1000" stroke="currentColor" x1="0.0500" y1="-0.0000" x2="14.0201" y2="-0.0000"/>
<line transform="translate(101.5619, 144.3385)" stroke-linejoin="round" stroke-linecap="round" stroke-width="0.1000" stroke="currentColor" x1="0.0500" y1="-0.0000" x2="14.0201" y2="-0.0000"/>
<line transform="translate(101.5619, 143.3385)" stroke-linejoin="round" stroke-linecap="round" stroke-width="0.1000" stroke="currentColor" x1="0.0500" y1="-0.0000" x2="14.0201" y2="-0.0000"/>
<line transform="translate(101.5619, 142.3385)" stroke-linejoin="round" stroke-linecap="round" stroke-width="0.1000" stroke="currentColor" x1="0.0500" y1="-0.0000" x2="14.0201" y2="-0.0000"/>
<line transform="translate(76.9686, 15.6829)" stroke-linejoin="round" stroke-linecap="round" stroke-width="0.1000" stroke="currentColor" x1="0.0000" y1="0.0000" x2="9.4954" y2="0.6666"/>
<line transform="translate(76.9686, 15.6829)" stroke-linejoin="round" stroke-linecap="round" stroke-width="0.1000" stroke="currentColor" x1="0.0000" y1="-0.0000" x2="9.4954" y2="-0.6666"/>
<circle transform="translate(67.3984, 19.0026)" stroke-linejoin="round" stroke-linecap="round" fill="none" stroke="currentColor" stroke-width="0.1000" r="0.3500"/>
<line transform="translate(61.2158, 19.0026)" stroke-linejoin="round" stroke-linecap="round" stroke-width="0.1000" stroke="currentColor" x1="0.0000" y1="0.6666" x2="5.7826" y2="0.0000"/>
<line transform="translate(61.2158, 19.0026)" stroke-linejoin="round" stroke-linecap="round" stroke-width="0.1000" stroke="currentColor" x1="0.0000" y1="-0.6666" x2="5.7826" y2="-0.0000"/>
<line transform="translate(56.7417, 36.8244)" stroke-linejoin="round" stroke-linecap="round" stroke-width="0.1000" stroke="currentColor" x1="0.0000" y1="0.6666" x2="3.1756" y2="0.0000"/>
<line transform="translate(56.7417, 36.8244)" stroke-linejoin="round" stroke-linecap="round" stroke-width="0.1000" stroke="currentColor" x1="0.0000" y1="-0.6666" x2="3.1756" y2="-0.0000"/>
<circle transform="translate(62.7198, 140.5081)" stroke-linejoin="round" stroke-linecap="round" fill="none" stroke="currentColor" stroke-width="0.1000" r="0.3500"/>
<line transform="translate(52.1119, 140.5081)" stroke-linejoin="round" stroke-linecap="round" stroke-width="0.1000" stroke="currentColor" x1="0.0000" y1="0.6666" x2="10.2080" y2="0.0000"/>
<line transform="translate(52.1119, 140.5081)" stroke-linejoin="round" stroke-linecap="round" stroke-width="0.1000" stroke="currentColor" x1="0.0000" y1="-0.6666" x2="10.2080" y2="-0.0000"/>
<rect transform="translate(96.8322, 78.3129)" x="-0.3245" y="-0.1000" width="2.1513" height="0.1000" ry="0.0000" fill="currentColor"/>
<rect transform="translate(96.8322, 76.3982)" x="-0.3245" y="-0.1000" width="2.1513" height="0.1000" ry="0.0000" fill="currentColor"/>
<rect transform="translate(96.5077, 77.9543)" x="0" y="-1.5561" width="0.1000" height="1.8147" ry="0.0000" fill="currentColor"/>
<rect transform="translate(98.5590, 77.9543)" x="0" y="-1.5561" width="0.1000" height="1.8147" ry="0.0000" fill="currentColor"/>
<text transform="translate(96.8322, 77.9543)" font-family="serif" font-size="2.4696" text-anchor="start" fill="currentColor">
<tspan>o</tspan>
</text>
<text transform="translate(102.2015, 130.0280)" font-family="serif" font-style="italic" font-size="2.4696" text-anchor="start" fill="currentColor">
<tspan>→</tspan>
</text>
<text transform="translate(102.2015, 112.6701)" font-family="serif" font-style="italic" font-size="2.4696" text-anchor="start" fill="currentColor">
<tspan>→</tspan>
</text>
<text transform="translate(102.2015, 95.3122)" font-family="serif" font-style="italic" font-size="2.4696" text-anchor="start" fill="currentColor">
<tspan>→</tspan>
</text>
<path transform="translate(76.9686, 22.8331)" stroke-width="0.0800" stroke-linejoin="round" stroke-linecap="round" stroke="currentColor" fill="currentColor" d="M1.1810 -3.7500C2.2510 -4.6433 7.2444 -4.6433 8.3144 -3.7500L8.3144 -3.7500C7.2444 -4.5233 2.2510 -4.5233 1.1810 -3.7500z"/>
<text transform="translate(102.2015, 77.9543)" font-family="serif" font-style="italic" font-size="2.4696" text-anchor="start" fill="currentColor">
<tspan>→</tspan>
</text>
<text transform="translate(102.2015, 60.5963)" font-family="serif" font-style="italic" font-size="2.4696" text-anchor="start" fill="currentColor">
<tspan>→</tspan>
</text>
<text transform="translate(102.2015, 45.6910)" font-family="serif" font-style="italic" font-size="2.4696" text-anchor="start" fill="currentColor">
<tspan>→</tspan>
</text>
<text transform="translate(102.2015, 28.9029)" font-family="serif" font-style="italic" font-size="2.4696" text-anchor="start" fill="currentColor">
<tspan>→</tspan>
</text>
<path transform="translate(102.2619, 19.8331) scale(0.0040, -0.0040)" d="M213 112c-50 0 -69 -43 -69 -88c0 -77 57 -136 134 -136c50 0 69 43 69 88c0 77 -57 136 -134 136zM491 0c0 -43 -34 -75 -72 -96c-53 -29 -114 -40 -174 -40s-120 11 -173 40c-38 21 -72 53 -72 96s34 75 72 96c53 29 113 40 173 40s121 -11 174 -40
c38 -21 72 -53 72 -96z" fill="currentColor"/>
<rect transform="translate(96.8322, 130.3867)" x="-0.3245" y="-0.1000" width="2.1513" height="0.1000" ry="0.0000" fill="currentColor"/>
<rect transform="translate(96.8322, 128.4720)" x="-0.3245" y="-0.1000" width="2.1513" height="0.1000" ry="0.0000" fill="currentColor"/>
<rect transform="translate(96.5077, 130.0280)" x="0" y="-1.5561" width="0.1000" height="1.8147" ry="0.0000" fill="currentColor"/>
<rect transform="translate(98.5590, 130.0280)" x="0" y="-1.5561" width="0.1000" height="1.8147" ry="0.0000" fill="currentColor"/>
<text transform="translate(96.8322, 130.0280)" font-family="serif" font-size="2.4696" text-anchor="start" fill="currentColor">
<tspan>o</tspan>
</text>
<rect transform="translate(96.8322, 113.0287)" x="-0.3245" y="-0.1000" width="2.1513" height="0.1000" ry="0.0000" fill="currentColor"/>
<rect transform="translate(96.8322, 111.1140)" x="-0.3245" y="-0.1000" width="2.1513" height="0.1000" ry="0.0000" fill="currentColor"/>
<rect transform="translate(96.5077, 112.6701)" x="0" y="-1.5561" width="0.1000" height="1.8147" ry="0.0000" fill="currentColor"/>
<rect transform="translate(98.5590, 112.6701)" x="0" y="-1.5561" width="0.1000" height="1.8147" ry="0.0000" fill="currentColor"/>
<text transform="translate(96.8322, 112.6701)" font-family="serif" font-size="2.4696" text-anchor="start" fill="currentColor">
<tspan>o</tspan>
</text>
<rect transform="translate(96.8322, 95.6708)" x="-0.3245" y="-0.1000" width="2.1513" height="0.1000" ry="0.0000" fill="currentColor"/>
<rect transform="translate(96.8322, 93.7561)" x="-0.3245" y="-0.1000" width="2.1513" height="0.1000" ry="0.0000" fill="currentColor"/>
<rect transform="translate(96.5077, 95.3122)" x="0" y="-1.5561" width="0.1000" height="1.8147" ry="0.0000" fill="currentColor"/>
<rect transform="translate(98.5590, 95.3122)" x="0" y="-1.5561" width="0.1000" height="1.8147" ry="0.0000" fill="currentColor"/>
<text transform="translate(96.8322, 95.3122)" font-family="serif" font-size="2.4696" text-anchor="start" fill="currentColor">
<tspan>o</tspan>
</text>
<rect transform="translate(96.8322, 60.9550)" x="-0.3245" y="-0.1000" width="2.1513" height="0.1000" ry="0.0000" fill="currentColor"/>
<rect transform="translate(96.8322, 59.0403)" x="-0.3245" y="-0.1000" width="2.1513" height="0.1000" ry="0.0000" fill="currentColor"/>
<rect transform="translate(96.5077, 60.5963)" x="0" y="-1.5561" width="0.1000" height="1.8147" ry="0.0000" fill="currentColor"/>
<rect transform="translate(98.5590, 60.5963)" x="0" y="-1.5561" width="0.1000" height="1.8147" ry="0.0000" fill="currentColor"/>
<text transform="translate(96.8322, 60.5963)" font-family="serif" font-size="2.4696" text-anchor="start" fill="currentColor">
<tspan>o</tspan>
</text>
<rect transform="translate(96.8322, 46.0496)" x="-0.3245" y="-0.1000" width="2.1513" height="0.1000" ry="0.0000" fill="currentColor"/>
<rect transform="translate(96.8322, 44.1349)" x="-0.3245" y="-0.1000" width="2.1513" height="0.1000" ry="0.0000" fill="currentColor"/>
<rect transform="translate(96.5077, 45.6910)" x="0" y="-1.5561" width="0.1000" height="1.8147" ry="0.0000" fill="currentColor"/>
<rect transform="translate(98.5590, 45.6910)" x="0" y="-1.5561" width="0.1000" height="1.8147" ry="0.0000" fill="currentColor"/>
<text transform="translate(96.8322, 45.6910)" font-family="serif" font-size="2.4696" text-anchor="start" fill="currentColor">
<tspan>o</tspan>
</text>
<line transform="translate(76.9686, 139.3620)" stroke-linejoin="round" stroke-linecap="round" stroke-width="0.1000" stroke="currentColor" x1="0.0000" y1="0.0000" x2="9.4954" y2="0.6666"/>
<line transform="translate(76.9686, 139.3620)" stroke-linejoin="round" stroke-linecap="round" stroke-width="0.1000" stroke="currentColor" x1="0.0000" y1="-0.0000" x2="9.4954" y2="-0.6666"/>
<path transform="translate(84.5020, 146.3385) scale(0.0040, -0.0040)" d="M213 112c-50 0 -69 -43 -69 -88c0 -77 57 -136 134 -136c50 0 69 43 69 88c0 77 -57 136 -134 136zM491 0c0 -43 -34 -75 -72 -96c-53 -29 -114 -40 -174 -40s-120 11 -173 40c-38 21 -72 53 -72 96s34 75 72 96c53 29 113 40 173 40s121 -11 174 -40
c38 -21 72 -53 72 -96z" fill="currentColor"/>
<path transform="translate(85.4830, 18.3594) scale(0.0040, -0.0040)" d="M-67 67c0 37 30 66 67 66s67 -29 67 -66s-30 -67 -67 -67s-67 30 -67 67zM-302 375h605c6 0 10 -4 10 -10v-346c0 -10 -9 -19 -19 -19s-19 9 -19 19v256h-550v-256c0 -10 -9 -19 -19 -19s-18 9 -18 19v346c0 6 4 10 10 10z" fill="currentColor"/>
<path transform="translate(84.5020, 19.8331) scale(0.0040, -0.0040)" d="M213 112c-50 0 -69 -43 -69 -88c0 -77 57 -136 134 -136c50 0 69 43 69 88c0 77 -57 136 -134 136zM491 0c0 -43 -34 -75 -72 -96c-53 -29 -114 -40 -174 -40s-120 11 -173 40c-38 21 -72 53 -72 96s34 75 72 96c53 29 113 40 173 40s121 -11 174 -40
c38 -21 72 -53 72 -96z" fill="currentColor"/>
<path transform="translate(85.4830, 142.0385) scale(0.0040, -0.0040)" d="M-67 67c0 37 30 66 67 66s67 -29 67 -66s-30 -67 -67 -67s-67 30 -67 67zM-302 375h605c6 0 10 -4 10 -10v-346c0 -10 -9 -19 -19 -19s-19 9 -19 19v256h-550v-256c0 -10 -9 -19 -19 -19s-18 9 -18 19v346c0 6 4 10 10 10z" fill="currentColor"/>
<circle transform="translate(46.7619, 36.8244)" stroke-linejoin="round" stroke-linecap="round" fill="none" stroke="currentColor" stroke-width="0.1000" r="0.3500"/>
<line transform="translate(33.5899, 36.8244)" stroke-linejoin="round" stroke-linecap="round" stroke-width="0.1000" stroke="currentColor" x1="0.0000" y1="0.6666" x2="12.7720" y2="0.0000"/>
<line transform="translate(33.5899, 36.8244)" stroke-linejoin="round" stroke-linecap="round" stroke-width="0.1000" stroke="currentColor" x1="0.0000" y1="-0.6666" x2="12.7720" y2="-0.0000"/>
<circle transform="translate(34.1149, 140.5081)" stroke-linejoin="round" stroke-linecap="round" fill="none" stroke="currentColor" stroke-width="0.1000" r="0.3500"/>
<line transform="translate(33.8149, 140.5081)" stroke-linejoin="round" stroke-linecap="round" stroke-width="0.1000" stroke="currentColor" x1="0.6999" y1="0.0000" x2="13.3607" y2="0.6666"/>
<line transform="translate(33.8149, 140.5081)" stroke-linejoin="round" stroke-linecap="round" stroke-width="0.1000" stroke="currentColor" x1="0.6999" y1="-0.0000" x2="13.3607" y2="-0.6666"/>
<circle transform="translate(34.5709, 120.5972)" stroke-linejoin="round" stroke-linecap="round" fill="none" stroke="currentColor" stroke-width="0.1000" r="0.3500"/>
<line transform="translate(34.2709, 120.5972)" stroke-linejoin="round" stroke-linecap="round" stroke-width="0.1000" stroke="currentColor" x1="0.6999" y1="0.0000" x2="12.1576" y2="0.6666"/>
<line transform="translate(34.2709, 120.5972)" stroke-linejoin="round" stroke-linecap="round" stroke-width="0.1000" stroke="currentColor" x1="0.6999" y1="-0.0000" x2="12.1576" y2="-0.6666"/>
<path transform="translate(22.8295, 126.9806)" stroke-width="0.0800" stroke-linejoin="round" stroke-linecap="round" stroke="currentColor" fill="currentColor" d="M0.8887 -4.7500C2.1529 -5.6970 10.2772 -5.6970 11.5415 -4.7500L11.5415 -4.7500C10.2772 -5.5770 2.1529 -5.5770 0.8887 -4.7500z"/>
<circle transform="translate(51.2752, 120.5972)" stroke-linejoin="round" stroke-linecap="round" fill="none" stroke="currentColor" stroke-width="0.1000" r="0.3500"/>
<line transform="translate(47.0952, 120.5972)" stroke-linejoin="round" stroke-linecap="round" stroke-width="0.1000" stroke="currentColor" x1="0.0000" y1="0.6666" x2="3.7800" y2="0.0000"/>
<line transform="translate(47.0952, 120.5972)" stroke-linejoin="round" stroke-linecap="round" stroke-width="0.1000" stroke="currentColor" x1="0.0000" y1="-0.6666" x2="3.7800" y2="-0.0000"/>
<circle transform="translate(46.7619, 36.8244)" stroke-linejoin="round" stroke-linecap="round" fill="none" stroke="currentColor" stroke-width="0.1000" r="0.3500"/>
<line transform="translate(46.4619, 36.8244)" stroke-linejoin="round" stroke-linecap="round" stroke-width="0.1000" stroke="currentColor" x1="0.6999" y1="0.0000" x2="9.6131" y2="0.6666"/>
<line transform="translate(46.4619, 36.8244)" stroke-linejoin="round" stroke-linecap="round" stroke-width="0.1000" stroke="currentColor" x1="0.6999" y1="-0.0000" x2="9.6131" y2="-0.6666"/>
<circle transform="translate(46.3059, 19.0026)" stroke-linejoin="round" stroke-linecap="round" fill="none" stroke="currentColor" stroke-width="0.1000" r="0.3500"/>
<line transform="translate(46.0059, 19.0026)" stroke-linejoin="round" stroke-linecap="round" stroke-width="0.1000" stroke="currentColor" x1="0.6999" y1="0.0000" x2="10.2736" y2="0.6666"/>
<line transform="translate(46.0059, 19.0026)" stroke-linejoin="round" stroke-linecap="round" stroke-width="0.1000" stroke="currentColor" x1="0.6999" y1="-0.0000" x2="10.2736" y2="-0.6666"/>
<text transform="translate(91.8634, 130.0280)" font-family="serif" font-style="italic" font-size="2.4696" text-anchor="start" fill="currentColor">
<tspan>→</tspan>
</text>
<text transform="translate(91.8634, 112.6701)" font-family="serif" font-style="italic" font-size="2.4696" text-anchor="start" fill="currentColor">
<tspan>→</tspan>
</text>
<text transform="translate(91.8634, 95.3122)" font-family="serif" font-style="italic" font-size="2.4696" text-anchor="start" fill="currentColor">
<tspan>→</tspan>
</text>
<text transform="translate(91.8634, 77.9543)" font-family="serif" font-style="italic" font-size="2.4696" text-anchor="start" fill="currentColor">
<tspan>→</tspan>
</text>
<text transform="translate(91.8634, 60.5963)" font-family="serif" font-style="italic" font-size="2.4696" text-anchor="start" fill="currentColor">
<tspan>→</tspan>
</text>
<text transform="translate(91.8634, 45.6910)" font-family="serif" font-style="italic" font-size="2.4696" text-anchor="start" fill="currentColor">
<tspan>→</tspan>
</text>
<line transform="translate(102.2619, 125.4141)" stroke-linejoin="round" stroke-linecap="round" stroke-width="0.1000" stroke="currentColor" x1="0.0000" y1="0.0000" x2="8.6800" y2="0.6666"/>
<line transform="translate(102.2619, 125.4141)" stroke-linejoin="round" stroke-linecap="round" stroke-width="0.1000" stroke="currentColor" x1="0.0000" y1="-0.0000" x2="8.6800" y2="-0.6666"/>
<line transform="translate(102.2619, 90.6983)" stroke-linejoin="round" stroke-linecap="round" stroke-width="0.1000" stroke="currentColor" x1="0.0000" y1="0.0000" x2="8.6800" y2="0.6666"/>
<line transform="translate(102.2619, 90.6983)" stroke-linejoin="round" stroke-linecap="round" stroke-width="0.1000" stroke="currentColor" x1="0.0000" y1="-0.0000" x2="8.6800" y2="-0.6666"/>
<line transform="translate(102.2619, 108.0562)" stroke-linejoin="round" stroke-linecap="round" stroke-width="0.1000" stroke="currentColor" x1="0.0000" y1="0.0000" x2="8.6800" y2="0.6666"/>
<line transform="translate(102.2619, 108.0562)" stroke-linejoin="round" stroke-linecap="round" stroke-width="0.1000" stroke="currentColor" x1="0.0000" y1="-0.0000" x2="8.6800" y2="-0.6666"/>
<line transform="translate(102.2619, 73.3404)" stroke-linejoin="round" stroke-linecap="round" stroke-width="0.1000" stroke="currentColor" x1="0.0000" y1="0.0000" x2="8.6800" y2="0.6666"/>
<line transform="translate(102.2619, 73.3404)" stroke-linejoin="round" stroke-linecap="round" stroke-width="0.1000" stroke="currentColor" x1="0.0000" y1="-0.0000" x2="8.6800" y2="-0.6666"/>
<circle transform="translate(102.5619, 140.9721)" stroke-linejoin="round" stroke-linecap="round" fill="none" stroke="currentColor" stroke-width="0.1000" r="0.3500"/>
<line transform="translate(102.2619, 140.9721)" stroke-linejoin="round" stroke-linecap="round" stroke-width="0.1000" stroke="currentColor" x1="0.6999" y1="0.0000" x2="8.6800" y2="0.6666"/>
<line transform="translate(102.2619, 140.9721)" stroke-linejoin="round" stroke-linecap="round" stroke-width="0.1000" stroke="currentColor" x1="0.6999" y1="-0.0000" x2="8.6800" y2="-0.6666"/>
<line transform="translate(102.2619, 55.9824)" stroke-linejoin="round" stroke-linecap="round" stroke-width="0.1000" stroke="currentColor" x1="0.0000" y1="0.0000" x2="8.6800" y2="0.6666"/>
<line transform="translate(102.2619, 55.9824)" stroke-linejoin="round" stroke-linecap="round" stroke-width="0.1000" stroke="currentColor" x1="0.0000" y1="-0.0000" x2="8.6800" y2="-0.6666"/>
<line transform="translate(102.2619, 38.6245)" stroke-linejoin="round" stroke-linecap="round" stroke-width="0.1000" stroke="currentColor" x1="0.0000" y1="0.0000" x2="8.6800" y2="0.6666"/>
<line transform="translate(102.2619, 38.6245)" stroke-linejoin="round" stroke-linecap="round" stroke-width="0.1000" stroke="currentColor" x1="0.0000" y1="-0.0000" x2="8.6800" y2="-0.6666"/>
<circle transform="translate(102.5619, 18.3398)" stroke-linejoin="round" stroke-linecap="round" fill="none" stroke="currentColor" stroke-width="0.1000" r="0.3500"/>
<line transform="translate(102.2619, 18.3398)" stroke-linejoin="round" stroke-linecap="round" stroke-width="0.1000" stroke="currentColor" x1="0.6999" y1="0.0000" x2="8.6800" y2="0.6666"/>
<line transform="translate(102.2619, 18.3398)" stroke-linejoin="round" stroke-linecap="round" stroke-width="0.1000" stroke="currentColor" x1="0.6999" y1="-0.0000" x2="8.6800" y2="-0.6666"/>
<rect transform="translate(113.9356, 10.4500)" x="-0.0650" y="3.3139" width="0.1300" height="0.0000" ry="0.0000" fill="currentColor"/>
<path transform="translate(76.9686, 144.3385)" stroke-width="0.0800" stroke-linejoin="round" stroke-linecap="round" stroke="currentColor" fill="currentColor" d="M1.1810 2.7500C2.2510 3.6433 7.2444 3.6433 8.3144 2.7500L8.3144 2.7500C7.2444 3.5233 2.2510 3.5233 1.1810 2.7500z"/>
<text transform="translate(102.2015, 150.4084)" font-family="serif" font-style="italic" font-size="2.4696" text-anchor="start" fill="currentColor">
<tspan>→</tspan>
</text>
<rect transform="translate(107.3145, 150.7670)" x="-0.3245" y="-0.1000" width="2.1171" height="0.1000" ry="0.0000" fill="currentColor"/>
<rect transform="translate(107.3145, 148.8523)" x="-0.3245" y="-0.1000" width="2.1171" height="0.1000" ry="0.0000" fill="currentColor"/>
<rect transform="translate(106.9900, 150.4084)" x="0" y="-1.5561" width="0.1000" height="1.8147" ry="0.0000" fill="currentColor"/>
<rect transform="translate(109.0071, 150.4084)" x="0" y="-1.5561" width="0.1000" height="1.8147" ry="0.0000" fill="currentColor"/>
<text transform="translate(107.3145, 150.4084)" font-family="serif" font-size="2.4696" text-anchor="start" fill="currentColor">
<tspan>a</tspan>
</text>
<rect transform="translate(107.3145, 130.3867)" x="-0.3245" y="-0.1000" width="2.1171" height="0.1000" ry="0.0000" fill="currentColor"/>
<rect transform="translate(107.3145, 128.4720)" x="-0.3245" y="-0.1000" width="2.1171" height="0.1000" ry="0.0000" fill="currentColor"/>
<rect transform="translate(106.9900, 130.0280)" x="0" y="-1.5561" width="0.1000" height="1.8147" ry="0.0000" fill="currentColor"/>
<rect transform="translate(109.0071, 130.0280)" x="0" y="-1.5561" width="0.1000" height="1.8147" ry="0.0000" fill="currentColor"/>
<text transform="translate(107.3145, 130.0280)" font-family="serif" font-size="2.4696" text-anchor="start" fill="currentColor">
<tspan>a</tspan>
</text>
<rect transform="translate(107.3145, 113.0287)" x="-0.3245" y="-0.1000" width="2.1171" height="0.1000" ry="0.0000" fill="currentColor"/>
<rect transform="translate(107.3145, 111.1140)" x="-0.3245" y="-0.1000" width="2.1171" height="0.1000" ry="0.0000" fill="currentColor"/>
<rect transform="translate(106.9900, 112.6701)" x="0" y="-1.5561" width="0.1000" height="1.8147" ry="0.0000" fill="currentColor"/>
<rect transform="translate(109.0071, 112.6701)" x="0" y="-1.5561" width="0.1000" height="1.8147" ry="0.0000" fill="currentColor"/>
<text transform="translate(107.3145, 112.6701)" font-family="serif" font-size="2.4696" text-anchor="start" fill="currentColor">
<tspan>a</tspan>
</text>
<rect transform="translate(107.3145, 95.6708)" x="-0.3245" y="-0.1000" width="2.1171" height="0.1000" ry="0.0000" fill="currentColor"/>
<rect transform="translate(107.3145, 93.7561)" x="-0.3245" y="-0.1000" width="2.1171" height="0.1000" ry="0.0000" fill="currentColor"/>
<rect transform="translate(106.9900, 95.3122)" x="0" y="-1.5561" width="0.1000" height="1.8147" ry="0.0000" fill="currentColor"/>
<rect transform="translate(109.0071, 95.3122)" x="0" y="-1.5561" width="0.1000" height="1.8147" ry="0.0000" fill="currentColor"/>
<text transform="translate(107.3145, 95.3122)" font-family="serif" font-size="2.4696" text-anchor="start" fill="currentColor">
<tspan>a</tspan>
</text>
<circle transform="translate(34.5709, 120.5972)" stroke-linejoin="round" stroke-linecap="round" fill="none" stroke="currentColor" stroke-width="0.1000" r="0.3500"/>
<line transform="translate(22.8295, 120.5972)" stroke-linejoin="round" stroke-linecap="round" stroke-width="0.1000" stroke="currentColor" x1="0.0000" y1="0.6666" x2="11.3415" y2="0.0000"/>
<line transform="translate(22.8295, 120.5972)" stroke-linejoin="round" stroke-linecap="round" stroke-width="0.1000" stroke="currentColor" x1="0.0000" y1="-0.6666" x2="11.3415" y2="-0.0000"/>
<rect transform="translate(107.3145, 78.3129)" x="-0.3245" y="-0.1000" width="2.1171" height="0.1000" ry="0.0000" fill="currentColor"/>
<rect transform="translate(107.3145, 76.3982)" x="-0.3245" y="-0.1000" width="2.1171" height="0.1000" ry="0.0000" fill="currentColor"/>
<rect transform="translate(106.9900, 77.9543)" x="0" y="-1.5561" width="0.1000" height="1.8147" ry="0.0000" fill="currentColor"/>
<rect transform="translate(109.0071, 77.9543)" x="0" y="-1.5561" width="0.1000" height="1.8147" ry="0.0000" fill="currentColor"/>
<text transform="translate(107.3145, 77.9543)" font-family="serif" font-size="2.4696" text-anchor="start" fill="currentColor">
<tspan>a</tspan>
</text>
<rect transform="translate(107.3145, 60.9550)" x="-0.3245" y="-0.1000" width="2.1171" height="0.1000" ry="0.0000" fill="currentColor"/>
<rect transform="translate(107.3145, 59.0403)" x="-0.3245" y="-0.1000" width="2.1171" height="0.1000" ry="0.0000" fill="currentColor"/>
<rect transform="translate(106.9900, 60.5963)" x="0" y="-1.5561" width="0.1000" height="1.8147" ry="0.0000" fill="currentColor"/>
<rect transform="translate(109.0071, 60.5963)" x="0" y="-1.5561" width="0.1000" height="1.8147" ry="0.0000" fill="currentColor"/>
<text transform="translate(107.3145, 60.5963)" font-family="serif" font-size="2.4696" text-anchor="start" fill="currentColor">
<tspan>a</tspan>
</text>
<rect transform="translate(107.3145, 46.0496)" x="-0.3245" y="-0.1000" width="2.1171" height="0.1000" ry="0.0000" fill="currentColor"/>
<rect transform="translate(107.3145, 44.1349)" x="-0.3245" y="-0.1000" width="2.1171" height="0.1000" ry="0.0000" fill="currentColor"/>
<rect transform="translate(106.9900, 45.6910)" x="0" y="-1.5561" width="0.1000" height="1.8147" ry="0.0000" fill="currentColor"/>
<rect transform="translate(109.0071, 45.6910)" x="0" y="-1.5561" width="0.1000" height="1.8147" ry="0.0000" fill="currentColor"/>
<text transform="translate(107.3145, 45.6910)" font-family="serif" font-size="2.4696" text-anchor="start" fill="currentColor">
<tspan>a</tspan>
</text>
<rect transform="translate(107.3145, 29.2615)" x="-0.3245" y="-0.1000" width="2.1171" height="0.1000" ry="0.0000" fill="currentColor"/>
<rect transform="translate(107.3145, 27.3468)" x="-0.3245" y="-0.1000" width="2.1171" height="0.1000" ry="0.0000" fill="currentColor"/>
<rect transform="translate(106.9900, 28.9029)" x="0" y="-1.5561" width="0.1000" height="1.8147" ry="0.0000" fill="currentColor"/>
<rect transform="translate(109.0071, 28.9029)" x="0" y="-1.5561" width="0.1000" height="1.8147" ry="0.0000" fill="currentColor"/>
<text transform="translate(107.3145, 28.9029)" font-family="serif" font-size="2.4696" text-anchor="start" fill="currentColor">
<tspan>a</tspan>
</text>
<path transform="translate(102.2619, 146.3385) scale(0.0040, -0.0040)" d="M213 112c-50 0 -69 -43 -69 -88c0 -77 57 -136 134 -136c50 0 69 43 69 88c0 77 -57 136 -134 136zM491 0c0 -43 -34 -75 -72 -96c-53 -29 -114 -40 -174 -40s-120 11 -173 40c-38 21 -72 53 -72 96s34 75 72 96c53 29 113 40 173 40s121 -11 174 -40
c38 -21 72 -53 72 -96z" fill="currentColor"/>
<path transform="translate(21.6795, 42.1910) scale(0.0040, -0.0040)" d="M27 41l-1 -66v-11c0 -22 1 -44 4 -66c45 38 93 80 93 139c0 33 -14 67 -43 67c-31 0 -52 -30 -53 -63zM-15 -138l-12 595c8 5 18 8 27 8s19 -3 27 -8l-7 -345c25 21 58 34 91 34c52 0 89 -48 89 -102c0 -80 -86 -117 -147 -169c-15 -13 -24 -38 -45 -38
c-13 0 -23 11 -23 25z" fill="currentColor"/>
<path transform="translate(22.8295, 42.1910) scale(0.0040, -0.0040)" d="M213 112c-50 0 -69 -43 -69 -88c0 -77 57 -136 134 -136c50 0 69 43 69 88c0 77 -57 136 -134 136zM491 0c0 -43 -34 -75 -72 -96c-53 -29 -114 -40 -174 -40s-120 11 -173 40c-38 21 -72 53 -72 96s34 75 72 96c53 29 113 40 173 40s121 -11 174 -40
c38 -21 72 -53 72 -96z" fill="currentColor"/>
<path transform="translate(22.8295, 122.9806) scale(0.0040, -0.0040)" d="M314 65c0 24 -21 41 -42 41c-4 0 -8 0 -12 -1c-31 -9 -78 -40 -115 -64s-84 -53 -104 -78c-7 -8 -10 -18 -10 -28c0 -24 21 -41 42 -41c4 0 8 0 12 1c31 9 77 40 114 64s84 53 104 78c7 8 11 18 11 28zM262 136c46 0 82 -21 82 -71c0 -19 -4 -39 -10 -57
c-12 -37 -32 -72 -64 -94c-53 -36 -113 -50 -187 -50c-46 0 -83 21 -83 71c0 19 5 39 11 57c12 37 31 72 63 94c53 36 114 50 188 50z" fill="currentColor"/>
<path transform="translate(33.5899, 122.9806) scale(0.0040, -0.0040)" d="M213 112c-50 0 -69 -43 -69 -88c0 -77 57 -136 134 -136c50 0 69 43 69 88c0 77 -57 136 -134 136zM491 0c0 -43 -34 -75 -72 -96c-53 -29 -114 -40 -174 -40s-120 11 -173 40c-38 21 -72 53 -72 96s34 75 72 96c53 29 113 40 173 40s121 -11 174 -40
c38 -21 72 -53 72 -96z" fill="currentColor"/>
<path transform="translate(34.5649, 144.3385)" stroke-width="0.1000" stroke-linejoin="round" stroke-linecap="round" stroke="currentColor" fill="currentColor" d="M-0.6000 -0.5200L-0.6000 0.5000L0.6000 0.5000L0.6000 -0.5200L-0.6000 -0.5200L-0.5300 -0.3500L0.5300 -0.4900L0.5300 0.3300L-0.5300 0.4700L-0.5300 -0.3500z"/>
<rect transform="translate(33.1369, 150.7670)" x="-0.3245" y="-0.1000" width="3.5170" height="0.1000" ry="0.0000" fill="currentColor"/>
<rect transform="translate(33.1369, 148.2718)" x="-0.3245" y="-0.1000" width="3.5170" height="0.1000" ry="0.0000" fill="currentColor"/>
<rect transform="translate(32.8124, 150.4084)" x="0" y="-2.1365" width="0.1000" height="2.3952" ry="0.0000" fill="currentColor"/>
<rect transform="translate(36.2294, 150.4084)" x="0" y="-2.1365" width="0.1000" height="2.3952" ry="0.0000" fill="currentColor"/>
<text transform="translate(33.1369, 150.4084)" font-family="serif" font-size="2.4696" text-anchor="start" fill="currentColor">
<tspan>sh</tspan>
</text>
<rect transform="translate(22.8945, 126.9806)" x="-0.0650" y="-3.7410" width="0.1300" height="3.7410" ry="0.0400" fill="currentColor"/>
<path transform="translate(12.7103, 123.4806) scale(0.0040, -0.0040)" d="M213 112c-50 0 -69 -43 -69 -88c0 -77 57 -136 134 -136c50 0 69 43 69 88c0 77 -57 136 -134 136zM491 0c0 -43 -34 -75 -72 -96c-53 -29 -114 -40 -174 -40s-120 11 -173 40c-38 21 -72 53 -72 96s34 75 72 96c53 29 113 40 173 40s121 -11 174 -40
c38 -21 72 -53 72 -96z" fill="currentColor"/>
<path transform="translate(21.6795, 122.9806) scale(0.0040, -0.0040)" d="M27 41l-1 -66v-11c0 -22 1 -44 4 -66c45 38 93 80 93 139c0 33 -14 67 -43 67c-31 0 -52 -30 -53 -63zM-15 -138l-12 595c8 5 18 8 27 8s19 -3 27 -8l-7 -345c25 21 58 34 91 34c52 0 89 -48 89 -102c0 -80 -86 -117 -147 -169c-15 -13 -24 -38 -45 -38
c-13 0 -23 11 -23 25z" fill="currentColor"/>
<text transform="translate(5.1623, 127.7830)" font-family="serif" font-size="2.2001" text-anchor="start" fill="currentColor">
<tspan>B</tspan>
</text>
<text transform="translate(5.1623, 145.1409)" font-family="serif" font-size="2.2001" text-anchor="start" fill="currentColor">
<tspan>B</tspan>
</text>
<rect transform="translate(7.1670, 83.5858)" x="0.0000" y="-62.8027" width="0.1600" height="125.6055" ry="0.0500" fill="currentColor"/>
<text transform="translate(5.2647, 23.6354)" font-family="serif" font-size="2.2001" text-anchor="start" fill="currentColor">
<tspan>S</tspan>
</text>
<text transform="translate(5.2647, 40.9933)" font-family="serif" font-size="2.2001" text-anchor="start" fill="currentColor">
<tspan>S</tspan>
</text>
<text transform="translate(5.1623, 58.3513)" font-family="serif" font-size="2.2001" text-anchor="start" fill="currentColor">
<tspan>A</tspan>
</text>
<path transform="translate(8.0270, 41.1910) scale(0.0040, -0.0040)" d="M376 262c4 0 9 1 13 1c155 0 256 -128 256 -261c0 -76 -33 -154 -107 -210c-22 -17 -47 -28 -73 -36c3 -35 5 -70 5 -105c0 -19 -1 -39 -2 -58c-7 -120 -90 -228 -208 -228c-108 0 -195 88 -195 197c0 58 53 103 112 103c54 0 95 -47 95 -103c0 -52 -43 -95 -95 -95
c-11 0 -21 2 -31 6c26 -39 68 -65 117 -65c96 0 157 92 163 191c1 18 2 37 2 55c0 31 -1 61 -4 92c-29 -5 -58 -8 -89 -8c-188 0 -333 172 -333 374c0 177 131 306 248 441c-19 62 -37 125 -45 190c-6 52 -7 104 -7 156c0 115 55 224 149 292c3 2 7 3 10 3c4 0 7 0 10 -3
c71 -84 133 -245 133 -358c0 -143 -86 -255 -180 -364c21 -68 39 -138 56 -207zM461 -203c68 24 113 95 113 164c0 90 -66 179 -173 190c24 -116 46 -231 60 -354zM74 28c0 -135 129 -247 264 -247c28 0 55 2 82 6c-14 127 -37 245 -63 364c-79 -8 -124 -61 -124 -119
c0 -44 25 -91 81 -123c5 -5 7 -10 7 -15c0 -11 -10 -22 -22 -22c-3 0 -6 1 -9 2c-80 43 -117 115 -117 185c0 88 58 174 160 197c-14 58 -29 117 -46 175c-107 -121 -213 -243 -213 -403zM408 1045c-99 -48 -162 -149 -162 -259c0 -74 18 -133 36 -194
c80 97 146 198 146 324c0 55 -4 79 -20 129z" fill="currentColor"/>
<text transform="translate(5.1623, 75.7092)" font-family="serif" font-size="2.2001" text-anchor="start" fill="currentColor">
<tspan>A</tspan>
</text>
<text transform="translate(5.2988, 93.0671)" font-family="serif" font-size="2.2001" text-anchor="start" fill="currentColor">
<tspan>T</tspan>
</text>
<text transform="translate(5.2988, 110.4250)" font-family="serif" font-size="2.2001" text-anchor="start" fill="currentColor">
<tspan>T</tspan>
</text>
<path transform="translate(8.0270, 110.6227) scale(0.0040, -0.0040)" d="M376 262c4 0 9 1 13 1c155 0 256 -128 256 -261c0 -76 -33 -154 -107 -210c-22 -17 -47 -28 -73 -36c3 -35 5 -70 5 -105c0 -19 -1 -39 -2 -58c-7 -120 -90 -228 -208 -228c-108 0 -195 88 -195 197c0 58 53 103 112 103c54 0 95 -47 95 -103c0 -52 -43 -95 -95 -95
c-11 0 -21 2 -31 6c26 -39 68 -65 117 -65c96 0 157 92 163 191c1 18 2 37 2 55c0 31 -1 61 -4 92c-29 -5 -58 -8 -89 -8c-188 0 -333 172 -333 374c0 177 131 306 248 441c-19 62 -37 125 -45 190c-6 52 -7 104 -7 156c0 115 55 224 149 292c3 2 7 3 10 3c4 0 7 0 10 -3
c71 -84 133 -245 133 -358c0 -143 -86 -255 -180 -364c21 -68 39 -138 56 -207zM461 -203c68 24 113 95 113 164c0 90 -66 179 -173 190c24 -116 46 -231 60 -354zM74 28c0 -135 129 -247 264 -247c28 0 55 2 82 6c-14 127 -37 245 -63 364c-79 -8 -124 -61 -124 -119
c0 -44 25 -91 81 -123c5 -5 7 -10 7 -15c0 -11 -10 -22 -22 -22c-3 0 -6 1 -9 2c-80 43 -117 115 -117 185c0 88 58 174 160 197c-14 58 -29 117 -46 175c-107 -121 -213 -243 -213 -403zM408 1045c-99 -48 -162 -149 -162 -259c0 -74 18 -133 36 -194
c80 97 146 198 146 324c0 55 -4 79 -20 129z" fill="currentColor"/>
<text transform="translate(8.6091, 114.2211)" font-family="serif" font-style="italic" font-size="1.3860" text-anchor="start" fill="currentColor">
<tspan>8</tspan>
</text>
<path transform="translate(8.0270, 143.3385) scale(0.0040, -0.0040)" d="M557 -125c0 28 23 51 51 51s51 -23 51 -51s-23 -51 -51 -51s-51 23 -51 51zM557 125c0 28 23 51 51 51s51 -23 51 -51s-23 -51 -51 -51s-51 23 -51 51zM232 263c172 0 293 -88 293 -251c0 -263 -263 -414 -516 -521c-3 -3 -6 -4 -9 -4c-7 0 -13 6 -13 13c0 3 1 6 4 9
c202 118 412 265 412 493c0 120 -63 235 -171 235c-74 0 -129 -54 -154 -126c11 5 22 8 34 8c55 0 100 -45 100 -100c0 -58 -44 -106 -100 -106c-60 0 -112 47 -112 106c0 133 102 244 232 244z" fill="currentColor"/>
<text transform="translate(8.6091, 96.8632)" font-family="serif" font-style="italic" font-size="1.3860" text-anchor="start" fill="currentColor">
<tspan>8</tspan>
</text>
<path transform="translate(12.7103, 42.6910) scale(0.0040, -0.0040)" d="M213 112c-50 0 -69 -43 -69 -88c0 -77 57 -136 134 -136c50 0 69 43 69 88c0 77 -57 136 -134 136zM491 0c0 -43 -34 -75 -72 -96c-53 -29 -114 -40 -174 -40s-120 11 -173 40c-38 21 -72 53 -72 96s34 75 72 96c53 29 113 40 173 40s121 -11 174 -40
c38 -21 72 -53 72 -96z" fill="currentColor"/>
<path transform="translate(8.0270, 125.9806) scale(0.0040, -0.0040)" d="M557 -125c0 28 23 51 51 51s51 -23 51 -51s-23 -51 -51 -51s-51 23 -51 51zM557 125c0 28 23 51 51 51s51 -23 51 -51s-23 -51 -51 -51s-51 23 -51 51zM232 263c172 0 293 -88 293 -251c0 -263 -263 -414 -516 -521c-3 -3 -6 -4 -9 -4c-7 0 -13 6 -13 13c0 3 1 6 4 9
c202 118 412 265 412 493c0 120 -63 235 -171 235c-74 0 -129 -54 -154 -126c11 5 22 8 34 8c55 0 100 -45 100 -100c0 -58 -44 -106 -100 -106c-60 0 -112 47 -112 106c0 133 102 244 232 244z" fill="currentColor"/>
<path transform="translate(8.0270, 23.8331) scale(0.0040, -0.0040)" d="M376 262c4 0 9 1 13 1c155 0 256 -128 256 -261c0 -76 -33 -154 -107 -210c-22 -17 -47 -28 -73 -36c3 -35 5 -70 5 -105c0 -19 -1 -39 -2 -58c-7 -120 -90 -228 -208 -228c-108 0 -195 88 -195 197c0 58 53 103 112 103c54 0 95 -47 95 -103c0 -52 -43 -95 -95 -95
c-11 0 -21 2 -31 6c26 -39 68 -65 117 -65c96 0 157 92 163 191c1 18 2 37 2 55c0 31 -1 61 -4 92c-29 -5 -58 -8 -89 -8c-188 0 -333 172 -333 374c0 177 131 306 248 441c-19 62 -37 125 -45 190c-6 52 -7 104 -7 156c0 115 55 224 149 292c3 2 7 3 10 3c4 0 7 0 10 -3
c71 -84 133 -245 133 -358c0 -143 -86 -255 -180 -364c21 -68 39 -138 56 -207zM461 -203c68 24 113 95 113 164c0 90 -66 179 -173 190c24 -116 46 -231 60 -354zM74 28c0 -135 129 -247 264 -247c28 0 55 2 82 6c-14 127 -37 245 -63 364c-79 -8 -124 -61 -124 -119
c0 -44 25 -91 81 -123c5 -5 7 -10 7 -15c0 -11 -10 -22 -22 -22c-3 0 -6 1 -9 2c-80 43 -117 115 -117 185c0 88 58 174 160 197c-14 58 -29 117 -46 175c-107 -121 -213 -243 -213 -403zM408 1045c-99 -48 -162 -149 -162 -259c0 -74 18 -133 36 -194
c80 97 146 198 146 324c0 55 -4 79 -20 129z" fill="currentColor"/>
<path transform="translate(8.0270, 93.2647) scale(0.0040, -0.0040)" d="M376 262c4 0 9 1 13 1c155 0 256 -128 256 -261c0 -76 -33 -154 -107 -210c-22 -17 -47 -28 -73 -36c3 -35 5 -70 5 -105c0 -19 -1 -39 -2 -58c-7 -120 -90 -228 -208 -228c-108 0 -195 88 -195 197c0 58 53 103 112 103c54 0 95 -47 95 -103c0 -52 -43 -95 -95 -95
c-11 0 -21 2 -31 6c26 -39 68 -65 117 -65c96 0 157 92 163 191c1 18 2 37 2 55c0 31 -1 61 -4 92c-29 -5 -58 -8 -89 -8c-188 0 -333 172 -333 374c0 177 131 306 248 441c-19 62 -37 125 -45 190c-6 52 -7 104 -7 156c0 115 55 224 149 292c3 2 7 3 10 3c4 0 7 0 10 -3
c71 -84 133 -245 133 -358c0 -143 -86 -255 -180 -364c21 -68 39 -138 56 -207zM461 -203c68 24 113 95 113 164c0 90 -66 179 -173 190c24 -116 46 -231 60 -354zM74 28c0 -135 129 -247 264 -247c28 0 55 2 82 6c-14 127 -37 245 -63 364c-79 -8 -124 -61 -124 -119
c0 -44 25 -91 81 -123c5 -5 7 -10 7 -15c0 -11 -10 -22 -22 -22c-3 0 -6 1 -9 2c-80 43 -117 115 -117 185c0 88 58 174 160 197c-14 58 -29 117 -46 175c-107 -121 -213 -243 -213 -403zM408 1045c-99 -48 -162 -149 -162 -259c0 -74 18 -133 36 -194
c80 97 146 198 146 324c0 55 -4 79 -20 129z" fill="currentColor"/>
<g transform="translate(57.2795, 19.6026)" >
<path transform="scale(0.0040, -0.0040)" d="M233 243c-56 0 -102 -107 -102 -173c0 -22 8 -38 30 -38c64 0 97 126 97 178c0 18 -7 33 -25 33zM112 -146c-38 0 -78 5 -116 5c-39 0 -78 -5 -115 -5c-9 0 -14 7 -14 14c0 18 31 15 48 16c22 1 47 5 54 25l102 300c2 7 4 14 4 20c0 8 -2 14 -11 14
c-33 0 -63 -60 -79 -97c-5 -12 -15 -17 -24 -17c-8 0 -14 4 -14 12c0 2 1 5 2 8c30 68 72 143 132 143c35 0 59 -21 66 -52c29 31 67 52 103 52c69 0 107 -49 107 -114c0 -21 -4 -44 -12 -67c-20 -58 -91 -119 -147 -119c-27 0 -52 5 -73 17c-4 2 -7 3 -11 3
c-7 0 -14 -3 -16 -9l-29 -86c-1 -2 -1 -5 -1 -7c0 -20 21 -26 44 -28c9 -1 13 -8 13 -14c0 -7 -4 -14 -13 -14z" fill="currentColor"/>

<path transform="translate(1.4682, 0.0000) scale(0.0040, -0.0040)" d="M233 243c-56 0 -102 -107 -102 -173c0 -22 8 -38 30 -38c64 0 97 126 97 178c0 18 -7 33 -25 33zM112 -146c-38 0 -78 5 -116 5c-39 0 -78 -5 -115 -5c-9 0 -14 7 -14 14c0 18 31 15 48 16c22 1 47 5 54 25l102 300c2 7 4 14 4 20c0 8 -2 14 -11 14
c-33 0 -63 -60 -79 -97c-5 -12 -15 -17 -24 -17c-8 0 -14 4 -14 12c0 2 1 5 2 8c30 68 72 143 132 143c35 0 59 -21 66 -52c29 31 67 52 103 52c69 0 107 -49 107 -114c0 -21 -4 -44 -12 -67c-20 -58 -91 -119 -147 -119c-27 0 -52 5 -73 17c-4 2 -7 3 -11 3
c-7 0 -14 -3 -16 -9l-29 -86c-1 -2 -1 -5 -1 -7c0 -20 21 -26 44 -28c9 -1 13 -8 13 -14c0 -7 -4 -14 -13 -14z" fill="currentColor"/>
</g>
<path transform="translate(72.5235, 143.3385) scale(0.0040, -0.0040)" d="M557 -125c0 28 23 51 51 51s51 -23 51 -51s-23 -51 -51 -51s-51 23 -51 51zM557 125c0 28 23 51 51 51s51 -23 51 -51s-23 -51 -51 -51s-51 23 -51 51zM232 263c172 0 293 -88 293 -251c0 -263 -263 -414 -516 -521c-3 -3 -6 -4 -9 -4c-7 0 -13 6 -13 13c0 3 1 6 4 9
c202 118 412 265 412 493c0 120 -63 235 -171 235c-74 0 -129 -54 -154 -126c11 5 22 8 34 8c55 0 100 -45 100 -100c0 -58 -44 -106 -100 -106c-60 0 -112 47 -112 106c0 133 102 244 232 244z" fill="currentColor"/>
<rect transform="translate(76.0205, 150.7670)" x="-0.3245" y="-0.1000" width="4.5072" height="0.1000" ry="0.0000" fill="currentColor"/>
<rect transform="translate(76.0205, 148.8181)" x="-0.3245" y="-0.1000" width="4.5072" height="0.1000" ry="0.0000" fill="currentColor"/>
<rect transform="translate(75.6960, 150.4084)" x="0" y="-1.5902" width="0.1000" height="1.8489" ry="0.0000" fill="currentColor"/>
<rect transform="translate(80.1032, 150.4084)" x="0" y="-1.5902" width="0.1000" height="1.8489" ry="0.0000" fill="currentColor"/>
<text transform="translate(76.0205, 150.4084)" font-family="serif" font-size="2.4696" text-anchor="start" fill="currentColor">
<tspan>om</tspan>
</text>
<path transform="translate(76.9686, 146.3385) scale(0.0040, -0.0040)" d="M213 112c-50 0 -69 -43 -69 -88c0 -77 57 -136 134 -136c50 0 69 43 69 88c0 77 -57 136 -134 136zM491 0c0 -43 -34 -75 -72 -96c-53 -29 -114 -40 -174 -40s-120 11 -173 40c-38 21 -72 53 -72 96s34 75 72 96c53 29 113 40 173 40s121 -11 174 -40
c38 -21 72 -53 72 -96z" fill="currentColor"/>
<rect transform="translate(73.0313, 10.4500)" x="-0.0650" y="3.3139" width="0.1300" height="0.0000" ry="0.0000" fill="currentColor"/>
<path transform="translate(76.9686, 19.8331) scale(0.0040, -0.0040)" d="M213 112c-50 0 -69 -43 -69 -88c0 -77 57 -136 134 -136c50 0 69 43 69 88c0 77 -57 136 -134 136zM491 0c0 -43 -34 -75 -72 -96c-53 -29 -114 -40 -174 -40s-120 11 -173 40c-38 21 -72 53 -72 96s34 75 72 96c53 29 113 40 173 40s121 -11 174 -40
c38 -21 72 -53 72 -96z" fill="currentColor"/>
<path transform="translate(72.5235, 23.8331) scale(0.0040, -0.0040)" d="M376 262c4 0 9 1 13 1c155 0 256 -128 256 -261c0 -76 -33 -154 -107 -210c-22 -17 -47 -28 -73 -36c3 -35 5 -70 5 -105c0 -19 -1 -39 -2 -58c-7 -120 -90 -228 -208 -228c-108 0 -195 88 -195 197c0 58 53 103 112 103c54 0 95 -47 95 -103c0 -52 -43 -95 -95 -95
c-11 0 -21 2 -31 6c26 -39 68 -65 117 -65c96 0 157 92 163 191c1 18 2 37 2 55c0 31 -1 61 -4 92c-29 -5 -58 -8 -89 -8c-188 0 -333 172 -333 374c0 177 131 306 248 441c-19 62 -37 125 -45 190c-6 52 -7 104 -7 156c0 115 55 224 149 292c3 2 7 3 10 3c4 0 7 0 10 -3
c71 -84 133 -245 133 -358c0 -143 -86 -255 -180 -364c21 -68 39 -138 56 -207zM461 -203c68 24 113 95 113 164c0 90 -66 179 -173 190c24 -116 46 -231 60 -354zM74 28c0 -135 129 -247 264 -247c28 0 55 2 82 6c-14 127 -37 245 -63 364c-79 -8 -124 -61 -124 -119
c0 -44 25 -91 81 -123c5 -5 7 -10 7 -15c0 -11 -10 -22 -22 -22c-3 0 -6 1 -9 2c-80 43 -117 115 -117 185c0 88 58 174 160 197c-14 58 -29 117 -46 175c-107 -121 -213 -243 -213 -403zM408 1045c-99 -48 -162 -149 -162 -259c0 -74 18 -133 36 -194
c80 97 146 198 146 324c0 55 -4 79 -20 129z" fill="currentColor"/>
<rect transform="translate(76.0205, 29.2615)" x="-0.3245" y="-0.1000" width="4.5072" height="0.1000" ry="0.0000" fill="currentColor"/>
<rect transform="translate(76.0205, 27.3127)" x="-0.3245" y="-0.1000" width="4.5072" height="0.1000" ry="0.0000" fill="currentColor"/>
<rect transform="translate(75.6960, 28.9029)" x="0" y="-1.5902" width="0.1000" height="1.8489" ry="0.0000" fill="currentColor"/>
<rect transform="translate(80.1032, 28.9029)" x="0" y="-1.5902" width="0.1000" height="1.8489" ry="0.0000" fill="currentColor"/>
<text transform="translate(76.0205, 28.9029)" font-family="serif" font-size="2.4696" text-anchor="start" fill="currentColor">
<tspan>om</tspan>
</text>
<path transform="translate(44.6309, 42.1910) scale(0.0040, -0.0040)" d="M27 41l-1 -66v-11c0 -22 1 -44 4 -66c45 38 93 80 93 139c0 33 -14 67 -43 67c-31 0 -52 -30 -53 -63zM-15 -138l-12 595c8 5 18 8 27 8s19 -3 27 -8l-7 -345c25 21 58 34 91 34c52 0 89 -48 89 -102c0 -80 -86 -117 -147 -169c-15 -13 -24 -38 -45 -38
c-13 0 -23 11 -23 25z" fill="currentColor"/>
<path transform="translate(45.7809, 42.1910) scale(0.0040, -0.0040)" d="M213 112c-50 0 -69 -43 -69 -88c0 -77 57 -136 134 -136c50 0 69 43 69 88c0 77 -57 136 -134 136zM491 0c0 -43 -34 -75 -72 -96c-53 -29 -114 -40 -174 -40s-120 11 -173 40c-38 21 -72 53 -72 96s34 75 72 96c53 29 113 40 173 40s121 -11 174 -40
c38 -21 72 -53 72 -96z" fill="currentColor"/>
<path transform="translate(46.7559, 22.8331)" stroke-width="0.1000" stroke-linejoin="round" stroke-linecap="round" stroke="currentColor" fill="currentColor" d="M-0.6000 -0.5200L-0.6000 0.5000L0.6000 0.5000L0.6000 -0.5200L-0.6000 -0.5200L-0.5300 -0.3500L0.5300 -0.4900L0.5300 0.3300L-0.5300 0.4700L-0.5300 -0.3500z"/>
<rect transform="translate(45.3279, 29.2615)" x="-0.3245" y="-0.1000" width="3.5170" height="0.1000" ry="0.0000" fill="currentColor"/>
<rect transform="translate(45.3279, 26.7664)" x="-0.3245" y="-0.1000" width="3.5170" height="0.1000" ry="0.0000" fill="currentColor"/>
<rect transform="translate(45.0034, 28.9029)" x="0" y="-2.1365" width="0.1000" height="2.3952" ry="0.0000" fill="currentColor"/>
<rect transform="translate(48.4204, 28.9029)" x="0" y="-2.1365" width="0.1000" height="2.3952" ry="0.0000" fill="currentColor"/>
<text transform="translate(45.3279, 28.9029)" font-family="serif" font-size="2.4696" text-anchor="start" fill="currentColor">
<tspan>sh</tspan>
</text>
<g transform="translate(48.1756, 141.1081)" >
<path transform="scale(0.0040, -0.0040)" d="M233 243c-56 0 -102 -107 -102 -173c0 -22 8 -38 30 -38c64 0 97 126 97 178c0 18 -7 33 -25 33zM112 -146c-38 0 -78 5 -116 5c-39 0 -78 -5 -115 -5c-9 0 -14 7 -14 14c0 18 31 15 48 16c22 1 47 5 54 25l102 300c2 7 4 14 4 20c0 8 -2 14 -11 14
c-33 0 -63 -60 -79 -97c-5 -12 -15 -17 -24 -17c-8 0 -14 4 -14 12c0 2 1 5 2 8c30 68 72 143 132 143c35 0 59 -21 66 -52c29 31 67 52 103 52c69 0 107 -49 107 -114c0 -21 -4 -44 -12 -67c-20 -58 -91 -119 -147 -119c-27 0 -52 5 -73 17c-4 2 -7 3 -11 3
c-7 0 -14 -3 -16 -9l-29 -86c-1 -2 -1 -5 -1 -7c0 -20 21 -26 44 -28c9 -1 13 -8 13 -14c0 -7 -4 -14 -13 -14z" fill="currentColor"/>

<path transform="translate(1.4682, 0.0000) scale(0.0040, -0.0040)" d="M233 243c-56 0 -102 -107 -102 -173c0 -22 8 -38 30 -38c64 0 97 126 97 178c0 18 -7 33 -25 33zM112 -146c-38 0 -78 5 -116 5c-39 0 -78 -5 -115 -5c-9 0 -14 7 -14 14c0 18 31 15 48 16c22 1 47 5 54 25l102 300c2 7 4 14 4 20c0 8 -2 14 -11 14
c-33 0 -63 -60 -79 -97c-5 -12 -15 -17 -24 -17c-8 0 -14 4 -14 12c0 2 1 5 2 8c30 68 72 143 132 143c35 0 59 -21 66 -52c29 31 67 52 103 52c69 0 107 -49 107 -114c0 -21 -4 -44 -12 -67c-20 -58 -91 -119 -147 -119c-27 0 -52 5 -73 17c-4 2 -7 3 -11 3
c-7 0 -14 -3 -16 -9l-29 -86c-1 -2 -1 -5 -1 -7c0 -20 21 -26 44 -28c9 -1 13 -8 13 -14c0 -7 -4 -14 -13 -14z" fill="currentColor"/>
</g>
</svg>
